<?xml version="1.0" encoding="UTF-8" standalone="no"?>
<svg
   xmlns:dc="http://purl.org/dc/elements/1.1/"
   xmlns:cc="http://creativecommons.org/ns#"
   xmlns:rdf="http://www.w3.org/1999/02/22-rdf-syntax-ns#"
   xmlns:svg="http://www.w3.org/2000/svg"
   xmlns="http://www.w3.org/2000/svg"
   xmlns:sodipodi="http://sodipodi.sourceforge.net/DTD/sodipodi-0.dtd"
   xmlns:inkscape="http://www.inkscape.org/namespaces/inkscape"
   version="1.1"
   id="svg1113"
   sodipodi:docname="bananas.svg"
   width="50"
   height="50"
   inkscape:version="0.92.2 5c3e80d, 2017-08-06">
  <metadata
     id="metadata1119">
    <rdf:RDF>
      <cc:Work
         rdf:about="">
        <dc:format>image/svg+xml</dc:format>
        <dc:type
           rdf:resource="http://purl.org/dc/dcmitype/StillImage" />
        <dc:title></dc:title>
      </cc:Work>
    </rdf:RDF>
  </metadata>
  <defs
     id="defs1117" />
  <sodipodi:namedview
     pagecolor="#ffffff"
     bordercolor="#666666"
     borderopacity="1"
     objecttolerance="10"
     gridtolerance="10"
     guidetolerance="10"
     inkscape:pageopacity="0"
     inkscape:pageshadow="2"
     inkscape:window-width="1447"
     inkscape:window-height="832"
     id="namedview1115"
     showgrid="false"
     inkscape:showpageshadow="false"
     fit-margin-top="0"
     fit-margin-left="0"
     fit-margin-right="0"
     fit-margin-bottom="0"
     inkscape:zoom="12.38"
     inkscape:cx="25"
     inkscape:cy="24.999999"
     inkscape:window-x="0"
     inkscape:window-y="0"
     inkscape:window-maximized="0"
     inkscape:current-layer="svg1113" />
  <g
     id="g1111"
     style="fill:#8c8c8c"
     transform="matrix(0.09765449,0,0,0.10273615,5.0833711e-5,-4.0131309e-4)">
    <path
       d="m 465.04297,64.316406 c -4.84375,-7.347656 -3.76563,-17.273437 2.54687,-23.585937 l 3.0625,-3.054688 c 6.17969,-6.179687 7.69141,-15.574219 3.79297,-23.367187 l -1.55859,-3.113282 C 469.42969,4.289062 462.49219,0.00390625 454.77344,0.00390625 h -63.35547 c -6.27734,0 -12.09766,2.83984375 -15.95313,7.78515575 -3.86718,4.945313 -5.20312,11.277344 -3.6875,17.367188 l 4.42969,17.730469 c 0.56641,2.257812 1.50781,4.386719 2.79688,6.320312 l 15.33984,23.023438 c 0.45703,1.386719 0.83984,2.753906 1.26953,4.132812 C 362.97266,140.16406 301.21484,177.24609 211.86719,186.49219 143.79297,193.52734 78.527344,181.20703 61.433594,175.66016 L 49.636719,163.17969 c -5.117188,-5.41016 -13.597657,-5.90625 -19.304688,-1.11328 L 3.621094,184.48437 c -2.574219,2.16407 -3.917969,5.46485 -3.5664065,8.8086 0.3515625,3.35547 2.3203125,6.30859 5.3046875,7.90625 l 26.351563,14.125 c 3.105468,1.67187 5.953124,3.99609 8.933593,7.46094 0.761719,0.89843 1.53125,1.79687 2.308594,2.65234 48.671875,53.42187 118.804685,82.71094 187.292965,82.71094 32.17969,0 64.00782,-6.46875 93.0625,-19.94532 C 338.82813,281 352.77344,274.1875 365.33203,267.17187 294.15625,362.26172 154.41797,405.23828 136.80859,410.19922 l -14.43359,-4.8086 c -9.04297,-3.01953 -18.89062,1.5586 -22.421875,10.39454 L 91.34375,437.3125 c -2.222656,5.55078 -1.546875,11.83203 1.804688,16.78516 3.363281,4.96484 8.933592,7.91406 14.921872,7.91406 l 26.5586,0.14844 c 24.58984,15.72265 58.82031,24.52734 96.59375,24.52734 54.61718,0 116.61328,-18.42188 167.33203,-60.91797 C 475.52344,361.27734 513.67187,288.13672 511.95313,208.37109 510.55859,142.85156 481.95703,89.992188 465.04297,64.316406 Z M 145.03125,238.69141 c -1.15625,3.65234 -4.52734,5.98828 -8.16016,5.98828 -0.85547,0 -1.72265,-0.12891 -2.57812,-0.40235 -11.80469,-3.72265 -23.65625,-8.33203 -35.23047,-13.69531 -4.289062,-1.98437 -6.152344,-7.07812 -4.160156,-11.36328 1.996094,-4.28516 7.078126,-6.15234 11.363286,-4.15625 10.91015,5.0625 22.07421,9.40234 33.17187,12.89844 4.51562,1.42187 7.01562,6.22265 5.59375,10.73047 z m 119.73828,193.58203 c -1.02734,0.40234 -2.08984,0.59765 -3.13281,0.59765 -3.41406,0 -6.63672,-2.0625 -7.96484,-5.43359 -1.72657,-4.39453 0.4375,-9.36719 4.83593,-11.08594 200.54297,-78.79687 186.59766,-234.23047 186.4375,-235.79687 -0.49609,-4.69532 2.90625,-8.90625 7.61328,-9.40235 4.71485,-0.41797 8.91407,2.91797 9.41016,7.61328 0.17187,1.6875 15.32422,169.9961 -197.19922,253.50782 z m 0,0"
       id="path1109"
       inkscape:connector-curvature="0" />
  </g>
</svg>
