<?xml version="1.0" encoding="UTF-8" standalone="no"?>
<svg
   xmlns:dc="http://purl.org/dc/elements/1.1/"
   xmlns:cc="http://creativecommons.org/ns#"
   xmlns:rdf="http://www.w3.org/1999/02/22-rdf-syntax-ns#"
   xmlns:svg="http://www.w3.org/2000/svg"
   xmlns="http://www.w3.org/2000/svg"
   xmlns:sodipodi="http://sodipodi.sourceforge.net/DTD/sodipodi-0.dtd"
   xmlns:inkscape="http://www.inkscape.org/namespaces/inkscape"
   version="1.1"
   id="svg122"
   sodipodi:docname="cabbage.svg"
   width="50"
   height="50"
   inkscape:version="0.92.2 5c3e80d, 2017-08-06">
  <metadata
     id="metadata128">
    <rdf:RDF>
      <cc:Work
         rdf:about="">
        <dc:format>image/svg+xml</dc:format>
        <dc:type
           rdf:resource="http://purl.org/dc/dcmitype/StillImage" />
        <dc:title></dc:title>
      </cc:Work>
    </rdf:RDF>
  </metadata>
  <defs
     id="defs126" />
  <sodipodi:namedview
     pagecolor="#ffffff"
     bordercolor="#666666"
     borderopacity="1"
     objecttolerance="10"
     gridtolerance="10"
     guidetolerance="10"
     inkscape:pageopacity="0"
     inkscape:pageshadow="2"
     inkscape:window-width="1446"
     inkscape:window-height="843"
     id="namedview124"
     showgrid="false"
     inkscape:showpageshadow="false"
     fit-margin-top="0"
     fit-margin-left="0"
     fit-margin-right="0"
     fit-margin-bottom="0"
     inkscape:zoom="12.6"
     inkscape:cx="24.999999"
     inkscape:cy="37.698413"
     inkscape:window-x="0"
     inkscape:window-y="0"
     inkscape:window-maximized="0"
     inkscape:current-layer="svg122" />
  <g
     id="g120"
     style="fill:#8c8c8c"
     transform="matrix(0.09765963,0,0,0.11837822,0,-0.05826434)">
    <path
       d="m 312.63672,53.066406 c 14.94531,19.597656 22.66406,43.355469 22.66406,71.183594 0,60.24609 -34.14844,82.83984 -64.27734,102.77734 -15.53125,10.27344 -30.27735,20.15235 -40.66016,34.48047 21.20703,6.05078 44.08594,5.61719 65.21485,-2.04687 l 34.49218,-12.51172 c 16.73438,-6.06641 34.97657,-8.49219 52.65625,-7.02344 l 22.73047,1.89063 c 6.14063,-6.11329 13.87891,-11.98829 24.10547,-17.12891 0.0391,-1.09375 0.10937,-2.17578 0.10937,-3.27734 C 429.68359,144.42578 380.89844,78.75 312.63672,53.066406 Z m 0,0"
       id="path106"
       inkscape:connector-curvature="0" />
    <path
       d="M 221.80078,43.566406 C 199.96094,46.988281 178.69141,54.460938 159.65234,65.359375 128.75781,83.046875 103.46875,110 87.652344,141.86328 c -1.359375,2.73828 -2.773438,5.4375 -3.996094,8.25391 -0.695312,1.60547 -1.246094,3.27734 -1.898438,4.91015 16.917969,-14.87109 39.722658,-26.38281 66.015628,-32.94531 11.0039,-16.49609 28.8125,-30.808592 51.6914,-40.777342 4.64453,-2.03125 10.0625,0.101562 12.08203,4.753906 2.01954,4.644531 -0.10156,10.0625 -4.75781,12.082031 -11.73828,5.113285 -21.90234,11.640625 -30.21094,18.957035 7.01563,-0.70703 14.12891,-1.19532 21.41797,-1.19532 1.44141,-0.082 46.69141,-2.18359 79.21485,14.04688 4.53515,2.26562 6.3789,7.77734 4.11328,12.30859 -2.25781,4.54688 -7.77735,6.38281 -12.3125,4.11328 -28.16406,-14.05468 -70.14453,-12.14453 -70.5586,-12.125 -13.53906,0 -26.57421,1.33985 -38.83203,3.80078 -1.77734,3.40625 -3.30468,6.84766 -4.25781,10.34375 -3.16797,11.71485 -1.12891,22.9961 5.92188,32.64454 2.99218,4.09375 2.10156,9.83203 -2,12.82421 -1.63672,1.19532 -3.52735,1.76563 -5.41016,1.76563 -2.83594,0 -5.625,-1.30469 -7.42578,-3.76563 -10.21875,-13.99218 -13.35547,-30.97265 -8.89453,-47.88281 -37.20703,12.69531 -63.601565,36.61719 -68.070315,64.66406 -0.02734,0.41407 -0.06641,0.82813 -0.09375,1.23829 -0.15625,2.48046 -0.320313,4.95703 -0.382813,7.46484 h 48.093748 c 24.54688,0 48.33203,7.1875 68.75781,20.78516 l 15,9.97656 c 2.78125,1.84375 5.6836,3.4414 8.59375,5.0039 1.04688,0.55079 2.04688,1.10938 3.14063,1.63282 12.47266,-19.35938 30.63281,-31.375 48.25781,-43.03516 30.07422,-19.90234 56.05469,-37.08594 56.05469,-87.46875 0,-34.249999 -13.42188,-61.320311 -39.88672,-80.507811 -0.21484,-0.03906 -0.42578,-0.06641 -0.64453,-0.101563 -4.29688,-0.660156 -8.41797,-1.15625 -12.42188,-1.523437 -13.96093,-1.265625 -28.17187,-0.726563 -42.15234,1.460937 z m 0,0"
       id="path108"
       inkscape:connector-curvature="0" />
    <path
       d="m 28.128906,151.89062 c 0,37.20704 0,75.54297 -21.851562,103.59766 0.128906,0.0547 0.257812,0.11719 0.386718,0.18359 8.179688,3.76954 16.230469,6.67969 24.117188,8.79297 0.605469,0.16407 1.21875,0.32032 1.835938,0.47657 3.835937,0.96484 7.65625,1.78125 11.667968,2.3789 3.523438,0.52344 7.011719,0.8086 10.464844,0.98047 0.457031,0.0195 0.917969,0.0391 1.367188,0.0547 -0.109376,-0.42969 -0.175782,-0.8711 -0.273438,-1.30078 -0.257812,-1.08594 -0.460938,-2.17578 -0.699219,-3.26172 -8.96875,-40.9961 -4.5625,-84.80469 12.59375,-123.29688 C 82.648438,107.0547 106.92969,78.101572 137.25,57.582041 c 2.60937,-1.761719 5.25391,-3.460937 7.93359,-5.09375 1.78907,-1.101562 3.61719,-2.148437 5.44141,-3.203125 1.35156,-0.773437 2.68359,-1.589844 4.05078,-2.324218 3.89063,-2.109376 7.89453,-4.058594 11.94141,-5.910157 0.0937,-0.04687 0.18359,-0.09375 0.27734,-0.140625 -18.92187,-1.769531 -35.91406,-1.652344 -50.78515,0.386719 -50.976568,6.996094 -87.980474,53.5 -87.980474,110.593745 z m 0,0"
       id="path110"
       inkscape:connector-curvature="0" />
    <path
       d="m 84.871094,380.52734 c 34.773436,19.62891 77.441406,31.16797 123.398436,31.16797 0.85156,0 1.70703,0 2.57031,-0.0117 -13.83593,-11.99609 -24.85937,-22.44531 -33.15234,-31.32812 -0.10938,-0.1211 -0.22656,-0.24219 -0.33594,-0.35938 -1.58984,-1.70703 -3.05078,-3.33984 -4.41797,-4.92968 -0.21093,-0.23828 -0.44922,-0.4961 -0.65234,-0.73438 -1.23828,-1.44922 -2.35938,-2.82812 -3.42188,-4.17578 -0.25,-0.3125 -0.54296,-0.65234 -0.77343,-0.95703 -1.23828,-1.60547 -2.34766,-3.14063 -3.32032,-4.58984 -3.82812,-5.72657 -7.17968,-11.85157 -10.72265,-18.33985 -6.76563,-12.375 -13.70703,-25.23828 -23.9336,-35.15234 -9.89453,-9.59375 -22.28124,-16.625 -35.60937,-20.14844 -20.582031,-5.44531 -42.246094,-2.74609 -62.964844,-7.39844 -1.085937,-0.25 -2.175781,-0.54297 -3.269531,-0.82031 -3.679687,-0.92578 -7.382813,-1.98047 -11.109375,-3.22266 -1.0625,-0.34765 -2.121094,-0.6875 -3.183594,-1.0625 -3.792968,-1.35156 -7.601562,-2.90234 -11.429687,-4.5625 -0.84375,-0.36718 -1.6875,-0.63281 -2.542969,-1.01953 7.875,38.94922 33.195312,73.15625 69.308594,97.89453 L 100.34766,325.75 c 2.87109,-4.17578 8.60156,-5.22266 12.76953,-2.34766 4.17578,2.8711 5.22265,8.58985 2.35156,12.76954 z m -7.207032,-43.08203 c -1.789062,1.79297 -4.140624,2.69141 -6.492187,2.69141 -2.347656,0 -4.699219,-0.89844 -6.488281,-2.69141 L 46.324219,319.08594 c -3.589844,-3.58985 -3.589844,-9.39063 0,-12.98047 3.585937,-3.58984 9.390625,-3.58984 12.980469,0 l 18.359374,18.35937 c 3.589844,3.58204 3.589844,9.39063 0,12.98047 z m 0,0"
       id="path112"
       inkscape:connector-curvature="0" />
    <path
       d="m 377.0625,281.09766 c 3.54297,-4.36719 6.47266,-9.10547 9.57422,-14.125 1.53515,-2.48047 3.14062,-5.0586 4.98437,-7.87891 l -10.41797,-0.86328 c -15.33984,-1.26563 -30.41406,0.74609 -44.87109,5.97656 l -34.48047,12.51172 c -28.90234,10.47656 -60.58203,9.54687 -88.83593,-1.74219 -0.5625,-0.23047 -1.03125,-0.49609 -1.58204,-0.72656 -3.25781,-1.36719 -6.49609,-2.77344 -9.64843,-4.42578 -3.89063,-2 -7.57032,-4.1211 -11.05078,-6.4336 l -15,-9.98046 C 158.32813,241.82812 138.05859,235.70312 117.14844,235.70312 H 69.621094 c 0.917968,11.22657 2.917968,22.45313 5.984375,33.51563 60.101561,5.19531 79.097661,39.78906 94.500001,68.08203 5.99609,11.00391 12.28516,20.65234 20.70312,29.96094 10.4375,11.55078 22.29688,21.22656 33.61719,31.82812 0.15625,0.13672 0.3125,0.26563 0.46875,0.40625 4.35938,0.60547 8.3711,1.05469 12.19141,1.35547 1.08203,-19.71875 12.8125,-59.59375 84.85156,-82.58984 0.84375,-0.27735 1.70703,-0.53516 2.55859,-0.80078 4.45313,-1.36719 9.04297,-2.69922 13.94532,-3.92969 15.41406,-3.86328 27.21093,-18.38672 38.62109,-32.43359 z m 0,0"
       id="path114"
       inkscape:connector-curvature="0" />
    <path
       d="m 249.26562,23.019531 c 6.67579,0 13.26563,0.339844 19.77344,0.980469 0.11328,0.01172 0.23047,0.01953 0.35156,0.03125 6.40625,0.640625 12.71485,1.613281 18.92969,2.851562 0.19922,0.03906 0.41016,0.07422 0.61328,0.113282 6.11328,1.238281 12.10938,2.78125 18.00391,4.570312 0.29297,0.08984 0.58594,0.164063 0.88672,0.246094 5.80469,1.792969 11.47656,3.855469 17.05078,6.152344 0.34766,0.148437 0.71484,0.273437 1.0625,0.421875 5.48047,2.296875 10.82422,4.847656 16.04687,7.609375 0.40625,0.210937 0.8086,0.40625 1.21094,0.625 5.15235,2.765625 10.13672,5.773437 15,8.960937 0.42578,0.273438 0.85547,0.539063 1.27735,0.816407 4.79297,3.195312 9.41796,6.609374 13.89843,10.199218 0.44141,0.347656 0.89063,0.6875 1.33203,1.046875 4.40625,3.589844 8.64844,7.378907 12.73438,11.335938 0.4375,0.433593 0.89844,0.84375 1.33984,1.277343 4.01953,3.957032 7.84766,8.097657 11.51953,12.375 0.42188,0.503907 0.8711,0.980469 1.29297,1.488282 3.60938,4.285156 7.01563,8.746096 10.25391,13.328126 0.39453,0.57031 0.80859,1.12109 1.21484,1.69922 3.16407,4.59765 6.13282,9.34375 8.91407,14.21094 0.36718,0.63281 0.73437,1.24609 1.08984,1.89062 2.71875,4.875 5.21484,9.875 7.52734,14.98828 0.3125,0.69141 0.63282,1.37891 0.94532,2.07813 2.24218,5.12109 4.25,10.36328 6.05859,15.69531 0.25,0.74609 0.51563,1.48047 0.76563,2.23047 1.73437,5.34375 3.23828,10.79687 4.52343,16.32422 0.1836,0.79687 0.375,1.58593 0.5586,2.38671 1.21484,5.54297 2.1875,11.17188 2.92187,16.88282 0.10938,0.83203 0.21875,1.66015 0.32031,2.49609 0.67188,5.71094 1.07422,11.49219 1.25,17.33984 0.008,0.44141 0.082,0.8711 0.0899,1.3125 0.21094,-0.10937 0.4414,-0.1914 0.65234,-0.3125 7.76563,-4.46093 11.81641,-14.90625 15.09375,-22.71875 3.375,-8.05078 6.79297,-16.42187 13.13672,-22.4375 3.13672,-2.98437 7.13281,-5.17578 11.37109,-6.10546 2.06641,-0.44922 4.20704,-0.6211 6.31641,-0.375 1.33203,0.15625 5.25,2.05468 6.125,1.16796 1.55078,-1.58984 -1.38672,-10.6875 -1.88281,-12.72656 -1.01953,-4.17578 -2.32422,-8.28906 -3.91016,-12.29297 -6.32422,-15.96093 -17.12109,-30.02734 -30.875,-40.29687 -5.77344,-4.308595 -12.04297,-7.941408 -18.64453,-10.816408 -3.29297,-1.429687 -5.45313,-4.652343 -5.51563,-8.242187 -0.8164,-44.855469 -38.04296,-81.335937 -82.96875,-81.335937 -11.28125,0 -22.24218,2.230468 -32.55468,6.617187 -2.15625,0.910156 -4.57813,0.972656 -6.76563,0.175781 -12.24609,-4.507812 -24.86719,-6.792968 -37.53515,-6.792968 -26.66016,0 -51.83985,9.667968 -71.375,26.730468 13.0625,-2.753906 26.64843,-4.203125 40.57421,-4.203125 z m 0,0"
       id="path116"
       inkscape:connector-curvature="0" />
    <path
       d="m 471.17578,343.73437 c 41.66797,-64.6914 46.80859,-141.40234 35.80078,-151.27734 -0.92578,-0.83594 -1.74219,-1.49609 -2.57812,-2.19531 -8.91407,-7.39063 -12.46485,-7.03125 -13.08985,-6.875 -3.27734,0.78125 -7.35547,10.15234 -10.32812,17.01172 -3.75391,8.63672 -7.65625,17.49609 -13.98047,24.60937 -7.05078,7.94141 -16.73438,10.51953 -26.13672,14.69922 -17.43359,7.75781 -28.79687,21.14844 -38.62891,36.99609 -3.25781,5.26954 -6.63671,10.71094 -10.71484,15.73438 -12.87891,15.85156 -27.25391,33.55078 -48.59766,38.90234 -20.21484,5.07813 -41.2539,12.625 -58.34765,24.85938 -15.09375,10.80859 -29.35938,28.67187 -29.25781,48.16015 30.08203,12.58594 56.76953,18.11329 80.45312,18.50782 0.21094,-0.0195 0.39453,-0.1211 0.60547,-0.1211 46.90234,0 83.64062,-48.38672 83.64062,-110.16015 0,-5.06641 4.11329,-9.17969 9.17969,-9.17969 5.06641,0 9.17969,4.11328 9.17969,9.17969 0,37.17968 -11.98047,70.11718 -31.375,93.37109 28.11719,-15.20312 49.01953,-38.68359 64.17578,-62.22266 z m -98.02344,28.04688 c -1.60547,3.21875 -4.84765,5.07422 -8.22656,5.07422 -1.375,0 -2.78125,-0.3125 -4.09375,-0.96485 l -18.35937,-9.17968 c -4.53516,-2.26563 -6.3711,-7.78516 -4.10547,-12.31641 2.26953,-4.52734 7.77734,-6.38281 12.32031,-4.10547 l 18.35937,9.17969 c 4.53516,2.25781 6.3711,7.77734 4.10547,12.3125 z m 0,0"
       id="path118"
       inkscape:connector-curvature="0" />
  </g>
</svg>
