<?xml version="1.0" encoding="UTF-8" standalone="no"?>
<svg
   xmlns:dc="http://purl.org/dc/elements/1.1/"
   xmlns:cc="http://creativecommons.org/ns#"
   xmlns:rdf="http://www.w3.org/1999/02/22-rdf-syntax-ns#"
   xmlns:svg="http://www.w3.org/2000/svg"
   xmlns="http://www.w3.org/2000/svg"
   xmlns:sodipodi="http://sodipodi.sourceforge.net/DTD/sodipodi-0.dtd"
   xmlns:inkscape="http://www.inkscape.org/namespaces/inkscape"
   height="37.5pt"
   viewBox="0 -61 37.5 37.5"
   width="37.5pt"
   version="1.1"
   id="svg8"
   sodipodi:docname="cheese.svg"
   inkscape:version="0.92.2 5c3e80d, 2017-08-06">
  <metadata
     id="metadata14">
    <rdf:RDF>
      <cc:Work
         rdf:about="">
        <dc:format>image/svg+xml</dc:format>
        <dc:type
           rdf:resource="http://purl.org/dc/dcmitype/StillImage" />
        <dc:title></dc:title>
      </cc:Work>
    </rdf:RDF>
  </metadata>
  <defs
     id="defs12" />
  <sodipodi:namedview
     pagecolor="#ffffff"
     bordercolor="#666666"
     borderopacity="1"
     objecttolerance="10"
     gridtolerance="10"
     guidetolerance="10"
     inkscape:pageopacity="0"
     inkscape:pageshadow="2"
     inkscape:window-width="1441"
     inkscape:window-height="851"
     id="namedview10"
     showgrid="false"
     inkscape:showpageshadow="false"
     fit-margin-top="0"
     fit-margin-left="0"
     fit-margin-right="0"
     fit-margin-bottom="0"
     inkscape:zoom="6.38"
     inkscape:cx="23.006077"
     inkscape:cy="37.145752"
     inkscape:window-x="0"
     inkscape:window-y="0"
     inkscape:window-maximized="0"
     inkscape:current-layer="svg8" />
  <path
     d="m 7.7636713,-49.46154 c -0.6062507,0 -1.0986327,0.64641 -1.0986327,1.44231 0,0.7959 0.492382,1.44231 1.0986327,1.44231 0.6062509,0 1.0986328,-0.64641 1.0986328,-1.44231 0,-0.7959 -0.4923819,-1.44231 -1.0986328,-1.44231 z m 0,0"
     id="path2"
     style="fill:#8c8c8c;fill-opacity:1;stroke-width:0.08391971"
     inkscape:connector-curvature="0" />
  <path
     d="M 36.401364,-61 H 5.5664058 c -0.6071088,0 -1.0986328,0.64528 -1.0986328,1.44231 0,2.38582 -1.5518186,4.32692 -3.3691402,4.32692 C 0.49152375,-55.23077 0,-54.58549 0,-53.78846 v 28.84615 C 0,-24.14528 0.49152375,-23.5 1.0986328,-23.5 h 4.467773 c 0.6071091,0 1.0986328,-0.64528 1.0986328,-1.44231 0,-2.38581 1.4785765,-4.32692 3.2958976,-4.32692 1.8173218,0 3.2958988,1.94111 3.2958988,4.32692 0,0.79703 0.491524,1.44231 1.098633,1.44231 h 22.045896 c 0.60711,0 1.098634,-0.64528 1.098634,-1.44231 v -20.4387 c 0,-0.46762 -0.172806,-0.90707 -0.46463,-1.17751 -0.291825,-0.27043 -0.664044,-0.33804 -0.999929,-0.18329 -1.369857,0.63965 -3.003214,-0.80003 -3.003214,-2.71973 -0.0011,-1.9212 1.631068,-3.3605 3.003214,-2.71972 0.335885,0.15474 0.708104,0.0871 0.999929,-0.1833 0.291824,-0.27043 0.46463,-0.70988 0.46463,-1.17751 v -6.01562 C 37.499998,-60.35472 37.008474,-61 36.401364,-61 Z M 9.9609362,-37.92308 c -0.6068226,0 -1.0986321,-0.64565 -1.0986321,-1.4423 0,-0.79665 0.4918095,-1.44231 1.0986321,-1.44231 0.6068238,0 1.0986338,0.64566 1.0986338,1.44231 0,0.79665 -0.49181,1.4423 -1.0986338,1.4423 z m -2.1972649,-5.76923 c -1.8173216,0 -3.2958983,-1.9411 -3.2958983,-4.32692 0,-2.38582 1.4785767,-4.32692 3.2958983,-4.32692 1.8173219,0 3.2958987,1.9411 3.2958987,4.32692 0,2.38582 -1.4785768,4.32692 -3.2958987,4.32692 z m 6.5917967,-8.65384 c -0.606823,0 -1.098633,-0.64566 -1.098633,-1.44231 0,-0.79665 0.49181,-1.44231 1.098633,-1.44231 0.606823,0 1.098633,0.64566 1.098633,1.44231 0,0.79665 -0.49181,1.44231 -1.098633,1.44231 z m 2.197265,8.65384 c -0.606823,0 -1.098632,-0.64565 -1.098632,-1.4423 0,-0.79665 0.491809,-1.44231 1.098632,-1.44231 0.606823,0 1.098633,0.64566 1.098633,1.44231 0,0.79665 -0.49181,1.4423 -1.098633,1.4423 z m 5.493164,14.42308 c -2.423573,0 -4.394531,-2.58752 -4.394531,-5.76923 0,-3.18172 1.970958,-5.76923 4.394531,-5.76923 2.423572,0 4.394531,2.58751 4.394531,5.76923 0,3.18171 -1.970959,5.76923 -4.394531,5.76923 z m 3.295898,-17.30769 c -0.607109,0 -1.098633,-0.64529 -1.098633,-1.44231 0,-0.79703 0.491524,-1.44231 1.098633,-1.44231 0.606251,0 1.098633,-0.64641 1.098633,-1.44231 0,-0.79589 -0.492382,-1.4423 -1.098633,-1.4423 -0.606251,0 -1.098633,0.64641 -1.098633,1.4423 0,0.79703 -0.491524,1.44231 -1.098632,1.44231 -0.60711,0 -1.098633,-0.64528 -1.098633,-1.44231 0,-2.38581 1.478576,-4.32692 3.295898,-4.32692 1.817322,0 3.295898,1.94111 3.295898,4.32692 0,2.38582 -1.478576,4.32693 -3.295898,4.32693 z m 6.591797,11.53846 c -0.606823,0 -1.098634,-0.64566 -1.098634,-1.44231 0,-0.79665 0.491811,-1.44231 1.098634,-1.44231 0.606821,0 1.098633,0.64566 1.098633,1.44231 0,0.79665 -0.491812,1.44231 -1.098633,1.44231 z m 0,0"
     id="path4"
     style="fill:#8c8c8c;fill-opacity:1;stroke-width:0.08391971"
     inkscape:connector-curvature="0" />
  <path
     d="m 22.045897,-37.92308 c -1.211357,0 -2.197265,1.29432 -2.197265,2.88462 0,1.59029 0.985908,2.88461 2.197265,2.88461 1.211357,0 2.197265,-1.29432 2.197265,-2.88461 0,-1.5903 -0.985908,-2.88462 -2.197265,-2.88462 z m 0,0"
     id="path6"
     style="fill:#8c8c8c;fill-opacity:1;stroke-width:0.08391971"
     inkscape:connector-curvature="0" />
</svg>
