<?xml version="1.0" encoding="UTF-8" standalone="no"?>
<!-- Generator: Adobe Illustrator 16.0.0, SVG Export Plug-In . SVG Version: 6.00 Build 0)  -->

<svg
   xmlns:dc="http://purl.org/dc/elements/1.1/"
   xmlns:cc="http://creativecommons.org/ns#"
   xmlns:rdf="http://www.w3.org/1999/02/22-rdf-syntax-ns#"
   xmlns:svg="http://www.w3.org/2000/svg"
   xmlns="http://www.w3.org/2000/svg"
   xmlns:sodipodi="http://sodipodi.sourceforge.net/DTD/sodipodi-0.dtd"
   xmlns:inkscape="http://www.inkscape.org/namespaces/inkscape"
   version="1.1"
   id="Capa_1"
   x="0px"
   y="0px"
   width="50"
   height="49.999996"
   viewBox="0 0 49.999999 49.999995"
   xml:space="preserve"
   sodipodi:docname="citrus-fruits-grey.svg"
   inkscape:version="0.92.2 5c3e80d, 2017-08-06"><metadata
     id="metadata65"><rdf:RDF><cc:Work
         rdf:about=""><dc:format>image/svg+xml</dc:format><dc:type
           rdf:resource="http://purl.org/dc/dcmitype/StillImage" /><dc:title></dc:title></cc:Work></rdf:RDF></metadata><defs
     id="defs63" /><sodipodi:namedview
     pagecolor="#ffffff"
     bordercolor="#666666"
     borderopacity="1"
     objecttolerance="10"
     gridtolerance="10"
     guidetolerance="10"
     inkscape:pageopacity="0"
     inkscape:pageshadow="2"
     inkscape:window-width="1440"
     inkscape:window-height="854"
     id="namedview61"
     showgrid="false"
     inkscape:showpageshadow="false"
     fit-margin-top="0"
     fit-margin-left="0"
     fit-margin-right="0"
     fit-margin-bottom="0"
     inkscape:zoom="6.4100004"
     inkscape:cx="15.318885"
     inkscape:cy="24.640287"
     inkscape:window-x="0"
     inkscape:window-y="0"
     inkscape:window-maximized="0"
     inkscape:current-layer="Capa_1" /><g
     id="g28"
     style="fill:#8c8c8c;fill-opacity:1"
     transform="matrix(0.05174371,0,0,0.05261372,0,-0.42036214)"><g
       id="g26"
       style="fill:#8c8c8c;fill-opacity:1"><path
         d="m 638.699,199.012 c -126.5,0 -236.299,71.8 -290.899,176.8 18,4 35.6,9.7 52.8,16.899 36.899,15.601 70.1,38 98.5,66.4 28.5,28.5 50.801,61.599 66.4,98.5 16.199,38.2 24.4,78.8 24.4,120.7 0,41.899 -8.201,82.399 -24.4,120.7 -6.1,14.399 -13.199,28.199 -21.301,41.399 29.9,9 61.602,13.9 94.5,13.9 180.9,0 327.602,-146.7 327.602,-327.601 0,-180.997 -146.602,-327.697 -327.602,-327.697 z"
         id="path2"
         style="fill:#8c8c8c;fill-opacity:1"
         inkscape:connector-curvature="0" /><path
         d="m 394.8,20.812 c 0.8,52.6 26.8,104 74.199,135 47.401,31 104.801,34.4 153.401,14.1 -0.801,-52.6 -26.801,-104 -74.201,-135 C 500.801,3.812 443.3,0.412 394.8,20.812 Z"
         id="path4"
         style="fill:#8c8c8c;fill-opacity:1"
         inkscape:connector-curvature="0" /><path
         d="m 656.801,170.812 c 31.299,13.1 68.199,10.9 98.699,-9 30.5,-20 47.199,-53 47.699,-86.9 -31.299,-13.1 -68.199,-10.9 -98.699,9 -30.5,20 -47.199,53.1 -47.699,86.9 z"
         id="path6"
         style="fill:#8c8c8c;fill-opacity:1"
         inkscape:connector-curvature="0" /><path
         d="m 322.7,703.812 104.7,124.899 c 9.9,-9.699 18.7,-20.3 26.4,-31.6 16.3,-23.9 27.6,-51 33,-79.6 C 432.099,712.91 393.099,709.71 365.399,707.41 346.3,705.711 332.5,704.611 322.7,703.812 Z"
         id="path8"
         style="fill:#8c8c8c;fill-opacity:1"
         inkscape:connector-curvature="0" /><path
         d="m 69.8,680.012 c 0.2,54.199 21.3,95.1 37.8,118.8 L 231.7,694.711 Z"
         id="path10"
         style="fill:#8c8c8c;fill-opacity:1"
         inkscape:connector-curvature="0" /><path
         d="m 278.1,468.512 c -42.9,0.699 -85.9,14.699 -120.1,39 l 105.6,125.899 z"
         id="path12"
         style="fill:#8c8c8c;fill-opacity:1"
         inkscape:connector-curvature="0" /><path
         d="m 326.4,665.512 16.3,1.399 147.601,12.9 c -0.4,-45.601 -13,-86.4 -37.5,-121.4 -37.9,32 -85.2,72.101 -115.101,97.4 -4.1,3.701 -7.9,6.9 -11.3,9.701 z"
         id="path14"
         style="fill:#8c8c8c;fill-opacity:1"
         inkscape:connector-curvature="0" /><path
         d="m 280,958.312 c 98.7,0 185.4,-51.101 235.301,-128.2 28.299,-43.7 44.699,-95.8 44.699,-151.8 0,-135.8 -96.7,-249 -225,-274.6 -17.8,-3.5 -36.199,-5.399 -55,-5.399 -154.6,0 -280,125.399 -280,280 0,154.598 125.3,279.999 280,279.999 z m 0,-522.9 c 14.7,0 29,1.3 43,3.8 113.6,20.3 199.9,119.6 199.9,239.1 0,50.3 -15.301,97 -41.401,135.7 C 437.9,878.711 363.9,921.211 280,921.211 145.9,921.211 37.1,812.512 37.1,678.312 c 0,-134.2 108.7,-242.9 242.9,-242.9 z"
         id="path16"
         style="fill:#8c8c8c;fill-opacity:1"
         inkscape:connector-curvature="0" /><path
         d="m 241.4,885.411 14.2,-161.5 -123.8,103.8 c 30,29.801 68.3,50 109.6,57.7 z"
         id="path18"
         style="fill:#8c8c8c;fill-opacity:1"
         inkscape:connector-curvature="0" /><path
         d="m 129.4,531.911 c -29.6,30.5 -49.3,69.2 -56.5,110.8 l 161.8,14.801 z"
         id="path20"
         style="fill:#8c8c8c;fill-opacity:1"
         inkscape:connector-curvature="0" /><path
         d="m 398.3,852.711 -105.2,-125.6 -14.2,161.8 c 0.1,0 0.1,0 0.2,0 54.8,0.101 95.8,-20.5 119.2,-36.2 z"
         id="path22"
         style="fill:#8c8c8c;fill-opacity:1"
         inkscape:connector-curvature="0" /><path
         d="m 428.6,529.611 c -30.8,-30.6 -70.2,-51 -112.8,-58.299 -0.101,0 -0.2,0 -0.2,0 l -0.3,3.2 -4.101,46.699 -10.1,115.2 c 6.399,-5.3 14.1,-11.8 22.7,-19 31.301,-26.2 73.901,-62 104.801,-87.8 z"
         id="path24"
         style="fill:#8c8c8c;fill-opacity:1"
         inkscape:connector-curvature="0" /></g></g><g
     id="g30"
     style="fill:#8c8c8c;fill-opacity:1"
     transform="matrix(0.05174371,0,0,0.05261372,0,-0.42036214)" /><g
     id="g32"
     style="fill:#8c8c8c;fill-opacity:1"
     transform="matrix(0.05174371,0,0,0.05261372,0,-0.42036214)" /><g
     id="g34"
     style="fill:#8c8c8c;fill-opacity:1"
     transform="matrix(0.05174371,0,0,0.05261372,0,-0.42036214)" /><g
     id="g36"
     style="fill:#8c8c8c;fill-opacity:1"
     transform="matrix(0.05174371,0,0,0.05261372,0,-0.42036214)" /><g
     id="g38"
     style="fill:#8c8c8c;fill-opacity:1"
     transform="matrix(0.05174371,0,0,0.05261372,0,-0.42036214)" /><g
     id="g40"
     style="fill:#8c8c8c;fill-opacity:1"
     transform="matrix(0.05174371,0,0,0.05261372,0,-0.42036214)" /><g
     id="g42"
     style="fill:#8c8c8c;fill-opacity:1"
     transform="matrix(0.05174371,0,0,0.05261372,0,-0.42036214)" /><g
     id="g44"
     style="fill:#8c8c8c;fill-opacity:1"
     transform="matrix(0.05174371,0,0,0.05261372,0,-0.42036214)" /><g
     id="g46"
     style="fill:#8c8c8c;fill-opacity:1"
     transform="matrix(0.05174371,0,0,0.05261372,0,-0.42036214)" /><g
     id="g48"
     style="fill:#8c8c8c;fill-opacity:1"
     transform="matrix(0.05174371,0,0,0.05261372,0,-0.42036214)" /><g
     id="g50"
     style="fill:#8c8c8c;fill-opacity:1"
     transform="matrix(0.05174371,0,0,0.05261372,0,-0.42036214)" /><g
     id="g52"
     style="fill:#8c8c8c;fill-opacity:1"
     transform="matrix(0.05174371,0,0,0.05261372,0,-0.42036214)" /><g
     id="g54"
     style="fill:#8c8c8c;fill-opacity:1"
     transform="matrix(0.05174371,0,0,0.05261372,0,-0.42036214)" /><g
     id="g56"
     style="fill:#8c8c8c;fill-opacity:1"
     transform="matrix(0.05174371,0,0,0.05261372,0,-0.42036214)" /><g
     id="g58"
     style="fill:#8c8c8c;fill-opacity:1"
     transform="matrix(0.05174371,0,0,0.05261372,0,-0.42036214)" /></svg>
