<svg width="100" height="100" viewBox="0 0 100 100" fill="none" xmlns="http://www.w3.org/2000/svg">
<path d="M21.875 28.125C28.7786 28.125 34.375 22.5286 34.375 15.625C34.375 8.72144 28.7786 3.125 21.875 3.125C14.9714 3.125 9.375 8.72144 9.375 15.625C9.375 22.5286 14.9714 28.125 21.875 28.125Z" fill="#385FA0"/>
<path d="M50 76.5625C64.6701 76.5625 76.5625 64.6701 76.5625 50C76.5625 35.3299 64.6701 23.4375 50 23.4375C35.3299 23.4375 23.4375 35.3299 23.4375 50C23.4375 64.6701 35.3299 76.5625 50 76.5625Z" fill="#385FA0"/>
<path d="M75 40.625C83.6297 40.625 90.625 33.6297 90.625 25C90.625 16.3703 83.6297 9.375 75 9.375C66.3703 9.375 59.375 16.3703 59.375 25V25.1391C66.5031 27.8281 72.1719 33.4969 74.8609 40.625H75Z" fill="#385FA0"/>
<path d="M71.875 49.9984H68.75C68.75 39.6594 60.3391 31.2484 50 31.2484V28.1234C62.0609 28.125 71.875 37.9375 71.875 49.9984Z" fill="#385FA0"/>
<path d="M84.375 96.875C91.2786 96.875 96.875 91.2786 96.875 84.375C96.875 77.4714 91.2786 71.875 84.375 71.875C77.4714 71.875 71.875 77.4714 71.875 84.375C71.875 91.2786 77.4714 96.875 84.375 96.875Z" fill="#385FA0"/>
<path d="M92.1859 84.3734H89.0609C89.0609 81.789 86.9578 79.6859 84.3734 79.6859V76.5609C88.6813 76.5625 92.1859 80.0656 92.1859 84.3734Z" fill="#385FA0"/>
<path d="M29.6875 15.6234H26.5625C26.5625 13.0391 24.4594 10.9359 21.875 10.9359V7.8125C26.1828 7.8125 29.6875 11.3156 29.6875 15.6234V15.6234Z" fill="#385FA0"/>
<path d="M85.9359 24.9984H82.8109C82.8109 20.6906 79.3063 17.1859 74.9984 17.1859V14.0625C81.0297 14.0625 85.9359 18.9687 85.9359 24.9984V24.9984Z" fill="#385FA0"/>
<path d="M23.4375 96.875C26.8893 96.875 29.6875 94.0768 29.6875 90.625C29.6875 87.1732 26.8893 84.375 23.4375 84.375C19.9857 84.375 17.1875 87.1732 17.1875 90.625C17.1875 94.0768 19.9857 96.875 23.4375 96.875Z" fill="#385FA0"/>
<path d="M9.375 68.75C12.8268 68.75 15.625 65.9518 15.625 62.5C15.625 59.0482 12.8268 56.25 9.375 56.25C5.92322 56.25 3.125 59.0482 3.125 62.5C3.125 65.9518 5.92322 68.75 9.375 68.75Z" fill="#385FA0"/>
<path d="M14.0625 50C17.5143 50 20.3125 47.2018 20.3125 43.75C20.3125 40.2982 17.5143 37.5 14.0625 37.5C10.6107 37.5 7.8125 40.2982 7.8125 43.75C7.8125 47.2018 10.6107 50 14.0625 50Z" fill="#385FA0"/>
<path d="M87.5 59.375C90.0888 59.375 92.1875 57.2763 92.1875 54.6875C92.1875 52.0987 90.0888 50 87.5 50C84.9112 50 82.8125 52.0987 82.8125 54.6875C82.8125 57.2763 84.9112 59.375 87.5 59.375Z" fill="#385FA0"/>
<path d="M54.6875 90.625C57.2763 90.625 59.375 88.5263 59.375 85.9375C59.375 83.3487 57.2763 81.25 54.6875 81.25C52.0987 81.25 50 83.3487 50 85.9375C50 88.5263 52.0987 90.625 54.6875 90.625Z" fill="#385FA0"/>
<path d="M50 15.625C51.7259 15.625 53.125 14.2259 53.125 12.5C53.125 10.7741 51.7259 9.375 50 9.375C48.2741 9.375 46.875 10.7741 46.875 12.5C46.875 14.2259 48.2741 15.625 50 15.625Z" fill="#385FA0"/>
<path d="M21.875 79.6875C23.6009 79.6875 25 78.2884 25 76.5625C25 74.8366 23.6009 73.4375 21.875 73.4375C20.1491 73.4375 18.75 74.8366 18.75 76.5625C18.75 78.2884 20.1491 79.6875 21.875 79.6875Z" fill="#385FA0"/>
<path d="M76.9656 42.0641C85.5187 41.0844 92.1859 33.8094 92.1859 24.9984C92.1859 15.5219 84.475 7.81094 74.9984 7.81094C66.1875 7.81094 58.9125 14.4781 57.9328 23.0313C55.4141 22.2906 52.7563 21.875 50 21.875C34.4922 21.875 21.875 34.4922 21.875 50C21.875 65.5078 34.4922 78.125 50 78.125C65.5078 78.125 78.125 65.5078 78.125 50C78.1234 47.2422 77.7078 44.5844 76.9656 42.0641ZM75 10.9375C82.7531 10.9375 89.0625 17.2453 89.0625 25C89.0625 32.4547 83.2281 38.5547 75.8891 39.0172C73.0406 32.3281 67.6734 26.9594 60.9828 24.1109C61.4437 16.7703 67.5453 10.9375 75 10.9375V10.9375ZM50 74.9984C36.2141 74.9984 25 63.7844 25 49.9984C25 36.2125 36.2141 24.9984 50 24.9984C63.7844 24.9984 75 36.2125 75 49.9984C74.9984 63.7844 63.7844 74.9984 50 74.9984Z" fill="black"/>
<path d="M50 28.125V31.25C60.3391 31.25 68.75 39.6609 68.75 50H71.875C71.8734 37.9375 62.0609 28.125 50 28.125Z" fill="black"/>
<path d="M84.375 70.3125C76.6203 70.3125 70.3125 76.6203 70.3125 84.375C70.3125 92.1281 76.6203 98.4375 84.375 98.4375C92.1281 98.4375 98.4375 92.1297 98.4375 84.375C98.4359 76.6203 92.1281 70.3125 84.375 70.3125ZM84.375 95.3109C78.3438 95.3109 73.4375 90.4047 73.4375 84.3734C73.4375 78.3422 78.3438 73.4359 84.375 73.4359C90.4047 73.4359 95.3125 78.3422 95.3125 84.3734C95.3109 90.4047 90.4047 95.3109 84.375 95.3109Z" fill="black"/>
<path d="M84.375 76.5625V79.6875C86.9594 79.6875 89.0625 81.7906 89.0625 84.375H92.1875C92.1859 80.0656 88.6813 76.5625 84.375 76.5625Z" fill="black"/>
<path d="M26.5609 15.6234H29.6859C29.6859 11.3156 26.1812 7.81094 21.8734 7.81094V10.9359C24.4578 10.9375 26.5609 13.0391 26.5609 15.6234Z" fill="black"/>
<path d="M21.875 29.6859C29.6281 29.6859 35.9375 23.3781 35.9375 15.6234C35.9375 7.86876 29.6297 1.56094 21.875 1.56094C14.1203 1.56094 7.8125 7.86876 7.8125 15.6234C7.8125 23.3781 14.1203 29.6859 21.875 29.6859ZM21.875 4.68751C27.9047 4.68751 32.8125 9.59376 32.8125 15.625C32.8125 21.6547 27.9062 26.5625 21.875 26.5625C15.8438 26.5625 10.9375 21.6563 10.9375 15.625C10.9375 9.59376 15.8438 4.68751 21.875 4.68751V4.68751Z" fill="black"/>
<path d="M82.8109 24.9984H85.9359C85.9359 18.9688 81.0297 14.0609 74.9984 14.0609V17.1859C79.3063 17.1875 82.8109 20.6906 82.8109 24.9984Z" fill="black"/>
<path d="M23.4375 82.8125C19.1297 82.8125 15.625 86.3172 15.625 90.625C15.625 94.9328 19.1297 98.4375 23.4375 98.4375C27.7453 98.4375 31.25 94.9328 31.25 90.625C31.2484 86.3156 27.7438 82.8125 23.4375 82.8125ZM23.4375 95.3109C20.8531 95.3109 18.75 93.2078 18.75 90.6234C18.75 88.0391 20.8531 85.9359 23.4375 85.9359C26.0219 85.9359 28.125 88.0391 28.125 90.6234C28.1234 93.2078 26.0203 95.3109 23.4375 95.3109Z" fill="black"/>
<path d="M9.375 54.6875C5.06719 54.6875 1.5625 58.1922 1.5625 62.5C1.5625 66.8078 5.06719 70.3125 9.375 70.3125C13.6828 70.3125 17.1875 66.8078 17.1875 62.5C17.1859 58.1906 13.6813 54.6875 9.375 54.6875ZM9.375 67.1859C6.79062 67.1859 4.6875 65.0828 4.6875 62.4984C4.6875 59.9141 6.78906 57.8109 9.375 57.8109C11.9594 57.8109 14.0625 59.9141 14.0625 62.4984C14.0609 65.0828 11.9578 67.1859 9.375 67.1859Z" fill="black"/>
<path d="M14.0625 51.5609C18.3703 51.5609 21.875 48.0562 21.875 43.7484C21.875 39.4406 18.3703 35.9359 14.0625 35.9359C9.75469 35.9359 6.25 39.4406 6.25 43.7484C6.25 48.0562 9.75313 51.5609 14.0625 51.5609ZM14.0625 39.0625C16.6469 39.0625 18.75 41.1656 18.75 43.75C18.75 46.3343 16.6469 48.4375 14.0625 48.4375C11.4781 48.4375 9.375 46.3343 9.375 43.75C9.375 41.164 11.4766 39.0625 14.0625 39.0625Z" fill="black"/>
<path d="M87.5 48.4375C84.0531 48.4375 81.25 51.2406 81.25 54.6875C81.25 58.1344 84.0531 60.9375 87.5 60.9375C90.9469 60.9375 93.75 58.1344 93.75 54.6875C93.7484 51.2391 90.9453 48.4375 87.5 48.4375ZM87.5 57.8109C85.7766 57.8109 84.375 56.4094 84.375 54.6859C84.375 52.9625 85.7766 51.5609 87.5 51.5609C89.2234 51.5609 90.625 52.9625 90.625 54.6859C90.6234 56.4094 89.2219 57.8109 87.5 57.8109Z" fill="black"/>
<path d="M54.6875 79.6875C51.2406 79.6875 48.4375 82.4906 48.4375 85.9375C48.4375 89.3844 51.2406 92.1875 54.6875 92.1875C58.1344 92.1875 60.9375 89.3844 60.9375 85.9375C60.9359 82.4891 58.1328 79.6875 54.6875 79.6875ZM54.6875 89.0609C52.9641 89.0609 51.5625 87.6594 51.5625 85.9359C51.5625 84.2125 52.9641 82.8109 54.6875 82.8109C56.4109 82.8109 57.8125 84.2125 57.8125 85.9359C57.8109 87.6594 56.4094 89.0609 54.6875 89.0609Z" fill="black"/>
<path d="M50 17.1859C52.5844 17.1859 54.6875 15.0828 54.6875 12.4984C54.6875 9.91407 52.5844 7.81094 50 7.81094C47.4156 7.81094 45.3125 9.91407 45.3125 12.4984C45.3125 15.0828 47.4141 17.1859 50 17.1859ZM50 10.9375C50.8609 10.9375 51.5625 11.6375 51.5625 12.5C51.5625 13.3609 50.8625 14.0625 50 14.0625C49.1375 14.0625 48.4375 13.3625 48.4375 12.5C48.4375 11.6375 49.1375 10.9375 50 10.9375Z" fill="black"/>
<path d="M17.1875 76.5625C17.1875 79.1469 19.2906 81.25 21.875 81.25C24.4594 81.25 26.5625 79.1469 26.5625 76.5625C26.5625 73.9781 24.4594 71.875 21.875 71.875C19.2891 71.875 17.1875 73.9766 17.1875 76.5625ZM21.875 75C22.7359 75 23.4375 75.7 23.4375 76.5625C23.4375 77.4234 22.7375 78.125 21.875 78.125C21.0125 78.125 20.3125 77.425 20.3125 76.5625C20.3125 75.7 21.0125 75 21.875 75Z" fill="black"/>
</svg>
