<svg width="175" height="155" viewBox="0 0 175 155" fill="none" xmlns="http://www.w3.org/2000/svg">
<path d="M36.6478 99.1588C36.6254 97.9052 35.6978 96.9077 34.56 96.9331C33.429 96.9579 32.5304 97.9942 32.5525 99.2478C32.979 123.311 50.9982 142.889 72.7203 142.891H72.7399C73.8709 142.891 74.778 141.874 74.778 140.62C74.778 139.366 73.8513 138.35 72.7203 138.35C53.2127 138.348 37.0306 120.767 36.6478 99.1588V99.1588ZM120.199 77.3907C120.149 77.2509 109.035 54.8876 108.946 54.7087C107.625 52.0516 105.105 50.4011 102.369 50.4011H98.1728L104.276 17.4933C104.484 16.3629 105.073 15.3842 105.937 14.7363L120.002 4.14974C120.938 3.44558 121.181 2.03333 120.546 0.995862C119.911 -0.0416069 118.637 -0.311645 117.701 0.392816L103.639 10.9773C101.886 12.2927 100.687 14.2838 100.263 16.5815L93.991 50.4014H55.6453L50.2637 35.6259C53.3847 34.6777 56.1554 34.8439 58.0564 35.2075C58.6929 35.2865 59.3957 35.1809 59.9896 34.408C61.9395 31.7678 64.4459 29.6475 67.2384 28.2767C69.5708 27.1315 73.0709 26.0904 76.6015 25.4919C78.0399 25.2476 79.1278 24.0088 79.3088 22.4085C79.4899 20.8092 78.7119 19.3113 77.3731 18.681L38.5256 0.388275C36.6043 -0.545961 33.8743 0.266879 32.7706 2.96484L26.3847 19.6349C25.9426 20.7889 26.4281 22.1221 27.4693 22.6123C28.5102 23.1024 29.7127 22.5641 30.1548 21.4098L34.2683 10.6715L36.6185 39.3262C34.2288 39.3262 31.8715 39.707 29.5855 40.4726C26.4849 41.5104 23.3754 43.3871 21.1527 44.9092L26.4109 31.1824C26.853 30.0283 26.3675 28.6951 25.3263 28.205C24.286 27.7157 23.0832 28.2531 22.6408 29.4074L16.2494 46.0923C15.682 47.5736 16.0591 49.2492 17.1874 50.2618C18.3156 51.2748 19.8701 51.3317 21.0547 50.4117C24.3717 47.8354 28.0034 45.7451 30.7689 44.8193C33.3178 43.9665 35.9755 43.6822 38.6678 43.9741C39.2066 44.0264 39.9886 43.849 40.5224 43.0568C41.6739 41.3139 43.5855 39.0401 46.4625 37.316L51.2281 50.4008H45.1278C42.5799 50.4008 40.2283 51.8137 38.8371 54.1798C38.2025 55.2594 25.8192 76.2491 25.4249 76.9926C22.3664 82.7612 21.5205 93.1995 21.6319 99.4858C21.8957 114.353 27.351 128.307 36.994 138.778C46.6285 149.24 59.3143 155 72.7189 155H72.7465C81.7573 154.994 90.6155 152.352 98.3637 147.358C105.88 142.513 112.205 135.573 116.653 127.289C117.232 126.211 116.913 124.818 115.942 124.176C114.97 123.536 113.714 123.888 113.134 124.966C109.041 132.588 103.221 138.974 96.3051 143.432C89.1806 148.024 81.0334 150.454 72.7443 150.459H72.7189C60.3932 150.459 48.7236 145.158 39.8597 135.533C30.9884 125.9 25.9694 113.067 25.7272 99.3965C25.604 92.4448 26.6943 85.679 28.9683 79.2816C28.9683 79.2816 30.8399 79.924 31.7489 80.3348C35.2251 81.9057 38.8199 83.5302 45.9204 83.5302C53.021 83.5302 56.6155 81.906 60.0917 80.3348C63.3457 78.8644 66.4192 77.4755 72.717 77.4755C79.015 77.4755 82.0888 78.8644 85.3428 80.3348C88.8191 81.9057 92.4138 83.5302 99.5149 83.5302C106.617 83.5302 110.212 81.906 113.688 80.3348C114.603 79.9219 116.441 79.2041 116.441 79.2041C118.616 85.2878 119.719 91.7285 119.719 98.3496C119.719 104.238 118.84 110.017 117.107 115.524C116.735 116.707 117.298 118.002 118.366 118.415C119.433 118.828 120.602 118.204 120.974 117.02C122.859 111.031 123.815 104.749 123.815 98.3496C123.816 91.1022 122.599 84.0506 120.199 77.3907V77.3907ZM73.0739 21.5893C70.87 22.1022 68.0346 22.9189 65.5801 24.1241C62.9621 25.4095 60.554 27.2402 58.5061 29.4834L42.2743 7.08717L73.0739 21.5893ZM40.4926 36.4187L38.223 8.74645L53.9212 30.4071C51.7802 30.5218 49.3476 30.9965 46.789 32.1354C44.1969 33.2891 42.1228 34.836 40.4926 36.4187ZM112.144 76.1298C108.889 77.6002 105.815 78.9892 99.5157 78.9892C93.2174 78.9892 90.1437 77.6002 86.8897 76.1298C83.4134 74.559 79.8186 72.9345 72.7178 72.9345C65.6173 72.9345 62.0228 74.5587 58.5465 76.1298C55.2925 77.6002 52.219 78.9892 45.9213 78.9892C39.6235 78.9892 36.5497 77.6002 33.2957 76.1298C32.6581 75.8416 32.0088 75.5495 31.3314 75.2643L42.2691 56.6598C42.9013 55.5842 43.9703 54.9421 45.1286 54.9421H102.369C103.613 54.9421 104.759 55.6926 105.359 56.9002L114.42 75.1342C113.627 75.4596 112.879 75.7974 112.144 76.1298V76.1298Z" fill="#19419A"/>
<g clip-path="url(#clip0)">
<path d="M148.562 148.186C149.035 148.186 149.418 147.761 149.418 147.237C149.418 146.712 149.035 146.287 148.562 146.287C148.089 146.287 147.706 146.712 147.706 147.237C147.706 147.761 148.089 148.186 148.562 148.186Z" fill="#33B6FF"/>
<path d="M140.56 139.046C140.086 139.046 139.701 139.472 139.701 139.999V140.939C139.701 141.465 140.086 141.892 140.56 141.892C141.035 141.892 141.42 141.465 141.42 140.939V139.999C141.42 139.472 141.035 139.046 140.56 139.046Z" fill="#33B6FF"/>
<path d="M150.78 139.046C150.306 139.046 149.921 139.472 149.921 139.999V140.939C149.921 141.465 150.306 141.892 150.78 141.892C151.255 141.892 151.639 141.465 151.639 140.939V139.999C151.639 139.472 151.255 139.046 150.78 139.046Z" fill="#33B6FF"/>
<path d="M140.087 135.764C140.56 135.764 140.944 135.339 140.944 134.815C140.944 134.29 140.56 133.865 140.087 133.865C139.614 133.865 139.231 134.29 139.231 134.815C139.231 135.339 139.614 135.764 140.087 135.764Z" fill="#33B6FF"/>
<path d="M147.582 140.263C147.224 139.917 146.681 139.958 146.369 140.355C146.193 140.58 145.938 140.709 145.67 140.709C145.402 140.709 145.148 140.58 144.971 140.355C144.659 139.958 144.116 139.917 143.759 140.263C143.401 140.608 143.364 141.21 143.675 141.607C144.178 142.247 144.905 142.614 145.67 142.614C146.435 142.614 147.162 142.247 147.665 141.607C147.977 141.21 147.94 140.608 147.582 140.263Z" fill="#33B6FF"/>
<path d="M139.732 97.9663C140.99 97.9663 142.014 96.8314 142.014 95.4365C142.014 94.0417 140.99 92.9067 139.732 92.9067C138.474 92.9067 137.45 94.0415 137.45 95.4365C137.45 96.8314 138.474 97.9663 139.732 97.9663ZM139.732 94.8122C140.042 94.8122 140.295 95.0923 140.295 95.4366C140.295 95.7809 140.042 96.0611 139.732 96.0611C139.421 96.0611 139.169 95.781 139.169 95.4366C139.169 95.0923 139.421 94.8122 139.732 94.8122Z" fill="#33B6FF"/>
<path d="M162.718 113.051V111.918C162.718 110.748 162.195 109.712 161.395 109.08C161.751 108.587 161.986 107.977 162.046 107.302L162.37 103.666C162.61 100.97 162.047 98.2085 160.785 95.8895C158.796 92.2351 155.169 89.9648 151.319 89.9648H140.021C136.172 89.9648 132.545 92.2351 130.556 95.8895C129.293 98.2085 128.73 100.97 128.97 103.666L129.294 107.302C129.355 107.977 129.589 108.587 129.946 109.08C129.145 109.712 128.622 110.748 128.622 111.918V113.051C128.622 114.972 130.031 116.535 131.764 116.535H133.06L129.285 148.385C129.088 150.056 129.549 151.74 130.551 153.007C131.553 154.273 132.999 155 134.519 155H156.822C158.341 155 159.787 154.273 160.79 153.007C161.792 151.74 162.253 150.056 162.055 148.385L158.281 116.535H159.577C161.309 116.535 162.718 114.972 162.718 113.051ZM159.498 151.75C158.822 152.605 157.846 153.094 156.822 153.094H134.519C133.494 153.094 132.519 152.605 131.843 151.75C131.206 150.945 130.893 149.89 130.971 148.828H132.598L132.593 148.867C132.494 149.709 132.843 150.294 133.059 150.568C133.276 150.842 133.753 151.301 134.519 151.301H156.822C157.587 151.301 158.065 150.842 158.281 150.568C158.498 150.294 158.847 149.709 158.747 148.867L158.742 148.828H160.369C160.447 149.89 160.135 150.945 159.498 151.75ZM160.148 146.922H158.517L157.783 140.729C157.721 140.207 157.288 139.84 156.819 139.908C156.348 139.977 156.017 140.455 156.079 140.977L157.043 149.115C157.047 149.146 157.056 149.227 156.99 149.311C156.923 149.395 156.849 149.395 156.822 149.395H134.519C134.491 149.395 134.418 149.395 134.351 149.311C134.284 149.227 134.294 149.146 134.297 149.115L136.4 131.375C136.421 131.193 136.538 131.038 136.697 130.98C139.123 130.098 141.897 130.464 143.772 130.817C147.668 131.549 150.859 131.584 154.442 130.932C154.598 130.903 154.712 130.975 154.766 131.02C154.821 131.065 154.916 131.167 154.937 131.342L155.554 136.544C155.615 137.066 156.048 137.432 156.517 137.364C156.988 137.296 157.319 136.817 157.258 136.296L156.641 131.093C156.565 130.448 156.263 129.878 155.791 129.49C155.32 129.102 154.743 128.946 154.164 129.052C150.779 129.668 147.757 129.634 144.059 128.938C142.004 128.552 138.95 128.156 136.161 129.17C135.378 129.455 134.803 130.223 134.696 131.127L132.824 146.922H131.192L134.793 116.535H156.547L160.148 146.922ZM131.764 114.629C130.979 114.629 130.341 113.922 130.341 113.051V111.918C130.341 111.048 130.979 110.34 131.764 110.34H134.809C135.284 110.34 135.668 109.914 135.668 109.388C135.668 108.861 135.284 108.435 134.809 108.435H132.319C131.637 108.435 131.072 107.867 131.005 107.115L130.681 103.479C130.477 101.189 130.955 98.8436 132.027 96.874C133.707 93.7874 136.77 91.8702 140.021 91.8702H151.319C154.57 91.8702 157.634 93.7874 159.313 96.8739C160.385 98.8435 160.864 101.189 160.66 103.478L160.336 107.115C160.269 107.867 159.704 108.435 159.022 108.435H138.818C138.344 108.435 137.959 108.861 137.959 109.388C137.959 109.914 138.344 110.34 138.818 110.34H159.577C160.361 110.34 161 111.048 161 111.918V113.051C161 113.922 160.361 114.629 159.577 114.629H131.764V114.629Z" fill="#33B6FF"/>
<path d="M151.608 97.9663C152.866 97.9663 153.89 96.8314 153.89 95.4365C153.89 94.0417 152.866 92.9067 151.608 92.9067C150.35 92.9067 149.327 94.0415 149.327 95.4365C149.327 96.8314 150.35 97.9663 151.608 97.9663ZM151.608 94.8122C151.919 94.8122 152.172 95.0923 152.172 95.4366C152.172 95.7809 151.919 96.0611 151.608 96.0611C151.298 96.0611 151.045 95.781 151.045 95.4366C151.045 95.0923 151.298 94.8122 151.608 94.8122Z" fill="#33B6FF"/>
<path d="M151.636 134.319C152.109 134.319 152.493 133.894 152.493 133.369C152.493 132.845 152.109 132.42 151.636 132.42C151.163 132.42 150.78 132.845 150.78 133.369C150.78 133.894 151.163 134.319 151.636 134.319Z" fill="#33B6FF"/>
<path d="M145.67 97.4731C146.928 97.4731 147.952 96.3383 147.952 94.9433C147.952 93.5485 146.928 92.4136 145.67 92.4136C144.412 92.4136 143.389 93.5484 143.389 94.9433C143.389 96.3383 144.412 97.4731 145.67 97.4731ZM145.67 94.319C145.981 94.319 146.233 94.5991 146.233 94.9435C146.233 95.2877 145.981 95.5679 145.67 95.5679C145.36 95.5679 145.107 95.2878 145.107 94.9435C145.107 94.5991 145.36 94.319 145.67 94.319Z" fill="#33B6FF"/>
</g>
<defs>
<clipPath id="clip0">
<rect width="58.6593" height="65.035" fill="white" transform="translate(116.34 89.9648)"/>
</clipPath>
</defs>
</svg>
