<?xml version="1.0" encoding="UTF-8" standalone="no"?>
<svg
   xmlns:dc="http://purl.org/dc/elements/1.1/"
   xmlns:cc="http://creativecommons.org/ns#"
   xmlns:rdf="http://www.w3.org/1999/02/22-rdf-syntax-ns#"
   xmlns:svg="http://www.w3.org/2000/svg"
   xmlns="http://www.w3.org/2000/svg"
   xmlns:sodipodi="http://sodipodi.sourceforge.net/DTD/sodipodi-0.dtd"
   xmlns:inkscape="http://www.inkscape.org/namespaces/inkscape"
   viewBox="0 0 100 99.999995"
   version="1.1"
   id="svg12"
   sodipodi:docname="diabetes-tr.svg"
   width="100"
   height="100"
   inkscape:version="0.92.2 5c3e80d, 2017-08-06">
  <metadata
     id="metadata18">
    <rdf:RDF>
      <cc:Work
         rdf:about="">
        <dc:format>image/svg+xml</dc:format>
        <dc:type
           rdf:resource="http://purl.org/dc/dcmitype/StillImage" />
        <dc:title></dc:title>
      </cc:Work>
    </rdf:RDF>
  </metadata>
  <defs
     id="defs16" />
  <sodipodi:namedview
     pagecolor="#ffffff"
     bordercolor="#666666"
     borderopacity="1"
     objecttolerance="10"
     gridtolerance="10"
     guidetolerance="10"
     inkscape:pageopacity="0"
     inkscape:pageshadow="2"
     inkscape:window-width="1443"
     inkscape:window-height="855"
     id="namedview14"
     showgrid="false"
     inkscape:showpageshadow="false"
     fit-margin-top="0"
     fit-margin-left="0"
     fit-margin-right="0"
     fit-margin-bottom="0"
     inkscape:zoom="0.62695313"
     inkscape:cx="322.54743"
     inkscape:cy="225.62629"
     inkscape:window-x="0"
     inkscape:window-y="0"
     inkscape:window-maximized="0"
     inkscape:current-layer="svg12" />
  <path
     d="m 91.600186,58.2695 h -0.267957 c -2.144422,0 -4.101809,-0.80795 -5.58817,-2.13394 -0.201541,0.12894 -0.409188,0.25253 -0.628288,0.36468 -1.05198,0.53406 -2.179539,0.81101 -3.290302,0.95063 -1.358871,4.24347 -5.639319,7.35092 -10.699209,7.35092 H 57.659686 c -1.665762,0 -3.016237,-1.34964 -3.016237,-3.01438 0,-1.66473 1.350475,-3.01361 3.016237,-3.01361 H 71.12626 c 2.823095,0 5.119435,-1.88446 5.119435,-4.19998 0,-2.31476 -2.29634,-4.19922 -5.119435,-4.19922 H 42.492996 v 14.10218 c 0,2.30026 0.348115,14.08157 7.215,20.17135 2.424594,2.1492 5.315631,3.33634 8.626545,3.54691 v 8.79059 c 0,1.66473 1.350475,3.01437 3.016238,3.01437 H 89.22674 c 1.665764,0 3.016239,-1.34964 3.016239,-3.01437 V 87.68616 C 96.720385,86.39755 100,82.3143 100,77.49023 V 49.87488 c 0,4.62875 -3.768197,8.39462 -8.399814,8.39462 z m 0,0"
     id="path2"
     style="opacity:0.12999998;fill:#000000;stroke-width:0.19537288"
     inkscape:connector-curvature="0" />
  <path
     d="M 71.896543,44.37332 V 28.9566 h -5.003398 v 15.39002 h 4.233115 c 0.258797,0 0.515303,0.0107 0.770283,0.0267 z m 0,0"
     id="path4"
     style="opacity:0.12999998;fill:#000000;stroke-width:0.19537288"
     inkscape:connector-curvature="0" />
  <path
     d="m 82.932416,28.9566 h -5.003398 v 17.52167 c 1.742105,1.23444 3.075785,2.92969 3.783466,4.88663 1.218405,-0.28534 1.219932,-0.86518 1.219932,-1.62354 z m 0,0"
     id="path6"
     style="opacity:0.12999998;fill:#000000;stroke-width:0.19537288"
     inkscape:connector-curvature="0" />
  <path
     d="m 93.967523,31.56891 c 0,-1.44043 -1.172599,-2.61231 -2.613919,-2.61231 h -2.389477 v 20.91828 c 0,1.30462 1.062668,2.36664 2.368102,2.36664 h 0.267195 c 1.305431,0 2.368099,-1.06202 2.368099,-2.36664 z m 0,0"
     id="path8"
     style="opacity:0.12999998;fill:#000000;stroke-width:0.19537288"
     inkscape:connector-curvature="0" />
  <path
     d="m 52.2784,15.70816 v 28.63846 h 8.583034 V 8.11996 c 0,-2.36434 -1.925325,-4.28848 -4.291135,-4.28848 -2.366574,0 -4.291899,1.92414 -4.291899,4.28848 V 9.67941 H 43.193807 C 41.926545,4.14352 36.962082,0 31.044117,0 H 3.0162379 C 1.3504744,0 0,1.34964 0,3.01437 V 22.3732 c 0,1.66397 1.3504744,3.01361 3.0162379,3.01361 H 31.044117 c 5.917965,0 10.882428,-4.14352 12.14969,-9.67865 z M 32.7366,12.69379 c 0,1.66473 -1.350475,3.01437 -3.016237,3.01437 h -17.63709 c -1.665763,0 -3.0162378,-1.34964 -3.0162378,-3.01437 0,-1.66474 1.3504748,-3.01438 3.0162378,-3.01438 h 17.63709 c 1.665762,0 3.016237,1.34964 3.016237,3.01438 z m 0,0"
     id="path10"
     style="opacity:0.12999998;fill:#000000;stroke-width:0.19537288"
     inkscape:connector-curvature="0" />
</svg>
