<?xml version="1.0" encoding="UTF-8" standalone="no"?>
<svg
   xmlns:dc="http://purl.org/dc/elements/1.1/"
   xmlns:cc="http://creativecommons.org/ns#"
   xmlns:rdf="http://www.w3.org/1999/02/22-rdf-syntax-ns#"
   xmlns:svg="http://www.w3.org/2000/svg"
   xmlns="http://www.w3.org/2000/svg"
   xmlns:sodipodi="http://sodipodi.sourceforge.net/DTD/sodipodi-0.dtd"
   xmlns:inkscape="http://www.inkscape.org/namespaces/inkscape"
   version="1.1"
   id="Capa_1"
   xml:space="preserve"
   sodipodi:docname="fish.svg"
   width="50"
   height="50"
   inkscape:version="0.92.2 5c3e80d, 2017-08-06"><metadata
     id="metadata997"><rdf:RDF><cc:Work
         rdf:about=""><dc:format>image/svg+xml</dc:format><dc:type
           rdf:resource="http://purl.org/dc/dcmitype/StillImage" /><dc:title></dc:title></cc:Work></rdf:RDF></metadata><defs
     id="defs995" /><sodipodi:namedview
     pagecolor="#ffffff"
     bordercolor="#666666"
     borderopacity="1"
     objecttolerance="10"
     gridtolerance="10"
     guidetolerance="10"
     inkscape:pageopacity="0"
     inkscape:pageshadow="2"
     inkscape:window-width="1447"
     inkscape:window-height="834"
     id="namedview993"
     showgrid="false"
     inkscape:showpageshadow="false"
     fit-margin-top="0"
     fit-margin-left="0"
     fit-margin-right="0"
     fit-margin-bottom="0"
     inkscape:zoom="2.36"
     inkscape:cx="50.000444"
     inkscape:cy="-3.9185636"
     inkscape:window-x="0"
     inkscape:window-y="0"
     inkscape:window-maximized="0"
     inkscape:current-layer="Capa_1" /><g
     id="g990"
     style="fill:#8c8c8c"
     transform="matrix(1.0546919,0,0,1.1171322,4.6796727e-4,-1.4790587)"><path
       d="M 47.074,4.459 C 42.953,0.338 35.207,0.338 27.86,4.116 c -0.266,3.601 1.084,7.454 4.011,10.381 2.299,2.298 5.169,3.619 8.041,3.958 5.59,-6.747 8.53,-12.629 7.162,-13.996 z M 39.309,7.06 c -0.633,0.633 -1.658,0.633 -2.29,0.002 -0.634,-0.633 -0.634,-1.659 0,-2.292 0.632,-0.633 1.657,-0.633 2.291,0 0.631,0.633 0.631,1.659 -0.001,2.29 z"
       id="path986"
       inkscape:connector-curvature="0" /><path
       d="M 25.196,5.666 C 24.654,6.02 24.117,6.395 23.586,6.791 L 22.326,6.127 C 21.227,5.552 19.876,5.751 18.998,6.628 l -8.862,8.862 c -0.639,0.639 -0.928,1.547 -0.792,2.44 0.137,0.891 0.692,1.668 1.491,2.087 l 2.01,1.053 C 10.831,25.766 9.738,30.367 9.44,33.281 l -8.75,3.01 c -0.395,0.135 -0.667,0.495 -0.689,0.911 -0.022,0.417 0.209,0.806 0.586,0.982 l 3.816,1.797 c 0.747,0.352 1.346,0.952 1.698,1.698 l 1.797,3.815 c 0.177,0.376 0.566,0.608 0.981,0.586 0.417,-0.022 0.777,-0.296 0.913,-0.688 l 3.013,-8.764 c 4.108,-0.677 11.234,-3.817 17.423,-8.546 l 0.693,2.14 c 0.125,0.387 0.439,0.677 0.835,0.772 0.396,0.096 0.809,-0.025 1.098,-0.312 l 0.741,-0.742 c 0.57,-0.571 0.921,-1.327 0.977,-2.133 l 0.262,-3.762 c 1.081,-1.089 2.106,-2.179 3.074,-3.26 -2.855,-0.662 -5.621,-2.139 -7.904,-4.422 -3.023,-3.024 -4.64,-6.894 -4.808,-10.697 z"
       id="path988"
       inkscape:connector-curvature="0" /></g></svg>
