<?xml version="1.0" encoding="UTF-8" standalone="no"?>
<svg
   xmlns:dc="http://purl.org/dc/elements/1.1/"
   xmlns:cc="http://creativecommons.org/ns#"
   xmlns:rdf="http://www.w3.org/1999/02/22-rdf-syntax-ns#"
   xmlns:svg="http://www.w3.org/2000/svg"
   xmlns="http://www.w3.org/2000/svg"
   xmlns:sodipodi="http://sodipodi.sourceforge.net/DTD/sodipodi-0.dtd"
   xmlns:inkscape="http://www.inkscape.org/namespaces/inkscape"
   version="1.1"
   id="Capa_1"
   xml:space="preserve"
   sodipodi:docname="grains.svg"
   width="50"
   height="50"
   inkscape:version="0.92.2 5c3e80d, 2017-08-06"><metadata
     id="metadata1057"><rdf:RDF><cc:Work
         rdf:about=""><dc:format>image/svg+xml</dc:format><dc:type
           rdf:resource="http://purl.org/dc/dcmitype/StillImage" /><dc:title></dc:title></cc:Work></rdf:RDF></metadata><defs
     id="defs1055" /><sodipodi:namedview
     pagecolor="#ffffff"
     bordercolor="#666666"
     borderopacity="1"
     objecttolerance="10"
     gridtolerance="10"
     guidetolerance="10"
     inkscape:pageopacity="0"
     inkscape:pageshadow="2"
     inkscape:window-width="1447"
     inkscape:window-height="855"
     id="namedview1053"
     showgrid="false"
     inkscape:showpageshadow="false"
     fit-margin-top="0"
     fit-margin-left="0"
     fit-margin-right="0"
     fit-margin-bottom="0"
     inkscape:zoom="2.36"
     inkscape:cx="49.998258"
     inkscape:cy="29.541"
     inkscape:window-x="0"
     inkscape:window-y="0"
     inkscape:window-maximized="0"
     inkscape:current-layer="Capa_1" /><g
     id="g1050"
     style="fill:#8c8c8c"
     transform="matrix(0.6286362,0,0,0.62860663,-0.0010951,0)"><path
       d="m 79.523,46.593 h 0.011 c -0.228,5.872 -2.227,12.236 -5.297,18.107 0,0 -7.327,14.841 -30.336,14.841 C 20.894,79.541 13.435,64.83 13.435,64.83 10.359,58.933 8.493,52.609 8.259,46.598 h 0.016 c -0.01,-0.165 -0.016,-0.315 -0.016,-0.471 0,-2.822 1.745,-5.463 4.751,-7.741 l 3.203,2.05 c -1.983,1.331 -3.13,2.817 -3.13,4.396 0,5.557 13.797,10.066 30.818,10.066 17.018,0 30.812,-4.51 30.812,-10.066 0,-3.845 -6.617,-7.185 -16.331,-8.88 l 0.046,-4.042 c 12.434,2.434 21.111,7.873 21.111,14.217 0,0.155 -0.005,0.306 -0.016,0.466 z M 20.104,22.662 c -0.122,0.945 -0.277,2.454 0.885,4.513 1.442,2.491 3.288,3.351 3.886,3.775 -0.101,-0.642 0.075,-2.561 -1.276,-4.893 -1.167,-2.095 -2.439,-3.024 -3.197,-3.749 -2.128,-3.071 -4.528,-5.53 -6.359,-7.472 L 9.686,10.308 c -0.005,0 1.564,1.815 4.176,4.678 1.789,2.014 4.158,4.564 6.242,7.676 z m 10.908,23.967 c 0.932,0.875 2.11,2.314 4.735,3.77 2.936,1.642 5.419,1.642 6.255,1.828 -0.471,-0.767 -1.421,-3.194 -4.666,-4.991 -2.662,-1.466 -4.65,-1.182 -5.875,-0.975 -4.016,-2.34 -7.456,-4.727 -10.234,-6.441 -3.966,-2.444 -6.542,-3.689 -6.532,-3.689 -0.01,0.005 2.499,1.375 6.379,3.94 2.668,1.766 5.987,4.192 9.938,6.558 z M 33.381,33.85 c -0.318,1.082 -0.774,2.832 0.249,5.408 1.227,3.151 3.267,4.461 3.899,5.057 0.005,-0.771 0.541,-2.957 -0.616,-5.919 -1.022,-2.63 -2.354,-3.94 -3.117,-4.906 -1.988,-3.938 -4.412,-7.21 -6.273,-9.755 l -4.448,-5.999 4.205,6.131 c 1.806,2.64 4.167,6 6.101,9.983 z m -7.477,6.394 c 0.886,0.785 2.017,2.11 4.492,3.418 2.768,1.455 5.08,1.403 5.854,1.554 -0.456,-0.694 -1.401,-2.918 -4.454,-4.526 -2.503,-1.305 -4.344,-1.018 -5.478,-0.805 -3.78,-2.105 -7.029,-4.27 -9.634,-5.833 -3.738,-2.227 -6.162,-3.35 -6.146,-3.361 -0.01,0.011 2.346,1.256 5.994,3.594 2.506,1.612 5.652,3.823 9.372,5.959 z m -5.339,-6.299 c 0.833,0.722 1.903,1.932 4.209,3.086 2.589,1.31 4.73,1.22 5.453,1.347 -0.435,-0.635 -1.354,-2.657 -4.199,-4.094 -2.335,-1.165 -4.037,-0.87 -5.08,-0.668 -3.537,-1.893 -6.576,-3.865 -9.01,-5.281 -3.482,-2.025 -5.743,-3.048 -5.732,-3.058 -0.011,0.015 2.19,1.144 5.6,3.27 2.349,1.466 5.282,3.479 8.759,5.398 z m -5.44,-9.168 c 1.559,1.396 3.048,1.476 3.886,1.75 C 18.83,25.849 18.985,24.164 17.209,22.582 15.687,21.279 14.154,21.173 13.37,21.114 7.112,15.755 1.566,12.306 0.29,11.49 L 0.002,11.293 c -0.046,0.044 6.066,4.073 13.225,10.351 0.229,0.78 0.648,2.064 1.898,3.133 z m -0.105,2.959 c 0.774,0.658 1.771,1.761 3.917,2.789 2.387,1.188 4.365,1.066 5.033,1.173 C 23.55,31.126 22.675,29.31 20.05,28.009 17.883,26.973 16.324,27.232 15.363,27.429 12.086,25.728 9.281,23.918 7.019,22.658 3.798,20.796 1.698,19.895 1.704,19.885 c 0,0.011 2.048,1.013 5.191,2.97 2.18,1.309 4.896,3.147 8.125,4.881 z m 11.904,0.34 c -0.223,1.012 -0.526,2.651 0.582,4.963 1.341,2.832 3.309,3.907 3.923,4.412 -0.052,-0.704 0.282,-2.757 -0.969,-5.414 -1.124,-2.354 -2.423,-3.479 -3.187,-4.321 -2.079,-3.5 -4.492,-6.374 -6.354,-8.611 l -4.422,-5.261 4.209,5.403 c 1.822,2.322 4.186,5.282 6.218,8.829 z m 24.591,6.02 c -0.704,0.693 -1.802,1.843 -2.154,4.23 -0.44,2.899 0.523,4.735 0.74,5.444 0.337,-0.575 1.693,-2.02 2.118,-4.756 0.357,-2.429 -0.078,-3.977 -0.233,-5.03 0.197,-3.824 -0.232,-7.319 -0.554,-10.028 -0.477,-3.946 -0.823,-6.4 -0.818,-6.4 l 0.569,6.405 c 0.249,2.758 0.596,6.305 0.332,10.135 z m -2.253,-6.502 c -0.61,0.684 -1.554,1.818 -1.734,4.049 -0.218,2.711 0.787,4.35 1.036,4.997 0.273,-0.557 1.439,-1.988 1.651,-4.534 0.181,-2.281 -0.315,-3.682 -0.528,-4.645 -0.041,-3.544 -0.632,-6.744 -1.077,-9.227 l -1.093,-5.87 0.875,5.885 c 0.368,2.531 0.886,5.788 0.87,9.345 z m -2.62,-6.374 c -0.518,0.663 -1.314,1.771 -1.336,3.835 -0.031,2.514 1.008,3.956 1.279,4.533 0.207,-0.541 1.176,-1.932 1.212,-4.29 0.025,-2.105 -0.513,-3.351 -0.771,-4.226 -0.262,-3.257 -0.981,-6.162 -1.538,-8.414 l -1.336,-5.331 1.123,5.362 c 0.492,2.307 1.155,5.258 1.367,8.531 z m 4.614,29.763 c 0.403,-0.59 1.973,-2.029 2.63,-4.939 0.57,-2.579 0.207,-4.272 0.109,-5.417 0.471,-4.093 0.223,-7.886 0.041,-10.817 -0.274,-4.274 -0.508,-6.931 -0.508,-6.931 l 0.244,6.925 c 0.093,2.975 0.248,6.809 -0.29,10.9 -0.803,0.707 -2.056,1.859 -2.6,4.386 -0.682,3.077 0.193,5.112 0.374,5.893 z M 38.176,17.031 c 0.321,0.733 0.649,1.877 1.838,3.34 1.311,1.667 2.768,2.221 3.219,2.524 -0.102,-0.557 -0.083,-2.177 -1.525,-4.002 -1.199,-1.479 -2.413,-1.802 -3.177,-1.973 -1.755,-2.338 -3.141,-4.585 -4.332,-6.268 -1.667,-2.429 -2.863,-3.78 -2.853,-3.79 -0.01,0.005 1.113,1.421 2.692,3.891 1.114,1.692 2.419,3.94 4.138,6.278 z M 39.3,14.895 c 0.642,1.538 1.68,2.095 2.19,2.566 0.106,-0.552 0.81,-1.74 0.088,-3.49 -0.634,-1.458 -1.711,-2.04 -2.252,-2.343 C 36.7,5.626 33.922,1.261 33.286,0.233 L 33.148,0 c -0.046,0.016 2.939,4.994 5.885,11.972 -0.106,0.642 -0.259,1.724 0.267,2.923 z m 2.63,12.189 c 1.403,1.815 2.98,2.455 3.462,2.783 -0.091,-0.608 -0.036,-2.39 -1.585,-4.388 -1.273,-1.628 -2.604,-1.983 -3.433,-2.175 -1.888,-2.561 -3.376,-5.01 -4.632,-6.856 -1.8,-2.641 -3.056,-4.129 -3.056,-4.143 0,0.008 1.184,1.566 2.885,4.254 1.178,1.852 2.576,4.301 4.412,6.866 0.345,0.801 0.694,2.036 1.947,3.659 z m 1.706,-12.088 c -0.419,0.647 -1.062,1.706 -0.955,3.593 0.16,2.307 1.188,3.547 1.471,4.057 0.152,-0.5 0.958,-1.851 0.811,-4.008 -0.102,-1.926 -0.694,-3.029 -0.981,-3.813 -0.45,-2.946 -1.315,-5.551 -1.947,-7.576 L 40.487,2.475 c -0.005,0 0.489,1.856 1.364,4.821 0.571,2.069 1.382,4.725 1.785,7.7 z m -2.019,14.809 c 0.35,0.88 0.699,2.221 2.02,3.987 1.483,1.988 3.172,2.713 3.685,3.086 -0.083,-0.668 0.016,-2.605 -1.616,-4.79 -1.346,-1.792 -2.772,-2.188 -3.671,-2.405 -1.988,-2.801 -3.562,-5.463 -4.888,-7.472 -1.908,-2.869 -3.254,-4.498 -3.249,-4.503 -0.005,0.005 1.245,1.699 3.06,4.624 1.239,2.01 2.717,4.672 4.659,7.473 z M 22.315,47.323 c -0.005,0.01 2.196,1.258 5.636,3.687 0.244,0.052 0.482,0.108 0.733,0.16 -3.854,-2.568 -6.374,-3.842 -6.369,-3.847 z m 27.46,4.841 c -0.518,-0.808 -1.057,-1.403 -1.595,-1.854 -0.181,-0.497 -0.367,-0.963 -0.567,-1.367 1.168,1.191 2.261,1.781 2.664,2.113 0,-0.052 0,-0.124 0,-0.202 0.146,0.471 0.275,0.947 0.42,1.434 0.223,-0.02 0.44,-0.03 0.658,-0.051 -0.404,-1.378 -0.85,-2.714 -1.337,-3.978 -0.171,-0.683 -0.45,-1.429 -0.9,-2.227 -0.43,-0.999 -0.859,-1.957 -1.284,-2.868 0.522,0.357 0.942,0.596 1.16,0.766 -0.067,-0.725 0.104,-2.821 -1.604,-5.214 -1.002,-1.398 -2.078,-2.024 -2.959,-2.364 l -2.703,-5.258 c -0.005,0 0.881,1.918 2.4,5.152 -0.228,-0.073 -0.44,-0.138 -0.624,-0.192 -2.079,-3.047 -3.718,-5.937 -5.119,-8.111 -1.994,-3.102 -3.417,-4.862 -3.407,-4.868 -0.005,0.011 1.315,1.836 3.208,5 1.292,2.18 2.84,5.064 4.852,8.109 0.359,0.942 0.709,2.395 2.081,4.332 0.647,0.906 1.326,1.569 1.947,2.074 0.233,0.533 0.481,1.083 0.725,1.657 -1.165,-1.17 -2.338,-1.548 -3.132,-1.781 -0.229,-0.354 -0.445,-0.704 -0.663,-1.054 -1.342,-2.874 -2.778,-5.414 -3.982,-7.529 -2.651,-4.64 -4.378,-7.482 -4.368,-7.482 l 4.06,7.609 c 0.308,0.572 0.626,1.193 0.965,1.823 -0.445,-0.761 -0.87,-1.478 -1.266,-2.136 -2.068,-3.35 -3.565,-5.248 -3.56,-5.253 -0.011,0.011 1.38,1.976 3.337,5.391 1.149,2.009 2.476,4.583 4.13,7.355 0.728,1.618 1.421,3.332 2.029,5.145 -0.163,0.373 -0.354,0.828 -0.518,1.377 -1.83,-3.133 -3.314,-6.029 -4.645,-8.262 -0.43,-0.743 -0.829,-1.39 -1.199,-1.993 -1.675,-3.441 -3.591,-6.4 -5.134,-8.779 -2.692,-4.158 -4.433,-6.724 -4.427,-6.724 l 4.158,6.856 c 1.781,2.954 4.114,6.734 5.911,11.141 -0.417,1.139 -1.033,2.988 -0.127,5.831 1.093,3.464 3.182,5.022 3.819,5.711 0.057,-0.776 0.709,-2.874 -0.06,-5.841 0.479,0.891 0.981,1.817 1.527,2.76 -0.228,1.072 -0.28,2.413 0.132,4.127 1.725,-0.016 3.42,-0.072 5.088,-0.187 -0.034,-0.064 -0.055,-0.125 -0.091,-0.188 z M 25.529,45.728 c -4.184,-2.682 -6.916,-4.041 -6.908,-4.046 -0.008,0.005 2.638,1.494 6.726,4.306 2.372,1.631 5.267,3.795 8.596,6.001 0.415,0.052 0.834,0.083 1.248,0.124 -3.749,-2.362 -7.001,-4.681 -9.662,-6.385 z m 30.154,1.662 c 0.787,-4.354 0.73,-8.445 0.73,-11.599 l -0.15,-7.461 c -0.005,0 -0.072,2.848 -0.135,7.441 -0.088,3.197 -0.135,7.316 -0.994,11.661 -0.906,0.694 -2.304,1.849 -3.097,4.5 -0.021,0.088 -0.03,0.165 -0.052,0.253 1.201,-0.113 2.367,-0.248 3.511,-0.403 0.374,-1.958 0.209,-3.392 0.187,-4.392 z"
       id="path1048"
       inkscape:connector-curvature="0" /></g></svg>
