<?xml version="1.0" encoding="UTF-8" standalone="no"?>
<!-- Generator: Adobe Illustrator 18.0.0, SVG Export Plug-In . SVG Version: 6.00 Build 0)  -->

<svg
   xmlns:dc="http://purl.org/dc/elements/1.1/"
   xmlns:cc="http://creativecommons.org/ns#"
   xmlns:rdf="http://www.w3.org/1999/02/22-rdf-syntax-ns#"
   xmlns:svg="http://www.w3.org/2000/svg"
   xmlns="http://www.w3.org/2000/svg"
   xmlns:sodipodi="http://sodipodi.sourceforge.net/DTD/sodipodi-0.dtd"
   xmlns:inkscape="http://www.inkscape.org/namespaces/inkscape"
   version="1.1"
   id="Capa_1"
   x="0px"
   y="0px"
   viewBox="0 0 44.000001 46.000007"
   xml:space="preserve"
   sodipodi:docname="happy-man.svg"
   width="44"
   height="46.000004"
   inkscape:version="0.92.2 5c3e80d, 2017-08-06"><metadata
     id="metadata43"><rdf:RDF><cc:Work
         rdf:about=""><dc:format>image/svg+xml</dc:format><dc:type
           rdf:resource="http://purl.org/dc/dcmitype/StillImage" /><dc:title /></cc:Work></rdf:RDF></metadata><defs
     id="defs41" /><sodipodi:namedview
     pagecolor="#ffffff"
     bordercolor="#666666"
     borderopacity="1"
     objecttolerance="10"
     gridtolerance="10"
     guidetolerance="10"
     inkscape:pageopacity="0"
     inkscape:pageshadow="2"
     inkscape:window-width="1440"
     inkscape:window-height="856"
     id="namedview39"
     showgrid="false"
     inkscape:showpageshadow="false"
     fit-margin-top="0"
     fit-margin-left="0"
     fit-margin-right="0"
     fit-margin-bottom="0"
     inkscape:zoom="8.4198084"
     inkscape:cx="26.451365"
     inkscape:cy="23.182825"
     inkscape:window-x="0"
     inkscape:window-y="0"
     inkscape:window-maximized="0"
     inkscape:current-layer="Capa_1" /><g
     id="g6"
     style="fill:#b3b3b3"
     transform="matrix(0.13443344,0,0,0.09350031,-11.069069,0)"><path
       d="m 245.998,108.554 c 29.976,0 54.271,-24.296 54.271,-54.272 C 300.269,24.304 275.973,0 245.998,0 c -29.978,0 -54.29,24.304 -54.29,54.281 0,29.977 24.312,54.273 54.29,54.273 z"
       id="path2"
       style="fill:#aaccff;fill-opacity:1"
       inkscape:connector-curvature="0" /><path
       d="m 400.839,18.977 c -10.398,-8.738 -25.949,-7.398 -34.727,3.017 l -85.325,101.541 c -3.739,4.453 -9.228,7.005 -15.036,7.005 h -39.525 c -5.81,0 -11.298,-2.552 -15.037,-7.005 L 125.865,21.994 C 117.087,11.579 101.553,10.223 91.137,18.977 80.706,27.739 79.359,43.281 88.12,53.703 l 98.145,116.739 v 139.428 8.127 149.043 c 0,13.77 11.171,24.937 24.939,24.937 13.769,0 24.938,-11.161 24.938,-24.937 V 317.998 h 19.706 V 467.04 c 0,13.776 11.169,24.937 24.938,24.937 13.768,0 24.939,-11.161 24.939,-24.937 V 317.998 309.887 170.704 L 403.856,53.703 c 8.763,-10.423 7.414,-25.965 -3.017,-34.726 z"
       id="path4"
       style="fill:#aaccff;fill-opacity:1"
       inkscape:connector-curvature="0" /></g><g
     id="g8"
     style="fill:#b3b3b3"
     transform="matrix(0.13443344,0,0,0.09350031,-11.069069,0)" /><g
     id="g10"
     style="fill:#b3b3b3"
     transform="matrix(0.13443344,0,0,0.09350031,-11.069069,0)" /><g
     id="g12"
     style="fill:#b3b3b3"
     transform="matrix(0.13443344,0,0,0.09350031,-11.069069,0)" /><g
     id="g14"
     style="fill:#b3b3b3"
     transform="matrix(0.13443344,0,0,0.09350031,-11.069069,0)" /><g
     id="g16"
     style="fill:#b3b3b3"
     transform="matrix(0.13443344,0,0,0.09350031,-11.069069,0)" /><g
     id="g18"
     style="fill:#b3b3b3"
     transform="matrix(0.13443344,0,0,0.09350031,-11.069069,0)" /><g
     id="g20"
     style="fill:#b3b3b3"
     transform="matrix(0.13443344,0,0,0.09350031,-11.069069,0)" /><g
     id="g22"
     style="fill:#b3b3b3"
     transform="matrix(0.13443344,0,0,0.09350031,-11.069069,0)" /><g
     id="g24"
     style="fill:#b3b3b3"
     transform="matrix(0.13443344,0,0,0.09350031,-11.069069,0)" /><g
     id="g26"
     style="fill:#b3b3b3"
     transform="matrix(0.13443344,0,0,0.09350031,-11.069069,0)" /><g
     id="g28"
     style="fill:#b3b3b3"
     transform="matrix(0.13443344,0,0,0.09350031,-11.069069,0)" /><g
     id="g30"
     style="fill:#b3b3b3"
     transform="matrix(0.13443344,0,0,0.09350031,-11.069069,0)" /><g
     id="g32"
     style="fill:#b3b3b3"
     transform="matrix(0.13443344,0,0,0.09350031,-11.069069,0)" /><g
     id="g34"
     style="fill:#b3b3b3"
     transform="matrix(0.13443344,0,0,0.09350031,-11.069069,0)" /><g
     id="g36"
     style="fill:#b3b3b3"
     transform="matrix(0.13443344,0,0,0.09350031,-11.069069,0)" /><path
     d="m 27.615989,22.701248 c -0.62572,-0.693423 -1.614926,-1.247802 -2.744332,-1.486164 -1.404618,-0.288927 -2.019951,0.19683 -2.388631,0.722315 -0.262233,0.442417 -0.220685,0.994988 0.262228,1.339895 0.26223,0.189608 0.636105,0.287121 0.926896,0.449643 0.695815,0.364767 0.978817,1.065413 0.675048,1.634237 -0.199918,0.491175 -1.121616,0.951651 -0.825636,1.661326 0.573789,0.837886 2.663844,0.653697 3.437554,0.175162 2.167941,-1.215297 1.321508,-3.759652 0.656873,-4.496414 z"
     id="path23"
     inkscape:connector-curvature="0"
     style="fill:#385fa0;stroke-width:0.02165282;fill-opacity:1" /><path
     d="m 16.379036,22.675965 c 0.625718,-0.69342 1.612324,-1.247799 2.741734,-1.486163 1.404614,-0.288928 2.01995,0.19683 2.388625,0.722316 0.262236,0.442418 0.220691,0.99499 -0.26223,1.339896 -0.262228,0.189607 -0.636097,0.287119 -0.926889,0.449641 -0.695819,0.364769 -0.978824,1.065415 -0.675044,1.634239 0.199912,0.491174 1.121617,0.951652 0.825632,1.661325 -0.573792,0.837886 -2.663843,0.653697 -3.437551,0.175162 -2.165353,-1.215296 -1.31894,-3.759651 -0.654277,-4.496416 z"
     id="path25"
     inkscape:connector-curvature="0"
     style="fill:#385fa0;stroke-width:0.02165282;fill-opacity:1" /><path
     d="m 22.200023,23.382031 h -0.423202 c -0.150585,0.207665 -0.958045,0.525484 -1.028149,0.554375 h 2.458733 C 22.464829,23.645674 22.25195,23.430787 22.200023,23.382031 Z"
     id="path27"
     inkscape:connector-curvature="0"
     style="fill:#385fa0;stroke-width:0.02165282;fill-opacity:1" /><path
     d="m 23.814922,24.398688 h -0.604948 c -0.482917,0 -0.906119,0.148076 -1.209894,0.379216 C 21.706697,24.53954 21.265323,24.38605 20.779802,24.38605 h -0.59456 c -0.111597,0.17516 -0.171359,0.364769 -0.150588,0.554375 h 0.755533 c 0.454357,0 0.817845,0.252811 0.817845,0.568825 v 0.01445 2.48296 0.01446 h 0.797077 v -0.01446 -2.486571 c 0,-0.316013 0.363487,-0.568823 0.817846,-0.568823 h 0.74515 c 0.0075,-0.187803 -0.04409,-0.377411 -0.153183,-0.552573 z"
     id="path29"
     inkscape:connector-curvature="0"
     style="fill:#385fa0;stroke-width:0.02165282;fill-opacity:1" /></svg>