<svg width="155" height="152" viewBox="0 0 155 152" fill="none" xmlns="http://www.w3.org/2000/svg">
<path d="M134.151 13.3269C108.95 0.170533 78.3751 -2.79589 51.6071 2.45683C50.3824 2.6973 49.5841 3.88489 49.8243 5.10985C50.0648 6.33481 51.2524 7.13277 52.4773 6.8926C78.3573 1.81406 107.857 4.69912 132.059 17.3338C144.56 23.8603 151.523 37.5892 149.384 51.4968L138.5 122.269C136.284 136.68 123.876 147.304 109.322 147.304H44.9661C30.3862 147.304 17.9995 136.654 15.7873 122.269L4.90339 51.4968C2.76445 37.5895 9.72699 23.8603 22.2282 17.3338C28.997 13.8 36.3835 10.9366 44.1829 8.8233C45.3876 8.49695 46.0997 7.25572 45.7731 6.05095C45.4464 4.84618 44.2058 4.1332 43.0007 4.46076C34.8867 6.65936 27.194 9.64235 20.1363 13.3272C5.92012 20.7487 -1.99707 36.3643 0.435674 52.1842L11.3196 122.956C13.8747 139.572 28.1812 151.824 44.9661 151.824H109.322C126.132 151.824 140.417 139.546 142.968 122.956L153.852 52.1842C156.285 36.3643 148.368 20.7487 134.151 13.3269Z" fill="#19419A"/>
<path d="M90.845 77.6634C90.845 76.4152 89.8331 75.4033 88.585 75.4033H37.3654C28.3073 75.4033 21.3872 83.4835 22.762 92.4241L27.0847 120.533C28.4522 129.422 35.9725 135.874 44.9667 135.874H109.321C118.315 135.874 125.835 129.422 127.203 120.533L131.526 92.4241C132.902 83.4712 125.968 75.4033 116.922 75.4033H97.6253C96.3771 75.4033 95.3652 76.4152 95.3652 77.6634C95.3652 78.9116 96.3771 79.9235 97.6253 79.9235H116.922C123.209 79.9235 128.012 85.5315 127.058 91.737L122.735 119.846C121.71 126.514 116.068 131.354 109.321 131.354H44.967C38.22 131.354 32.5782 126.514 31.5524 119.846L27.2297 91.737C26.2741 85.5227 31.0869 79.9235 37.3654 79.9235H88.585C89.8331 79.9235 90.845 78.9116 90.845 77.6634Z" fill="#19419A"/>
<path d="M50.8599 97.6319V102.248C50.8599 103.496 51.8718 104.508 53.1199 104.508C54.3681 104.508 55.38 103.496 55.38 102.248V97.6319C55.38 96.3837 54.3681 95.3718 53.1199 95.3718C51.8718 95.3718 50.8599 96.3837 50.8599 97.6319Z" fill="#19419A"/>
<path d="M103.427 102.248V97.6321C103.427 96.384 102.415 95.3721 101.167 95.3721C99.9191 95.3721 98.9072 96.384 98.9072 97.6321V102.248C98.9072 103.497 99.9191 104.508 101.167 104.508C102.415 104.508 103.427 103.497 103.427 102.248Z" fill="#19419A"/>
<path d="M81.7736 100.626C80.605 101.967 78.9171 102.736 77.1437 102.736C75.3703 102.736 73.6825 101.967 72.5139 100.626C71.6939 99.6849 70.2662 99.5873 69.3251 100.407C68.384 101.227 68.286 102.655 69.106 103.596C71.1334 105.922 74.0628 107.257 77.1434 107.257C80.2241 107.257 83.1534 105.922 85.1809 103.596C86.0011 102.655 85.9029 101.228 84.9621 100.408C84.0213 99.587 82.5935 99.6849 81.7736 100.626Z" fill="#19419A"/>
<path d="M112.757 21.5477C90.3763 14.0846 63.9311 14.0777 41.5301 21.5477C35.0205 23.7182 31.4698 30.7832 33.6147 37.2968L39.9616 56.5692C41.6506 61.6992 46.4149 65.146 51.8162 65.146H102.471C107.873 65.146 112.637 61.6992 114.326 56.5692L120.672 37.2968C122.818 30.7835 119.267 23.7182 112.757 21.5477ZM71.2034 60.6261L76.2274 41.2612C76.4718 40.3192 77.8154 40.3186 78.0604 41.2612L83.0844 60.6264H71.2034V60.6261ZM116.379 35.8832L110.033 55.1556C108.955 58.4275 105.916 60.6261 102.471 60.6261H87.754C87.2164 58.5538 83.004 42.3165 82.4356 40.1258C81.8101 37.7153 79.6341 36.0317 77.1438 36.0317C74.6535 36.0317 72.4775 37.7153 71.8519 40.1258L66.5335 60.6258H51.8162C48.3709 60.6258 45.3325 58.4275 44.2549 55.1553L37.908 35.8825C36.5396 31.7276 38.806 27.2204 42.96 25.8352C45.2867 25.0592 47.6555 24.3721 50.0587 23.7634L51.9307 30.2242C52.279 31.4272 53.5356 32.1124 54.7304 31.7659C55.9295 31.4184 56.6196 30.1649 56.2721 28.9661L54.4707 22.7488C61.0478 21.387 67.8723 20.6301 74.8837 20.4972V27.4654C74.8837 28.7136 75.8956 29.7255 77.1438 29.7255C78.3919 29.7255 79.4038 28.7136 79.4038 27.4654V20.4978C86.4152 20.6307 93.2397 21.3879 99.8168 22.7494L98.0154 28.9667C97.6679 30.1658 98.3583 31.4191 99.5571 31.7665C100.751 32.1124 102.008 31.4287 102.357 30.2248L104.229 23.764C106.632 24.3724 109.001 25.0598 111.328 25.8355C115.482 27.2207 117.748 31.7279 116.379 35.8832Z" fill="#33B6FF"/>
</svg>
