<svg width="147" height="147" viewBox="0 0 147 147" fill="none" xmlns="http://www.w3.org/2000/svg">
<g clip-path="url(#clip0)">
<path d="M138.197 101.24C140.779 93.9247 142.091 86.2557 142.091 78.4133C142.091 64.6823 138.047 51.4311 130.396 40.0934C129.509 38.779 127.724 38.4327 126.41 39.3196C125.095 40.2065 124.749 41.9912 125.636 43.3056C132.644 53.6912 136.349 65.831 136.349 78.4133C136.349 85.4242 135.205 92.2813 132.954 98.8322C127.749 97.7742 122.217 100.076 119.419 104.922C116.624 109.763 117.392 115.696 120.9 119.675C108.938 133.423 91.8176 141.258 73.504 141.258C55.1905 141.258 38.0701 133.423 26.1077 119.675C29.6156 115.697 30.3839 109.763 27.5892 104.922C24.791 100.076 19.2584 97.7748 14.0537 98.8328C11.8025 92.2821 10.6595 85.426 10.6595 78.4136C10.6595 48.4506 32.3185 22.3954 61.4641 16.7235C63.1517 21.7571 67.9094 25.3957 73.504 25.3957C79.0981 25.3957 83.8552 21.758 85.5434 16.7253C93.6404 18.29 101.242 21.396 108.171 25.9874C108.659 26.3107 109.21 26.4655 109.755 26.4655C110.685 26.4655 111.598 26.0138 112.151 25.1798C113.027 23.8579 112.665 22.0764 111.343 21.2007C103.62 16.0833 95.1317 12.6543 86.0826 10.9822C85.2419 4.78927 79.9235 0 73.504 0C67.0845 0 61.7658 4.78956 60.9255 10.9825C45.7552 13.7996 31.8999 21.7187 21.7032 33.4586C10.8789 45.9211 4.91761 61.8864 4.91761 78.4133C4.91761 86.2563 6.2297 93.923 8.81196 101.237C6.62476 102.926 5.05513 105.27 4.32789 107.985C3.4499 111.261 3.90038 114.683 5.59633 117.62C7.94575 121.689 12.2222 123.966 16.6142 123.966C18.2266 123.966 19.8548 123.659 21.4086 123.021C34.4778 138.289 53.3277 147 73.504 147C93.6798 147 112.53 138.289 125.599 123.021C127.153 123.659 128.781 123.966 130.394 123.966C134.786 123.966 139.063 121.688 141.412 117.62C144.62 112.063 143.134 105.066 138.197 101.24ZM73.504 5.74219C77.3392 5.74219 80.4595 8.86249 80.4595 12.698C80.4595 16.5335 77.3392 19.6535 73.504 19.6535C69.6688 19.6535 66.5485 16.5335 66.5485 12.698C66.5485 8.86249 69.6688 5.74219 73.504 5.74219ZM10.5688 114.749C9.63998 113.14 9.39307 111.266 9.87398 109.471C10.3549 107.676 11.5059 106.176 13.1149 105.247C14.2076 104.617 15.4017 104.317 16.5809 104.317C18.9865 104.317 21.3296 105.565 22.6162 107.793C23.545 109.402 23.7919 111.277 23.311 113.071C22.8301 114.866 21.6791 116.366 20.0701 117.295C16.7488 119.213 12.4867 118.07 10.5688 114.749ZM136.439 114.749C134.522 118.07 130.259 119.212 126.938 117.295C125.329 116.366 124.178 114.866 123.697 113.071C123.216 111.277 123.463 109.402 124.392 107.793C125.678 105.564 128.021 104.317 130.427 104.317C131.606 104.317 132.8 104.617 133.893 105.247C135.502 106.176 136.653 107.676 137.134 109.471C137.615 111.266 137.368 113.14 136.439 114.749Z" fill="#19419A"/>
<path d="M39.6631 67.1297C36.2293 74.3976 35.4925 83.0803 37.5887 91.5776C41.4231 107.122 53.8193 117.863 66.7386 117.863C68.5802 117.863 70.4329 117.645 72.2724 117.191C73.078 116.992 73.9293 116.992 74.7369 117.191C76.5773 117.645 78.4274 117.863 80.2695 117.863C93.1869 117.863 105.585 107.121 109.419 91.5776C113.8 73.8182 105.37 56.4107 90.627 52.7739C85.9968 51.6318 81.0881 51.9706 76.4283 53.697C76.6545 49.1517 79.3778 45.0027 83.4987 43.0102C84.9262 42.32 85.5239 40.6031 84.8337 39.1756C84.1435 37.7481 82.4266 37.1506 80.9991 37.8408C78.4831 39.0573 76.3255 40.8262 74.6416 42.9571C73.7665 41.1807 72.6011 39.5347 71.1656 38.0989C66.5371 33.4704 59.7266 31.645 53.3918 33.336C52.399 33.601 51.6232 34.3768 51.3582 35.3699C49.6964 41.5968 51.4334 48.2815 55.8885 52.9034C48.8609 54.7975 43.1116 59.8308 39.6631 67.1297ZM56.5753 38.5525C60.4194 38.0765 64.333 39.386 67.1053 42.1589C69.8779 44.9315 71.1877 48.8443 70.7117 52.6889C66.8678 53.1644 62.954 51.8555 60.1814 49.0826C57.4087 46.3102 56.0989 42.3972 56.5753 38.5525ZM57.7556 58.349C62.4725 57.1851 67.4159 58.0076 72.0513 60.7266C72.9482 61.2525 74.0594 61.2525 74.9563 60.7266C79.5917 58.0073 84.5354 57.1856 89.252 58.349C100.921 61.2273 107.467 75.517 103.844 90.2026C100.222 104.888 87.7806 114.495 76.1142 111.617C75.2601 111.405 74.3818 111.3 73.5035 111.3C72.6258 111.3 71.7481 111.405 70.8957 111.616C59.2273 114.494 46.7866 104.888 43.1641 90.2026C41.3832 82.983 41.9838 75.6603 44.8552 69.5827C47.6315 63.7056 52.2132 59.7159 57.7556 58.349Z" fill="#33B6FF"/>
<path d="M119.774 34.6223C120.53 34.6223 121.27 34.3151 121.804 33.7811C122.338 33.2471 122.646 32.5063 122.646 31.7512C122.646 30.9961 122.338 30.2554 121.804 29.7214C121.27 29.1845 120.53 28.8801 119.774 28.8801C119.019 28.8801 118.279 29.1845 117.745 29.7214C117.211 30.2554 116.903 30.9935 116.903 31.7512C116.903 32.5063 117.211 33.2471 117.745 33.7811C118.279 34.3151 119.019 34.6223 119.774 34.6223Z" fill="black"/>
</g>
<defs>
<clipPath id="clip0">
<rect width="147" height="147" fill="white"/>
</clipPath>
</defs>
</svg>
