<?xml version="1.0" encoding="UTF-8" standalone="no"?>
<!-- Generator: Adobe Illustrator 19.0.0, SVG Export Plug-In . SVG Version: 6.00 Build 0)  -->

<svg
   xmlns:dc="http://purl.org/dc/elements/1.1/"
   xmlns:cc="http://creativecommons.org/ns#"
   xmlns:rdf="http://www.w3.org/1999/02/22-rdf-syntax-ns#"
   xmlns:svg="http://www.w3.org/2000/svg"
   xmlns="http://www.w3.org/2000/svg"
   xmlns:sodipodi="http://sodipodi.sourceforge.net/DTD/sodipodi-0.dtd"
   xmlns:inkscape="http://www.inkscape.org/namespaces/inkscape"
   version="1.1"
   id="Capa_1"
   x="0px"
   y="0px"
   viewBox="0 0 100 100"
   xml:space="preserve"
   sodipodi:docname="hemoglobin.svg"
   width="100"
   height="100"
   inkscape:version="0.92.2 5c3e80d, 2017-08-06"><metadata
     id="metadata73"><rdf:RDF><cc:Work
         rdf:about=""><dc:format>image/svg+xml</dc:format><dc:type
           rdf:resource="http://purl.org/dc/dcmitype/StillImage" /><dc:title></dc:title></cc:Work></rdf:RDF></metadata><defs
     id="defs71" /><sodipodi:namedview
     pagecolor="#ffffff"
     bordercolor="#666666"
     borderopacity="1"
     objecttolerance="10"
     gridtolerance="10"
     guidetolerance="10"
     inkscape:pageopacity="0"
     inkscape:pageshadow="2"
     inkscape:window-width="1444"
     inkscape:window-height="856"
     id="namedview69"
     showgrid="false"
     inkscape:showpageshadow="false"
     inkscape:zoom="4.5466966"
     inkscape:cx="96.11517"
     inkscape:cy="56.27033"
     inkscape:window-x="0"
     inkscape:window-y="0"
     inkscape:window-maximized="0"
     inkscape:current-layer="Capa_1" /><g
     id="g6"
     style="opacity:0.12999998;fill:#000000"
     transform="matrix(0.22051282,0,0,0.1953125,-6.4512821,0)"><g
       id="g4"
       style="fill:#000000"><path
         d="M 268.993,398.485 256,375.985 242.992,398.514 C 241.688,400.771 241,403.363 241,406 c 0,8.276 6.724,15 15,15 8.276,0 15,-6.724 15,-15 0,-2.637 -0.688,-5.229 -2.007,-7.515 z"
         id="path2"
         style="fill:#000000"
         inkscape:connector-curvature="0" /></g></g><g
     id="g12"
     style="opacity:0.12999998;fill:#000000"
     transform="matrix(0.22051282,0,0,0.1953125,-6.4512821,0)"><g
       id="g10"
       style="fill:#000000"><path
         d="m 181,301 v 196 c 0,8.276 6.724,15 15,15 h 120 c 8.276,0 15,-6.724 15,-15 V 301 Z m 75,150 c -24.814,0 -45,-20.186 -45,-45 0,-7.866 2.065,-15.63 5.991,-22.456 L 243.007,338.5 c 5.361,-9.287 20.625,-9.287 25.986,0 l 26.001,45.015 C 298.935,390.37 301,398.134 301,406 c 0,24.814 -20.186,45 -45,45 z"
         id="path8"
         style="fill:#000000"
         inkscape:connector-curvature="0" /></g></g><g
     id="g18"
     style="opacity:0.12999998;fill:#000000"
     transform="matrix(0.22051282,0,0,0.1953125,-6.4512821,0)"><g
       id="g16"
       style="fill:#000000"><path
         d="m 91,331 v 15 c 0,24.814 20.186,45 45,45 h 15 v -60 z"
         id="path14"
         style="fill:#000000"
         inkscape:connector-curvature="0" /></g></g><g
     id="g24"
     style="opacity:0.12999998;fill:#000000"
     transform="matrix(0.22051282,0,0,0.1953125,-6.4512821,0)"><g
       id="g22"
       style="fill:#000000"><path
         d="m 361,331 v 60 h 15 c 24.814,0 45,-20.186 45,-45 v -15 z"
         id="path20"
         style="fill:#000000"
         inkscape:connector-curvature="0" /></g></g><g
     id="g30"
     style="opacity:0.12999998;fill:#000000"
     transform="matrix(0.22051282,0,0,0.1953125,-6.4512821,0)"><g
       id="g28"
       style="fill:#000000"><path
         d="M 346,90 H 166 c -8.276,0 -15,6.724 -15,15 v 31 c 0,8.276 6.724,15 15,15 h 180 c 8.276,0 15,-6.724 15,-15 v -31 c 0,-8.276 -6.724,-15 -15,-15 z"
         id="path26"
         style="fill:#000000"
         inkscape:connector-curvature="0" /></g></g><g
     id="g36"
     style="opacity:0.12999998;fill:#000000"
     transform="matrix(0.22051282,0,0,0.1953125,-6.4512821,0)"><g
       id="g34"
       style="fill:#000000"><path
         d="M 384.789,0 H 127.211 C 90.707,0 61,29.707 61,66.211 v 108.578 c 0,17.681 6.885,34.307 19.395,46.816 C 87.235,228.446 91,237.543 91,247.211 V 301 h 60 v -15 c 0,-8.291 6.709,-15 15,-15 h 180 c 8.291,0 15,6.709 15,15 v 15 h 60 v -53.789 c 0,-9.668 3.765,-18.765 10.605,-25.605 C 444.115,209.096 451,192.47 451,174.789 V 66.211 C 451,29.707 421.293,0 384.789,0 Z M 196,241 c -8.284,0 -15,-6.716 -15,-15 0,-8.286 6.716,-15 15,-15 8.284,0 15,6.714 15,15 0,8.284 -6.716,15 -15,15 z m 60,0 c -8.284,0 -15,-6.716 -15,-15 0,-8.286 6.716,-15 15,-15 8.284,0 15,6.714 15,15 0,8.284 -6.716,15 -15,15 z m 60,0 c -8.284,0 -15,-6.716 -15,-15 0,-8.286 6.716,-15 15,-15 8.284,0 15,6.714 15,15 0,8.284 -6.716,15 -15,15 z m 75,-105 c 0,24.814 -20.186,45 -45,45 H 166 c -24.814,0 -45,-20.186 -45,-45 v -31 c 0,-24.814 20.186,-45 45,-45 h 180 c 24.814,0 45,20.186 45,45 z"
         id="path32"
         style="fill:#000000"
         inkscape:connector-curvature="0" /></g></g><g
     id="g38"
     style="opacity:0.12999998;fill:#000000"
     transform="matrix(0.22051282,0,0,0.1953125,-6.4512821,0)" /><g
     id="g40"
     style="opacity:0.12999998;fill:#000000"
     transform="matrix(0.22051282,0,0,0.1953125,-6.4512821,0)" /><g
     id="g42"
     style="opacity:0.12999998;fill:#000000"
     transform="matrix(0.22051282,0,0,0.1953125,-6.4512821,0)" /><g
     id="g44"
     style="opacity:0.12999998;fill:#000000"
     transform="matrix(0.22051282,0,0,0.1953125,-6.4512821,0)" /><g
     id="g46"
     style="opacity:0.12999998;fill:#000000"
     transform="matrix(0.22051282,0,0,0.1953125,-6.4512821,0)" /><g
     id="g48"
     style="opacity:0.12999998;fill:#000000"
     transform="matrix(0.22051282,0,0,0.1953125,-6.4512821,0)" /><g
     id="g50"
     style="opacity:0.12999998;fill:#000000"
     transform="matrix(0.22051282,0,0,0.1953125,-6.4512821,0)" /><g
     id="g52"
     style="opacity:0.12999998;fill:#000000"
     transform="matrix(0.22051282,0,0,0.1953125,-6.4512821,0)" /><g
     id="g54"
     style="opacity:0.12999998;fill:#000000"
     transform="matrix(0.22051282,0,0,0.1953125,-6.4512821,0)" /><g
     id="g56"
     style="opacity:0.12999998;fill:#000000"
     transform="matrix(0.22051282,0,0,0.1953125,-6.4512821,0)" /><g
     id="g58"
     style="opacity:0.12999998;fill:#000000"
     transform="matrix(0.22051282,0,0,0.1953125,-6.4512821,0)" /><g
     id="g60"
     style="opacity:0.12999998;fill:#000000"
     transform="matrix(0.22051282,0,0,0.1953125,-6.4512821,0)" /><g
     id="g62"
     style="opacity:0.12999998;fill:#000000"
     transform="matrix(0.22051282,0,0,0.1953125,-6.4512821,0)" /><g
     id="g64"
     style="opacity:0.12999998;fill:#000000"
     transform="matrix(0.22051282,0,0,0.1953125,-6.4512821,0)" /><g
     id="g66"
     style="opacity:0.12999998;fill:#000000"
     transform="matrix(0.22051282,0,0,0.1953125,-6.4512821,0)" /></svg>
