<svg width="100" height="100" viewBox="0 0 100 100" fill="none" xmlns="http://www.w3.org/2000/svg">
<path d="M35.9375 79.6875H39.0625V82.8125H35.9375V79.6875Z" fill="#385FA0"/>
<path d="M87.5 95.3125V38.6094L50 13.1516L12.5 38.6094V55.2859C14.7406 55.2859 16.7281 56.6281 17.5688 58.7062C21.4625 68.3344 23.4375 74.8687 23.4375 78.125C23.4375 84.6406 19.5016 89.6766 14.0625 90.4953V87.3281C17.6281 86.5359 20.3125 83.0375 20.3125 78.125C20.3125 74.4625 16.9828 65.5937 14.6703 59.8766C13.8797 57.9219 11.1188 57.9219 10.3281 59.8766C8.01719 65.5937 4.6875 74.4625 4.6875 78.125C4.6875 83.0391 7.37187 86.5359 10.9375 87.3281V95.3125H3.125V98.4375H96.875V95.3125H87.5ZM65.625 75L68.75 70.3125L71.875 75V79.6875H78.125V75L81.25 70.3125L84.375 75V95.3125H78.125V85.9375H71.875V95.3125H65.625V85.9375H59.375V95.3125H53.125V75L56.25 70.3125L59.375 75V79.6875H65.625V75ZM51.5625 43.75H59.375V46.875C59.375 49.4641 57.2766 51.5625 54.6875 51.5625H51.5625V43.75ZM54.6875 32.8125C57.2766 32.8125 59.375 34.9109 59.375 37.5V40.625H51.5625V32.8125H54.6875ZM40.625 37.5C40.625 34.9109 42.7234 32.8125 45.3125 32.8125H48.4375V40.625H40.625V37.5ZM40.625 43.75H48.4375V51.5625H45.3125C42.7234 51.5625 40.625 49.4641 40.625 46.875V43.75ZM43.75 65.625V95.3125H26.5625V65.625H43.75Z" fill="#385FA0"/>
<path d="M50 10.0266L91.9953 38.5234L95.5047 33.35L50 2.47343L4.49533 33.35L8.00471 38.5234L50 10.0266Z" fill="#385FA0"/>
</svg>
