<?xml version="1.0" encoding="UTF-8" standalone="no"?>
<!-- Generator: Adobe Illustrator 19.0.0, SVG Export Plug-In . SVG Version: 6.00 Build 0)  -->

<svg
   xmlns:dc="http://purl.org/dc/elements/1.1/"
   xmlns:cc="http://creativecommons.org/ns#"
   xmlns:rdf="http://www.w3.org/1999/02/22-rdf-syntax-ns#"
   xmlns:svg="http://www.w3.org/2000/svg"
   xmlns="http://www.w3.org/2000/svg"
   xmlns:sodipodi="http://sodipodi.sourceforge.net/DTD/sodipodi-0.dtd"
   xmlns:inkscape="http://www.inkscape.org/namespaces/inkscape"
   version="1.1"
   id="Capa_1"
   x="0px"
   y="0px"
   viewBox="0 0 100 100"
   xml:space="preserve"
   sodipodi:docname="kidneys.svg"
   width="100"
   height="100"
   inkscape:version="0.92.2 5c3e80d, 2017-08-06"><metadata
     id="metadata49"><rdf:RDF><cc:Work
         rdf:about=""><dc:format>image/svg+xml</dc:format><dc:type
           rdf:resource="http://purl.org/dc/dcmitype/StillImage" /><dc:title></dc:title></cc:Work></rdf:RDF></metadata><defs
     id="defs47" /><sodipodi:namedview
     pagecolor="#ffffff"
     bordercolor="#666666"
     borderopacity="1"
     objecttolerance="10"
     gridtolerance="10"
     guidetolerance="10"
     inkscape:pageopacity="0"
     inkscape:pageshadow="2"
     inkscape:window-width="1446"
     inkscape:window-height="853"
     id="namedview45"
     showgrid="false"
     inkscape:showpageshadow="false"
     inkscape:zoom="4.0883441"
     inkscape:cx="45.840348"
     inkscape:cy="41.028985"
     inkscape:window-x="0"
     inkscape:window-y="0"
     inkscape:window-maximized="0"
     inkscape:current-layer="Capa_1" /><g
     id="g12"
     transform="matrix(0.20431978,0,0,0.22188441,3.8678167e-4,-3.9713922)"
     style="fill:#000000;opacity:0.13"><g
       id="g10"
       style="fill:#000000"><path
         d="m 461.122,141.656 c -24.1,-38.4 -62.2,-69.1 -105.7,-82.3 -54.1,-16 -77.8,10.9 -92,40 -10.1,24.5 -8.5,55.1 10.1,74.2 10.1,10.5 24.5,15.9 35.7,24.9 26.8,20.2 37.7,59 26,90.5 -7.7,27.2 -43.2,52.7 -31.8,92 22.1,46.4 102.6,36.2 132.4,9.7 83.5,-67.3 50.899,-208.2 25.3,-249 z"
         id="path2"
         inkscape:connector-curvature="0"
         style="fill:#000000" /><path
         d="m 28.322,140.256 c 24.1,-38.4 62.1,-69.1 105.6,-82.3 54.1,-16 77.8,10.9 92,40 10.1,24.5 8.5,55.1 -10.1,74.2 -10.1,10.5 -24.5,15.9 -35.7,24.9 -26.8,20.2 -37.7,59 -26,90.5 7.7,27.2 43.2,52.7 31.8,92 -22.1,46.4 -102.6,36.2 -132.4,9.7 -83.4,-67.3 -50.8,-208.2 -25.2,-249 z"
         id="path4"
         inkscape:connector-curvature="0"
         style="fill:#000000" /><path
         d="m 252.522,179.356 h -16.3 c -5.8,11.5 -36.9,29.1 -39.6,30.7 h 94.7 c -28.601,-16.1 -36.8,-28 -38.8,-30.7 z"
         id="path6"
         inkscape:connector-curvature="0"
         style="fill:#000000" /><path
         d="m 314.721,235.656 h -23.3 c -18.6,0 -34.9,8.2 -46.6,21 -11.3,-13.2 -28.3,-21.7 -47,-21.7 h -22.9 c -4.3,9.7 -6.6,20.2 -5.8,30.7 h 29.1 c 17.5,0 31.5,14 31.5,31.5 v 0.8 137.5 0.8 h 30.7 v -0.8 -137.7 c 0,-17.5 14,-31.5 31.5,-31.5 h 28.7 c 0.301,-10.4 -1.699,-20.9 -5.9,-30.6 z"
         id="path8"
         inkscape:connector-curvature="0"
         style="fill:#000000" /></g></g><g
     id="g14"
     transform="matrix(0.20431978,0,0,0.22188441,3.8678167e-4,-3.9713922)"
     style="fill:#000000;opacity:0.13" /><g
     id="g16"
     transform="matrix(0.20431978,0,0,0.22188441,3.8678167e-4,-3.9713922)"
     style="fill:#000000;opacity:0.13" /><g
     id="g18"
     transform="matrix(0.20431978,0,0,0.22188441,3.8678167e-4,-3.9713922)"
     style="fill:#000000;opacity:0.13" /><g
     id="g20"
     transform="matrix(0.20431978,0,0,0.22188441,3.8678167e-4,-3.9713922)"
     style="fill:#000000;opacity:0.13" /><g
     id="g22"
     transform="matrix(0.20431978,0,0,0.22188441,3.8678167e-4,-3.9713922)"
     style="fill:#000000;opacity:0.13" /><g
     id="g24"
     transform="matrix(0.20431978,0,0,0.22188441,3.8678167e-4,-3.9713922)"
     style="fill:#000000;opacity:0.13" /><g
     id="g26"
     transform="matrix(0.20431978,0,0,0.22188441,3.8678167e-4,-3.9713922)"
     style="fill:#000000;opacity:0.13" /><g
     id="g28"
     transform="matrix(0.20431978,0,0,0.22188441,3.8678167e-4,-3.9713922)"
     style="fill:#000000;opacity:0.13" /><g
     id="g30"
     transform="matrix(0.20431978,0,0,0.22188441,3.8678167e-4,-3.9713922)"
     style="fill:#000000;opacity:0.13" /><g
     id="g32"
     transform="matrix(0.20431978,0,0,0.22188441,3.8678167e-4,-3.9713922)"
     style="fill:#000000;opacity:0.13" /><g
     id="g34"
     transform="matrix(0.20431978,0,0,0.22188441,3.8678167e-4,-3.9713922)"
     style="fill:#000000;opacity:0.13" /><g
     id="g36"
     transform="matrix(0.20431978,0,0,0.22188441,3.8678167e-4,-3.9713922)"
     style="fill:#000000;opacity:0.13" /><g
     id="g38"
     transform="matrix(0.20431978,0,0,0.22188441,3.8678167e-4,-3.9713922)"
     style="fill:#000000;opacity:0.13" /><g
     id="g40"
     transform="matrix(0.20431978,0,0,0.22188441,3.8678167e-4,-3.9713922)"
     style="fill:#000000;opacity:0.13" /><g
     id="g42"
     transform="matrix(0.20431978,0,0,0.22188441,3.8678167e-4,-3.9713922)"
     style="fill:#000000;opacity:0.13" /></svg>
