<?xml version="1.0" encoding="UTF-8" standalone="no"?>
<!-- Generator: Adobe Illustrator 19.0.0, SVG Export Plug-In . SVG Version: 6.00 Build 0)  -->

<svg
   xmlns:dc="http://purl.org/dc/elements/1.1/"
   xmlns:cc="http://creativecommons.org/ns#"
   xmlns:rdf="http://www.w3.org/1999/02/22-rdf-syntax-ns#"
   xmlns:svg="http://www.w3.org/2000/svg"
   xmlns="http://www.w3.org/2000/svg"
   xmlns:sodipodi="http://sodipodi.sourceforge.net/DTD/sodipodi-0.dtd"
   xmlns:inkscape="http://www.inkscape.org/namespaces/inkscape"
   version="1.1"
   id="Capa_1"
   x="0px"
   y="0px"
   viewBox="0 0 49.999901 50.000001"
   xml:space="preserve"
   sodipodi:docname="liver-small.svg"
   width="49.999901"
   height="50"
   inkscape:version="0.92.2 5c3e80d, 2017-08-06"><metadata
     id="metadata51"><rdf:RDF><cc:Work
         rdf:about=""><dc:format>image/svg+xml</dc:format><dc:type
           rdf:resource="http://purl.org/dc/dcmitype/StillImage" /><dc:title></dc:title></cc:Work></rdf:RDF></metadata><defs
     id="defs49" /><sodipodi:namedview
     pagecolor="#ffffff"
     bordercolor="#666666"
     borderopacity="1"
     objecttolerance="10"
     gridtolerance="10"
     guidetolerance="10"
     inkscape:pageopacity="0"
     inkscape:pageshadow="2"
     inkscape:window-width="1440"
     inkscape:window-height="851"
     id="namedview47"
     showgrid="false"
     fit-margin-top="0"
     fit-margin-left="0"
     fit-margin-right="0"
     fit-margin-bottom="0"
     inkscape:zoom="3.1899938"
     inkscape:cx="36.068872"
     inkscape:cy="35.716247"
     inkscape:window-x="0"
     inkscape:window-y="0"
     inkscape:window-maximized="0"
     inkscape:current-layer="Capa_1"
     inkscape:showpageshadow="false" /><g
     id="g14"
     transform="scale(0.09765606)"
     style="opacity:1;fill:#385fa0;fill-opacity:1"><g
       id="g12"
       style="fill:#385fa0;fill-opacity:1"><g
         id="g10"
         style="fill:#385fa0;fill-opacity:1"><path
           d="m 411.429,0 h -192 C 67.848,0 0,114.799 0,228.571 V 384 c 0,44.732 0,128 27.429,128 18.958,0 31.408,-25.023 43.406,-54.881 2.007,-5.007 4.006,-10.154 6.04,-15.369 18.289,-47.034 40.77,-104.85 94.757,-111.893 3.722,-0.481 7.472,-0.719 11.225,-0.714 6.272,0 12.232,-0.316 18.072,-0.763 1.699,-0.132 3.382,-0.284 5.047,-0.454 4.698,-0.48 9.264,-1.111 13.698,-1.893 1.721,-0.306 3.44,-0.622 5.128,-0.976 10.745,-2.143 21.212,-5.502 31.198,-10.013 v -68.187 c 0.934,-18.541 -9.001,-35.932 -25.446,-44.545 -22.214,-13.094 -58.75,-19.455 -111.696,-19.455 -0.288,-0.043 -0.573,-0.1 -0.855,-0.172 -1.421,11.213 -8.064,21.091 -17.913,26.637 -4.515,2.244 -9.994,0.41 -12.249,-4.099 -2.255,-4.509 -0.434,-9.993 4.07,-12.258 6.077,-4.442 9.368,-11.755 8.661,-19.25 0.707,-7.495 -2.583,-14.808 -8.661,-19.25 -2.93,-1.456 -4.859,-4.367 -5.057,-7.633 -0.199,-3.266 1.363,-6.389 4.095,-8.19 2.732,-1.801 6.218,-2.004 9.141,-0.534 9.849,5.545 16.492,15.424 17.913,26.637 0.282,-0.072 0.567,-0.13 0.855,-0.172 55.814,0 95.193,7.07 120.328,21.606 l 2.574,1.015 c 12.339,4.884 24.009,9.487 33.509,4.621 9.652,-4.942 17.634,-19.629 23.714,-43.652 4.205,-24.862 13.402,-59.813 32.491,-81.121 14.355,-13.225 33.015,-20.801 52.526,-21.328 0.288,0.043 0.573,0.1 0.855,0.172 1.421,-11.213 8.064,-21.092 17.913,-26.637 4.515,-2.244 9.994,-0.41 12.248,4.099 2.255,4.509 0.434,9.993 -4.07,12.258 -6.077,4.442 -9.368,11.756 -8.661,19.25 -0.707,7.495 2.583,14.808 8.661,19.25 4.504,2.265 6.325,7.749 4.07,12.258 -2.255,4.509 -7.734,6.343 -12.248,4.099 C 392.92,84.918 386.276,75.039 384.855,63.826 384.573,63.9 384.288,63.957 384,64 c -14.496,0.498 -28.37,6.014 -39.25,15.607 -12.464,13.929 -22.223,39.067 -27.893,72.335 -4.607,31.419 -6.614,63.166 -6,94.915 v 24.362 l 0.161,-0.179 c 4,-4.357 7.83,-8.531 11.661,-12.361 11.026,-11.031 18.214,-28.545 26.536,-48.821 10.625,-25.888 22.661,-55.232 46.607,-79.179 17.981,-16.25 38.143,-29.91 59.902,-40.585 C 485.92,73.469 512,59.112 512,36.571 512,10.781 498.027,0 411.429,0 Z"
           id="path2"
           inkscape:connector-curvature="0"
           style="fill:#385fa0;fill-opacity:1" /><path
           d="m 253.83,335.685 c 0.714,0.453 1.492,0.821 2.17,1.321 v -2.169 c -0.72,0.288 -1.442,0.572 -2.17,0.848 z"
           id="path4"
           inkscape:connector-curvature="0"
           style="fill:#385fa0;fill-opacity:1" /><path
           d="m 215.029,345.314 c -4.236,0.567 -8.571,1.016 -13.006,1.348 -1.224,0.093 -2.45,0.191 -3.69,0.265 -5.041,0.298 -10.166,0.502 -15.476,0.502 -49.688,0 -69.643,51.326 -88.938,100.964 -1.549,3.994 -3.101,7.952 -4.656,11.873 l -0.121,0.31 c 9.348,22.29 28.08,33.138 57.143,33.138 24.679,0 41.321,-4.844 50.893,-14.804 13.652,-14.214 12.652,-39.103 11.598,-65.455 -0.911,-22.745 -1.92,-47.714 7.384,-68.259 -0.367,0.053 -0.763,0.067 -1.131,0.118 z"
           id="path6"
           inkscape:connector-curvature="0"
           style="fill:#385fa0;fill-opacity:1" /><path
           d="m 288.814,204.844 c -1.646,1.22 -3.387,2.305 -5.207,3.246 -5.351,2.727 -11.28,4.122 -17.286,4.067 l -0.186,-0.016 -0.296,0.016 c 5.782,10.637 8.693,22.597 8.446,34.701 v 256 c 0,5.049 4.093,9.143 9.143,9.143 5.05,0 9.143,-4.093 9.143,-9.143 v -256 c 0,-11.933 0,-28.054 0.884,-45.956 -0.995,0.972 -2.047,1.776 -3.086,2.621 -0.523,0.426 -1.02,0.927 -1.555,1.321 z"
           id="path8"
           inkscape:connector-curvature="0"
           style="fill:#385fa0;fill-opacity:1" /></g></g></g><g
     id="g16"
     transform="scale(0.09765606)"
     style="opacity:1;fill:#385fa0;fill-opacity:1" /><g
     id="g18"
     transform="scale(0.09765606)"
     style="opacity:1;fill:#385fa0;fill-opacity:1" /><g
     id="g20"
     transform="scale(0.09765606)"
     style="opacity:1;fill:#385fa0;fill-opacity:1" /><g
     id="g22"
     transform="scale(0.09765606)"
     style="opacity:1;fill:#385fa0;fill-opacity:1" /><g
     id="g24"
     transform="scale(0.09765606)"
     style="opacity:1;fill:#385fa0;fill-opacity:1" /><g
     id="g26"
     transform="scale(0.09765606)"
     style="opacity:1;fill:#385fa0;fill-opacity:1" /><g
     id="g28"
     transform="scale(0.09765606)"
     style="opacity:1;fill:#385fa0;fill-opacity:1" /><g
     id="g30"
     transform="scale(0.09765606)"
     style="opacity:1;fill:#385fa0;fill-opacity:1" /><g
     id="g32"
     transform="scale(0.09765606)"
     style="opacity:1;fill:#385fa0;fill-opacity:1" /><g
     id="g34"
     transform="scale(0.09765606)"
     style="opacity:1;fill:#385fa0;fill-opacity:1" /><g
     id="g36"
     transform="scale(0.09765606)"
     style="opacity:1;fill:#385fa0;fill-opacity:1" /><g
     id="g38"
     transform="scale(0.09765606)"
     style="opacity:1;fill:#385fa0;fill-opacity:1" /><g
     id="g40"
     transform="scale(0.09765606)"
     style="opacity:1;fill:#385fa0;fill-opacity:1" /><g
     id="g42"
     transform="scale(0.09765606)"
     style="opacity:1;fill:#385fa0;fill-opacity:1" /><g
     id="g44"
     transform="scale(0.09765606)"
     style="opacity:1;fill:#385fa0;fill-opacity:1" /></svg>