<?xml version="1.0" encoding="UTF-8" standalone="no"?>
<svg
   xmlns:dc="http://purl.org/dc/elements/1.1/"
   xmlns:cc="http://creativecommons.org/ns#"
   xmlns:rdf="http://www.w3.org/1999/02/22-rdf-syntax-ns#"
   xmlns:svg="http://www.w3.org/2000/svg"
   xmlns="http://www.w3.org/2000/svg"
   xmlns:sodipodi="http://sodipodi.sourceforge.net/DTD/sodipodi-0.dtd"
   xmlns:inkscape="http://www.inkscape.org/namespaces/inkscape"
   height="37.499996pt"
   viewBox="-32 0 34.187683 37.499995"
   width="34.187683pt"
   version="1.1"
   id="svg12"
   sodipodi:docname="lose-weight.svg"
   inkscape:version="0.92.2 5c3e80d, 2017-08-06">
  <metadata
     id="metadata18">
    <rdf:RDF>
      <cc:Work
         rdf:about="">
        <dc:format>image/svg+xml</dc:format>
        <dc:type
           rdf:resource="http://purl.org/dc/dcmitype/StillImage" />
        <dc:title></dc:title>
      </cc:Work>
    </rdf:RDF>
  </metadata>
  <defs
     id="defs16" />
  <sodipodi:namedview
     pagecolor="#ffffff"
     bordercolor="#666666"
     borderopacity="1"
     objecttolerance="10"
     gridtolerance="10"
     guidetolerance="10"
     inkscape:pageopacity="0"
     inkscape:pageshadow="2"
     inkscape:window-width="1440"
     inkscape:window-height="850"
     id="namedview14"
     showgrid="false"
     inkscape:showpageshadow="false"
     fit-margin-top="0"
     fit-margin-left="0"
     fit-margin-right="0"
     fit-margin-bottom="0"
     inkscape:zoom="6.3700051"
     inkscape:cx="22.480316"
     inkscape:cy="21.638437"
     inkscape:window-x="0"
     inkscape:window-y="0"
     inkscape:window-maximized="0"
     inkscape:current-layer="svg12" />
  <path
     d="m -26.663044,28.392441 c -0.02504,0.09774 -0.05075,0.191682 -0.0762,0.28866 -0.065,0.25002 -0.129726,0.494737 -0.194752,0.736423 -0.02745,0.103039 -0.05461,0.210623 -0.08241,0.312146 3.909691,1.193279 7.999875,1.78272 12.110226,1.743323 4.11,0.03788 8.1991452,-0.550802 12.1081376,-1.744838 -0.027819,-0.101523 -0.054251,-0.207592 -0.081027,-0.309116 -0.066771,-0.246232 -0.1325025,-0.495494 -0.1975355,-0.74703 -0.024694,-0.09546 -0.049734,-0.187137 -0.074772,-0.282598 -3.7886609,1.187974 -7.7609419,1.778174 -11.7547949,1.74408 -3.994543,0.03788 -7.96753,-0.553075 -11.756886,-1.74105 z m 0,0"
     id="path2"
     style="fill:#8c8c8c;fill-opacity:1;stroke-width:0.08633032"
     inkscape:connector-curvature="0" />
  <path
     d="m -25.136654,10.832688 c 0.171451,1.678166 0.259089,3.441188 0.259089,5.237545 h 1.424486 v -1.339502 c 0,-0.253809 0.152323,-0.485645 0.393687,-0.599291 0.241348,-0.113646 0.529998,-0.08864 0.745971,0.06061 l 5.697948,4.017749 c 0.179103,0.126525 0.284826,0.325026 0.284826,0.53565 0,0.21138 -0.105719,0.409881 -0.284826,0.535649 l -5.697948,4.018506 c -0.123463,0.08713 -0.273356,0.134102 -0.427422,0.134102 -0.393321,0 -0.712236,-0.300024 -0.712236,-0.669751 v -1.339502 h -1.826164 c -0.238582,1.75393 -0.5947,3.643476 -1.062806,5.638335 3.681203,1.178125 7.547761,1.762263 11.435891,1.728169 3.888129,0.03031 7.7546894,-0.550044 11.4358883,-1.728169 -0.4674092,-1.996373 -0.8235305,-3.88592 -1.0627995,-5.638334 h -1.8261676 v 1.339502 c 0,0.253808 -0.1523259,0.485645 -0.3936818,0.599291 -0.2413554,0.112887 -0.5300088,0.08864 -0.745977,-0.06061 l -5.6979464,-4.018506 c -0.179105,-0.125769 -0.284829,-0.324269 -0.284829,-0.53565 0,-0.210623 0.105719,-0.409124 0.284829,-0.535649 l 5.6979464,-4.017749 c 0.2159682,-0.152286 0.5046216,-0.177288 0.745977,-0.06061 0.2413559,0.113645 0.3936818,0.345482 0.3936818,0.59929 v 1.339503 h 1.4244861 c 0,-1.796357 0.087638,-3.559379 0.2601366,-5.241333 0.093199,-0.976594 0.2100556,-1.91076 0.3460356,-2.772952 C -3.9331572,5.323916 -3.2824713,2.627486 -2.3841679,0 H -27.428844 c 0.899346,2.629001 1.550378,5.326189 1.945805,8.062016 0.135288,0.85916 0.249354,1.793326 0.346385,2.773709 z m 9.518247,12.60405 h 1.424485 v 1.339502 h -1.424485 z m 0,0"
     id="path4"
     style="fill:#8c8c8c;fill-opacity:1;stroke-width:0.08633032"
     inkscape:connector-curvature="0" />
  <path
     d="m -14.906158,32.812495 c -4.234164,0.03788 -8.44642,-0.572015 -12.475035,-1.797873 -0.849616,2.906297 -1.705849,5.26482 -2.171511,6.485374 h 29.2930948 c -0.4656721,-1.220554 -1.3218935,-3.579836 -2.1715078,-6.485374 -4.0286273,1.225858 -8.240877,1.832725 -12.475041,1.797873 z m 0,0"
     id="path6"
     style="fill:#8c8c8c;fill-opacity:1;stroke-width:0.08633032"
     inkscape:connector-curvature="0" />
  <path
     d="m -22.028594,20.757733 v 0.669751 l 3.798403,-2.679004 -3.798403,-2.678247 v 0.669751 c 0,0.369727 -0.318913,0.668994 -0.712249,0.668994 H -32 v 2.679004 h 9.259157 c 0.393336,0 0.712249,0.300024 0.712249,0.669751 z m 0,0"
     id="path8"
     style="fill:#8c8c8c;fill-opacity:1;stroke-width:0.08633032"
     inkscape:connector-curvature="0" />
  <path
     d="m -7.0714803,17.408978 c -0.393334,0 -0.7122435,-0.299267 -0.7122435,-0.668994 v -0.669751 l -3.7984012,2.678247 3.7984012,2.679004 v -0.669751 c 0,-0.369727 0.3189095,-0.669751 0.7122435,-0.669751 H 2.187684 v -2.679004 z m 0,0"
     id="path10"
     style="fill:#8c8c8c;fill-opacity:1;stroke-width:0.08633032"
     inkscape:connector-curvature="0" />
</svg>
