<svg width="211" height="56" viewBox="0 0 211 56" fill="none" xmlns="http://www.w3.org/2000/svg">
<path d="M48.2523 20.2319C48.3034 16.7442 50.1433 15.2117 52.392 15.2117C54.8964 15.2117 56.4807 16.7442 56.4807 20.3905V30.1666H60.6716V20.3905C60.6716 15.1061 58.5762 11.6712 53.4142 11.6712C51.0632 11.6712 49.1211 12.9923 48.2523 14.6833V12.2525H44.0103V30.1666H48.2523V20.2319ZM64.8171 23.2969C64.8171 27.1017 65.4815 30.1138 68.8036 30.378C69.1613 30.4308 69.5189 30.4308 69.9279 30.4308C70.4901 30.378 71.0012 30.2194 71.7167 29.9024L71.4101 26.9431C71.2568 26.9431 71.1545 26.996 71.0523 26.996C69.2124 26.996 69.008 25.8334 69.008 23.2969V12.2525H64.8171V23.2969ZM66.9636 4.22018C65.4815 4.22018 64.3571 5.4356 64.3571 6.96807C64.3571 8.44771 65.4815 9.66312 66.9636 9.66312C68.4458 9.66312 69.6213 8.44771 69.6213 6.96807C69.6213 5.4356 68.4458 4.22018 66.9636 4.22018ZM78.5481 20.2319C78.5481 16.6385 80.3369 15.2646 82.5856 15.2646C83.1989 15.2646 83.8122 15.4231 84.3744 15.6345L86.1121 12.0939C85.3966 11.8297 84.5789 11.6712 83.71 11.6712C81.359 11.6712 79.4169 12.9923 78.5481 14.6833V12.2525H74.3572V30.1666H78.5481V20.2319ZM95.5125 30.7479C101.697 30.7479 104.865 26.2561 104.865 21.1831C104.865 16.1101 101.697 11.6712 95.5125 11.6712C89.3795 11.6712 86.2108 16.1629 86.2108 21.1831C86.2108 26.2033 89.3795 30.7479 95.5125 30.7479ZM95.5125 27.6301C92.5993 27.6301 90.4017 25.0936 90.4017 21.1831C90.4017 17.3783 92.6505 14.8418 95.5125 14.8418C98.4255 14.8418 100.674 17.3783 100.674 21.1831C100.674 25.0936 98.4255 27.6301 95.5125 27.6301ZM107.474 21.3417C107.474 26.3618 110.745 30.9064 115.958 30.9064C118.564 30.9064 120.66 29.4796 121.938 27.313V30.5894C121.938 34.5527 119.178 36.6136 115.651 36.6136C113.045 36.6136 110.949 35.451 109.416 33.1787L107.116 35.1339C108.956 38.5688 112.585 39.8371 116.162 39.8371C122.142 39.8371 126.128 36.1908 126.128 30.4308V12.2525H121.938V15.3174C120.66 13.098 118.616 11.6712 115.907 11.6712C110.745 11.6712 107.474 16.3215 107.474 21.3417ZM111.665 21.2888C111.665 18.1182 113.811 15.4231 116.776 15.4231C119.791 15.4231 121.938 18.171 121.938 21.2888C121.938 24.4594 119.842 27.1017 116.776 27.1017C113.811 27.1017 111.665 24.5651 111.665 21.2888ZM129.734 21.3417C129.734 26.3618 133.005 30.9064 138.218 30.9064C140.824 30.9064 142.92 29.4796 144.198 27.313V30.5894C144.198 34.5527 141.438 36.6136 137.911 36.6136C135.305 36.6136 133.209 35.451 131.676 33.1787L129.376 35.1339C131.216 38.5688 134.845 39.8371 138.422 39.8371C144.402 39.8371 148.389 36.1908 148.389 30.4308V12.2525H144.198V15.3174C142.92 13.098 140.876 11.6712 138.167 11.6712C133.005 11.6712 129.734 16.3215 129.734 21.3417ZM133.925 21.2888C133.925 18.1182 136.071 15.4231 139.036 15.4231C142.051 15.4231 144.198 18.171 144.198 21.2888C144.198 24.4594 142.102 27.1017 139.036 27.1017C136.071 27.1017 133.925 24.5651 133.925 21.2888ZM170.495 12.2525H165.896L160.734 23.8253L155.725 12.2525H151.125L158.485 28.3171L153.016 39.6785H157.412L170.495 12.2525ZM170.909 21.3417C170.909 26.3618 174.181 30.9064 179.444 30.9064C182.051 30.9064 184.147 29.4796 185.373 27.313V30.1666H189.513V12.2525H185.373V15.3174C184.095 13.098 182.051 11.6712 179.393 11.6712C174.23 11.6712 170.909 16.3215 170.909 21.3417ZM175.151 21.2888C175.151 18.1182 177.247 15.4231 180.262 15.4231C183.277 15.4231 185.322 18.171 185.322 21.2888C185.322 24.4066 183.277 27.1017 180.262 27.1017C177.247 27.1017 175.151 24.5651 175.151 21.2888ZM198.434 20.2319C198.484 16.7442 200.324 15.2117 202.573 15.2117C205.078 15.2117 206.661 16.7442 206.661 20.3905V30.1666H210.853V20.3905C210.853 15.1061 208.757 11.6712 203.595 11.6712C201.245 11.6712 199.302 12.9923 198.434 14.6833V12.2525H194.191V30.1666H198.434V20.2319Z" fill="#3567D6"/>
<path d="M17.3023 17.8978V35.7956C7.7487 35.7956 0 27.7802 0 17.8978H17.3023Z" fill="#3CD0FF"/>
<path d="M17.3023 17.8978H0V0C9.55362 0 17.3023 8.01539 17.3023 17.8978Z" fill="#3567D6"/>
<path d="M34.6046 17.8978C34.6046 27.7802 26.8558 35.7956 17.3022 35.7956C17.3022 25.9132 25.0509 17.8978 34.6046 17.8978Z" fill="#3567D6"/>
<path d="M34.6046 17.8978C25.0509 17.8978 17.3022 9.88244 17.3022 0C26.8558 0 34.6046 8.01539 34.6046 17.8978Z" fill="#3CD0FF"/>
<path d="M46.78 52.108C46.132 52.108 45.524 52.02 44.956 51.844C44.388 51.668 43.908 51.42 43.516 51.1L44.032 49.972C44.44 50.284 44.868 50.512 45.316 50.656C45.772 50.8 46.264 50.872 46.792 50.872C47.376 50.872 47.824 50.772 48.136 50.572C48.456 50.364 48.616 50.076 48.616 49.708C48.616 49.388 48.468 49.144 48.172 48.976C47.884 48.808 47.4 48.648 46.72 48.496C46.016 48.344 45.444 48.168 45.004 47.968C44.564 47.768 44.232 47.512 44.008 47.2C43.784 46.888 43.672 46.492 43.672 46.012C43.672 45.516 43.808 45.072 44.08 44.68C44.352 44.288 44.736 43.984 45.232 43.768C45.728 43.544 46.3 43.432 46.948 43.432C47.54 43.432 48.104 43.524 48.64 43.708C49.176 43.884 49.616 44.128 49.96 44.44L49.444 45.568C48.692 44.968 47.86 44.668 46.948 44.668C46.404 44.668 45.972 44.78 45.652 45.004C45.34 45.22 45.184 45.524 45.184 45.916C45.184 46.244 45.324 46.496 45.604 46.672C45.884 46.848 46.36 47.012 47.032 47.164C47.744 47.324 48.32 47.504 48.76 47.704C49.208 47.896 49.548 48.144 49.78 48.448C50.02 48.752 50.14 49.136 50.14 49.6C50.14 50.104 50.004 50.548 49.732 50.932C49.468 51.308 49.08 51.6 48.568 51.808C48.064 52.008 47.468 52.108 46.78 52.108ZM59.0043 45.988C59.6683 45.988 60.1643 46.188 60.4923 46.588C60.8203 46.98 60.9843 47.584 60.9843 48.4V52H59.4843V48.46C59.4843 48.012 59.4083 47.688 59.2563 47.488C59.1043 47.28 58.8603 47.176 58.5243 47.176C58.1243 47.176 57.8123 47.312 57.5883 47.584C57.3643 47.856 57.2523 48.236 57.2523 48.724V52H55.7523V48.46C55.7523 48.012 55.6763 47.688 55.5243 47.488C55.3803 47.28 55.1363 47.176 54.7923 47.176C54.4003 47.176 54.0923 47.312 53.8683 47.584C53.6443 47.856 53.5323 48.236 53.5323 48.724V52H52.0323V46.132H53.4963V46.96C53.6723 46.64 53.9163 46.4 54.2283 46.24C54.5403 46.072 54.8963 45.988 55.2963 45.988C56.1843 45.988 56.7723 46.356 57.0603 47.092C57.2443 46.748 57.5083 46.48 57.8523 46.288C58.1963 46.088 58.5803 45.988 59.0043 45.988ZM65.6289 45.988C66.4529 45.988 67.0649 46.188 67.4649 46.588C67.8649 46.988 68.0649 47.604 68.0649 48.436V52H66.6369V51.1C66.5009 51.412 66.2849 51.656 65.9889 51.832C65.7009 52.008 65.3649 52.096 64.9809 52.096C64.5889 52.096 64.2329 52.016 63.9129 51.856C63.5929 51.696 63.3409 51.476 63.1569 51.196C62.9729 50.916 62.8809 50.604 62.8809 50.26C62.8809 49.828 62.9889 49.488 63.2049 49.24C63.4289 48.992 63.7889 48.812 64.2849 48.7C64.7809 48.588 65.4649 48.532 66.3369 48.532H66.6369V48.256C66.6369 47.856 66.5489 47.568 66.3729 47.392C66.2049 47.216 65.9209 47.128 65.5209 47.128C65.2089 47.128 64.8809 47.184 64.5369 47.296C64.2009 47.4 63.8689 47.548 63.5409 47.74L63.1209 46.708C63.4489 46.5 63.8449 46.328 64.3089 46.192C64.7729 46.056 65.2129 45.988 65.6289 45.988ZM65.2809 51.016C65.6809 51.016 66.0049 50.884 66.2529 50.62C66.5089 50.348 66.6369 50 66.6369 49.576V49.324H66.4209C65.8849 49.324 65.4689 49.348 65.1729 49.396C64.8769 49.444 64.6649 49.528 64.5369 49.648C64.4089 49.768 64.3449 49.932 64.3449 50.14C64.3449 50.396 64.4329 50.608 64.6089 50.776C64.7849 50.936 65.0089 51.016 65.2809 51.016ZM74.0534 47.236L73.1774 47.32C72.1854 47.424 71.6894 47.928 71.6894 48.832V52H70.1894V46.132H71.6174V47.164C71.9214 46.46 72.5494 46.076 73.5014 46.012L73.9574 45.976L74.0534 47.236ZM78.9222 50.968C79.0982 50.968 79.2822 50.956 79.4742 50.932L79.4022 52.048C79.1622 52.072 78.9422 52.084 78.7422 52.084C77.9182 52.084 77.3102 51.896 76.9182 51.52C76.5262 51.136 76.3302 50.568 76.3302 49.816V47.26H75.2022V46.132H76.3302V44.38H77.8302V46.132H79.3782V47.26H77.8302V49.792C77.8302 50.576 78.1942 50.968 78.9222 50.968ZM88.1759 52H86.4959L85.0439 49.3C84.9079 49.044 84.7399 48.864 84.5399 48.76C84.3399 48.656 84.0879 48.604 83.7839 48.604H82.6079V52H81.0839V43.54H84.8279C85.7879 43.54 86.5159 43.756 87.0119 44.188C87.5159 44.612 87.7679 45.228 87.7679 46.036C87.7679 46.684 87.5839 47.22 87.2159 47.644C86.8559 48.06 86.3439 48.332 85.6799 48.46C86.1279 48.58 86.4879 48.896 86.7599 49.408L88.1759 52ZM84.6119 47.416C85.1959 47.416 85.6239 47.308 85.8959 47.092C86.1679 46.868 86.3039 46.528 86.3039 46.072C86.3039 45.608 86.1679 45.272 85.8959 45.064C85.6239 44.848 85.1959 44.74 84.6119 44.74H82.5959V47.416H84.6119ZM95.0436 49.336H91.0476C91.0956 49.88 91.2596 50.284 91.5396 50.548C91.8196 50.812 92.2196 50.944 92.7396 50.944C93.3876 50.944 93.9796 50.736 94.5156 50.32L94.9476 51.352C94.6756 51.576 94.3316 51.756 93.9156 51.892C93.5076 52.028 93.0956 52.096 92.6796 52.096C91.7196 52.096 90.9596 51.824 90.3996 51.28C89.8476 50.736 89.5716 49.992 89.5716 49.048C89.5716 48.448 89.6916 47.916 89.9316 47.452C90.1716 46.988 90.5076 46.628 90.9396 46.372C91.3796 46.116 91.8756 45.988 92.4276 45.988C93.2356 45.988 93.8716 46.248 94.3356 46.768C94.8076 47.288 95.0436 48.004 95.0436 48.916V49.336ZM92.4636 47.044C92.0636 47.044 91.7396 47.172 91.4916 47.428C91.2516 47.684 91.1036 48.052 91.0476 48.532H93.7596C93.7436 48.044 93.6236 47.676 93.3996 47.428C93.1756 47.172 92.8636 47.044 92.4636 47.044ZM100.243 45.988C100.747 45.988 101.195 46.116 101.587 46.372C101.987 46.628 102.295 46.992 102.511 47.464C102.735 47.928 102.847 48.464 102.847 49.072C102.847 49.68 102.735 50.212 102.511 50.668C102.295 51.124 101.991 51.476 101.599 51.724C101.207 51.972 100.755 52.096 100.243 52.096C99.8266 52.096 99.4546 52.008 99.1266 51.832C98.7986 51.656 98.5466 51.412 98.3706 51.1V54.16H96.8706V46.132H98.3466V47.02C98.5226 46.692 98.7746 46.44 99.1026 46.264C99.4386 46.08 99.8186 45.988 100.243 45.988ZM99.8466 50.932C100.319 50.932 100.687 50.772 100.951 50.452C101.215 50.124 101.347 49.664 101.347 49.072C101.347 48.464 101.215 47.992 100.951 47.656C100.687 47.32 100.319 47.152 99.8466 47.152C99.3666 47.152 98.9946 47.316 98.7306 47.644C98.4746 47.972 98.3466 48.44 98.3466 49.048C98.3466 49.648 98.4746 50.112 98.7306 50.44C98.9946 50.768 99.3666 50.932 99.8466 50.932ZM107.354 52.096C106.754 52.096 106.226 51.972 105.77 51.724C105.322 51.476 104.974 51.12 104.726 50.656C104.478 50.192 104.354 49.652 104.354 49.036C104.354 48.42 104.478 47.884 104.726 47.428C104.974 46.964 105.322 46.608 105.77 46.36C106.226 46.112 106.754 45.988 107.354 45.988C107.954 45.988 108.478 46.112 108.926 46.36C109.382 46.608 109.73 46.964 109.97 47.428C110.218 47.884 110.342 48.42 110.342 49.036C110.342 49.652 110.218 50.192 109.97 50.656C109.73 51.12 109.382 51.476 108.926 51.724C108.478 51.972 107.954 52.096 107.354 52.096ZM107.342 50.932C107.83 50.932 108.202 50.772 108.458 50.452C108.714 50.132 108.842 49.66 108.842 49.036C108.842 48.42 108.714 47.952 108.458 47.632C108.202 47.304 107.834 47.14 107.354 47.14C106.874 47.14 106.502 47.304 106.238 47.632C105.982 47.952 105.854 48.42 105.854 49.036C105.854 49.66 105.982 50.132 106.238 50.452C106.494 50.772 106.862 50.932 107.342 50.932ZM116.044 47.236L115.168 47.32C114.176 47.424 113.68 47.928 113.68 48.832V52H112.18V46.132H113.608V47.164C113.912 46.46 114.54 46.076 115.492 46.012L115.948 45.976L116.044 47.236ZM120.913 50.968C121.089 50.968 121.273 50.956 121.465 50.932L121.393 52.048C121.153 52.072 120.933 52.084 120.733 52.084C119.909 52.084 119.301 51.896 118.909 51.52C118.517 51.136 118.321 50.568 118.321 49.816V47.26H117.193V46.132H118.321V44.38H119.821V46.132H121.369V47.26H119.821V49.792C119.821 50.576 120.185 50.968 120.913 50.968ZM124.725 50.344V51.436C124.725 51.852 124.653 52.228 124.509 52.564C124.365 52.908 124.121 53.252 123.777 53.596L123.165 53.116C123.541 52.716 123.757 52.344 123.813 52H123.045V50.344H124.725ZM133.611 52.108C132.963 52.108 132.355 52.02 131.787 51.844C131.219 51.668 130.739 51.42 130.347 51.1L130.863 49.972C131.271 50.284 131.699 50.512 132.147 50.656C132.603 50.8 133.095 50.872 133.623 50.872C134.207 50.872 134.655 50.772 134.967 50.572C135.287 50.364 135.447 50.076 135.447 49.708C135.447 49.388 135.299 49.144 135.003 48.976C134.715 48.808 134.231 48.648 133.551 48.496C132.847 48.344 132.275 48.168 131.835 47.968C131.395 47.768 131.063 47.512 130.839 47.2C130.615 46.888 130.503 46.492 130.503 46.012C130.503 45.516 130.639 45.072 130.911 44.68C131.183 44.288 131.567 43.984 132.063 43.768C132.559 43.544 133.131 43.432 133.779 43.432C134.371 43.432 134.935 43.524 135.471 43.708C136.007 43.884 136.447 44.128 136.791 44.44L136.275 45.568C135.523 44.968 134.691 44.668 133.779 44.668C133.235 44.668 132.803 44.78 132.483 45.004C132.171 45.22 132.015 45.524 132.015 45.916C132.015 46.244 132.155 46.496 132.435 46.672C132.715 46.848 133.191 47.012 133.863 47.164C134.575 47.324 135.151 47.504 135.591 47.704C136.039 47.896 136.379 48.144 136.611 48.448C136.851 48.752 136.971 49.136 136.971 49.6C136.971 50.104 136.835 50.548 136.563 50.932C136.299 51.308 135.911 51.6 135.399 51.808C134.895 52.008 134.299 52.108 133.611 52.108ZM145.836 45.988C146.5 45.988 146.996 46.188 147.324 46.588C147.652 46.98 147.816 47.584 147.816 48.4V52H146.316V48.46C146.316 48.012 146.24 47.688 146.088 47.488C145.936 47.28 145.692 47.176 145.356 47.176C144.956 47.176 144.644 47.312 144.42 47.584C144.196 47.856 144.084 48.236 144.084 48.724V52H142.584V48.46C142.584 48.012 142.508 47.688 142.356 47.488C142.212 47.28 141.968 47.176 141.624 47.176C141.232 47.176 140.924 47.312 140.7 47.584C140.476 47.856 140.364 48.236 140.364 48.724V52H138.864V46.132H140.328V46.96C140.504 46.64 140.748 46.4 141.06 46.24C141.372 46.072 141.728 45.988 142.128 45.988C143.016 45.988 143.604 46.356 143.892 47.092C144.076 46.748 144.34 46.48 144.684 46.288C145.028 46.088 145.412 45.988 145.836 45.988ZM152.46 45.988C153.284 45.988 153.896 46.188 154.296 46.588C154.696 46.988 154.896 47.604 154.896 48.436V52H153.468V51.1C153.332 51.412 153.116 51.656 152.82 51.832C152.532 52.008 152.196 52.096 151.812 52.096C151.42 52.096 151.064 52.016 150.744 51.856C150.424 51.696 150.172 51.476 149.988 51.196C149.804 50.916 149.712 50.604 149.712 50.26C149.712 49.828 149.82 49.488 150.036 49.24C150.26 48.992 150.62 48.812 151.116 48.7C151.612 48.588 152.296 48.532 153.168 48.532H153.468V48.256C153.468 47.856 153.38 47.568 153.204 47.392C153.036 47.216 152.752 47.128 152.352 47.128C152.04 47.128 151.712 47.184 151.368 47.296C151.032 47.4 150.7 47.548 150.372 47.74L149.952 46.708C150.28 46.5 150.676 46.328 151.14 46.192C151.604 46.056 152.044 45.988 152.46 45.988ZM152.112 51.016C152.512 51.016 152.836 50.884 153.084 50.62C153.34 50.348 153.468 50 153.468 49.576V49.324H153.252C152.716 49.324 152.3 49.348 152.004 49.396C151.708 49.444 151.496 49.528 151.368 49.648C151.24 49.768 151.176 49.932 151.176 50.14C151.176 50.396 151.264 50.608 151.44 50.776C151.616 50.936 151.84 51.016 152.112 51.016ZM160.885 47.236L160.009 47.32C159.017 47.424 158.521 47.928 158.521 48.832V52H157.021V46.132H158.449V47.164C158.753 46.46 159.381 46.076 160.333 46.012L160.789 45.976L160.885 47.236ZM165.753 50.968C165.929 50.968 166.113 50.956 166.305 50.932L166.233 52.048C165.993 52.072 165.773 52.084 165.573 52.084C164.749 52.084 164.141 51.896 163.749 51.52C163.357 51.136 163.161 50.568 163.161 49.816V47.26H162.033V46.132H163.161V44.38H164.661V46.132H166.209V47.26H164.661V49.792C164.661 50.576 165.025 50.968 165.753 50.968ZM172.931 49.336H168.935C168.983 49.88 169.147 50.284 169.427 50.548C169.707 50.812 170.107 50.944 170.627 50.944C171.275 50.944 171.867 50.736 172.403 50.32L172.835 51.352C172.563 51.576 172.219 51.756 171.803 51.892C171.395 52.028 170.983 52.096 170.567 52.096C169.607 52.096 168.847 51.824 168.287 51.28C167.735 50.736 167.459 49.992 167.459 49.048C167.459 48.448 167.579 47.916 167.819 47.452C168.059 46.988 168.395 46.628 168.827 46.372C169.267 46.116 169.763 45.988 170.315 45.988C171.123 45.988 171.759 46.248 172.223 46.768C172.695 47.288 172.931 48.004 172.931 48.916V49.336ZM170.351 47.044C169.951 47.044 169.627 47.172 169.379 47.428C169.139 47.684 168.991 48.052 168.935 48.532H171.647C171.631 48.044 171.511 47.676 171.287 47.428C171.063 47.172 170.751 47.044 170.351 47.044ZM178.622 47.236L177.746 47.32C176.754 47.424 176.258 47.928 176.258 48.832V52H174.758V46.132H176.186V47.164C176.49 46.46 177.118 46.076 178.07 46.012L178.526 45.976L178.622 47.236ZM187.542 48.1V52H185.994V48.1L182.574 43.54H184.314L186.762 46.864L189.222 43.54H190.974L187.542 48.1ZM193.625 52.096C193.025 52.096 192.497 51.972 192.041 51.724C191.593 51.476 191.245 51.12 190.997 50.656C190.749 50.192 190.625 49.652 190.625 49.036C190.625 48.42 190.749 47.884 190.997 47.428C191.245 46.964 191.593 46.608 192.041 46.36C192.497 46.112 193.025 45.988 193.625 45.988C194.225 45.988 194.749 46.112 195.197 46.36C195.653 46.608 196.001 46.964 196.241 47.428C196.489 47.884 196.613 48.42 196.613 49.036C196.613 49.652 196.489 50.192 196.241 50.656C196.001 51.12 195.653 51.476 195.197 51.724C194.749 51.972 194.225 52.096 193.625 52.096ZM193.613 50.932C194.101 50.932 194.473 50.772 194.729 50.452C194.985 50.132 195.113 49.66 195.113 49.036C195.113 48.42 194.985 47.952 194.729 47.632C194.473 47.304 194.105 47.14 193.625 47.14C193.145 47.14 192.773 47.304 192.509 47.632C192.253 47.952 192.125 48.42 192.125 49.036C192.125 49.66 192.253 50.132 192.509 50.452C192.765 50.772 193.133 50.932 193.613 50.932ZM203.839 46.132V52H202.375V51.1C202.191 51.42 201.943 51.668 201.631 51.844C201.319 52.012 200.967 52.096 200.575 52.096C199.135 52.096 198.415 51.288 198.415 49.672V46.132H199.915V49.684C199.915 50.1 199.999 50.408 200.167 50.608C200.335 50.808 200.599 50.908 200.959 50.908C201.375 50.908 201.707 50.772 201.955 50.5C202.211 50.22 202.339 49.852 202.339 49.396V46.132H203.839Z" fill="#3567D6"/>
</svg>
