<svg width="100" height="100" viewBox="0 0 100 100" fill="none" xmlns="http://www.w3.org/2000/svg">
<path d="M48.1821 37.7071C48.1982 37.6282 48.209 37.5483 48.2143 37.4679C48.2143 36.4816 47.4148 35.6821 46.4286 35.6821C45.4423 35.6821 44.6429 36.4816 44.6429 37.4679C44.6465 38.0414 44.9332 38.576 45.4089 38.8964C46.2554 38.3385 47.1945 37.9358 48.1821 37.7071Z" fill="#385FA0"/>
<path d="M18.7786 20.6857L29.4929 24.2571C29.9749 24.4198 30.3646 24.7803 30.5643 25.2482L34.8946 35.3464L42.4607 41.0393C41.5643 40.0659 41.0665 38.7911 41.0661 37.4678C41.0602 35.7292 41.9061 34.0978 43.3305 33.1007C44.7549 32.1036 46.5773 31.8672 48.2089 32.4678V21.4286C48.2089 20.4423 49.0084 19.6428 49.9946 19.6428C50.9809 19.6428 51.7804 20.4423 51.7804 21.4286V32.4696C54.0603 31.6281 56.6202 32.4514 57.9821 34.4643L76.2857 16.1607C58.8257 2.59115 33.9032 4.55631 18.7857 20.6946L18.7786 20.6857Z" fill="#385FA0"/>
<path d="M53.5714 35.7143C52.5954 35.7054 51.7965 36.4883 51.7857 37.4643C51.7907 37.5483 51.8021 37.6319 51.8196 37.7143C52.5657 37.8718 53.2867 38.1308 53.9625 38.4839L55.2893 37.1553C55.1393 36.3234 54.4167 35.7172 53.5714 35.7143V35.7143Z" fill="#385FA0"/>
<path d="M44.6429 46.9518C44.654 47.2069 44.682 47.4611 44.7268 47.7125L51.2054 41.2339C50.8213 41.1315 50.426 41.0769 50.0286 41.0714C46.9222 41.2181 44.5167 43.8445 44.6429 46.9518V46.9518Z" fill="#385FA0"/>
<path d="M10.5714 42.5C10.4244 40.8389 11.0737 39.2064 12.3214 38.1C14.5089 36.3929 17.8179 37.2161 22.0107 38.2643C23.3411 38.5964 24.7679 38.9518 26.2536 39.2482C29.0518 39.8107 32.7232 40.3786 36.3161 40.8804L32.3679 37.9089C32.1192 37.7248 31.9234 37.4784 31.8 37.1946L27.5982 27.3964L16.2607 23.6214C4.13658 39.0735 4.08946 60.7955 16.1464 76.3L20.8 71.6464L23.6857 59.325C23.7573 59.0147 23.9115 58.7296 24.1321 58.5L26.3821 56.1429C11.7857 54.6929 10.5714 45.4339 10.5714 42.5V42.5Z" fill="#385FA0"/>
<path d="M27.0571 60.5946L25.5946 66.8446L36.3089 56.1393C34.6536 56.2554 32.9161 56.3179 31.1411 56.3179L27.0571 60.5946Z" fill="#385FA0"/>
<path d="M41.0714 46.9518C41.0753 46.3422 41.1351 45.7343 41.25 45.1357C36.25 44.5036 29.9107 43.6268 25.5625 42.75C24.0214 42.4447 22.5393 42.075 21.1571 41.7286C18.5678 41.0822 15.3464 40.2768 14.5304 40.9143C14.209 41.3764 14.0726 41.9422 14.1482 42.5C14.1482 48.6893 19.5661 52.4196 29.0107 52.7321C29.4643 52.7518 29.9036 52.7679 30.3625 52.7679C33.6911 52.7846 37.0169 52.571 40.3161 52.1286L41.8053 50.6393C41.5917 50.1307 41.4255 49.6035 41.3089 49.0643C41.1499 48.3714 41.0702 47.6627 41.0714 46.9518V46.9518Z" fill="#385FA0"/>
<path d="M75.5357 69.9714L72.9768 60.6214L68.8696 56.3232C66.2506 56.3018 63.7583 56.1678 61.3929 55.9214L62.5089 57.0875C62.6744 57.2585 62.8032 57.4614 62.8875 57.6839L68.2268 71.6482C68.3268 71.9104 68.3641 72.1923 68.3357 72.4714L67.0857 84.3911L69.6143 88.0911C74.9067 85.3513 79.5739 81.5445 83.3214 76.9107L76.1036 70.8696C75.8281 70.6343 75.6302 70.3212 75.5357 69.9714V69.9714Z" fill="#385FA0"/>
<path d="M23.7143 83.8464C25.8099 85.464 28.0511 86.8838 30.4089 88.0875L32.9232 84.3928L31.9964 75.5643L23.7143 83.8464Z" fill="#385FA0"/>
<path d="M63.4554 84.6714L64.7321 72.5286L59.6732 59.3018L56.0536 55.5143C56.7141 61.1113 57.0777 66.7395 57.1429 72.375C57.1429 81.4536 55.9286 87.5 50 87.5C44.0714 87.5 42.8571 81.4536 42.8571 72.375C42.8571 69.9589 42.9607 67.2786 43.1482 64.4125L35.4089 72.1518L35.2679 72.5232L36.5446 84.6661C36.5886 85.0861 36.4823 85.5081 36.2446 85.8571L33.6964 89.6036C44.1401 93.9366 55.8776 93.9418 66.325 89.6179L63.7589 85.8679C63.5174 85.5184 63.4097 85.0937 63.4554 84.6714Z" fill="#385FA0"/>
<path d="M67.1857 40.375C69.4482 40.0321 71.7714 39.6464 73.7357 39.25C75.2268 38.9518 76.6536 38.5964 77.9839 38.2643C82.1768 37.2161 85.4839 36.3911 87.6732 38.1C88.923 39.2053 89.5743 40.838 89.4286 42.5C89.4286 45.4339 88.2161 54.6893 73.6125 56.125L75.8625 58.4821C76.0681 58.6952 76.2161 58.9569 76.2929 59.2428L78.825 68.4893L85.4589 74.0411C95.8887 58.6905 95.2397 38.3681 83.8518 23.7143L67.1857 40.375Z" fill="#385FA0"/>
<path d="M50 0C22.3858 0 0 22.3858 0 50C0 77.6142 22.3858 100 50 100C77.6142 100 100 77.6142 100 50C99.9685 22.3988 77.6012 0.0314903 50 0ZM16.0179 80.7321H15.9464C15.4489 80.7124 14.9822 80.4859 14.6589 80.1071C0.0411323 62.9646 -0.141911 37.7962 14.225 20.4429C14.2699 20.3792 14.3201 20.3195 14.375 20.2643C22.3072 10.7418 33.7205 4.78985 46.0691 3.73611C58.4177 2.68238 70.6744 6.61448 80.1054 14.6554C80.4844 14.9787 80.7111 15.4456 80.7308 15.9434C80.7504 16.4412 80.5612 16.9246 80.2089 17.2768L17.2804 80.2054C16.9461 80.5416 16.4919 80.7311 16.0179 80.7321V80.7321ZM96.4286 50C96.4397 59.9747 93.2215 69.6849 87.2554 77.6786C87.2328 77.7251 87.2078 77.7704 87.1804 77.8143C87.1625 77.8357 87.1339 77.8429 87.1143 77.8643C79.4318 88.1139 67.8534 94.731 55.1229 96.1477C42.3923 97.5644 29.6425 93.6545 19.8946 85.3446C19.5156 85.0213 19.2889 84.5544 19.2693 84.0566C19.2496 83.5588 19.4388 83.0754 19.7911 82.7232L32.5857 69.9286L82.7196 19.7911C83.0758 19.4445 83.5568 19.2565 84.0536 19.2696C84.5511 19.2894 85.0178 19.5159 85.3411 19.8946C92.4977 28.2929 96.4285 38.966 96.4286 50V50Z" fill="#385FA0"/>
<path d="M69.5714 52.7679C70.1071 52.7679 70.5411 52.7518 70.9821 52.7339C80.4464 52.4197 85.8571 48.6893 85.8571 42.5C85.9327 41.9422 85.7964 41.3764 85.475 40.9143C84.6607 40.2786 81.4375 41.0929 78.8482 41.7286C77.4661 42.075 75.9911 42.4429 74.4393 42.7518C70.9446 43.4571 66.3857 44.125 62.9768 44.5839L56.6196 50.9411L57.4214 51.7768C61.4349 52.46 65.5003 52.7916 69.5714 52.7679V52.7679Z" fill="#385FA0"/>
<path d="M50 83.9286C51.25 83.9286 53.5714 83.9286 53.5714 72.375C53.4979 66.6144 53.1128 60.8619 52.4178 55.1429L47.0286 60.5357C46.6339 64.9286 46.4286 68.9286 46.4286 72.375C46.4286 83.9286 48.75 83.9286 50 83.9286V83.9286Z" fill="#385FA0"/>
</svg>
