<?xml version="1.0" encoding="UTF-8" standalone="no"?>
<!-- Generator: Adobe Illustrator 18.0.0, SVG Export Plug-In . SVG Version: 6.00 Build 0)  -->

<svg
   xmlns:dc="http://purl.org/dc/elements/1.1/"
   xmlns:cc="http://creativecommons.org/ns#"
   xmlns:rdf="http://www.w3.org/1999/02/22-rdf-syntax-ns#"
   xmlns:svg="http://www.w3.org/2000/svg"
   xmlns="http://www.w3.org/2000/svg"
   xmlns:sodipodi="http://sodipodi.sourceforge.net/DTD/sodipodi-0.dtd"
   xmlns:inkscape="http://www.inkscape.org/namespaces/inkscape"
   version="1.1"
   id="Capa_1"
   x="0px"
   y="0px"
   viewBox="0 0 50.000001 50.000001"
   xml:space="preserve"
   sodipodi:docname="old-couple.svg"
   width="50"
   height="50"
   inkscape:version="0.92.2 5c3e80d, 2017-08-06"><metadata
     id="metadata55"><rdf:RDF><cc:Work
         rdf:about=""><dc:format>image/svg+xml</dc:format><dc:type
           rdf:resource="http://purl.org/dc/dcmitype/StillImage" /><dc:title></dc:title></cc:Work></rdf:RDF></metadata><defs
     id="defs53" /><sodipodi:namedview
     pagecolor="#ffffff"
     bordercolor="#666666"
     borderopacity="1"
     objecttolerance="10"
     gridtolerance="10"
     guidetolerance="10"
     inkscape:pageopacity="0"
     inkscape:pageshadow="2"
     inkscape:window-width="1445"
     inkscape:window-height="855"
     id="namedview51"
     showgrid="false"
     inkscape:showpageshadow="false"
     fit-margin-top="0"
     fit-margin-left="0"
     fit-margin-right="0"
     fit-margin-bottom="0"
     inkscape:zoom="3.2100001"
     inkscape:cx="7.595293"
     inkscape:cy="70.351291"
     inkscape:window-x="0"
     inkscape:window-y="0"
     inkscape:window-maximized="0"
     inkscape:current-layer="Capa_1" /><g
     id="g4"
     style="fill:#385fa0;fill-opacity:1"
     transform="matrix(0.17222076,0,0,0.16588417,-0.95478396,0)"><circle
       cx="70.661003"
       cy="43.993999"
       r="27.179001"
       id="circle2"
       style="fill:#385fa0;fill-opacity:1" /></g><g
     id="g8"
     style="fill:#385fa0;fill-opacity:1"
     transform="matrix(0.17222076,0,0,0.16588417,-0.95478396,0)"><circle
       cx="201.056"
       cy="47.125"
       r="27.179001"
       id="circle6"
       style="fill:#385fa0;fill-opacity:1" /></g><g
     id="g14"
     style="fill:#385fa0;fill-opacity:1"
     transform="matrix(0.17222076,0,0,0.16588417,-0.95478396,0)"><path
       d="m 17.621,187.584 c -0.289,0 0.293,0.02 0,0 z"
       id="path10"
       style="fill:#385fa0;fill-opacity:1"
       inkscape:connector-curvature="0" /><path
       d="m 272.85,154.515 c -0.534,0 -1.062,0.025 -1.587,0.061 L 251.872,76.589 c -1.677,-6.697 -7.456,-9.457 -15.447,-9.457 -0.282,0 -1.735,0.051 -4.122,0.101 -6.625,10.26 -18.152,17.072 -31.248,17.072 -13.07,0 -24.577,-6.785 -31.209,-17.011 -6.404,-0.077 -10.785,-0.044 -11.442,-0.044 -7.696,0 -13.408,3.494 -14.883,10.238 l -7.814,34.761 -7.66,-40.897 c -1.152,-6.154 -6.631,-10.389 -12.704,-10.178 h -12.851 c -6.126,11.305 -18.097,19 -31.833,19 -13.675,0 -25.599,-7.627 -31.749,-18.85 -6.601,-0.01 -11.671,-0.049 -13.007,-0.142 -6.894,-0.457 -12.855,4.723 -13.331,11.61 l -7,101.446 c -0.475,6.887 5.147,13.108 12.047,13.346 6.508,0.224 12.439,-5.031 12.894,-11.626 l 4.747,-68.8 0.25,176.85 c 0,8.077 6.207,15.027 14.275,15.407 8.614,0.406 15.725,-6.458 15.725,-14.983 v -94.5 c 0,-2.761 2.239,-5 5,-5 v 0 c 2.761,0 5,2.239 5,5 v 94.076 c 0,8.077 6.207,15.027 14.275,15.407 8.614,0.406 15.725,-6.458 15.725,-14.983 l 0.25,-187.308 h 1.679 l 14.473,69.871 c 3.057,14.76 24.094,14.884 27.325,0.161 l 14.054,-64.028 v 29.788 l -8.6,64.214 c -0.353,2.593 0.432,5.212 2.154,7.183 1.692,1.938 4.128,3.058 6.697,3.095 v 78.583 c 0,8.077 6.207,15.027 14.275,15.407 8.614,0.406 15.725,-6.458 15.725,-14.983 v -74 c 0,-2.761 2.239,-5 5,-5 v 0 c 2.761,0 5,2.239 5,5 v 73.576 c 0,8.077 6.207,15.027 14.275,15.407 8.614,0.406 15.725,-6.458 15.725,-14.983 V 207.41 c 2.569,-0.037 5.004,-1.157 6.697,-3.095 1.721,-1.971 2.507,-4.59 2.154,-7.183 l -8.601,-64.214 v -25.052 l 14.29,57.065 c 0.523,2.089 1.547,3.92 2.907,5.403 -0.749,2.267 -1.16,4.687 -1.16,7.202 v 116.073 c 0,4.04 3.113,7.564 7.152,7.685 4.179,0.126 7.606,-3.225 7.606,-7.375 V 177.534 c 0,-1.683 0.508,-3.249 1.376,-4.556 1.512,-0.784 2.816,-1.854 3.867,-3.127 1.435,-0.566 3.057,-0.757 4.758,-0.393 3.859,0.826 6.523,4.39 6.523,8.337 v 9.312 c 0,4.04 3.113,7.564 7.152,7.685 4.179,0.126 7.606,-3.225 7.606,-7.375 v -9.883 c 0.002,-12.693 -10.325,-23.019 -23.019,-23.019 z"
       id="path12"
       style="fill:#385fa0;fill-opacity:1"
       inkscape:connector-curvature="0" /></g><g
     id="g18"
     style="fill:#385fa0;fill-opacity:1"
     transform="matrix(0.17222076,0,0,0.16588417,-0.95478396,0)"><ellipse
       cx="201.056"
       cy="13.635"
       rx="14.975"
       ry="13.635"
       id="ellipse16"
       style="fill:#385fa0;fill-opacity:1" /></g><g
     id="g20"
     style="fill:#385fa0;fill-opacity:1"
     transform="matrix(0.17222076,0,0,0.16588417,-0.95478396,0)" /><g
     id="g22"
     style="fill:#385fa0;fill-opacity:1"
     transform="matrix(0.17222076,0,0,0.16588417,-0.95478396,0)" /><g
     id="g24"
     style="fill:#385fa0;fill-opacity:1"
     transform="matrix(0.17222076,0,0,0.16588417,-0.95478396,0)" /><g
     id="g26"
     style="fill:#385fa0;fill-opacity:1"
     transform="matrix(0.17222076,0,0,0.16588417,-0.95478396,0)" /><g
     id="g28"
     style="fill:#385fa0;fill-opacity:1"
     transform="matrix(0.17222076,0,0,0.16588417,-0.95478396,0)" /><g
     id="g30"
     style="fill:#385fa0;fill-opacity:1"
     transform="matrix(0.17222076,0,0,0.16588417,-0.95478396,0)" /><g
     id="g32"
     style="fill:#385fa0;fill-opacity:1"
     transform="matrix(0.17222076,0,0,0.16588417,-0.95478396,0)" /><g
     id="g34"
     style="fill:#385fa0;fill-opacity:1"
     transform="matrix(0.17222076,0,0,0.16588417,-0.95478396,0)" /><g
     id="g36"
     style="fill:#385fa0;fill-opacity:1"
     transform="matrix(0.17222076,0,0,0.16588417,-0.95478396,0)" /><g
     id="g38"
     style="fill:#385fa0;fill-opacity:1"
     transform="matrix(0.17222076,0,0,0.16588417,-0.95478396,0)" /><g
     id="g40"
     style="fill:#385fa0;fill-opacity:1"
     transform="matrix(0.17222076,0,0,0.16588417,-0.95478396,0)" /><g
     id="g42"
     style="fill:#385fa0;fill-opacity:1"
     transform="matrix(0.17222076,0,0,0.16588417,-0.95478396,0)" /><g
     id="g44"
     style="fill:#385fa0;fill-opacity:1"
     transform="matrix(0.17222076,0,0,0.16588417,-0.95478396,0)" /><g
     id="g46"
     style="fill:#385fa0;fill-opacity:1"
     transform="matrix(0.17222076,0,0,0.16588417,-0.95478396,0)" /><g
     id="g48"
     style="fill:#385fa0;fill-opacity:1"
     transform="matrix(0.17222076,0,0,0.16588417,-0.95478396,0)" /></svg>
