<?xml version="1.0" encoding="UTF-8" standalone="no"?>
<!-- Generator: Adobe Illustrator 19.0.0, SVG Export Plug-In . SVG Version: 6.00 Build 0)  -->

<svg
   xmlns:dc="http://purl.org/dc/elements/1.1/"
   xmlns:cc="http://creativecommons.org/ns#"
   xmlns:rdf="http://www.w3.org/1999/02/22-rdf-syntax-ns#"
   xmlns:svg="http://www.w3.org/2000/svg"
   xmlns="http://www.w3.org/2000/svg"
   xmlns:sodipodi="http://sodipodi.sourceforge.net/DTD/sodipodi-0.dtd"
   xmlns:inkscape="http://www.inkscape.org/namespaces/inkscape"
   version="1.1"
   id="Capa_1"
   x="0px"
   y="0px"
   viewBox="0 0 50.000042 50.000023"
   xml:space="preserve"
   sodipodi:docname="papaya.svg"
   width="50.000042"
   height="50.000023"
   inkscape:version="0.92.2 5c3e80d, 2017-08-06"><metadata
     id="metadata246"><rdf:RDF><cc:Work
         rdf:about=""><dc:format>image/svg+xml</dc:format><dc:type
           rdf:resource="http://purl.org/dc/dcmitype/StillImage" /><dc:title></dc:title></cc:Work></rdf:RDF></metadata><defs
     id="defs244" /><sodipodi:namedview
     pagecolor="#ffffff"
     bordercolor="#666666"
     borderopacity="1"
     objecttolerance="10"
     gridtolerance="10"
     guidetolerance="10"
     inkscape:pageopacity="0"
     inkscape:pageshadow="2"
     inkscape:window-width="1444"
     inkscape:window-height="849"
     id="namedview242"
     showgrid="false"
     inkscape:showpageshadow="false"
     fit-margin-top="0"
     fit-margin-left="0"
     fit-margin-right="0"
     fit-margin-bottom="0"
     inkscape:zoom="3.1799986"
     inkscape:cx="-18.171734"
     inkscape:cy="10.648499"
     inkscape:window-x="0"
     inkscape:window-y="0"
     inkscape:window-maximized="0"
     inkscape:current-layer="Capa_1" /><path
     style="fill:#4d4d4d;stroke-width:0.09792621"
     d="M 30.172601,2.3536889 28.459613,0.34270886 c -0.391211,-0.45926 -1.098047,-0.45661 -1.484961,0.006 -1.017871,1.21764004 -2.957422,3.88349004 -4.373633,7.23387004 0.579492,0.15152 1.215527,0.41557 1.775781,0.78411 1.356348,-1.78022 3.25293,-3.72501 5.597754,-4.96523 0.385352,-0.20376 0.48125,-0.71547 0.198047,-1.04796 z"
     id="path171"
     inkscape:connector-curvature="0" /><path
     style="fill:#1a1a1a;stroke-width:0.09792621"
     d="m 24.671917,7.9887189 c 1.351465,-2.86175 3.000098,-5.11145 3.910938,-6.20104 0.210547,-0.25187 0.51582,-0.36637 0.813476,-0.34536 L 28.45971,0.34270886 c -0.391211,-0.45926 -1.098047,-0.45661 -1.484961,0.006 -1.017871,1.21764004 -2.957421,3.88349004 -4.373632,7.23387004 0.579492,0.15152 1.215527,0.41557 1.775781,0.78411 0.09541,-0.1253 0.194238,-0.25149 0.295019,-0.37816 z"
     id="path173"
     inkscape:connector-curvature="0" /><path
     style="fill:#999999;stroke-width:0.09792621"
     d="m 7.8574648,38.716899 c -0.4261718,-0.92698 -0.4261718,-1.99752 0,-2.9244 2.2652342,-4.92596 9.6231442,-12.68685 17.9892572,-10.98903 -0.08076,-4.33893 0.453809,-7.94325 1.051172,-10.55941 0.616797,-2.70159 -0.752051,-5.5776801 -3.547754,-6.6533301 -2.791894,-1.07202 -5.72207,0.147 -7.056738,2.5773701 -1.916797,3.49031 -5.379785,8.51181 -11.1965816,13.23175 -9.4708982,7.68508 -3.693164,20.68292 0.924121,25.44636 0.7496094,0.7734 1.8012695,1.17757 2.8726562,1.10412 2.0854494,-0.14287 4.8023434,-0.82112 7.4818354,-2.06233 -4.056933,-2.35368 -7.1783198,-6.25799 -8.5179682,-9.1711 z"
     id="path175"
     inkscape:connector-curvature="0" /><path
     style="fill:#666666;stroke-width:0.09792621"
     d="m 8.0310976,48.846309 c -4.617285,-4.76354 -10.3949216,-17.76128 -0.924121,-25.44646 5.8167964,-4.72004 9.2797844,-9.74144 11.1964844,-13.23175 0.838281,-1.5263701 2.306054,-2.5744301 3.973535,-2.8777601 -2.441407,-0.43982 -4.819434,0.75789 -5.983692,2.8777601 -1.916796,3.49031 -5.379785,8.51181 -11.1964836,13.23175 -9.4708982,7.68508 -3.693164,20.68292 0.924121,25.44646 0.7496094,0.7733 1.8012695,1.17757 2.8727539,1.10412 0.2923828,-0.02 0.5984375,-0.0518 0.9138671,-0.0929 -0.668457,-0.15997 -1.286914,-0.50631 -1.7764648,-1.01123 z"
     id="path177"
     inkscape:connector-curvature="0" /><path
     style="fill:#b3b3b3;stroke-width:0.09792621"
     d="m 45.310003,31.807069 c -3.625391,-0.5115 -9.237598,-1.87605 -15.385742,-5.47094 -9.90957,-5.79391 -19.426367,3.59411 -22.1124016,9.43516 -0.4335938,0.94269 -0.4335938,2.02403 0,2.96682 1.8477538,4.01832 6.4791016,8.96165 11.7556636,10.63483 1.319141,0.41831 2.625781,0.62708 3.915918,0.62708 2.204297,-1e-4 4.359668,-0.61 6.44082,-1.82685 6.147851,-3.5948 11.760156,-4.95924 15.385742,-5.47085 2.555469,-0.36058 4.690039,-2.54644 4.690039,-5.49451 0,-2.70169 -2.016309,-5.02356 -4.690039,-5.40074 z"
     id="path179"
     inkscape:connector-curvature="0" /><g
     id="g185"
     transform="matrix(0.09765625,0,0,0.09819694,4.3159369e-5,-0.13845114)"><path
       style="fill:#666666"
       d="m 463.974,415.69 c -37.125,5.21 -94.595,19.105 -157.55,55.713 -21.311,12.392 -43.382,18.603 -65.954,18.604 -13.211,0 -26.591,-2.127 -40.099,-6.386 C 146.34,466.582 98.915,416.241 79.994,375.32 c -0.726,-1.57 -1.321,-3.181 -1.81,-4.815 -2.499,8.353 -1.904,17.369 1.81,25.399 18.921,40.921 66.346,91.262 120.378,108.301 13.508,4.26 26.888,6.386 40.099,6.386 22.572,-0.001 44.643,-6.212 65.954,-18.604 62.954,-36.608 120.424,-50.503 157.55,-55.713 C 490.142,432.602 512,410.342 512,380.32 c 0,-3.424 -0.321,-6.788 -0.933,-10.062 -4.42,24.606 -24.087,42.204 -47.093,45.432 z"
       id="path181"
       inkscape:connector-curvature="0" /><path
       style="fill:#999999"
       d="m 143.267,376.698 c -2.433,2.17 -2.433,6.028 0,8.199 57.985,51.73 187.467,51.679 245.396,0 2.433,-2.17 2.433,-6.028 0,-8.199 -26.198,-23.372 -71.366,-38.808 -122.698,-38.808 -51.332,0 -96.5,15.436 -122.698,38.808 z"
       id="path183"
       inkscape:connector-curvature="0" /></g><path
     style="fill:#666666;stroke-width:0.09792621"
     d="m 37.215862,36.249109 c -5.697558,4.26882 -16.783593,4.27265 -22.485448,0 -0.260938,0.19433 -0.508008,0.39534 -0.739453,0.60303 -0.237598,0.21309 -0.237598,0.59193 0,0.80511 5.662597,5.07973 18.307323,5.07472 23.964452,0 0.237598,-0.21308 0.237598,-0.59193 0,-0.80511 -0.231445,-0.20769 -0.478613,-0.4087 -0.739551,-0.60303 z"
     id="path187"
     inkscape:connector-curvature="0" /><path
     style="fill:#4d4d4d;stroke-width:0.09792621"
     d="m 31.905023,35.259189 c -5.614942,-2.6794 -13.95918,-1.91965 -17.940137,1.65167 -0.20498,0.18382 -0.20498,0.50375 0,0.68767 3.980469,3.57084 12.324805,4.33127 17.940234,1.65168 1.678711,-0.80109 1.678711,-3.18993 -9.7e-5,-3.99102 z"
     id="path189"
     inkscape:connector-curvature="0" /><path
     style="fill:#1a1a1a;stroke-width:0.09792621"
     d="m 31.905023,39.250209 c 0.40625,-0.19384 0.713281,-0.48117 0.922949,-0.81602 -5.877637,1.87713 -13.602441,1.15823 -18.065039,-2.16141 -0.282031,0.2015 -0.548632,0.41429 -0.798144,0.63808 -0.0749,0.0672 -0.121778,0.1527 -0.141895,0.24294 -0.0124,0.0667 -0.0124,0.13512 0,0.20179 0.02022,0.0903 0.06699,0.17568 0.141895,0.24294 3.980468,3.57084 12.324902,4.33118 17.940234,1.65168 z"
     id="path191"
     inkscape:connector-curvature="0" /><g
     id="g209"
     transform="matrix(0.09765625,0,0,0.09819694,4.3159369e-5,-0.13845114)"><path
       style="fill:#1a1a1a"
       d="m 201.627,389.307 c -3.739,0 -7.024,-2.722 -7.618,-6.531 -0.656,-4.212 2.226,-8.159 6.439,-8.816 l 0.633,-0.103 c 4.206,-0.699 8.178,2.157 8.869,6.363 0.692,4.207 -2.157,8.178 -6.364,8.87 l -0.761,0.123 c -0.403,0.064 -0.803,0.094 -1.198,0.094 z"
       id="path193"
       inkscape:connector-curvature="0" /><path
       style="fill:#1a1a1a"
       d="m 257.113,403.452 c -3.726,0 -7.006,-2.705 -7.613,-6.502 -0.672,-4.209 2.195,-8.167 6.404,-8.841 l 0.63,-0.103 c 4.203,-0.711 8.187,2.123 8.897,6.326 0.71,4.204 -2.123,8.187 -6.327,8.897 l -0.764,0.125 c -0.412,0.066 -0.822,0.098 -1.227,0.098 z"
       id="path195"
       inkscape:connector-curvature="0" /><path
       style="fill:#1a1a1a"
       d="m 257.461,373.776 c -3.739,0 -7.024,-2.722 -7.618,-6.531 -0.656,-4.212 2.226,-8.159 6.439,-8.816 l 0.633,-0.103 c 4.202,-0.696 8.178,2.157 8.869,6.363 0.692,4.207 -2.157,8.178 -6.364,8.87 l -0.761,0.123 c -0.402,0.064 -0.803,0.094 -1.198,0.094 z"
       id="path197"
       inkscape:connector-curvature="0" /><path
       style="fill:#1a1a1a"
       d="m 229.324,400.365 c -3.726,0 -7.006,-2.705 -7.613,-6.502 -0.672,-4.209 2.195,-8.167 6.404,-8.841 l 0.63,-0.103 c 4.203,-0.714 8.187,2.124 8.897,6.326 0.71,4.204 -2.123,8.187 -6.327,8.897 l -0.764,0.125 c -0.412,0.066 -0.822,0.098 -1.227,0.098 z"
       id="path199"
       inkscape:connector-curvature="0" /><path
       style="fill:#1a1a1a"
       d="m 229.673,378.922 c -3.739,0 -7.024,-2.722 -7.618,-6.531 -0.656,-4.212 2.226,-8.159 6.439,-8.816 l 0.633,-0.103 c 4.202,-0.693 8.178,2.157 8.869,6.363 0.692,4.207 -2.157,8.178 -6.364,8.87 l -0.761,0.123 c -0.403,0.064 -0.803,0.094 -1.198,0.094 z"
       id="path201"
       inkscape:connector-curvature="0" /><path
       style="fill:#1a1a1a"
       d="m 285.93,400.365 c -3.726,0 -7.006,-2.705 -7.613,-6.502 -0.672,-4.209 2.195,-8.167 6.404,-8.841 l 0.63,-0.103 c 4.205,-0.714 8.186,2.124 8.897,6.326 0.71,4.204 -2.123,8.187 -6.327,8.897 l -0.764,0.125 c -0.411,0.066 -0.822,0.098 -1.227,0.098 z"
       id="path203"
       inkscape:connector-curvature="0" /><path
       style="fill:#1a1a1a"
       d="m 286.279,378.922 c -3.739,0 -7.024,-2.722 -7.618,-6.531 -0.656,-4.212 2.226,-8.159 6.439,-8.816 l 0.633,-0.103 c 4.203,-0.693 8.177,2.157 8.869,6.363 0.692,4.207 -2.157,8.178 -6.364,8.87 l -0.761,0.123 c -0.402,0.064 -0.803,0.094 -1.198,0.094 z"
       id="path205"
       inkscape:connector-curvature="0" /><path
       style="fill:#1a1a1a"
       d="m 313.811,389.307 c -3.739,0 -7.024,-2.722 -7.618,-6.531 -0.656,-4.212 2.226,-8.159 6.439,-8.816 l 0.633,-0.103 c 4.206,-0.699 8.178,2.157 8.869,6.363 0.692,4.207 -2.157,8.178 -6.364,8.87 l -0.761,0.123 c -0.403,0.064 -0.803,0.094 -1.198,0.094 z"
       id="path207"
       inkscape:connector-curvature="0" /></g><g
     id="g211"
     transform="matrix(0.09765625,0,0,0.09819694,4.3159369e-5,-0.13845114)" /><g
     id="g213"
     transform="matrix(0.09765625,0,0,0.09819694,4.3159369e-5,-0.13845114)" /><g
     id="g215"
     transform="matrix(0.09765625,0,0,0.09819694,4.3159369e-5,-0.13845114)" /><g
     id="g217"
     transform="matrix(0.09765625,0,0,0.09819694,4.3159369e-5,-0.13845114)" /><g
     id="g219"
     transform="matrix(0.09765625,0,0,0.09819694,4.3159369e-5,-0.13845114)" /><g
     id="g221"
     transform="matrix(0.09765625,0,0,0.09819694,4.3159369e-5,-0.13845114)" /><g
     id="g223"
     transform="matrix(0.09765625,0,0,0.09819694,4.3159369e-5,-0.13845114)" /><g
     id="g225"
     transform="matrix(0.09765625,0,0,0.09819694,4.3159369e-5,-0.13845114)" /><g
     id="g227"
     transform="matrix(0.09765625,0,0,0.09819694,4.3159369e-5,-0.13845114)" /><g
     id="g229"
     transform="matrix(0.09765625,0,0,0.09819694,4.3159369e-5,-0.13845114)" /><g
     id="g231"
     transform="matrix(0.09765625,0,0,0.09819694,4.3159369e-5,-0.13845114)" /><g
     id="g233"
     transform="matrix(0.09765625,0,0,0.09819694,4.3159369e-5,-0.13845114)" /><g
     id="g235"
     transform="matrix(0.09765625,0,0,0.09819694,4.3159369e-5,-0.13845114)" /><g
     id="g237"
     transform="matrix(0.09765625,0,0,0.09819694,4.3159369e-5,-0.13845114)" /><g
     id="g239"
     transform="matrix(0.09765625,0,0,0.09819694,4.3159369e-5,-0.13845114)" /></svg>
