<?xml version="1.0" encoding="UTF-8" standalone="no"?>
<!-- Generator: Adobe Illustrator 18.0.0, SVG Export Plug-In . SVG Version: 6.00 Build 0)  -->

<svg
   xmlns:dc="http://purl.org/dc/elements/1.1/"
   xmlns:cc="http://creativecommons.org/ns#"
   xmlns:rdf="http://www.w3.org/1999/02/22-rdf-syntax-ns#"
   xmlns:svg="http://www.w3.org/2000/svg"
   xmlns="http://www.w3.org/2000/svg"
   xmlns:sodipodi="http://sodipodi.sourceforge.net/DTD/sodipodi-0.dtd"
   xmlns:inkscape="http://www.inkscape.org/namespaces/inkscape"
   version="1.1"
   id="Capa_1"
   x="0px"
   y="0px"
   viewBox="0 0 50 50"
   xml:space="preserve"
   sodipodi:docname="peanut.svg"
   width="50"
   height="50"
   inkscape:version="0.92.2 5c3e80d, 2017-08-06"><metadata
     id="metadata39"><rdf:RDF><cc:Work
         rdf:about=""><dc:format>image/svg+xml</dc:format><dc:type
           rdf:resource="http://purl.org/dc/dcmitype/StillImage" /><dc:title></dc:title></cc:Work></rdf:RDF></metadata><defs
     id="defs37" /><sodipodi:namedview
     pagecolor="#ffffff"
     bordercolor="#666666"
     borderopacity="1"
     objecttolerance="10"
     gridtolerance="10"
     guidetolerance="10"
     inkscape:pageopacity="0"
     inkscape:pageshadow="2"
     inkscape:window-width="1447"
     inkscape:window-height="854"
     id="namedview35"
     showgrid="false"
     inkscape:showpageshadow="false"
     fit-margin-top="0"
     fit-margin-left="0"
     fit-margin-right="0"
     fit-margin-bottom="0"
     inkscape:zoom="4.5325546"
     inkscape:cx="0.50059804"
     inkscape:cy="20.390797"
     inkscape:window-x="0"
     inkscape:window-y="0"
     inkscape:window-maximized="0"
     inkscape:current-layer="Capa_1" /><path
     d="m 34.171614,24.949009 c 0.006,-1.84053 0.62603,-3.7542 1.79359,-5.53291 3.34283,-5.09629 2.49498,-11.8216902 -2.0144,-15.9920002 -4.93644,-4.56651 -12.96669,-4.56416 -17.90162,-7.8e-4 -4.50938,4.17109 -5.35721,10.8964902 -2.01439,15.9927802 1.16756,1.77871 1.7873,3.69248 1.79358,5.63526 -0.006,1.84052 -0.62602,3.75429 -1.79358,5.53291 -3.34282,5.09639 -2.49499,11.82168 2.01439,15.992 2.46828,2.2833 5.70873,3.42373 8.95081,3.42373 3.24127,0 6.48335,-1.14131 8.95081,-3.42305 4.50938,-4.17109 5.35723,-10.89639 2.0144,-15.99278 -1.16756,-1.77852 -1.78731,-3.69238 -1.79359,-5.63516 z m -14.04663,17.23868 c -0.8974,0 -1.625,-0.69961 -1.625,-1.5625 0,-0.86299 0.7276,-1.5625 1.625,-1.5625 0.89741,0 1.62501,0.69951 1.62501,1.5625 0,0.86289 -0.7276,1.5625 -1.62501,1.5625 z m 0,-31.25001 c -0.8974,0 -1.625,-0.69961 -1.625,-1.5625002 0,-0.86299 0.7276,-1.56251 1.625,-1.56251 0.89741,0 1.62501,0.69952 1.62501,1.56251 0,0.8628902 -0.7276,1.5625002 -1.62501,1.5625002 z m 4.87501,25.00001 c -0.89739,0 -1.625,-0.69961 -1.625,-1.5625 0,-0.86299 0.72761,-1.5625 1.625,-1.5625 0.89741,0 1.625,0.69951 1.625,1.5625 0,0.86289 -0.72759,1.5625 -1.625,1.5625 z m 0,-18.75001 c -0.89739,0 -1.625,-0.69961 -1.625,-1.5625 0,-0.86299 0.72761,-1.5625 1.625,-1.5625 0.89741,0 1.625,0.69951 1.625,1.5625 0,0.86289 -0.72759,1.5625 -1.625,1.5625 z m 4.87501,25.00001 c -0.8974,0 -1.62501,-0.69961 -1.62501,-1.5625 0,-0.86299 0.72761,-1.5625 1.62501,-1.5625 0.8974,0 1.625,0.69951 1.625,1.5625 0,0.86289 -0.7276,1.5625 -1.625,1.5625 z m 0,-31.25001 c -0.8974,0 -1.62501,-0.69961 -1.62501,-1.5625002 0,-0.86299 0.72761,-1.56251 1.62501,-1.56251 0.8974,0 1.625,0.69952 1.625,1.56251 0,0.8628902 -0.7276,1.5625002 -1.625,1.5625002 z"
     id="path2"
     style="fill:#8c8c8c;fill-opacity:1;stroke-width:0.09959029"
     inkscape:connector-curvature="0" /><g
     id="g4"
     style="fill:#8c8c8c;fill-opacity:1"
     transform="matrix(0.1015626,0,0,0.0976563,-1.000036,-2.1224689e-5)" /><g
     id="g6"
     style="fill:#8c8c8c;fill-opacity:1"
     transform="matrix(0.1015626,0,0,0.0976563,-1.000036,-2.1224689e-5)" /><g
     id="g8"
     style="fill:#8c8c8c;fill-opacity:1"
     transform="matrix(0.1015626,0,0,0.0976563,-1.000036,-2.1224689e-5)" /><g
     id="g10"
     style="fill:#8c8c8c;fill-opacity:1"
     transform="matrix(0.1015626,0,0,0.0976563,-1.000036,-2.1224689e-5)" /><g
     id="g12"
     style="fill:#8c8c8c;fill-opacity:1"
     transform="matrix(0.1015626,0,0,0.0976563,-1.000036,-2.1224689e-5)" /><g
     id="g14"
     style="fill:#8c8c8c;fill-opacity:1"
     transform="matrix(0.1015626,0,0,0.0976563,-1.000036,-2.1224689e-5)" /><g
     id="g16"
     style="fill:#8c8c8c;fill-opacity:1"
     transform="matrix(0.1015626,0,0,0.0976563,-1.000036,-2.1224689e-5)" /><g
     id="g18"
     style="fill:#8c8c8c;fill-opacity:1"
     transform="matrix(0.1015626,0,0,0.0976563,-1.000036,-2.1224689e-5)" /><g
     id="g20"
     style="fill:#8c8c8c;fill-opacity:1"
     transform="matrix(0.1015626,0,0,0.0976563,-1.000036,-2.1224689e-5)" /><g
     id="g22"
     style="fill:#8c8c8c;fill-opacity:1"
     transform="matrix(0.1015626,0,0,0.0976563,-1.000036,-2.1224689e-5)" /><g
     id="g24"
     style="fill:#8c8c8c;fill-opacity:1"
     transform="matrix(0.1015626,0,0,0.0976563,-1.000036,-2.1224689e-5)" /><g
     id="g26"
     style="fill:#8c8c8c;fill-opacity:1"
     transform="matrix(0.1015626,0,0,0.0976563,-1.000036,-2.1224689e-5)" /><g
     id="g28"
     style="fill:#8c8c8c;fill-opacity:1"
     transform="matrix(0.1015626,0,0,0.0976563,-1.000036,-2.1224689e-5)" /><g
     id="g30"
     style="fill:#8c8c8c;fill-opacity:1"
     transform="matrix(0.1015626,0,0,0.0976563,-1.000036,-2.1224689e-5)" /><g
     id="g32"
     style="fill:#8c8c8c;fill-opacity:1"
     transform="matrix(0.1015626,0,0,0.0976563,-1.000036,-2.1224689e-5)" /></svg>
