<?xml version="1.0" encoding="UTF-8" standalone="no"?>
<svg
   xmlns:dc="http://purl.org/dc/elements/1.1/"
   xmlns:cc="http://creativecommons.org/ns#"
   xmlns:rdf="http://www.w3.org/1999/02/22-rdf-syntax-ns#"
   xmlns:svg="http://www.w3.org/2000/svg"
   xmlns="http://www.w3.org/2000/svg"
   xmlns:sodipodi="http://sodipodi.sourceforge.net/DTD/sodipodi-0.dtd"
   xmlns:inkscape="http://www.inkscape.org/namespaces/inkscape"
   version="1.1"
   id="Capa_1"
   xml:space="preserve"
   height="50"
   width="50"
   sodipodi:docname="pills-grey.svg"
   inkscape:version="0.92.2 5c3e80d, 2017-08-06"><metadata
     id="metadata17"><rdf:RDF><cc:Work
         rdf:about=""><dc:format>image/svg+xml</dc:format><dc:type
           rdf:resource="http://purl.org/dc/dcmitype/StillImage" /><dc:title></dc:title></cc:Work></rdf:RDF></metadata><defs
     id="defs15" /><sodipodi:namedview
     pagecolor="#ffffff"
     bordercolor="#666666"
     borderopacity="1"
     objecttolerance="10"
     gridtolerance="10"
     guidetolerance="10"
     inkscape:pageopacity="0"
     inkscape:pageshadow="2"
     inkscape:window-width="1440"
     inkscape:window-height="852"
     id="namedview13"
     showgrid="false"
     inkscape:showpageshadow="false"
     fit-margin-top="0"
     fit-margin-left="0"
     fit-margin-right="0"
     fit-margin-bottom="0"
     inkscape:zoom="5.9"
     inkscape:cx="6.9051067"
     inkscape:cy="14.692122"
     inkscape:window-x="0"
     inkscape:window-y="0"
     inkscape:window-maximized="0"
     inkscape:current-layer="Capa_1" /><g
     transform="matrix(0.1254122,0,0,0.11647022,-1.4907795,1.6182152e-5)"
     id="g10"><path
       style="fill:#8c8c8f;fill-opacity:0.94117647"
       d="m 289.369,318.437 -67.365,-67.365 -93.274,93.274 67.365,67.365 0.043,-0.043 c 25.866,24.045 66.326,23.494 91.504,-1.684 25.178,-25.178 25.729,-65.638 1.684,-91.503 z"
       id="path2"
       inkscape:connector-curvature="0" /><path
       style="fill:#cccccc"
       d="m 154.639,183.706 -0.043,0.043 C 128.73,159.704 88.27,160.255 63.092,185.433 37.914,210.61 37.363,251.071 61.408,276.937 l -0.043,0.043 67.366,67.365 93.274,-93.274 z"
       id="path4"
       inkscape:connector-curvature="0" /><path
       style="fill:#8c8c8f;fill-opacity:0.94117647"
       d="m 233.199,17.583 -0.043,0.043 C 207.29,-6.419 166.83,-5.868 141.652,19.31 c -25.178,25.178 -25.729,65.638 -1.684,91.504 l -0.043,0.043 67.365,67.365 93.274,-93.275 z"
       id="path6"
       inkscape:connector-curvature="0" /><path
       style="fill:#cccccc"
       d="m 367.886,152.356 0.044,-0.044 -67.366,-67.365 -93.274,93.275 67.365,67.366 0.043,-0.044 c 25.866,24.045 66.326,23.494 91.504,-1.684 25.178,-25.178 25.729,-65.638 1.684,-91.504 z"
       id="path8"
       inkscape:connector-curvature="0" /></g></svg>
