<?xml version="1.0" encoding="UTF-8" standalone="no"?>
<svg
   xmlns:dc="http://purl.org/dc/elements/1.1/"
   xmlns:cc="http://creativecommons.org/ns#"
   xmlns:rdf="http://www.w3.org/1999/02/22-rdf-syntax-ns#"
   xmlns:svg="http://www.w3.org/2000/svg"
   xmlns="http://www.w3.org/2000/svg"
   xmlns:sodipodi="http://sodipodi.sourceforge.net/DTD/sodipodi-0.dtd"
   xmlns:inkscape="http://www.inkscape.org/namespaces/inkscape"
   height="50"
   viewBox="-34 0 37.499997 37.499999"
   width="49.999996"
   version="1.1"
   id="svg32"
   sodipodi:docname="spinach.svg"
   inkscape:version="0.92.2 5c3e80d, 2017-08-06">
  <metadata
     id="metadata38">
    <rdf:RDF>
      <cc:Work
         rdf:about="">
        <dc:format>image/svg+xml</dc:format>
        <dc:type
           rdf:resource="http://purl.org/dc/dcmitype/StillImage" />
        <dc:title></dc:title>
      </cc:Work>
    </rdf:RDF>
  </metadata>
  <defs
     id="defs36" />
  <sodipodi:namedview
     pagecolor="#ffffff"
     bordercolor="#666666"
     borderopacity="1"
     objecttolerance="10"
     gridtolerance="10"
     guidetolerance="10"
     inkscape:pageopacity="0"
     inkscape:pageshadow="2"
     inkscape:window-width="1443"
     inkscape:window-height="852"
     id="namedview34"
     showgrid="false"
     inkscape:showpageshadow="false"
     fit-margin-top="0"
     fit-margin-left="0"
     fit-margin-right="0"
     fit-margin-bottom="0"
     units="px"
     inkscape:zoom="12.779986"
     inkscape:cx="24.999999"
     inkscape:cy="25.000005"
     inkscape:window-x="0"
     inkscape:window-y="0"
     inkscape:window-maximized="0"
     inkscape:current-layer="svg32" />
  <path
     d="m -30.300482,11.53646 c -3.866709,1.56069 -4.862485,6.81496 -2.224339,11.73563 2.133335,3.9794 5.990153,6.52199 9.432504,6.52399 1.584998,5.9e-4 3.018322,0.8154 3.687008,2.06252 -0.668686,-1.24712 -0.463267,-2.72313 0.556909,-3.7757 2.216097,-2.28595 2.459105,-6.48336 0.32577,-10.46276 -2.637816,-4.92067 -7.911142,-7.6446501 -11.777852,-6.08368 z m 0,0"
     id="path2"
     style="fill:#808080;stroke-width:0.07862813"
     inkscape:connector-curvature="0" />
  <path
     d="m -20.970194,28.38703 c -0.01978,-0.0318 -0.02902,-0.065 -0.04748,-0.097 -3.555446,0.093 -7.721549,-2.16522 -10.419046,-5.97439 -1.451789,-2.04992 -2.241485,-4.22945 -2.40437,-6.22558 -0.418754,2.13375 -0.01319,4.70238 1.31627,7.18202 2.133335,3.9794 5.990153,6.52199 9.432504,6.52399 1.584998,8.7e-4 3.018322,0.8154 3.687008,2.06252 -0.21729,-0.40541 -0.335992,-0.83514 -0.368964,-1.26572 -0.384463,-0.74101 -0.753757,-1.48888 -1.195921,-2.20585 z m 0,0"
     id="path4"
     style="fill:#4d4d4d;stroke-width:0.07862813"
     inkscape:connector-curvature="0" />
  <path
     d="M -0.98741121,6.3036499 C -5.6204072,4.4743099 -11.882584,7.7707899 -14.974766,13.6665 c -2.50065,4.76789 -2.16235,9.77554 0.50877,12.48464 1.229881,1.24741 1.491685,3.00722 0.707924,4.50153 0.783761,-1.49431 2.485153,-2.47879 4.3767968,-2.49366 4.10873,-0.0318 8.68270399,-3.09964 11.183355,-7.86753 3.09218,-5.896 1.843174,-12.1584901 -2.78949101,-13.9878301 z m 0,0"
     id="path6"
     style="fill:#808080;stroke-width:0.07862813"
     inkscape:connector-curvature="0" />
  <path
     d="m -16.641206,19.36794 c -0.146729,2.25849 0.353797,4.32501 1.443875,5.88856 0.04023,0.0578 0.08078,0.11473 0.122658,0.17137 0.188605,0.25406 0.387429,0.49925 0.608677,0.72327 0.0026,0.003 0.237732,0.26751 0.340937,0.40255 0.09463,0.1276 0.181679,0.25892 0.261474,0.39281 0.678579,1.13955 0.734632,2.50655 0.105513,3.70617 0.103204,-0.19683 0.227181,-0.38166 0.360721,-0.55961 l 4.1924798,-8.29239 z m 0,0"
     id="path8"
     style="fill:#4d4d4d;stroke-width:0.07862813"
     inkscape:connector-curvature="0" />
  <path
     d="m -8.7686412,21.71055 c -0.27763,0 -0.538115,-0.14649 -0.64198,-0.38481 -0.133868,-0.30756 0.04484,-0.65117 0.3993,-0.76733 l 8.25636699,-2.70481 c 0.354127,-0.11616 0.750129,0.0389 0.883998,0.34647 0.1342,0.30756 -0.04484,0.65117 -0.398969,0.76733 l -8.25636599,2.70481 c -0.0798,0.026 -0.162227,0.0383 -0.24235,0.0383 z m 0,0"
     id="path10"
     style="fill:#b3b3b3;stroke-width:0.07862813"
     inkscape:connector-curvature="0" />
  <path
     d="m -16.991376,37.49996 c -0.09463,0 -0.190253,-0.0169 -0.281917,-0.0529 -0.345224,-0.13532 -0.498548,-0.4878 -0.342587,-0.78764 L -3.9974912,10.50793 c 0.155962,-0.29927 0.561855,-0.43259 0.90774,-0.29726 0.344894,0.13561 0.498217,0.4878 0.342256,0.78763 L -16.365555,37.15006 c -0.114744,0.21972 -0.364677,0.3499 -0.625821,0.3499 z m 0,0"
     id="path12"
     style="fill:#b3b3b3;stroke-width:0.07862813"
     inkscape:connector-curvature="0" />
  <path
     d="m -16.990058,37.49996 c -0.261803,0 -0.511737,-0.13075 -0.626481,-0.35105 L -26.29133,20.39562 c -0.155301,-0.30012 -0.0013,-0.65231 0.344236,-0.78707 0.347862,-0.13561 0.751118,-5.8e-4 0.907079,0.2987 l 8.67479,16.75329 c 0.155632,0.29983 0.0016,0.65231 -0.344235,0.78706 -0.09166,0.0355 -0.186955,0.0524 -0.280598,0.0524 z m 0,0"
     id="path14"
     style="fill:#b3b3b3;stroke-width:0.07862813"
     inkscape:connector-curvature="0" />
  <path
     d="m -23.837831,24.3507 c -0.08309,0 -0.166841,-0.0129 -0.249273,-0.0409 l -5.272336,-1.78099 c -0.353138,-0.11902 -0.527234,-0.46434 -0.389738,-0.77076 0.136507,-0.30584 0.53251,-0.45862 0.888285,-0.33817 l 5.272007,1.78098 c 0.353138,0.11902 0.527234,0.46435 0.390067,0.77076 -0.105183,0.23489 -0.364349,0.37909 -0.639012,0.37909 z m 0,0"
     id="path16"
     style="fill:#b3b3b3;stroke-width:0.07862813"
     inkscape:connector-curvature="0" />
  <path
     d="m -16.990717,29.86847 c 0,-1.83277 1.204164,-3.5162 3.118889,-4.29039 4.1585178,-1.68114 7.1712348,-6.63414 7.1712348,-12.48293 0,-7.2320901 -4.6069468,-13.095190054321 -10.2901238,-13.095190054321 -5.682847,0 -10.289794,5.863099954321 -10.289794,13.095190054321 0,5.84879 3.012716,10.80179 7.170905,12.48293 1.914725,0.77419 3.118889,2.45762 3.118889,4.29039 z m 0,0"
     id="path18"
     style="fill:#808080;stroke-width:0.07862813"
     inkscape:connector-curvature="0" />
  <path
     d="m -16.922463,25.07397 c -3.769111,-1.72635 -6.93614,-5.98698 -7.924002,-11.2916 -0.862896,-4.6325701 0.146399,-8.9730301 2.379311,-11.7739701 -2.887421,2.31914 -4.813357,6.42042 -4.813357,11.0867501 0,5.84879 3.012716,10.80179 7.170905,12.48293 1.914725,0.77419 3.118889,2.45762 3.118889,4.29039 0,-0.24147 0.0277,-0.47894 0.06825,-0.71354 z m 0,0"
     id="path20"
     style="fill:#4d4d4d;stroke-width:0.07862813"
     inkscape:connector-curvature="0" />
  <g
     id="g28"
     transform="matrix(0.08441014,0,0,0.07324218,-34.00002,-4.0054321e-5)"
     style="fill:#b4e6a0">
    <path
       d="m 201.50781,316.95312 c -2.07812,0 -4.16015,-0.79687 -5.74609,-2.38281 L 98.644531,217.45312 c -3.175781,-3.17578 -3.175781,-8.3164 0,-11.49218 3.171879,-3.17578 8.316409,-3.17578 11.488279,0 l 97.1211,97.11718 c 3.17578,3.17579 3.17578,8.31641 0,11.49219 -1.58594,1.58985 -3.66797,2.38281 -5.7461,2.38281 z m 0,0"
       id="path22"
       style="fill:#b3b3b3"
       inkscape:connector-curvature="0" />
    <path
       d="m 201.50781,251.9375 c -2.07812,0 -4.16015,-0.79297 -5.74609,-2.38281 -3.17578,-3.17188 -3.17578,-8.31641 0,-11.49219 l 81.26953,-81.26953 c 3.17578,-3.17578 8.31641,-3.17578 11.49219,0 3.17578,3.17578 3.17578,8.3164 0,11.49219 l -81.26953,81.26953 c -1.58594,1.58984 -3.66797,2.38281 -5.7461,2.38281 z m 0,0"
       id="path24"
       style="fill:#b3b3b3"
       inkscape:connector-curvature="0" />
    <path
       d="m 201.50781,195.04687 c -2.07812,0 -4.16015,-0.79296 -5.74609,-2.3789 l -56.89063,-56.89063 c -3.17187,-3.17578 -3.17187,-8.3164 0,-11.49218 3.17578,-3.17578 8.32032,-3.17578 11.49219,0 l 56.89063,56.89062 c 3.17578,3.17578 3.17578,8.31641 0,11.49219 -1.58594,1.58594 -3.66797,2.3789 -5.7461,2.3789 z m 0,0"
       id="path26"
       style="fill:#b3b3b3"
       inkscape:connector-curvature="0" />
  </g>
  <path
     d="m -16.990717,37.49996 c -0.379187,0 -0.686162,-0.26636 -0.686162,-0.59538 V 5.3572299 c 0,-0.32902 0.306975,-0.59538 0.686162,-0.59538 0.379186,0 0.685832,0.26636 0.685832,0.59538 V 36.90458 c 0,0.32902 -0.306646,0.59538 -0.685832,0.59538 z m 0,0"
     id="path30"
     style="fill:#b3b3b3;stroke-width:0.07862813"
     inkscape:connector-curvature="0" />
</svg>
