<?xml version="1.0" encoding="UTF-8" standalone="no"?>
<!-- Generator: Adobe Illustrator 19.0.0, SVG Export Plug-In . SVG Version: 6.00 Build 0)  -->

<svg
   xmlns:dc="http://purl.org/dc/elements/1.1/"
   xmlns:cc="http://creativecommons.org/ns#"
   xmlns:rdf="http://www.w3.org/1999/02/22-rdf-syntax-ns#"
   xmlns:svg="http://www.w3.org/2000/svg"
   xmlns="http://www.w3.org/2000/svg"
   xmlns:sodipodi="http://sodipodi.sourceforge.net/DTD/sodipodi-0.dtd"
   xmlns:inkscape="http://www.inkscape.org/namespaces/inkscape"
   version="1.1"
   id="Capa_1"
   x="0px"
   y="0px"
   viewBox="0 0 50 50.000015"
   xml:space="preserve"
   sodipodi:docname="spoon.svg"
   width="50"
   height="50.000015"
   inkscape:version="0.92.2 5c3e80d, 2017-08-06"><metadata
     id="metadata179"><rdf:RDF><cc:Work
         rdf:about=""><dc:format>image/svg+xml</dc:format><dc:type
           rdf:resource="http://purl.org/dc/dcmitype/StillImage" /><dc:title></dc:title></cc:Work></rdf:RDF></metadata><defs
     id="defs177" /><sodipodi:namedview
     pagecolor="#ffffff"
     bordercolor="#666666"
     borderopacity="1"
     objecttolerance="10"
     gridtolerance="10"
     guidetolerance="10"
     inkscape:pageopacity="0"
     inkscape:pageshadow="2"
     inkscape:window-width="1440"
     inkscape:window-height="849"
     id="namedview175"
     showgrid="false"
     inkscape:showpageshadow="false"
     fit-margin-top="0"
     fit-margin-left="0"
     fit-margin-right="0"
     fit-margin-bottom="0"
     inkscape:zoom="8.9943954"
     inkscape:cx="22.590262"
     inkscape:cy="28.191276"
     inkscape:window-x="0"
     inkscape:window-y="0"
     inkscape:window-maximized="0"
     inkscape:current-layer="Capa_1" /><g
     id="g118"
     style="fill:#385fa0;fill-opacity:1"
     transform="matrix(0.09765625,0,0,0.09765625,-1.5848366e-6,-2.1371028e-5)"><g
       id="g116"
       style="fill:#385fa0;fill-opacity:1"><path
         d="M 274.455,237.776 C 263.196,226.517 255.207,212.705 249.399,197.789 L 18.774,410.979 c -24.441,22.524 -25.024,60.64 -1.714,83.95 23.408,23.408 61.474,22.646 83.921,-1.685 L 313.903,263.4 c -14.864,-5.829 -28.268,-14.444 -39.448,-25.624 z"
         id="path114"
         style="fill:#385fa0;fill-opacity:1"
         inkscape:connector-curvature="0" /></g></g><g
     id="g124"
     style="fill:#385fa0;fill-opacity:1"
     transform="matrix(0.09765625,0,0,0.09765625,-1.5848366e-6,-2.1371028e-5)"><g
       id="g122"
       style="fill:#385fa0;fill-opacity:1"><path
         d="M 486.579,25.652 C 444.217,-16.74 368.209,-4.47 316.877,46.863 c -52.632,52.632 -62.153,128.76 -21.211,169.702 40.88,40.915 117.022,31.47 169.702,-21.211 C 518,142.707 527.507,66.579 486.579,25.652 Z"
         id="path120"
         style="fill:#385fa0;fill-opacity:1"
         inkscape:connector-curvature="0" /></g></g><g
     id="g130"
     style="fill:#385fa0;fill-opacity:1"
     transform="matrix(0.09765625,0,0,0.09765625,-1.5848366e-6,-2.1371028e-5)"><g
       id="g128"
       style="fill:#385fa0;fill-opacity:1"><path
         d="m 497,302 h -60 c -8.291,0 -15,6.709 -15,15 v 60 c 0,8.291 6.709,15 15,15 h 60 c 8.291,0 15,-6.709 15,-15 v -60 c 0,-8.291 -6.709,-15 -15,-15 z"
         id="path126"
         style="fill:#385fa0;fill-opacity:1"
         inkscape:connector-curvature="0" /></g></g><g
     id="g136"
     style="fill:#cccccc;fill-opacity:1"
     transform="matrix(0.09765625,0,0,0.09765625,-1.5848366e-6,-2.1371028e-5)"><g
       id="g134"
       style="fill:#cccccc;fill-opacity:1"><path
         d="m 347,362 h -60 c -8.291,0 -15,6.709 -15,15 v 60 c 0,8.291 6.709,15 15,15 h 60 c 8.291,0 15,-6.709 15,-15 v -60 c 0,-8.291 -6.709,-15 -15,-15 z"
         id="path132"
         style="fill:#385fa0;fill-opacity:1"
         inkscape:connector-curvature="0" /></g></g><g
     id="g142"
     style="fill:#385fa0;fill-opacity:1"
     transform="matrix(0.09765625,0,0,0.09765625,-1.5848366e-6,-2.1371028e-5)"><g
       id="g140"
       style="fill:#385fa0;fill-opacity:1"><path
         d="m 467,422 h -60 c -8.291,0 -15,6.709 -15,15 v 60 c 0,8.291 6.709,15 15,15 h 60 c 8.291,0 15,-6.709 15,-15 v -60 c 0,-8.291 -6.709,-15 -15,-15 z"
         id="path138"
         style="fill:#385fa0;fill-opacity:1"
         inkscape:connector-curvature="0" /></g></g><g
     id="g144"
     style="fill:#385fa0;fill-opacity:1"
     transform="matrix(0.09765625,0,0,0.09765625,-1.5848366e-6,-2.1371028e-5)" /><g
     id="g146"
     style="fill:#385fa0;fill-opacity:1"
     transform="matrix(0.09765625,0,0,0.09765625,-1.5848366e-6,-2.1371028e-5)" /><g
     id="g148"
     style="fill:#385fa0;fill-opacity:1"
     transform="matrix(0.09765625,0,0,0.09765625,-1.5848366e-6,-2.1371028e-5)" /><g
     id="g150"
     style="fill:#385fa0;fill-opacity:1"
     transform="matrix(0.09765625,0,0,0.09765625,-1.5848366e-6,-2.1371028e-5)" /><g
     id="g152"
     style="fill:#385fa0;fill-opacity:1"
     transform="matrix(0.09765625,0,0,0.09765625,-1.5848366e-6,-2.1371028e-5)" /><g
     id="g154"
     style="fill:#385fa0;fill-opacity:1"
     transform="matrix(0.09765625,0,0,0.09765625,-1.5848366e-6,-2.1371028e-5)" /><g
     id="g156"
     style="fill:#385fa0;fill-opacity:1"
     transform="matrix(0.09765625,0,0,0.09765625,-1.5848366e-6,-2.1371028e-5)" /><g
     id="g158"
     style="fill:#385fa0;fill-opacity:1"
     transform="matrix(0.09765625,0,0,0.09765625,-1.5848366e-6,-2.1371028e-5)" /><g
     id="g160"
     style="fill:#385fa0;fill-opacity:1"
     transform="matrix(0.09765625,0,0,0.09765625,-1.5848366e-6,-2.1371028e-5)" /><g
     id="g162"
     style="fill:#385fa0;fill-opacity:1"
     transform="matrix(0.09765625,0,0,0.09765625,-1.5848366e-6,-2.1371028e-5)" /><g
     id="g164"
     style="fill:#385fa0;fill-opacity:1"
     transform="matrix(0.09765625,0,0,0.09765625,-1.5848366e-6,-2.1371028e-5)" /><g
     id="g166"
     style="fill:#385fa0;fill-opacity:1"
     transform="matrix(0.09765625,0,0,0.09765625,-1.5848366e-6,-2.1371028e-5)" /><g
     id="g168"
     style="fill:#385fa0;fill-opacity:1"
     transform="matrix(0.09765625,0,0,0.09765625,-1.5848366e-6,-2.1371028e-5)" /><g
     id="g170"
     style="fill:#385fa0;fill-opacity:1"
     transform="matrix(0.09765625,0,0,0.09765625,-1.5848366e-6,-2.1371028e-5)" /><g
     id="g172"
     style="fill:#385fa0;fill-opacity:1"
     transform="matrix(0.09765625,0,0,0.09765625,-1.5848366e-6,-2.1371028e-5)" /></svg>
