<?xml version="1.0" encoding="UTF-8" standalone="no"?>
<!-- Generator: Adobe Illustrator 18.1.1, SVG Export Plug-In . SVG Version: 6.00 Build 0)  -->

<svg
   xmlns:dc="http://purl.org/dc/elements/1.1/"
   xmlns:cc="http://creativecommons.org/ns#"
   xmlns:rdf="http://www.w3.org/1999/02/22-rdf-syntax-ns#"
   xmlns:svg="http://www.w3.org/2000/svg"
   xmlns="http://www.w3.org/2000/svg"
   xmlns:sodipodi="http://sodipodi.sourceforge.net/DTD/sodipodi-0.dtd"
   xmlns:inkscape="http://www.inkscape.org/namespaces/inkscape"
   version="1.1"
   id="Capa_1"
   x="0px"
   y="0px"
   viewBox="0 0 49.999999 49.999999"
   xml:space="preserve"
   sodipodi:docname="stretching-exercises.svg"
   width="50"
   height="50"
   inkscape:version="0.92.2 5c3e80d, 2017-08-06"><metadata
     id="metadata45"><rdf:RDF><cc:Work
         rdf:about=""><dc:format>image/svg+xml</dc:format><dc:type
           rdf:resource="http://purl.org/dc/dcmitype/StillImage" /><dc:title></dc:title></cc:Work></rdf:RDF></metadata><defs
     id="defs43" /><sodipodi:namedview
     pagecolor="#ffffff"
     bordercolor="#666666"
     borderopacity="1"
     objecttolerance="10"
     gridtolerance="10"
     guidetolerance="10"
     inkscape:pageopacity="0"
     inkscape:pageshadow="2"
     inkscape:window-width="1441"
     inkscape:window-height="855"
     id="namedview41"
     showgrid="false"
     inkscape:showpageshadow="false"
     fit-margin-top="0"
     fit-margin-left="0"
     fit-margin-right="0"
     fit-margin-bottom="0"
     inkscape:zoom="7.630379"
     inkscape:cx="43.53755"
     inkscape:cy="27.248599"
     inkscape:window-x="0"
     inkscape:window-y="0"
     inkscape:window-maximized="0"
     inkscape:current-layer="Capa_1" /><g
     id="g8"
     style="fill:#385fa0;fill-opacity:1"
     transform="matrix(0.87617128,0,0,0.80829882,-1.919536,1.109e-4)"><g
       id="g6"
       style="fill:#385fa0;fill-opacity:1"><path
         style="fill:#385fa0;fill-opacity:1"
         d="m 50.097,0.014 c -9.917,0.874 -17.235,5.824 -21.501,12.98 -2.859,3.584 -8.57,14.526 -10.647,20.254 -3.766,7.123 -7.05,15.598 -9.62,23.238 -1.571,4.672 5.483,7.72 7.063,3.027 1.922,-5.716 4.244,-11.896 6.868,-17.631 2.604,5.828 5.25,11.637 8.091,17.354 2.202,4.438 8.828,0.546 6.634,-3.877 -2.925,-5.885 -5.642,-11.864 -8.319,-17.863 0.034,-0.116 0.077,-0.229 0.113,-0.344 0.446,0.127 0.938,0.166 1.48,0.063 4.096,-0.769 8.192,-1.536 12.291,-2.305 1.751,-0.329 2.422,-2.245 2.146,-3.779 C 43.868,26.534 41.249,23.336 37.989,20.31 37.505,18.664 35.891,17.208 34.1,15.761 37.731,9.891 43.659,6.705 51.375,6.025 55.313,5.68 54.001,-0.329 50.097,0.014 Z M 35.173,26.143 c 1.013,1.054 1.875,2.163 2.526,3.447 -1.982,0.372 -3.965,0.743 -5.947,1.115 1,-1.61 2.151,-3.13 3.421,-4.562 z"
         id="path2"
         inkscape:connector-curvature="0" /><circle
         style="fill:#385fa0;fill-opacity:1"
         cx="43.653"
         cy="15.635"
         r="5.2750001"
         id="circle4" /></g></g><g
     id="g10"
     style="fill:#385fa0;fill-opacity:1"
     transform="matrix(0.87617128,0,0,0.80829882,-1.919536,1.109e-4)" /><g
     id="g12"
     style="fill:#385fa0;fill-opacity:1"
     transform="matrix(0.87617128,0,0,0.80829882,-1.919536,1.109e-4)" /><g
     id="g14"
     style="fill:#385fa0;fill-opacity:1"
     transform="matrix(0.87617128,0,0,0.80829882,-1.919536,1.109e-4)" /><g
     id="g16"
     style="fill:#385fa0;fill-opacity:1"
     transform="matrix(0.87617128,0,0,0.80829882,-1.919536,1.109e-4)" /><g
     id="g18"
     style="fill:#385fa0;fill-opacity:1"
     transform="matrix(0.87617128,0,0,0.80829882,-1.919536,1.109e-4)" /><g
     id="g20"
     style="fill:#385fa0;fill-opacity:1"
     transform="matrix(0.87617128,0,0,0.80829882,-1.919536,1.109e-4)" /><g
     id="g22"
     style="fill:#385fa0;fill-opacity:1"
     transform="matrix(0.87617128,0,0,0.80829882,-1.919536,1.109e-4)" /><g
     id="g24"
     style="fill:#385fa0;fill-opacity:1"
     transform="matrix(0.87617128,0,0,0.80829882,-1.919536,1.109e-4)" /><g
     id="g26"
     style="fill:#385fa0;fill-opacity:1"
     transform="matrix(0.87617128,0,0,0.80829882,-1.919536,1.109e-4)" /><g
     id="g28"
     style="fill:#385fa0;fill-opacity:1"
     transform="matrix(0.87617128,0,0,0.80829882,-1.919536,1.109e-4)" /><g
     id="g30"
     style="fill:#385fa0;fill-opacity:1"
     transform="matrix(0.87617128,0,0,0.80829882,-1.919536,1.109e-4)" /><g
     id="g32"
     style="fill:#385fa0;fill-opacity:1"
     transform="matrix(0.87617128,0,0,0.80829882,-1.919536,1.109e-4)" /><g
     id="g34"
     style="fill:#385fa0;fill-opacity:1"
     transform="matrix(0.87617128,0,0,0.80829882,-1.919536,1.109e-4)" /><g
     id="g36"
     style="fill:#385fa0;fill-opacity:1"
     transform="matrix(0.87617128,0,0,0.80829882,-1.919536,1.109e-4)" /><g
     id="g38"
     style="fill:#385fa0;fill-opacity:1"
     transform="matrix(0.87617128,0,0,0.80829882,-1.919536,1.109e-4)" /></svg>
