<svg width="100" height="100" viewBox="0 0 100 100" fill="none" xmlns="http://www.w3.org/2000/svg">
<g clip-path="url(#clip0)">
<path d="M53.7398 13.653C52.87 12.8269 51.5002 12.8485 50.6741 13.6964C49.8696 14.5444 49.8696 15.8708 50.6741 16.7187L55.4357 21.4803L12.1679 64.77C10.3415 66.5964 10.9285 68.5751 11.3633 70.0101C11.4504 70.271 11.5372 70.5537 11.6024 70.8798L14.6029 82.3381L0.666151 96.2751C-0.203622 97.1012 -0.225228 98.4928 0.622734 99.3408C1.4707 100.189 2.84048 100.232 3.68844 99.3842C3.71025 99.3624 3.73186 99.3408 3.73186 99.3408L17.6036 85.4907L29.2141 88.4912C29.5403 88.5564 29.8664 88.665 30.1491 88.7303C30.8666 88.9694 31.606 89.0998 32.3669 89.1216C33.4539 89.1434 34.4976 88.6868 35.2587 87.9041L78.5266 44.6146L83.2664 49.3544C84.1362 50.1806 85.506 50.159 86.3321 49.311C87.1367 48.4631 87.1367 47.1367 86.3321 46.2887L53.7398 13.653ZM32.3451 84.7732C32.258 84.7514 31.6928 84.6427 31.3448 84.5341C30.9969 84.4254 30.5839 84.3166 30.236 84.2513L19.1907 81.4031C19.1254 81.2727 19.0602 81.164 18.9732 81.0552C18.9079 80.99 18.8209 80.9465 18.7341 80.9029L15.7988 69.8142C15.7118 69.4446 15.6031 69.1185 15.5161 68.814C15.4074 68.4226 15.2552 67.9008 15.2334 67.8573L19.3645 63.7046L26.7571 71.0971C27.6269 71.9233 28.9966 71.9017 29.8228 71.0537C30.6273 70.2058 30.6273 68.8794 29.8228 68.0314L22.4302 60.6389L28.3442 54.7031C28.4094 55.1379 28.6051 55.5511 28.9094 55.8772L33.2579 60.2257C34.1276 61.0518 35.4974 61.0302 36.3236 60.1823C37.1281 59.3343 37.1281 58.0079 36.3236 57.16L31.9751 52.8115C31.649 52.5072 31.2576 52.3115 30.801 52.2463L37.0195 46.0278C37.0847 46.4626 37.2804 46.8758 37.5847 47.2019L44.1075 53.7247C44.9773 54.5509 46.347 54.5293 47.1732 53.6813C47.9777 52.8333 47.9777 51.507 47.1732 50.659L40.6504 44.1362C40.3243 43.8319 39.9111 43.6362 39.4763 43.571L44.3032 38.7223L48.4343 42.8535C49.3041 43.6796 50.6739 43.658 51.5 42.8101C52.3046 41.9621 52.3046 40.6357 51.5 39.7878L47.3689 35.6566L51.913 31.1125L57.1312 36.3307C58.001 37.1568 59.3708 37.1352 60.197 36.2873C61.0015 35.4393 61.0015 34.1129 60.197 33.265L54.9787 28.0468L58.4358 24.5897L75.395 41.5489L32.3451 84.7732Z" fill="#385FA0"/>
<path d="M99.3993 22.3501L77.6568 0.607435C76.7871 -0.218716 75.4173 -0.197109 74.5911 0.650853C73.7866 1.49881 73.7866 2.82518 74.5911 3.67314L79.5702 8.67388L68.0681 20.1758C67.1984 21.0019 67.1768 22.3935 68.0247 23.2415C68.8509 24.1113 70.2425 24.1329 71.0904 23.2849C71.1122 23.2631 71.1338 23.2415 71.1338 23.2415L82.6357 11.7396L88.2672 17.371L76.7652 28.8729C75.8955 29.6991 75.8739 31.0907 76.7218 31.9386C77.548 32.8084 78.9396 32.83 79.7875 31.982C79.8093 31.9602 79.8309 31.9386 79.8309 31.9386L91.3329 20.4367L96.312 25.4158C97.1818 26.242 98.5515 26.2204 99.3777 25.3724C100.204 24.5244 100.204 23.1981 99.3993 22.3501Z" fill="#385FA0"/>
</g>
<defs>
<clipPath id="clip0">
<rect width="100" height="100" fill="white"/>
</clipPath>
</defs>
</svg>
