<?xml version="1.0" encoding="UTF-8" standalone="no"?>
<!-- Generator: Adobe Illustrator 19.0.0, SVG Export Plug-In . SVG Version: 6.00 Build 0)  -->

<svg
   xmlns:dc="http://purl.org/dc/elements/1.1/"
   xmlns:cc="http://creativecommons.org/ns#"
   xmlns:rdf="http://www.w3.org/1999/02/22-rdf-syntax-ns#"
   xmlns:svg="http://www.w3.org/2000/svg"
   xmlns="http://www.w3.org/2000/svg"
   xmlns:sodipodi="http://sodipodi.sourceforge.net/DTD/sodipodi-0.dtd"
   xmlns:inkscape="http://www.inkscape.org/namespaces/inkscape"
   version="1.1"
   id="Capa_1"
   x="0px"
   y="0px"
   viewBox="0 0 100 100"
   xml:space="preserve"
   sodipodi:docname="thyroid-gland.svg"
   width="100"
   height="100"
   inkscape:version="0.92.2 5c3e80d, 2017-08-06"><metadata
     id="metadata53"><rdf:RDF><cc:Work
         rdf:about=""><dc:format>image/svg+xml</dc:format><dc:type
           rdf:resource="http://purl.org/dc/dcmitype/StillImage" /><dc:title></dc:title></cc:Work></rdf:RDF></metadata><defs
     id="defs51" /><sodipodi:namedview
     pagecolor="#ffffff"
     bordercolor="#666666"
     borderopacity="1"
     objecttolerance="10"
     gridtolerance="10"
     guidetolerance="10"
     inkscape:pageopacity="0"
     inkscape:pageshadow="2"
     inkscape:window-width="1446"
     inkscape:window-height="849"
     id="namedview49"
     showgrid="false"
     inkscape:showpageshadow="false"
     inkscape:zoom="3.18"
     inkscape:cx="36.27916"
     inkscape:cy="79.552738"
     inkscape:window-x="0"
     inkscape:window-y="0"
     inkscape:window-maximized="0"
     inkscape:current-layer="Capa_1" /><g
     id="g16"
     style="opacity:0.12999998;fill:#000000"
     transform="matrix(0.20507662,0,0,0.1953125,-2.9286194,0)"><g
       id="g14"
       style="fill:#000000"><g
         id="g12"
         style="fill:#000000"><path
           d="m 118.509,113.991 0.973,0.933 c 1.77,1.695 3.623,3.481 5.511,5.315 l 0.007,0.006 0.004,0.004 c 8.008,7.654 15.549,15.781 22.585,24.338 l 0.076,0.091 c 0.955,1.177 1.906,2.404 2.862,3.634 0.831,1.066 1.661,2.137 2.485,3.237 0.512,0.686 1.02,1.386 1.53,2.088 1.381,1.891 2.75,3.835 4.107,5.832 l 0.257,0.379 c 4.748,7.031 9.054,14.351 12.893,21.917 0.203,-0.156 0.466,-0.326 0.674,-0.483 1.65,-1.249 3.392,-2.519 5.335,-3.818 0.205,-0.137 0.436,-0.273 0.645,-0.41 1.821,-1.201 3.798,-2.405 5.875,-3.608 0.578,-0.334 1.143,-0.662 1.741,-0.995 2.336,-1.301 4.799,-2.584 7.444,-3.829 0.456,-0.215 0.946,-0.417 1.412,-0.629 2.418,-1.102 4.96,-2.161 7.625,-3.177 0.624,-0.238 1.222,-0.482 1.86,-0.714 3.054,-1.113 6.267,-2.143 9.639,-3.092 0.717,-0.201 1.459,-0.382 2.191,-0.575 3.163,-0.835 6.448,-1.589 9.886,-2.242 0.525,-0.099 1.015,-0.219 1.546,-0.314 3.807,-0.679 7.817,-1.201 11.961,-1.609 0.958,-0.094 1.93,-0.171 2.906,-0.249 4.328,-0.348 8.771,-0.593 13.46,-0.593 4.689,0 9.132,0.245 13.459,0.593 0.977,0.078 1.949,0.155 2.906,0.249 4.144,0.408 8.154,0.93 11.961,1.609 0.53,0.095 1.021,0.214 1.546,0.314 3.436,0.651 6.721,1.405 9.883,2.24 0.733,0.194 1.479,0.375 2.198,0.576 3.373,0.951 6.585,1.981 9.637,3.092 0.638,0.233 1.237,0.476 1.86,0.714 2.67,1.016 5.211,2.075 7.625,3.177 0.465,0.213 0.955,0.415 1.412,0.629 2.645,1.246 5.108,2.528 7.444,3.829 0.598,0.334 1.164,0.662 1.742,0.997 2.072,1.199 4.043,2.4 5.861,3.598 0.214,0.141 0.453,0.281 0.663,0.422 1.942,1.297 3.682,2.568 5.329,3.815 0.206,0.156 0.465,0.322 0.666,0.477 5.162,-10.19 11.171,-19.928 17.963,-29.113 l 0.2,-0.274 c 1.406,-1.892 2.82,-3.734 4.243,-5.526 0.378,-0.478 0.755,-0.971 1.134,-1.441 0.888,-1.1 1.781,-2.159 2.674,-3.223 l 0.163,-0.195 0.471,-0.569 c 1.715,-2.034 3.422,-3.992 5.119,-5.874 l 0.028,-0.032 c 5.125,-5.679 10.123,-10.714 14.809,-15.266 l 0.003,-0.003 0.007,-0.006 c 1.888,-1.834 3.741,-3.62 5.511,-5.315 l 0.01,-0.007 0.963,-0.926 C 409.793,98.377 420.569,88.061 420.569,73.141 420.571,25.634 373.464,0 329.143,0 306.589,0 302.117,11.915 296.161,32.973 291.357,49.924 284.786,73.143 256,73.143 227.214,73.143 220.643,49.924 215.839,32.973 209.884,11.915 205.411,0 182.857,0 138.536,0 91.428,25.634 91.428,73.143 c 0.001,14.92 10.777,25.236 27.081,40.848 z"
           id="path2"
           style="fill:#000000"
           inkscape:connector-curvature="0" /><path
           d="m 325.754,193.887 c -1.632,-1.149 -3.36,-2.311 -5.282,-3.483 -0.889,-0.542 -1.908,-1.075 -2.86,-1.616 -1.739,-0.985 -3.547,-1.962 -5.499,-2.917 -1.188,-0.582 -2.468,-1.138 -3.734,-1.701 -1.988,-0.88 -4.075,-1.727 -6.26,-2.54 -1.432,-0.534 -2.909,-1.05 -4.431,-1.547 -2.333,-0.761 -4.818,-1.442 -7.358,-2.096 -1.61,-0.414 -3.197,-0.839 -4.891,-1.202 -2.897,-0.62 -6.009,-1.092 -9.156,-1.537 -1.583,-0.224 -3.077,-0.512 -4.723,-0.686 -10.341,-1.13 -20.775,-1.13 -31.116,0 -1.646,0.174 -3.141,0.462 -4.723,0.686 -3.147,0.445 -6.259,0.917 -9.156,1.537 -1.694,0.363 -3.281,0.788 -4.891,1.202 -2.54,0.653 -5.026,1.335 -7.358,2.096 -1.52,0.497 -2.997,1.013 -4.431,1.547 -2.188,0.813 -4.275,1.66 -6.26,2.54 -1.267,0.563 -2.547,1.119 -3.734,1.701 -1.952,0.956 -3.76,1.932 -5.499,2.917 -0.952,0.54 -1.971,1.074 -2.861,1.616 -1.922,1.173 -3.651,2.335 -5.282,3.483 -0.487,0.343 -1.067,0.698 -1.528,1.035 -1.93,1.415 -3.614,2.771 -5.104,4.045 5.542,13.847 9.894,28.142 13.009,42.728 8.48,-3.803 17.309,-6.776 26.362,-8.878 0.462,-0.109 0.915,-0.224 1.383,-0.33 2.021,-0.455 4.095,-0.864 6.215,-1.25 1.113,-0.205 2.244,-0.392 3.386,-0.576 1.804,-0.287 3.617,-0.561 5.489,-0.792 1.025,-0.128 2.061,-0.241 3.107,-0.352 0.232,-0.025 0.453,-0.082 0.686,-0.105 0.41,-0.042 0.834,-0.024 1.244,-0.063 l 0.397,-0.035 c 1.462,-0.131 2.894,-0.287 4.395,-0.382 3.473,-0.222 7.029,-0.361 10.712,-0.361 3.683,0 7.239,0.14 10.711,0.361 1.501,0.094 2.933,0.25 4.395,0.382 l 0.397,0.035 c 0.643,0.06 1.29,0.1 1.933,0.168 1.045,0.111 2.08,0.224 3.105,0.352 1.872,0.232 3.685,0.505 5.489,0.792 1.142,0.184 2.273,0.371 3.386,0.576 2.12,0.386 4.194,0.795 6.215,1.25 0.468,0.106 0.921,0.22 1.383,0.33 9.053,2.102 17.881,5.076 26.362,8.878 3.115,-14.587 7.466,-28.882 13.006,-42.73 -1.49,-1.273 -3.172,-2.629 -5.1,-4.042 -0.463,-0.339 -1.043,-0.694 -1.53,-1.036 z"
           id="path4"
           style="fill:#000000"
           inkscape:connector-curvature="0" /><path
           d="m 451.661,211.602 c -7.153,-11.463 -11.537,-24.435 -12.804,-37.888 0,-14.286 -12.553,-27.772 -38.33,-41.125 -0.251,0.243 -0.512,0.503 -0.765,0.748 l 0.005,0.006 -4.206,4.143 c -1.558,1.563 -3.17,3.218 -4.802,4.928 -0.611,0.641 -1.222,1.312 -1.834,1.966 -1.063,1.135 -2.129,2.291 -3.212,3.493 -0.679,0.755 -1.356,1.53 -2.034,2.305 -1.14,1.303 -2.285,2.646 -3.435,4.028 -0.559,0.67 -1.118,1.337 -1.674,2.022 -3.567,4.399 -7.156,9.189 -10.683,14.472 -0.157,0.236 -0.313,0.483 -0.471,0.722 -1.68,2.536 -3.337,5.185 -4.971,7.947 -0.159,0.267 -0.318,0.53 -0.475,0.798 -3.76,6.431 -7.147,13.073 -10.143,19.893 l -0.265,0.616 c -1.681,3.878 -3.263,7.834 -4.748,11.866 -0.451,1.233 -0.874,2.536 -1.311,3.802 -0.875,2.517 -1.713,5.069 -2.514,7.654 -0.679,2.205 -1.344,4.444 -1.982,6.746 -0.32,1.15 -0.613,2.332 -0.92,3.497 7.979,-3.875 16.758,-5.818 25.627,-5.67 5.049,0 9.143,4.093 9.143,9.143 0,5.05 -4.093,9.143 -9.143,9.143 -8.589,-0.391 -17.018,2.413 -23.66,7.873 4.357,3.071 8.422,6.537 12.142,10.355 3.402,3.733 3.135,9.517 -0.598,12.92 -3.733,3.403 -9.517,3.135 -12.92,-0.598 -5.518,-5.447 -11.756,-10.113 -18.54,-13.867 -0.194,-0.093 -0.404,-0.141 -0.594,-0.249 l -0.004,-0.002 -0.049,-0.02 c -10.915,-6.131 -22.694,-10.578 -34.938,-13.191 -0.561,-0.122 -1.188,-0.203 -1.759,-0.32 -2.379,-0.487 -4.795,-0.955 -7.335,-1.332 l -0.404,-0.066 c -0.991,-0.144 -2.076,-0.213 -3.092,-0.338 -1.884,-0.233 -3.766,-0.464 -5.732,-0.627 -0.508,-0.041 -0.981,-0.111 -1.493,-0.146 -3.459,-0.248 -7.034,-0.39 -10.739,-0.39 -3.696,0 -7.263,0.142 -10.715,0.389 -0.714,0.051 -1.373,0.148 -2.076,0.209 -1.768,0.152 -3.474,0.355 -5.174,0.565 -0.949,0.117 -1.958,0.182 -2.884,0.315 -0.54,0.077 -1.045,0.182 -1.578,0.264 -2.188,0.341 -4.301,0.734 -6.368,1.157 -0.497,0.102 -1.039,0.172 -1.528,0.277 -0.307,0.066 -0.596,0.143 -0.901,0.212 -2.719,0.608 -5.352,1.267 -7.848,1.988 l -0.274,0.083 c -9.111,2.622 -17.885,6.297 -26.145,10.951 l -0.054,0.022 -0.087,0.037 c -6.958,3.792 -13.361,8.524 -19.029,14.062 -3.401,3.723 -9.173,3.992 -12.905,0.6 -3.731,-3.392 -4.014,-9.164 -0.631,-12.903 3.721,-3.819 7.787,-7.286 12.145,-10.358 -6.644,-5.457 -15.074,-8.26 -23.663,-7.869 -5.049,0 -9.143,-4.093 -9.143,-9.143 0,-5.05 4.093,-9.143 9.143,-9.143 8.869,-0.147 17.648,1.795 25.627,5.671 -0.307,-1.165 -0.6,-2.347 -0.92,-3.497 -0.638,-2.303 -1.304,-4.541 -1.982,-6.746 -0.8,-2.588 -1.638,-5.139 -2.514,-7.654 -0.438,-1.266 -0.86,-2.569 -1.311,-3.802 -1.527,-4.144 -3.137,-8.216 -4.879,-12.195 l -0.02,-0.047 -0.036,-0.076 c -6.941,-15.878 -16.005,-30.741 -26.946,-44.179 -0.335,-0.41 -0.67,-0.809 -1.003,-1.213 -1.359,-1.647 -2.709,-3.226 -4.047,-4.754 -0.546,-0.621 -1.09,-1.248 -1.637,-1.856 -1.188,-1.326 -2.358,-2.593 -3.518,-3.831 -0.513,-0.549 -1.028,-1.115 -1.542,-1.655 -1.624,-1.704 -3.222,-3.345 -4.761,-4.888 l -4.562,-4.505 0.004,-0.007 -0.763,-0.748 c -25.777,13.352 -38.33,26.839 -38.33,41.125 -1.266,13.453 -5.65,26.425 -12.804,37.888 -15.661,27.444 -23.856,58.514 -23.768,90.112 -0.028,22.36 5.579,44.366 16.304,63.987 6.493,11.168 10.301,23.693 11.125,36.585 C 64,428.737 87.402,512 128,512 c 18.797,-0.754 37.337,-4.636 54.857,-11.487 v -71.758 c -10.049,8.918 -23.144,13.627 -36.571,13.151 -5.049,0 -9.143,-4.093 -9.143,-9.143 0,-5.049 4.093,-9.143 9.143,-9.143 9.475,0.538 18.738,-2.945 25.512,-9.592 -5.052,-3.405 -9.741,-7.321 -13.993,-11.685 -3.383,-3.74 -3.101,-9.512 0.631,-12.903 3.731,-3.392 9.504,-3.124 12.905,0.6 7.084,6.914 15.253,12.621 24.183,16.893 0.181,0.076 0.373,0.103 0.549,0.191 8.903,4.406 18.299,7.737 27.989,9.924 0.316,0.071 0.622,0.148 0.942,0.218 4.605,1.004 9.258,1.77 13.942,2.295 0.804,0.092 1.631,0.162 2.449,0.241 4.787,0.467 9.64,0.77 14.607,0.77 4.891,0 9.667,-0.305 14.384,-0.758 0.982,-0.095 1.972,-0.182 2.933,-0.295 4.493,-0.524 8.906,-1.239 13.223,-2.176 0.72,-0.156 1.408,-0.331 2.114,-0.496 4.464,-1.026 8.869,-2.292 13.198,-3.791 0.195,-0.068 0.376,-0.142 0.57,-0.211 4.609,-1.636 9.117,-3.546 13.498,-5.72 l 0.082,-0.029 c 9.095,-4.302 17.425,-10.063 24.658,-17.056 3.401,-3.723 9.173,-3.991 12.905,-0.6 3.731,3.392 4.014,9.164 0.631,12.903 -4.252,4.363 -8.941,8.279 -13.993,11.685 6.773,6.649 16.036,10.132 25.511,9.592 5.049,0 9.143,4.093 9.143,9.143 0,5.049 -4.093,9.143 -9.143,9.143 -13.427,0.476 -26.523,-4.233 -36.571,-13.151 v 71.758 c 17.52,6.85 36.06,10.732 54.857,11.487 40.598,0 64,-83.263 64,-109.714 0.824,-12.892 4.632,-25.416 11.125,-36.585 10.724,-19.62 16.332,-41.627 16.304,-63.987 0.086,-31.598 -8.109,-62.667 -23.77,-90.112 z"
           id="path6"
           style="fill:#000000"
           inkscape:connector-curvature="0" /><path
           d="m 285.938,436.104 c -1.173,0.218 -2.355,0.41 -3.538,0.602 -3.045,0.492 -6.191,0.891 -9.429,1.219 -1.239,0.125 -2.464,0.281 -3.712,0.378 -4.272,0.333 -8.661,0.555 -13.259,0.555 -4.598,0 -8.989,-0.221 -13.262,-0.554 -1.24,-0.097 -2.456,-0.252 -3.686,-0.376 -3.255,-0.329 -6.416,-0.73 -9.473,-1.225 -1.167,-0.189 -2.331,-0.378 -3.488,-0.593 -8.384,-1.536 -16.62,-3.795 -24.615,-6.751 -0.108,-0.041 -0.223,-0.067 -0.333,-0.108 v 30 c 1.659,0.416 3.315,0.848 4.975,1.227 1.982,0.453 3.963,0.908 5.946,1.306 3.049,0.612 6.103,1.124 9.156,1.608 1.806,0.286 3.61,0.607 5.417,0.848 3.511,0.469 7.026,0.807 10.54,1.108 1.353,0.115 2.704,0.289 4.057,0.381 9.832,0.66 19.697,0.66 29.529,0 1.353,-0.091 2.704,-0.265 4.057,-0.381 3.514,-0.301 7.029,-0.639 10.54,-1.108 1.807,-0.242 3.612,-0.562 5.417,-0.848 3.054,-0.484 6.107,-0.997 9.156,-1.608 1.983,-0.398 3.964,-0.854 5.946,-1.306 1.661,-0.378 3.317,-0.81 4.975,-1.227 v -29.995 c -0.136,0.051 -0.281,0.084 -0.417,0.135 -7.956,2.936 -16.154,5.183 -24.499,6.713 z"
           id="path8"
           style="fill:#000000"
           inkscape:connector-curvature="0" /><path
           d="m 302.49,479.894 c -3.296,0.652 -6.595,1.232 -9.896,1.742 -1.993,0.309 -3.985,0.607 -5.978,0.865 -3.196,0.412 -6.393,0.732 -9.589,1.015 -2.018,0.18 -4.031,0.396 -6.047,0.524 -3.641,0.229 -7.28,0.326 -10.92,0.388 -1.353,0.023 -2.71,0.144 -4.06,0.144 -1.351,0 -2.708,-0.121 -4.06,-0.144 -3.64,-0.062 -7.279,-0.158 -10.92,-0.388 -2.016,-0.128 -4.029,-0.344 -6.047,-0.524 -3.196,-0.283 -6.393,-0.603 -9.589,-1.015 -1.993,-0.258 -3.984,-0.556 -5.978,-0.865 -3.299,-0.514 -6.598,-1.094 -9.896,-1.742 -1.849,-0.364 -3.697,-0.718 -5.543,-1.125 -0.94,-0.207 -1.884,-0.355 -2.824,-0.573 v 28.581 c 0.001,2.881 2.334,5.217 5.214,5.223 h 99.286 c 2.877,-0.003 5.209,-2.333 5.214,-5.21 v -28.594 c -0.94,0.218 -1.884,0.366 -2.824,0.573 -1.847,0.408 -3.694,0.761 -5.543,1.125 z"
           id="path10"
           style="fill:#000000"
           inkscape:connector-curvature="0" /></g></g></g><g
     id="g18"
     style="opacity:0.12999998;fill:#000000"
     transform="matrix(0.20507662,0,0,0.1953125,-2.9286194,0)" /><g
     id="g20"
     style="opacity:0.12999998;fill:#000000"
     transform="matrix(0.20507662,0,0,0.1953125,-2.9286194,0)" /><g
     id="g22"
     style="opacity:0.12999998;fill:#000000"
     transform="matrix(0.20507662,0,0,0.1953125,-2.9286194,0)" /><g
     id="g24"
     style="opacity:0.12999998;fill:#000000"
     transform="matrix(0.20507662,0,0,0.1953125,-2.9286194,0)" /><g
     id="g26"
     style="opacity:0.12999998;fill:#000000"
     transform="matrix(0.20507662,0,0,0.1953125,-2.9286194,0)" /><g
     id="g28"
     style="opacity:0.12999998;fill:#000000"
     transform="matrix(0.20507662,0,0,0.1953125,-2.9286194,0)" /><g
     id="g30"
     style="opacity:0.12999998;fill:#000000"
     transform="matrix(0.20507662,0,0,0.1953125,-2.9286194,0)" /><g
     id="g32"
     style="opacity:0.12999998;fill:#000000"
     transform="matrix(0.20507662,0,0,0.1953125,-2.9286194,0)" /><g
     id="g34"
     style="opacity:0.12999998;fill:#000000"
     transform="matrix(0.20507662,0,0,0.1953125,-2.9286194,0)" /><g
     id="g36"
     style="opacity:0.12999998;fill:#000000"
     transform="matrix(0.20507662,0,0,0.1953125,-2.9286194,0)" /><g
     id="g38"
     style="opacity:0.12999998;fill:#000000"
     transform="matrix(0.20507662,0,0,0.1953125,-2.9286194,0)" /><g
     id="g40"
     style="opacity:0.12999998;fill:#000000"
     transform="matrix(0.20507662,0,0,0.1953125,-2.9286194,0)" /><g
     id="g42"
     style="opacity:0.12999998;fill:#000000"
     transform="matrix(0.20507662,0,0,0.1953125,-2.9286194,0)" /><g
     id="g44"
     style="opacity:0.12999998;fill:#000000"
     transform="matrix(0.20507662,0,0,0.1953125,-2.9286194,0)" /><g
     id="g46"
     style="opacity:0.12999998;fill:#000000"
     transform="matrix(0.20507662,0,0,0.1953125,-2.9286194,0)" /></svg>
