<?xml version="1.0" encoding="UTF-8" standalone="no"?>
<!-- Generator: Adobe Illustrator 16.0.0, SVG Export Plug-In . SVG Version: 6.00 Build 0)  -->

<svg
   xmlns:dc="http://purl.org/dc/elements/1.1/"
   xmlns:cc="http://creativecommons.org/ns#"
   xmlns:rdf="http://www.w3.org/1999/02/22-rdf-syntax-ns#"
   xmlns:svg="http://www.w3.org/2000/svg"
   xmlns="http://www.w3.org/2000/svg"
   xmlns:sodipodi="http://sodipodi.sourceforge.net/DTD/sodipodi-0.dtd"
   xmlns:inkscape="http://www.inkscape.org/namespaces/inkscape"
   version="1.1"
   id="Capa_1"
   x="0px"
   y="0px"
   width="50"
   height="50"
   viewBox="0 0 49.999999 49.999999"
   xml:space="preserve"
   sodipodi:docname="tomato.svg"
   inkscape:version="0.92.2 5c3e80d, 2017-08-06"><metadata
     id="metadata45"><rdf:RDF><cc:Work
         rdf:about=""><dc:format>image/svg+xml</dc:format><dc:type
           rdf:resource="http://purl.org/dc/dcmitype/StillImage" /><dc:title></dc:title></cc:Work></rdf:RDF></metadata><defs
     id="defs43" /><sodipodi:namedview
     pagecolor="#ffffff"
     bordercolor="#666666"
     borderopacity="1"
     objecttolerance="10"
     gridtolerance="10"
     guidetolerance="10"
     inkscape:pageopacity="0"
     inkscape:pageshadow="2"
     inkscape:window-width="1446"
     inkscape:window-height="857"
     id="namedview41"
     showgrid="false"
     inkscape:showpageshadow="false"
     inkscape:zoom="5.00732"
     inkscape:cx="23.5655"
     inkscape:cy="23.5655"
     inkscape:window-x="0"
     inkscape:window-y="0"
     inkscape:window-maximized="0"
     inkscape:current-layer="Capa_1" /><g
     id="g8"
     style="fill:#8c8c8c;fill-opacity:1"
     transform="matrix(1.0608954,0,0,1.0608954,-0.13439614,-0.00100052)"><g
       id="g6"
       style="fill:#8c8c8c;fill-opacity:1"><path
         d="m 11.138,13.897 c 0.279,0.146 0.62,0.086 0.847,-0.131 1.424,-1.362 3.916,-3.389 6.86,-4.23 0.487,-0.139 1.01,-0.08 1.451,0.171 0.44,0.251 0.761,0.667 0.891,1.158 l 1.236,4.685 c 0.084,0.322 0.376,0.547 0.71,0.547 0.334,0 0.625,-0.225 0.71,-0.547 l 1.236,-4.687 c 0.13,-0.491 0.451,-0.908 0.893,-1.158 0.439,-0.251 0.963,-0.313 1.451,-0.174 2.938,0.84 5.426,2.855 6.852,4.217 0.229,0.218 0.57,0.266 0.85,0.119 0.279,-0.146 0.434,-0.456 0.383,-0.768 C 35.251,11.5 34.485,10.262 33.495,9.289 31.549,7.376 28.726,6.515 27.141,6.115 26.918,6.059 26.667,6.015 26.413,5.98 26.038,5.928 25.713,5.694 25.544,5.355 25.376,5.015 25.389,4.614 25.575,4.285 L 26.879,1.984 C 27.112,1.572 27.109,1.068 26.871,0.66 26.632,0.252 26.195,0 25.722,0 25.137,0 24.597,0.32 24.318,0.834 L 22.323,4.49 c -0.452,0.828 -1.27,1.398 -2.203,1.532 -0.412,0.06 -0.841,0.134 -1.18,0.219 -1.735,0.437 -4.874,1.387 -6.746,3.684 -0.71,0.87 -1.244,1.928 -1.442,3.232 -0.048,0.311 0.108,0.595 0.386,0.74 z"
         id="path2"
         style="fill:#8c8c8c;fill-opacity:1"
         inkscape:connector-curvature="0" /><path
         d="m 36.451,10.73 c 0.306,0.669 0.542,1.368 0.662,2.111 0.161,1.002 -0.334,1.992 -1.231,2.465 -0.883,0.465 -2.015,0.303 -2.731,-0.382 -1.151,-1.1 -3.486,-3.061 -6.175,-3.829 -0.119,-0.012 -0.161,10e-4 -0.199,0.022 -0.062,0.035 -0.105,0.092 -0.124,0.161 l -1.236,4.685 c -0.271,1.036 -1.211,1.76 -2.283,1.76 -1.072,0 -2.011,-0.724 -2.284,-1.761 l -1.235,-4.683 c -0.018,-0.068 -0.062,-0.125 -0.124,-0.16 -0.036,-0.02 -0.078,-0.031 -0.122,-0.031 -2.763,0.778 -5.104,2.747 -6.26,3.853 -0.446,0.427 -1.03,0.662 -1.644,0.662 -0.375,0 -0.749,-0.091 -1.08,-0.265 -0.893,-0.464 -1.393,-1.44 -1.243,-2.425 0.075,-0.495 0.207,-0.968 0.365,-1.432 -4.465,3.074 -7.3,7.885 -7.3,14.292 0,11.795 9.563,21.357 21.358,21.357 11.797,0 21.36,-9.562 21.36,-21.357 0,-6.95 -3.332,-12.031 -8.474,-15.043 z M 6.816,32.254 c -0.918,0 -1.662,-0.744 -1.662,-1.662 0,-0.917 0.744,-1.662 1.662,-1.662 0.917,0 1.662,0.744 1.662,1.662 0,0.918 -0.744,1.662 -1.662,1.662 z M 9.395,19.79 c -1.14,1.435 -1.619,3.621 -1.508,6.587 0.033,0.898 -0.667,1.822 -1.565,1.822 -0.021,0 -0.042,0 -0.062,0 -0.871,0 -1.592,-0.824 -1.625,-1.701 -0.141,-3.787 0.562,-6.586 2.213,-8.664 0.558,-0.704 1.582,-0.855 2.286,-0.295 0.702,0.558 0.82,1.548 0.261,2.251 z"
         id="path4"
         style="fill:#8c8c8c;fill-opacity:1"
         inkscape:connector-curvature="0" /></g></g><g
     id="g10"
     style="fill:#8c8c8c;fill-opacity:1"
     transform="matrix(1.0608954,0,0,1.0608954,-0.13439614,-0.00100052)" /><g
     id="g12"
     style="fill:#8c8c8c;fill-opacity:1"
     transform="matrix(1.0608954,0,0,1.0608954,-0.13439614,-0.00100052)" /><g
     id="g14"
     style="fill:#8c8c8c;fill-opacity:1"
     transform="matrix(1.0608954,0,0,1.0608954,-0.13439614,-0.00100052)" /><g
     id="g16"
     style="fill:#8c8c8c;fill-opacity:1"
     transform="matrix(1.0608954,0,0,1.0608954,-0.13439614,-0.00100052)" /><g
     id="g18"
     style="fill:#8c8c8c;fill-opacity:1"
     transform="matrix(1.0608954,0,0,1.0608954,-0.13439614,-0.00100052)" /><g
     id="g20"
     style="fill:#8c8c8c;fill-opacity:1"
     transform="matrix(1.0608954,0,0,1.0608954,-0.13439614,-0.00100052)" /><g
     id="g22"
     style="fill:#8c8c8c;fill-opacity:1"
     transform="matrix(1.0608954,0,0,1.0608954,-0.13439614,-0.00100052)" /><g
     id="g24"
     style="fill:#8c8c8c;fill-opacity:1"
     transform="matrix(1.0608954,0,0,1.0608954,-0.13439614,-0.00100052)" /><g
     id="g26"
     style="fill:#8c8c8c;fill-opacity:1"
     transform="matrix(1.0608954,0,0,1.0608954,-0.13439614,-0.00100052)" /><g
     id="g28"
     style="fill:#8c8c8c;fill-opacity:1"
     transform="matrix(1.0608954,0,0,1.0608954,-0.13439614,-0.00100052)" /><g
     id="g30"
     style="fill:#8c8c8c;fill-opacity:1"
     transform="matrix(1.0608954,0,0,1.0608954,-0.13439614,-0.00100052)" /><g
     id="g32"
     style="fill:#8c8c8c;fill-opacity:1"
     transform="matrix(1.0608954,0,0,1.0608954,-0.13439614,-0.00100052)" /><g
     id="g34"
     style="fill:#8c8c8c;fill-opacity:1"
     transform="matrix(1.0608954,0,0,1.0608954,-0.13439614,-0.00100052)" /><g
     id="g36"
     style="fill:#8c8c8c;fill-opacity:1"
     transform="matrix(1.0608954,0,0,1.0608954,-0.13439614,-0.00100052)" /><g
     id="g38"
     style="fill:#8c8c8c;fill-opacity:1"
     transform="matrix(1.0608954,0,0,1.0608954,-0.13439614,-0.00100052)" /></svg>
