<?xml version="1.0" encoding="UTF-8" standalone="no"?>
<!-- Generator: Adobe Illustrator 19.0.0, SVG Export Plug-In . SVG Version: 6.00 Build 0)  -->

<svg
   xmlns:dc="http://purl.org/dc/elements/1.1/"
   xmlns:cc="http://creativecommons.org/ns#"
   xmlns:rdf="http://www.w3.org/1999/02/22-rdf-syntax-ns#"
   xmlns:svg="http://www.w3.org/2000/svg"
   xmlns="http://www.w3.org/2000/svg"
   xmlns:sodipodi="http://sodipodi.sourceforge.net/DTD/sodipodi-0.dtd"
   xmlns:inkscape="http://www.inkscape.org/namespaces/inkscape"
   version="1.1"
   id="Layer_1"
   x="0px"
   y="0px"
   viewBox="0 0 100 100"
   xml:space="preserve"
   sodipodi:docname="urine.svg"
   width="100"
   height="100"
   inkscape:version="0.92.2 5c3e80d, 2017-08-06"><metadata
     id="metadata43"><rdf:RDF><cc:Work
         rdf:about=""><dc:format>image/svg+xml</dc:format><dc:type
           rdf:resource="http://purl.org/dc/dcmitype/StillImage" /><dc:title></dc:title></cc:Work></rdf:RDF></metadata><defs
     id="defs41" /><sodipodi:namedview
     pagecolor="#ffffff"
     bordercolor="#666666"
     borderopacity="1"
     objecttolerance="10"
     gridtolerance="10"
     guidetolerance="10"
     inkscape:pageopacity="0"
     inkscape:pageshadow="2"
     inkscape:window-width="1445"
     inkscape:window-height="850"
     id="namedview39"
     showgrid="false"
     inkscape:showpageshadow="false"
     inkscape:zoom="4.5042702"
     inkscape:cx="56.877126"
     inkscape:cy="54.649336"
     inkscape:window-x="0"
     inkscape:window-y="0"
     inkscape:window-maximized="0"
     inkscape:current-layer="Layer_1" /><g
     id="g6"
     style="opacity:0.12999998;fill:#000000"
     transform="matrix(0.1953125,0,0,0.1953125,-0.0794609,0)"><g
       id="g4"
       style="fill:#000000"><path
         d="M 479.107,0 H 32.893 C 20.163,0 9.843,10.32 9.843,23.05 v 113.736 c 0,12.73 10.32,23.05 23.05,23.05 H 62.707 L 79.598,490.128 C 80.225,502.384 90.345,512 102.617,512 h 306.764 c 12.272,0 22.392,-9.616 23.019,-21.873 l 16.891,-330.292 h 29.816 c 12.73,0 23.05,-10.32 23.05,-23.05 V 23.05 C 502.157,10.32 491.837,0 479.107,0 Z m -122.88,386.277 c 0,12.73 -10.32,23.05 -23.05,23.05 H 178.821 c -12.73,0 -23.05,-10.32 -23.05,-23.05 v -107.4 c 0,-12.73 10.32,-23.05 23.05,-23.05 h 154.356 c 12.73,0 23.05,10.32 23.05,23.05 z m 99.83,-272.541 c -16.359,0 -382.979,0 -400.115,0 V 46.1 h 400.115 z"
         id="path2"
         style="fill:#000000"
         inkscape:connector-curvature="0" /></g></g><g
     id="g8"
     style="opacity:0.12999998;fill:#000000"
     transform="matrix(0.1953125,0,0,0.1953125,-0.0794609,0)" /><g
     id="g10"
     style="opacity:0.12999998;fill:#000000"
     transform="matrix(0.1953125,0,0,0.1953125,-0.0794609,0)" /><g
     id="g12"
     style="opacity:0.12999998;fill:#000000"
     transform="matrix(0.1953125,0,0,0.1953125,-0.0794609,0)" /><g
     id="g14"
     style="opacity:0.12999998;fill:#000000"
     transform="matrix(0.1953125,0,0,0.1953125,-0.0794609,0)" /><g
     id="g16"
     style="opacity:0.12999998;fill:#000000"
     transform="matrix(0.1953125,0,0,0.1953125,-0.0794609,0)" /><g
     id="g18"
     style="opacity:0.12999998;fill:#000000"
     transform="matrix(0.1953125,0,0,0.1953125,-0.0794609,0)" /><g
     id="g20"
     style="opacity:0.12999998;fill:#000000"
     transform="matrix(0.1953125,0,0,0.1953125,-0.0794609,0)" /><g
     id="g22"
     style="opacity:0.12999998;fill:#000000"
     transform="matrix(0.1953125,0,0,0.1953125,-0.0794609,0)" /><g
     id="g24"
     style="opacity:0.12999998;fill:#000000"
     transform="matrix(0.1953125,0,0,0.1953125,-0.0794609,0)" /><g
     id="g26"
     style="opacity:0.12999998;fill:#000000"
     transform="matrix(0.1953125,0,0,0.1953125,-0.0794609,0)" /><g
     id="g28"
     style="opacity:0.12999998;fill:#000000"
     transform="matrix(0.1953125,0,0,0.1953125,-0.0794609,0)" /><g
     id="g30"
     style="opacity:0.12999998;fill:#000000"
     transform="matrix(0.1953125,0,0,0.1953125,-0.0794609,0)" /><g
     id="g32"
     style="opacity:0.12999998;fill:#000000"
     transform="matrix(0.1953125,0,0,0.1953125,-0.0794609,0)" /><g
     id="g34"
     style="opacity:0.12999998;fill:#000000"
     transform="matrix(0.1953125,0,0,0.1953125,-0.0794609,0)" /><g
     id="g36"
     style="opacity:0.12999998;fill:#000000"
     transform="matrix(0.1953125,0,0,0.1953125,-0.0794609,0)" /></svg>
