<?xml version="1.0" encoding="UTF-8" standalone="no"?>
<svg
   xmlns:dc="http://purl.org/dc/elements/1.1/"
   xmlns:cc="http://creativecommons.org/ns#"
   xmlns:rdf="http://www.w3.org/1999/02/22-rdf-syntax-ns#"
   xmlns:svg="http://www.w3.org/2000/svg"
   xmlns="http://www.w3.org/2000/svg"
   xmlns:sodipodi="http://sodipodi.sourceforge.net/DTD/sodipodi-0.dtd"
   xmlns:inkscape="http://www.inkscape.org/namespaces/inkscape"
   height="75pt"
   viewBox="-45 0 75 75"
   width="75pt"
   version="1.1"
   id="svg8"
   sodipodi:docname="x-ray.svg"
   inkscape:version="0.92.2 5c3e80d, 2017-08-06">
  <metadata
     id="metadata14">
    <rdf:RDF>
      <cc:Work
         rdf:about="">
        <dc:format>image/svg+xml</dc:format>
        <dc:type
           rdf:resource="http://purl.org/dc/dcmitype/StillImage" />
        <dc:title></dc:title>
      </cc:Work>
    </rdf:RDF>
  </metadata>
  <defs
     id="defs12" />
  <sodipodi:namedview
     pagecolor="#ffffff"
     bordercolor="#666666"
     borderopacity="1"
     objecttolerance="10"
     gridtolerance="10"
     guidetolerance="10"
     inkscape:pageopacity="0"
     inkscape:pageshadow="2"
     inkscape:window-width="1440"
     inkscape:window-height="860"
     id="namedview10"
     showgrid="false"
     inkscape:showpageshadow="false"
     inkscape:zoom="1.6175001"
     inkscape:cx="64.384897"
     inkscape:cy="92.1648"
     inkscape:window-x="0"
     inkscape:window-y="0"
     inkscape:window-maximized="0"
     inkscape:current-layer="svg8"
     fit-margin-top="0"
     fit-margin-left="0"
     fit-margin-right="0"
     fit-margin-bottom="0" />
  <path
     d="m -0.440561,30.99003 c -0.294867,0 -0.595977,-0.0166 -0.895006,-0.0498 -0.98173,-0.10872 -1.89408,-0.39082 -2.7113791,-0.83828 -1.6068451,-0.87891 -3.4703979,-1.34354 -5.3887611,-1.34354 -1.0407018,0 -2.0723868,0.13733 -3.0659118,0.40798 -0.652173,0.17739 -1.324467,0.26722 -1.998843,0.26722 -0.290703,0 -0.58765,-0.0166 -0.883904,-0.0492 -1.796253,-0.19912 -3.31013,-0.94356 -4.37789,-2.15377 -1.069844,-1.21251 -1.46323,-2.63615 -1.137837,-4.11873 0.429464,-1.95637 2.21531,-3.59345 4.549955,-4.17023 L -12.948426,18.10055 -10.858695,0 H 3.439873 l -3.368409,19.55681 2.934782,1.56097 c 2.01619,1.07289 3.185939,3.02468 2.979186,4.97303 -0.159575,1.50032 -0.99283,2.78836 -2.410961,3.72448 -1.164201,0.76847 -2.552498,1.17474 -4.015032,1.17474 z m 0,0"
     id="path2"
     style="opacity:0.12999998;fill:#000000;stroke-width:0.16129966"
     inkscape:connector-curvature="0" />
  <path
     d="M 27.335803,0 H 9.357311 L 5.894545,17.42535 c 3.62789,1.93004 5.783534,5.41935 5.399167,9.04827 -0.285152,2.68707 -1.844126,5.09205 -4.389686,6.77261 -2.120259,1.39961 -4.681775,2.13833 -7.344587,2.13833 -0.531454,0 -1.067069,-0.0292 -1.603378,-0.0887 -1.7886211,-0.19798 -3.4530532,-0.71297 -4.9488901,-1.53122 -1.1399168,-0.6237 -2.5386225,-0.77877 -3.8381139,-0.42515 -1.703977,0.46406 -3.474561,0.59853 -5.262489,0.40054 -3.226873,-0.35705 -6.059667,-1.75037 -7.977336,-3.92303 -1.919057,-2.17495 -2.65518,-4.83341 -2.072387,-7.4873 0.797179,-3.63292 4.066374,-6.56032 8.263877,-7.59773 L -16.015032,0 H -42.3358 C -43.807353,0 -45,0.98362 -45,2.19727 v 70.59745 c 0,1.21365 1.192647,2.19727 2.6642,2.20528 h 30.37951 l -6.754163,-12.88605 c -4.380666,-0.0566 -8.490749,-2.14061 -10.453516,-5.45883 -1.433394,-2.42271 -1.599907,-5.14583 -0.469703,-7.66811 1.12951,-2.52171 3.397548,-4.4981 6.385754,-5.56641 1.655411,-0.59166 3.404487,-0.8583 5.196577,-0.79479 1.368872,0.0492 2.662119,-0.41428 3.554348,-1.27087 1.16975,-1.12209 2.602451,-1.99127 4.257864,-2.58293 2.9888992,-1.0683 6.2872339,-1.08032 9.288622,-0.0343 3.002081,1.04656 5.29371,3.01208 6.451666,5.53379 1.575624,3.42922 0.625808,7.29961 -2.276366,9.97295 L 15.37535,75 h 11.960453 c 1.471554,-0.008 2.6642,-0.99163 2.6642,-2.20528 V 2.19727 C 30.000003,0.98362 28.807357,0 27.335803,0 Z m 0,0"
     id="path4"
     style="opacity:0.12999998;fill:#000000;stroke-width:0.16129966"
     inkscape:connector-curvature="0" />
  <path
     d="M -6.1401472,75 -15.185245,57.7652 -18.626504,57.72 c -2.435938,-0.0315 -4.692182,-1.20563 -5.748844,-2.99205 -0.800647,-1.35327 -0.89084,-2.81182 -0.260869,-4.21772 0.629972,-1.40534 1.842739,-2.4622 3.506476,-3.05729 0.820768,-0.29297 1.681776,-0.44174 2.560823,-0.44174 0.09574,0 0.19149,0.002 0.287928,0.005 0.140149,0.005 0.284459,0.008 0.427382,0.008 2.844589,0 5.540704,-1.02253 7.398013,-2.80495 0.6396844,-0.61398 1.4250689,-1.09005 2.3346431,-1.41506 0.8318685,-0.29698 1.6970397,-0.44804 2.5726187,-0.44804 0.8568451,0 1.7060591,0.14477 2.5226642,0.42973 1.672063,0.5825 2.897318,1.63421 3.543941,3.04241 0.847132,1.84421 0.351758,3.99685 -1.263413,5.48458 L -3.125576,53.50514 9.199817,75 Z m 0,0"
     id="path6"
     style="opacity:0.12999998;fill:#000000;stroke-width:0.16129966"
     inkscape:connector-curvature="0" />
</svg>
