<?xml version="1.0" encoding="UTF-8" standalone="no"?>
<!-- Generator: Adobe Illustrator 19.0.0, SVG Export Plug-In . SVG Version: 6.00 Build 0)  -->

<svg
   xmlns:dc="http://purl.org/dc/elements/1.1/"
   xmlns:cc="http://creativecommons.org/ns#"
   xmlns:rdf="http://www.w3.org/1999/02/22-rdf-syntax-ns#"
   xmlns:svg="http://www.w3.org/2000/svg"
   xmlns="http://www.w3.org/2000/svg"
   xmlns:sodipodi="http://sodipodi.sourceforge.net/DTD/sodipodi-0.dtd"
   xmlns:inkscape="http://www.inkscape.org/namespaces/inkscape"
   version="1.1"
   id="Layer_1"
   x="0px"
   y="0px"
   viewBox="0 0 50 50"
   xml:space="preserve"
   sodipodi:docname="almond.svg"
   width="50"
   height="50"
   inkscape:version="0.92.2 5c3e80d, 2017-08-06"><metadata
     id="metadata43"><rdf:RDF><cc:Work
         rdf:about=""><dc:format>image/svg+xml</dc:format><dc:type
           rdf:resource="http://purl.org/dc/dcmitype/StillImage" /><dc:title /></cc:Work></rdf:RDF></metadata><defs
     id="defs41" /><sodipodi:namedview
     pagecolor="#ffffff"
     bordercolor="#666666"
     borderopacity="1"
     objecttolerance="10"
     gridtolerance="10"
     guidetolerance="10"
     inkscape:pageopacity="0"
     inkscape:pageshadow="2"
     inkscape:window-width="1440"
     inkscape:window-height="851"
     id="namedview39"
     showgrid="false"
     inkscape:showpageshadow="false"
     fit-margin-top="0"
     fit-margin-left="0"
     fit-margin-right="0"
     fit-margin-bottom="0"
     inkscape:zoom="6.3800263"
     inkscape:cx="23.022177"
     inkscape:cy="19.510906"
     inkscape:window-x="0"
     inkscape:window-y="0"
     inkscape:window-maximized="0"
     inkscape:current-layer="Layer_1" /><path
     style="fill:#8c8c8c;fill-opacity:1;stroke-width:0.10345194"
     d="m 40.816562,27.2502 c 0,16.92442 -6.88683,21.75401 -15.38227,21.75401 -8.49542,0 -15.38228,-4.82959 -15.38228,-21.75401 0,-20.7432604 15.38228,-26.25489044 15.38228,-26.25489044 0.22643,0.0792 15.38227,5.43252004 15.38227,26.25489044 z"
     id="path2"
     inkscape:connector-curvature="0" /><path
     d="m 39.493362,14.02901 c -1.30807,-3.15127 -3.13706,-5.9554704 -5.43586,-8.3347704 -3.89301,-4.02949 -7.87667,-5.50537004 -8.19733,-5.61982004 -0.17524,-0.0626 -0.36527,-0.0868 -0.55311,-0.068 -0.0955,0.01 -0.19013,0.0301 -0.28186,0.0623 -0.002,8.8e-4 -0.0129,0.004 -0.0154,0.005 -0.23125,0.0836 -4.17041,1.54834004 -8.11297,5.61933004 -2.31939,2.39493 -4.16601,5.2057704 -5.48834,8.3543004 -1.6418996,3.90948 -2.4743596,8.35147 -2.4743596,13.20255 0,8.19326 1.5463296,14.02207 4.7273396,17.81943 2.74079,3.27178 6.70163,4.93067 11.77266,4.93067 5.07103,0 9.03199,-1.65889 11.77266,-4.93057 3.18101,-3.79736 4.72734,-9.62617 4.72734,-17.81944 1.1e-4,-4.87099 -0.82106,-9.31933 -2.44082,-13.22119 z m -24.04023,29.84903 c -2.84226,-3.39277 -4.28339,-8.98721 -4.28339,-16.62784 0,-10.34756 3.99013,-16.67988 7.33738,-20.1700204 0.45623,-0.47568 0.91345,-0.91328 1.36409,-1.31465 -2.4188,4.09834 -4.81458,10.8421904 -4.81458,21.4846704 0,8.11436 0.91926,13.88194 2.81036,17.63194 0.32922,0.65274 0.68945,1.24297 1.0797,1.77168 -1.34338,-0.67129 -2.50362,-1.59394 -3.49356,-2.77578 z m 19.96232,0 c -0.99015,1.18203 -2.15051,2.10469 -3.49388,2.77598 0.19792,-0.26817 0.3885,-0.55117 0.57076,-0.85117 1.84508,-3.03848 2.89781,-7.67862 3.21814,-14.18556 0.027,-0.5496 -0.45085,-1.01464 -1.06762,-1.03876 -0.61899,-0.0255 -1.13866,0.40185 -1.16573,0.95136 -0.53832,10.93419 -3.24436,16.47823 -8.04293,16.47823 -5.40276,0 -8.14222,-6.98399 -8.14222,-20.75792 0,-10.39023 2.39556,-16.76104 4.40536,-20.2757804 1.57099,-2.74766 3.15316,-4.21739 3.90551,-4.81866 1.17285,0.51358 3.95264,1.93194 6.76049,4.83809 3.34639,3.4636704 7.33564,9.7896504 7.33564,20.2563504 -2.3e-4,7.64053 -1.44136,13.23497 -4.28352,16.62784 z"
     id="path4"
     style="fill:#f6f6f6;stroke-width:0.10345194;fill-opacity:1"
     inkscape:connector-curvature="0" /><path
     d="m 34.694242,26.25411 c -0.61733,0 -1.11772,0.4459 -1.11772,0.996 0,0.25048 -8.8e-4,0.49824 -0.002,0.74345 -0.005,0.5501 0.49304,0.99903 1.11025,1.00274 0.002,0 0.005,0 0.007,0 0.61372,0 1.11345,-0.44151 1.11762,-0.98936 0.002,-0.24951 0.002,-0.50176 0.002,-0.75683 0,-0.55 -0.50041,-0.996 -1.11772,-0.996 z"
     id="path6"
     style="fill:#f6f6f6;stroke-width:0.10345194;fill-opacity:1"
     inkscape:connector-curvature="0" /><g
     id="g8"
     transform="matrix(0.10959161,0,0,0.09765628,-2.6212606,1.9956163e-4)" /><g
     id="g10"
     transform="matrix(0.10959161,0,0,0.09765628,-2.6212606,1.9956163e-4)" /><g
     id="g12"
     transform="matrix(0.10959161,0,0,0.09765628,-2.6212606,1.9956163e-4)" /><g
     id="g14"
     transform="matrix(0.10959161,0,0,0.09765628,-2.6212606,1.9956163e-4)" /><g
     id="g16"
     transform="matrix(0.10959161,0,0,0.09765628,-2.6212606,1.9956163e-4)" /><g
     id="g18"
     transform="matrix(0.10959161,0,0,0.09765628,-2.6212606,1.9956163e-4)" /><g
     id="g20"
     transform="matrix(0.10959161,0,0,0.09765628,-2.6212606,1.9956163e-4)" /><g
     id="g22"
     transform="matrix(0.10959161,0,0,0.09765628,-2.6212606,1.9956163e-4)" /><g
     id="g24"
     transform="matrix(0.10959161,0,0,0.09765628,-2.6212606,1.9956163e-4)" /><g
     id="g26"
     transform="matrix(0.10959161,0,0,0.09765628,-2.6212606,1.9956163e-4)" /><g
     id="g28"
     transform="matrix(0.10959161,0,0,0.09765628,-2.6212606,1.9956163e-4)" /><g
     id="g30"
     transform="matrix(0.10959161,0,0,0.09765628,-2.6212606,1.9956163e-4)" /><g
     id="g32"
     transform="matrix(0.10959161,0,0,0.09765628,-2.6212606,1.9956163e-4)" /><g
     id="g34"
     transform="matrix(0.10959161,0,0,0.09765628,-2.6212606,1.9956163e-4)" /><g
     id="g36"
     transform="matrix(0.10959161,0,0,0.09765628,-2.6212606,1.9956163e-4)" /></svg>
