<?xml version="1.0" encoding="UTF-8" standalone="no"?>
<svg
   xmlns:dc="http://purl.org/dc/elements/1.1/"
   xmlns:cc="http://creativecommons.org/ns#"
   xmlns:rdf="http://www.w3.org/1999/02/22-rdf-syntax-ns#"
   xmlns:svg="http://www.w3.org/2000/svg"
   xmlns="http://www.w3.org/2000/svg"
   xmlns:sodipodi="http://sodipodi.sourceforge.net/DTD/sodipodi-0.dtd"
   xmlns:inkscape="http://www.inkscape.org/namespaces/inkscape"
   height="50pt"
   viewBox="-16 0 50 50.097799"
   width="50pt"
   version="1.1"
   id="svg80"
   sodipodi:docname="biopsy.svg"
   inkscape:version="0.92.2 5c3e80d, 2017-08-06">
  <metadata
     id="metadata86">
    <rdf:RDF>
      <cc:Work
         rdf:about="">
        <dc:format>image/svg+xml</dc:format>
        <dc:type
           rdf:resource="http://purl.org/dc/dcmitype/StillImage" />
        <dc:title></dc:title>
      </cc:Work>
    </rdf:RDF>
  </metadata>
  <defs
     id="defs84" />
  <sodipodi:namedview
     pagecolor="#ffffff"
     bordercolor="#666666"
     borderopacity="1"
     objecttolerance="10"
     gridtolerance="10"
     guidetolerance="10"
     inkscape:pageopacity="0"
     inkscape:pageshadow="2"
     inkscape:window-width="1445"
     inkscape:window-height="854"
     id="namedview82"
     showgrid="false"
     inkscape:showpageshadow="false"
     inkscape:zoom="3.205"
     inkscape:cx="-6.1274932"
     inkscape:cy="52.019643"
     inkscape:window-x="0"
     inkscape:window-y="0"
     inkscape:window-maximized="0"
     inkscape:current-layer="svg80" />
  <path
     d="m 5.1190796,33.55026 v 2.080859 c 0,0.419375 0.3625404,0.758978 0.809911,0.758978 H 13.013849 V 33.55026 Z m 0,0"
     id="path2"
     style="fill:#385fa0;fill-opacity:1;stroke-width:0.08340492"
     inkscape:connector-curvature="0" />
  <path
     d="M 7.742704,35.631427 V 33.55026 H 5.1187427 v 2.081167 c 0,0.419067 0.3628773,0.75867 0.8102479,0.75867 H 8.552955 c -0.4473723,0 -0.810251,-0.339603 -0.810251,-0.75867 z m 0,0"
     id="path4"
     style="fill:#385fa0;fill-opacity:1;stroke-width:0.08340492"
     inkscape:connector-curvature="0" />
  <path
     d="m 12.83881,33.55026 v 2.839837 l 2.976065,3.683032 h 1.795874 V 33.55026 Z m 0,0"
     id="path6"
     style="fill:#385fa0;fill-opacity:1;stroke-width:0.08340492"
     inkscape:connector-curvature="0" />
  <path
     d="M 15.462435,33.55026 H 12.83881 v 2.839837 l 2.623625,3.246937 z m 0,0"
     id="path8"
     style="fill:#385fa0;fill-opacity:1;stroke-width:0.08340492"
     inkscape:connector-curvature="0" />
  <path
     d="m 20.613074,23.591905 v 3.291706 h 3.954295 v -3.291706 c 0,-2.234407 -1.068772,-4.315894 -2.932642,-5.710584 l -2.333799,-1.745975 -1.377447,3.644873 c -0.0057,0.01705 -0.0138,0.0331 -0.02158,0.0495 l 1.264673,0.946296 c 0.919323,0.687743 1.446466,1.713811 1.446466,2.815879 z m 0,0"
     id="path10"
     style="fill:#385fa0;fill-opacity:1;stroke-width:0.08340492"
     inkscape:connector-curvature="0" />
  <path
     d="m 21.236832,20.396064 -2.750858,-2.103563 -0.562162,1.487718 c -0.006,0.01705 -0.01434,0.0331 -0.0219,0.0495 l 1.265023,0.946296 c 0.918974,0.687743 1.446115,1.713811 1.446115,2.815879 V 26.8836 h 2.069887 v -3.291706 c 0,-1.102068 -0.52715,-2.508429 -1.446129,-3.19584 z m 0,0"
     id="path12"
     style="fill:#385fa0;fill-opacity:1;stroke-width:0.08340492"
     inkscape:connector-curvature="0" />
  <path
     d="m 19.118485,14.620195 -1.720806,-0.570735 -2.154726,5.70207 1.720817,0.570746 c 0.399902,0.132429 0.838851,-0.0637 0.980585,-0.438306 l 1.642026,-4.345539 c 0.141383,-0.374297 -0.06781,-0.785477 -0.467896,-0.918236 z m 0,0"
     id="path14"
     style="fill:#385fa0;fill-opacity:1;stroke-width:0.08340492"
     inkscape:connector-curvature="0" />
  <path
     d="m 17.628251,18.360933 -1.652805,-0.548032 -0.732493,1.938629 1.720817,0.570746 c 0.399902,0.132429 0.838851,-0.0637 0.980585,-0.438306 l 0.669196,-1.770879 c -0.235294,0.257928 -0.623428,0.367983 -0.9853,0.247842 z m 0,0"
     id="path16"
     style="fill:#385fa0;fill-opacity:1;stroke-width:0.08340492"
     inkscape:connector-curvature="0" />
  <path
     d="m 11.391014,22.196896 c -0.830442,2.227787 -2.229108,3.958625 -4.2599506,5.284576 l -0.2349607,0.606057 c -0.1390241,0.367355 0.066344,0.77034 0.4584782,0.90058 l 2.3078801,0.765303 c 0.392164,0.12991 0.822707,-0.06248 0.961393,-0.429483 l 2.477195,-6.555351 z m 0,0"
     id="path18"
     style="fill:#385fa0;fill-opacity:1;stroke-width:0.08340492"
     inkscape:connector-curvature="0" />
  <path
     d="m 11.390665,27.294164 1.710384,-4.525586 -1.710035,-0.571682 c -0.830442,2.227787 -2.229108,3.958625 -4.2602863,5.284576 l -0.234962,0.606057 c -0.1386871,0.367355 0.066642,0.77034 0.4584779,0.90058 l 1.5312874,0.507672 c 0.925031,-0.639166 1.766262,-1.378619 2.505134,-2.201617 z m 0,0"
     id="path20"
     style="fill:#385fa0;fill-opacity:1;stroke-width:0.08340492"
     inkscape:connector-curvature="0" />
  <path
     d="m 11.618558,28.832965 c -0.07259,0 -0.146759,-0.01133 -0.219135,-0.0353 L 6.9556851,27.324129 C 6.6143517,27.210619 6.4352692,26.859654 6.5564515,26.539597 6.6772989,26.219849 7.0519581,26.052099 7.3936281,26.165619 l 4.4437219,1.473527 c 0.341684,0.113201 0.520429,0.464168 0.399595,0.784223 -0.09509,0.252252 -0.348423,0.409607 -0.618387,0.409607 z m 0,0"
     id="path22"
     style="fill:#385fa0;fill-opacity:1;stroke-width:0.08340492"
     inkscape:connector-curvature="0" />
  <path
     d="m 14.782125,8.3776625 1.244152,-3.292014 3.41334,1.132021 -1.243818,3.2917057 z m 0,0"
     id="path24"
     style="fill:#385fa0;fill-opacity:1;stroke-width:0.08340492"
     inkscape:connector-curvature="0" />
  <path
     d="m 14.781799,8.3773435 1.244153,-3.292014 1.892808,0.627803 -1.243804,3.292036 z m 0,0"
     id="path26"
     style="fill:#385fa0;fill-opacity:1;stroke-width:0.08340492"
     inkscape:connector-curvature="0" />
  <path
     d="m 19.866783,6.9990435 -4.662878,-1.546369 c -0.341665,-0.113201 -0.520411,-0.464464 -0.399553,-0.784212 0.120839,-0.320067 0.49583,-0.487498 0.837174,-0.374297 l 4.663208,1.546369 c 0.341331,0.113201 0.520077,0.464475 0.39923,0.784223 -0.120841,0.320056 -0.495835,0.487487 -0.837181,0.374286 z m 0,0"
     id="path28"
     style="fill:#385fa0;fill-opacity:1;stroke-width:0.08340492"
     inkscape:connector-curvature="0" />
  <path
     d="m 17.495292,5.5920555 c 0.09715,-0.256685 0.326187,-0.432938 0.590439,-0.487179 l -2.444205,-0.810711 c -0.341344,-0.113201 -0.716335,0.05423 -0.837174,0.374297 -0.120858,0.319748 0.05794,0.671011 0.399553,0.784212 l 2.360403,0.782969 c -0.119843,-0.187616 -0.152832,-0.421597 -0.06912,-0.643588 z m 0,0"
     id="path30"
     style="fill:#385fa0;fill-opacity:1;stroke-width:0.08340492"
     inkscape:connector-curvature="0" />
  <path
     d="M 13.756112,34.164522 H 4.2017875 c -0.3625415,0 -0.6560755,-0.274967 -0.6560755,-0.614262 0,-0.339603 0.293534,-0.61457 0.6560755,-0.61457 h 9.5543245 c 0.362196,0 0.655726,0.274967 0.655726,0.61457 0,0.339295 -0.29353,0.614262 -0.655726,0.614262 z m 0,0"
     id="path32"
     style="fill:#385fa0;fill-opacity:1;stroke-width:0.08340492"
     inkscape:connector-curvature="0" />
  <path
     d="m 5.676188,42.58566 v 1.525876 c 0,0.816376 0.7062304,1.477938 1.5777429,1.477938 H 25.762038 c 0.871175,0 1.577408,-0.661562 1.577408,-1.477938 V 42.58566 Z m 0,0"
     id="path34"
     style="fill:#385fa0;fill-opacity:1;stroke-width:0.08340492"
     inkscape:connector-curvature="0" />
  <path
     d="M 8.3001505,44.111536 V 42.585341 H 5.676188 v 1.526195 c 0,0.816068 0.7062304,1.477938 1.5777429,1.477938 H 9.877558 c -0.871177,0 -1.5774075,-0.661562 -1.5774075,-1.477938 z m 0,0"
     id="path36"
     style="fill:#385fa0;fill-opacity:1;stroke-width:0.08340492"
     inkscape:connector-curvature="0" />
  <path
     d="m 27.632302,40.073129 v -12.32395 c 0,-0.611105 -0.533879,-1.111209 -1.18625,-1.111209 h -7.82375 c -0.652703,0 -1.186593,0.500104 -1.186593,1.111209 v 12.32395 z m 0,0"
     id="path38"
     style="fill:#385fa0;fill-opacity:1;stroke-width:0.08340492"
     inkscape:connector-curvature="0" />
  <path
     d="m 21.245931,26.63797 h -2.623629 c -0.652703,0 -1.186593,0.500104 -1.186593,1.111209 v 12.32395 h 2.62397 v -12.32395 c 0,-0.611105 0.53388,-1.111209 1.186252,-1.111209 z m 0,0"
     id="path40"
     style="fill:#385fa0;fill-opacity:1;stroke-width:0.08340492"
     inkscape:connector-curvature="0" />
  <path
     d="M 18.313288,9.4951852 14.236456,8.1430545 c -0.418411,-0.138743 -0.877558,0.06655 -1.025681,0.458491 l -2.142261,5.6790475 c 0.645634,1.368521 0.890719,2.711511 0.890719,4.301385 0,1.277396 -0.26326,2.560777 -0.689419,3.703523 l 1.974631,0.596915 c 0.418088,0.138743 0.877235,-0.06655 1.025354,-0.45848 L 18.802732,10.455661 C 18.950853,10.06404 18.731649,9.6339288 18.313288,9.4951852 Z m 0,0"
     id="path42"
     style="fill:#385fa0;fill-opacity:1;stroke-width:0.08340492"
     inkscape:connector-curvature="0" />
  <path
     d="m 12.30425,11.004969 -1.235736,3.275624 c 0.645634,1.368521 0.890719,2.711511 0.890719,4.301385 0,1.277396 -0.26326,2.560458 -0.689419,3.703523 l 1.974631,0.596915 c 0.315408,0.104722 0.654061,0.0132 0.865112,-0.205908 0.437956,-1.291895 0.674932,-2.666412 0.674932,-4.092319 -3.45e-4,-2.805474 -0.915278,-5.414498 -2.480239,-7.57922 z m 0,0"
     id="path44"
     style="fill:#385fa0;fill-opacity:1;stroke-width:0.08340492"
     inkscape:connector-curvature="0" />
  <path
     d="M 29.022889,39.909162 H 3.9927454 c -0.4332322,0 -0.7843283,0.329197 -0.7843283,0.735032 v 1.370412 c 0,0.405834 0.3510961,0.734713 0.7843283,0.734713 H 29.022889 c 0.433232,0 0.784325,-0.328879 0.784325,-0.734713 v -1.370412 c 0,-0.405835 -0.351093,-0.735032 -0.784325,-0.735032 z m 0,0"
     id="path46"
     style="fill:#385fa0;fill-opacity:1;stroke-width:0.08340492"
     inkscape:connector-curvature="0" />
  <path
     d="M 29.022889,41.057276 H 3.9927454 c -0.3739871,0 -0.6863723,-0.245641 -0.7648035,-0.573902 -0.012467,0.0517 -0.019526,0.105272 -0.019526,0.16082 v 1.370412 c 0,0.405834 0.351095,0.734713 0.7843271,0.734713 h 25.030138 c 0.433232,0 0.784327,-0.328879 0.784327,-0.734713 v -1.370412 c 0,-0.05555 -0.0063,-0.10912 -0.01965,-0.16082 -0.078,0.328261 -0.390483,0.573902 -0.764804,0.573902 z m 0,0"
     id="path48"
     style="fill:#385fa0;fill-opacity:1;stroke-width:0.08340492"
     inkscape:connector-curvature="0" />
  <path
     d="m 0.31852537,29.677094 c -6.52977897,0 -11.84199737,-4.97618 -11.84199737,-11.092905 0,-6.116726 5.3122184,-11.0929065 11.84199737,-11.0929065 6.52944003,0 11.84200663,4.9761805 11.84200663,11.0929065 0,6.116725 -5.3122298,11.092905 -11.84200663,11.092905 z m 0,0"
     id="path50"
     style="fill:#385fa0;fill-opacity:1;stroke-width:0.08340492"
     inkscape:connector-curvature="0" />
  <path
     d="m -9.1327882,18.584189 c 0,-5.738656 4.6760049,-10.4736065 10.6466541,-11.0367845 -0.3931737,-0.03685 -0.79206893,-0.0561 -1.19534053,-0.0561 -6.52977897,-2.2e-5 -11.84199737,4.9761585 -11.84199737,11.0928845 0,6.116725 5.3122184,11.092905 11.84199737,11.092905 0.4032716,0 0.80216683,-0.01925 1.19534053,-0.05643 -5.9706492,-0.562859 -10.6466541,-5.2975 -10.6466541,-11.036465 z m 0,0"
     id="path52"
     style="fill:#385fa0;fill-opacity:1;stroke-width:0.08340492"
     inkscape:connector-curvature="0" />
  <path
     d="m 0.31852537,9.4204402 c -5.39435557,0 -9.78288617,4.1109428 -9.78288617,9.1637488 0,5.052805 4.3885306,9.164045 9.78288617,9.164045 5.39401713,0 9.78254063,-4.11092 9.78254063,-9.164045 0,-5.052806 -4.3885235,-9.1637488 -9.78254063,-9.1637488 z m 0,0"
     id="path54"
     style="fill:#ffffff;stroke-width:0.08340492"
     inkscape:connector-curvature="0" />
  <path
     d="m -7.0568456,18.584189 c 0,-4.671271 3.7506333,-8.536869 8.5787909,-9.0943602 -0.39452,-0.045762 -0.79610883,-0.0693 -1.20341993,-0.0693 -5.39435557,0 -9.78288617,4.1109412 -9.78288617,9.1637472 0,5.052807 4.3885306,9.163726 9.78288617,9.163726 0.4073111,0 0.80889993,-0.02365 1.20341993,-0.0693 -4.8281576,-0.557193 -8.5787909,-4.423099 -8.5787909,-9.094359 z m 0,0"
     id="path56"
     style="fill:#ffffff;fill-opacity:1;stroke-width:0.08340492"
     inkscape:connector-curvature="0" />
  <path
     d="m 2.3695574,23.023051 c 0,1.129503 -0.9772104,2.0449 -2.18265133,2.0449 -1.20577737,0 -2.18298867,-0.915397 -2.18298867,-2.0449 0,-1.129182 0.9772113,-2.044592 2.18298867,-2.044592 1.20544093,0 2.18265133,0.91541 2.18265133,2.044592 z m 0,0"
     id="path58"
     style="fill:#385fa0;fill-opacity:1;stroke-width:0.08340492"
     inkscape:connector-curvature="0" />
  <path
     d="m 0.41109637,23.023051 c 0,-0.712327 0.3894702,-1.339513 0.97923083,-1.705605 -0.3450368,-0.214103 -0.75874543,-0.338987 -1.20342113,-0.338987 -1.20577737,0 -2.18298867,0.91541 -2.18298867,2.044592 0,1.129503 0.9772113,2.0449 2.18298867,2.0449 0.4446757,0 0.85838433,-0.124872 1.20342113,-0.339295 C 0.80056657,24.362884 0.41109637,23.735698 0.41109637,23.023051 Z m 0,0"
     id="path60"
     style="fill:#385fa0;fill-opacity:1;stroke-width:0.08340492"
     inkscape:connector-curvature="0" />
  <path
     d="m 4.8410296,18.740586 c 0,0.639485 -0.5534047,1.157563 -1.2357349,1.157563 -0.6823309,0 -1.2357373,-0.518078 -1.2357373,-1.157563 0,-0.639166 0.5534064,-1.157255 1.2357373,-1.157255 0.6823302,0 1.2357349,0.518089 1.2357349,1.157255 z m 0,0"
     id="path62"
     style="fill:#385fa0;fill-opacity:1;stroke-width:0.08340492"
     inkscape:connector-curvature="0" />
  <path
     d="m 4.3088326,18.740586 c 0,-0.270545 0.099991,-0.518716 0.2659302,-0.715792 -0.2262089,-0.268664 -0.5759592,-0.441463 -0.9694681,-0.441463 -0.6826679,0 -1.2357373,0.518089 -1.2357373,1.157574 0,0.639166 0.5530694,1.157244 1.2357373,1.157244 0.3935089,0 0.7432592,-0.172799 0.9694681,-0.441451 C 4.4088098,19.25961 4.3088326,19.011143 4.3088326,18.740586 Z m 0,0"
     id="path64"
     style="fill:#385fa0;fill-opacity:1;stroke-width:0.08340492"
     inkscape:connector-curvature="0" />
  <path
     d="m 1.0947731,16.32833 c 0,1.28843 -1.11522623,2.333111 -2.4906601,2.333111 -1.3754344,0 -2.4906601,-1.044681 -2.4906601,-2.333111 0,-1.28843 1.1152257,-2.333111 2.4906601,-2.333111 1.37543387,0 2.4906601,1.044681 2.4906601,2.333111 z m 0,0"
     id="path66"
     style="fill:#385fa0;fill-opacity:1;stroke-width:0.08340492"
     inkscape:connector-curvature="0" />
  <path
     d="m -1.4793691,16.32833 c 0,-0.87945 0.51974263,-1.645071 1.28690227,-2.0427 -0.35648115,-0.184766 -0.76682312,-0.290411 -1.20342017,-0.290411 -1.375771,0 -2.4906601,1.044681 -2.4906601,2.333111 0,1.28843 1.1152257,2.333111 2.4906601,2.333111 0.43659705,0 0.84693902,-0.1056 1.20342017,-0.290422 C -0.95962647,17.973391 -1.4793691,17.20778 -1.4793691,16.32833 Z m 0,0"
     id="path68"
     style="fill:#385fa0;fill-opacity:1;stroke-width:0.08340492"
     inkscape:connector-curvature="0" />
  <path
     d="m -3.9690195,20.804725 c 0,0.543313 -0.4699233,0.983819 -1.0499209,0.983819 -0.5803357,0 -1.0502587,-0.440506 -1.0502587,-0.983819 0,-0.543322 0.469923,-0.983817 1.0502587,-0.983817 0.5799976,0 1.0499209,0.440495 1.0499209,0.983817 z m 0,0"
     id="path70"
     style="fill:#385fa0;fill-opacity:1;stroke-width:0.08340492"
     inkscape:connector-curvature="0" />
  <path
     d="m 5.9569292,14.284695 c 0,0.735031 -0.6362139,1.330989 -1.4208778,1.330989 -0.7846644,0 -1.4208766,-0.595958 -1.4208766,-1.330989 0,-0.73535 0.6362122,-1.331 1.4208766,-1.331 0.7846639,0 1.4208778,0.59565 1.4208778,1.331 z m 0,0"
     id="path72"
     style="fill:#385fa0;fill-opacity:1;stroke-width:0.08340492"
     inkscape:connector-curvature="0" />
  <g
     id="g78"
     transform="matrix(0.08617492,0,0,0.08072387,-11.566557,4.2588445)"
     style="fill:#e54a4a">
    <path
       d="m 198.30469,124.19922 c 0,-3.21484 0.93359,-6.19922 2.52343,-8.73438 -2.91796,-4.65234 -8.07421,-7.75781 -13.96875,-7.75781 -9.10546,0 -16.48828,7.38281 -16.48828,16.48828 0,9.10938 7.38282,16.48828 16.48828,16.48828 5.89454,0 11.05079,-3.10156 13.96875,-7.7539 -1.58984,-2.53125 -2.52343,-5.51953 -2.52343,-8.73047 z m 0,0"
       id="path74"
       style="fill:#385fa0;fill-opacity:1"
       inkscape:connector-curvature="0" />
    <path
       d="m 184.85547,226.92187 c -2.72656,-2.72656 -2.72656,-7.14843 0,-9.875 l 4.90625,-4.90625 c 2.72656,-2.72656 7.14844,-2.72656 9.875,0.004 2.72656,2.72656 2.72656,7.14844 0,9.875 l -4.90235,4.90625 c -2.73046,2.72266 -7.15234,2.72656 -9.8789,-0.004 z m 0,0"
       id="path76"
       style="fill:#385fa0;fill-opacity:1"
       inkscape:connector-curvature="0" />
  </g>
</svg>
