<?xml version="1.0" encoding="UTF-8" standalone="no"?>
<!-- Generator: Adobe Illustrator 19.0.0, SVG Export Plug-In . SVG Version: 6.00 Build 0)  -->

<svg
   xmlns:dc="http://purl.org/dc/elements/1.1/"
   xmlns:cc="http://creativecommons.org/ns#"
   xmlns:rdf="http://www.w3.org/1999/02/22-rdf-syntax-ns#"
   xmlns:svg="http://www.w3.org/2000/svg"
   xmlns="http://www.w3.org/2000/svg"
   xmlns:sodipodi="http://sodipodi.sourceforge.net/DTD/sodipodi-0.dtd"
   xmlns:inkscape="http://www.inkscape.org/namespaces/inkscape"
   version="1.1"
   id="Capa_1"
   x="0px"
   y="0px"
   viewBox="0 0 50 50"
   xml:space="preserve"
   sodipodi:docname="blood-pressure.svg"
   width="50"
   height="50"
   inkscape:version="0.92.2 5c3e80d, 2017-08-06"><metadata
     id="metadata47"><rdf:RDF><cc:Work
         rdf:about=""><dc:format>image/svg+xml</dc:format><dc:type
           rdf:resource="http://purl.org/dc/dcmitype/StillImage" /><dc:title /></cc:Work></rdf:RDF></metadata><defs
     id="defs45" /><sodipodi:namedview
     pagecolor="#ffffff"
     bordercolor="#666666"
     borderopacity="1"
     objecttolerance="10"
     gridtolerance="10"
     guidetolerance="10"
     inkscape:pageopacity="0"
     inkscape:pageshadow="2"
     inkscape:window-width="1440"
     inkscape:window-height="856"
     id="namedview43"
     showgrid="false"
     fit-margin-top="0"
     fit-margin-left="0"
     fit-margin-right="0"
     fit-margin-bottom="0"
     inkscape:showpageshadow="false"
     inkscape:zoom="9.0933932"
     inkscape:cx="12.100114"
     inkscape:cy="27.689489"
     inkscape:window-x="0"
     inkscape:window-y="0"
     inkscape:window-maximized="0"
     inkscape:current-layer="Capa_1" /><g
     id="g10"
     style="fill:#385fa0;fill-opacity:1"
     transform="scale(0.09765625)"><g
       id="g8"
       style="fill:#385fa0;fill-opacity:1"><g
         id="g6"
         style="fill:#385fa0;fill-opacity:1"><path
           d="m 277.333,234.667 c 0,-7.792 -4.409,-14.329 -10.667,-18.053 v -35.28 c 0,-5.896 -4.771,-10.667 -10.667,-10.667 -5.896,0 -10.667,4.771 -10.667,10.667 v 35.28 c -6.258,3.724 -10.667,10.262 -10.667,18.053 0,11.76 9.573,21.333 21.333,21.333 11.76,0 21.335,-9.573 21.335,-21.333 z"
           id="path2"
           inkscape:connector-curvature="0"
           style="fill:#385fa0;fill-opacity:1" /><path
           d="m 437.333,0 c -41.865,0 -74.667,37.479 -74.667,85.333 0,34.341 25.902,95.176 64,105.121 v 204.212 c 0,52.938 -43.063,96 -96,96 -50.943,0 -92.335,-39.995 -95.411,-90.176 33.447,-4.255 63.411,-12.215 63.411,-27.158 V 332.29 c 37.604,-16.507 64,-53.997 64,-97.625 0,-43.628 -26.396,-81.119 -64,-97.625 V 74.667 c 0,-30.458 -124.396,-32 -149.333,-32 C 124.396,42.667 0,44.208 0,74.667 v 298.667 c 0,30.458 124.396,32 149.333,32 10.102,0 36.546,-0.289 64.408,-2.615 C 217.91,463.66 268.686,512 330.667,512 395.365,512 448,459.365 448,394.667 V 190.454 c 38.098,-9.945 64,-70.78 64,-105.121 C 512,37.479 479.198,0 437.333,0 Z M 32.781,74.667 C 54.427,69.375 98.667,64 149.333,64 200,64 244.24,69.375 265.885,74.667 244.24,79.958 200,85.333 149.333,85.333 98.667,85.333 54.427,79.958 32.781,74.667 Z m 137.886,160 c 0,-47.052 38.281,-85.333 85.333,-85.333 47.052,0 85.333,38.281 85.333,85.333 0,47.052 -38.281,85.333 -85.333,85.333 -47.052,0 -85.333,-38.281 -85.333,-85.333 z"
           id="path4"
           inkscape:connector-curvature="0"
           style="fill:#385fa0;fill-opacity:1" /></g></g></g><g
     id="g12"
     style="fill:#385fa0;fill-opacity:1"
     transform="scale(0.09765625)" /><g
     id="g14"
     style="fill:#385fa0;fill-opacity:1"
     transform="scale(0.09765625)" /><g
     id="g16"
     style="fill:#385fa0;fill-opacity:1"
     transform="scale(0.09765625)" /><g
     id="g18"
     style="fill:#385fa0;fill-opacity:1"
     transform="scale(0.09765625)" /><g
     id="g20"
     style="fill:#385fa0;fill-opacity:1"
     transform="scale(0.09765625)" /><g
     id="g22"
     style="fill:#385fa0;fill-opacity:1"
     transform="scale(0.09765625)" /><g
     id="g24"
     style="fill:#385fa0;fill-opacity:1"
     transform="scale(0.09765625)" /><g
     id="g26"
     style="fill:#385fa0;fill-opacity:1"
     transform="scale(0.09765625)" /><g
     id="g28"
     style="fill:#385fa0;fill-opacity:1"
     transform="scale(0.09765625)" /><g
     id="g30"
     style="fill:#385fa0;fill-opacity:1"
     transform="scale(0.09765625)" /><g
     id="g32"
     style="fill:#385fa0;fill-opacity:1"
     transform="scale(0.09765625)" /><g
     id="g34"
     style="fill:#385fa0;fill-opacity:1"
     transform="scale(0.09765625)" /><g
     id="g36"
     style="fill:#385fa0;fill-opacity:1"
     transform="scale(0.09765625)" /><g
     id="g38"
     style="fill:#385fa0;fill-opacity:1"
     transform="scale(0.09765625)" /><g
     id="g40"
     style="fill:#385fa0;fill-opacity:1"
     transform="scale(0.09765625)" /></svg>
