<svg width="175" height="175" viewBox="0 0 175 175" fill="none" xmlns="http://www.w3.org/2000/svg">
<path d="M72.8218 79.1047C73.1566 79.2419 73.5153 79.3112 73.8771 79.3087C74.2389 79.3062 74.5966 79.2319 74.9295 79.0902C75.2624 78.9484 75.5639 78.742 75.8164 78.4829C76.0689 78.2238 76.2675 77.9171 76.4007 77.5807C76.5338 77.2443 76.5989 76.8848 76.5921 76.523C76.5853 76.1613 76.5068 75.8045 76.3611 75.4733C76.2154 75.1421 76.0054 74.8431 75.7433 74.5937C75.4813 74.3443 75.1723 74.1493 74.8343 74.0202C68.5018 71.5131 60.3763 70.1326 51.953 70.1326C43.5298 70.1326 35.4043 71.5131 29.0718 74.0202C28.7338 74.1493 28.4248 74.3443 28.1627 74.5937C27.9006 74.8431 27.6907 75.1421 27.545 75.4733C27.3993 75.8045 27.3208 76.1613 27.314 76.523C27.3072 76.8848 27.3722 77.2443 27.5054 77.5807C27.6385 77.9171 27.8371 78.2238 28.0897 78.4829C28.3422 78.742 28.6437 78.9484 28.9765 79.0902C29.3094 79.2319 29.6672 79.3062 30.029 79.3087C30.3908 79.3112 30.7495 79.2419 31.0843 79.1047C36.7923 76.8455 44.2031 75.6013 51.953 75.6013C59.7029 75.6013 67.1141 76.8455 72.8218 79.1047Z" fill="#33B6FF"/>
<path d="M142.188 5.46875H131.25C123.264 5.46875 116.343 14.1654 111.237 30.6182C108.817 38.4163 106.955 47.5187 105.713 57.4219H49.2188V57.4622C38.1828 57.7544 27.8612 59.8069 19.911 63.3237C10.5978 67.443 5.46875 73.1907 5.46875 79.5078C5.46875 84.9393 9.33686 90.0272 16.4062 93.9541V144.255C12.253 147.578 9.41441 152.268 8.39624 157.488C8.10314 158.962 8.14121 160.483 8.50769 161.941C8.87418 163.399 9.55993 164.757 10.5154 165.917C11.4378 167.046 12.5996 167.956 13.9167 168.581C15.2338 169.206 16.6734 169.531 18.1313 169.531H118.587C120.804 169.532 122.954 168.781 124.689 167.402C126.611 168.758 128.898 169.5 131.25 169.531H142.188C150.174 169.531 157.094 160.835 162.2 144.382C166.928 129.149 169.531 108.948 169.531 87.5C169.531 66.0519 166.928 45.8507 162.2 30.6182C157.094 14.1654 150.174 5.46875 142.188 5.46875ZM18.1313 164.062C17.4809 164.06 16.839 163.914 16.2521 163.634C15.6652 163.353 15.1479 162.946 14.7376 162.441C14.2963 161.904 13.98 161.275 13.8115 160.6C13.6429 159.925 13.6264 159.221 13.7631 158.539C14.2881 155.817 15.4744 153.266 17.2176 151.11C18.9607 148.954 21.2073 147.26 23.7593 146.177C23.0146 148.296 22.4579 150.476 22.0958 152.693C21.4247 156.639 22.2498 160.693 24.4098 164.062H18.1313ZM35.5469 164.062H33.9613C32.3449 164.062 30.7826 163.273 29.5661 161.841C27.7672 159.723 26.992 156.634 27.4924 153.577C28.8596 145.22 33.2004 138.224 39.0903 134.394C38.0648 138.66 38.0059 143.101 38.9177 147.393L42.1989 163.014C42.276 163.369 42.3772 163.72 42.5018 164.062L35.5469 164.062ZM42.0205 126.961C35.7841 129.007 30.4432 133.58 26.7846 139.697C25.1006 139.95 23.4526 140.402 21.875 141.044V92.306C21.875 91.7987 21.7339 91.3013 21.4674 90.8696C21.2009 90.4379 20.8195 90.0888 20.366 89.8615C14.2871 86.814 10.9375 83.137 10.9375 79.5078C10.9375 75.5453 15.0148 71.4697 22.1235 68.3252C30.0457 64.8204 40.6396 62.8906 51.9531 62.8906C63.2666 62.8906 73.8623 64.8204 81.7828 68.3252C88.8921 71.4697 92.9688 75.5457 92.9688 79.5081C92.9688 83.1373 89.6191 86.8144 83.5403 89.8618C83.0868 90.0891 82.7055 90.4381 82.439 90.8698C82.1725 91.3014 82.0313 91.7987 82.0312 92.306V115.013C79.9531 114.023 77.7623 113.291 75.507 112.832C70.7911 111.864 65.9277 111.864 61.2117 112.832C57.5261 113.582 54.0267 115.059 50.9178 117.176C47.8089 119.293 45.1527 122.008 43.104 125.162C42.7174 125.75 42.3616 126.353 42.0205 126.961ZM92.4489 146.268L89.1676 161.89C89.0364 162.503 88.6995 163.053 88.2127 163.448C87.7259 163.843 87.1186 164.06 86.4917 164.062H50.2271C49.6001 164.06 48.9928 163.843 48.5061 163.448C48.0193 163.053 47.6823 162.503 47.5511 161.89L44.2699 146.268C43.6072 143.175 43.567 139.982 44.1516 136.874C44.7362 133.766 45.9339 130.805 47.6749 128.165C49.329 125.614 51.4745 123.419 53.9862 121.706C56.4978 119.994 59.3253 118.798 62.3038 118.19C66.2983 117.37 70.4177 117.37 74.4123 118.19C77.3907 118.798 80.2182 119.994 82.7299 121.706C85.2415 123.419 87.387 125.614 89.0412 128.165C90.7826 130.805 91.9808 133.766 92.5659 136.874C93.1509 139.982 93.1112 143.175 92.4489 146.268ZM107.153 161.841C105.936 163.274 104.375 164.062 102.758 164.062H94.2167C94.3411 163.72 94.4423 163.37 94.5195 163.015L97.8007 147.392C98.7131 143.101 98.6547 138.659 97.6298 134.393C103.52 138.221 107.859 145.219 109.228 153.577C109.727 156.634 108.952 159.722 107.153 161.841ZM94.6982 126.961C94.3564 126.353 94.0013 125.75 93.6148 125.162C91.9434 122.614 89.8797 120.346 87.5 118.443V93.9541C94.5694 90.0272 98.4375 84.9393 98.4375 79.5078C98.4375 73.1907 93.3085 67.4423 83.9952 63.3237C83.6596 63.175 83.3116 63.0338 82.9698 62.8906H105.099C104.314 70.7465 103.906 79.0251 103.906 87.5C103.906 106.83 106.001 125.023 109.854 139.562C106.198 133.512 100.889 128.992 94.6982 126.961ZM121.981 162.44C121.571 162.945 121.054 163.352 120.467 163.633C119.88 163.914 119.238 164.06 118.587 164.062H112.309C114.469 160.693 115.294 156.638 114.623 152.693C114.261 150.476 113.704 148.296 112.959 146.177C115.512 147.26 117.758 148.954 119.501 151.11C121.245 153.266 122.431 155.817 122.956 158.54C123.092 159.222 123.076 159.925 122.907 160.6C122.739 161.275 122.422 161.904 121.981 162.441V162.44ZM131.25 164.062C130.049 164.027 128.884 163.645 127.896 162.963C128.536 161.211 128.684 159.318 128.323 157.488C127.659 154.075 126.21 150.863 124.091 148.107C121.971 145.35 119.239 143.125 116.111 141.606C114.727 136.871 113.6 132.064 112.735 127.207C116.51 126.147 124.885 124.721 135.854 128.377C136.198 128.504 136.564 128.562 136.93 128.545C137.297 128.528 137.656 128.438 137.987 128.279C138.318 128.121 138.613 127.897 138.856 127.622C139.098 127.347 139.283 127.026 139.399 126.678C139.515 126.33 139.56 125.962 139.531 125.597C139.502 125.231 139.4 124.875 139.23 124.55C139.061 124.225 138.828 123.937 138.545 123.703C138.262 123.47 137.934 123.296 137.583 123.192L137.552 123.182L137.514 123.17C125.744 119.263 116.596 120.517 111.83 121.774C110.256 111.038 109.438 100.205 109.382 89.3546C112.724 88.2178 121.371 86.1824 133.119 90.0983C133.463 90.226 133.829 90.2831 134.195 90.2663C134.562 90.2496 134.921 90.1592 135.252 90.0008C135.583 89.8423 135.878 89.6189 136.121 89.3438C136.363 89.0687 136.548 88.7477 136.664 88.3997C136.78 88.0517 136.825 87.684 136.796 87.3183C136.767 86.9527 136.665 86.5966 136.495 86.2713C136.326 85.946 136.093 85.6582 135.81 85.4249C135.527 85.1915 135.199 85.0176 134.848 84.9133L134.818 84.9037L134.778 84.8911C123.269 81.0718 114.266 82.3177 109.403 83.6418C109.524 73.616 110.304 63.609 111.739 53.6857C114.856 52.6603 123.785 50.5319 135.853 54.5542C136.197 54.6818 136.563 54.7389 136.929 54.7222C137.295 54.7054 137.655 54.6151 137.985 54.4566C138.316 54.2981 138.612 54.0747 138.854 53.7996C139.097 53.5246 139.282 53.2035 139.398 52.8556C139.514 52.5076 139.559 52.1398 139.53 51.7742C139.501 51.4085 139.398 51.0525 139.229 50.7272C139.059 50.4019 138.826 50.114 138.543 49.8807C138.26 49.6474 137.933 49.4734 137.581 49.3691L137.551 49.3592L137.512 49.3473C126.441 45.6723 117.692 46.564 112.726 47.7295C113.664 42.5002 114.91 37.3309 116.458 32.2489C120.6 18.9014 126.129 10.9375 131.25 10.9375C136.371 10.9375 141.9 18.9014 146.04 32.239C150.609 46.9629 153.125 66.5861 153.125 87.5C153.125 108.414 150.609 128.039 146.04 142.761C141.9 156.099 136.371 164.062 131.25 164.062ZM156.977 142.761C152.838 156.099 147.309 164.062 142.188 164.062H141.552C145.237 159.848 148.513 153.242 151.263 144.382C155.99 129.149 158.594 108.948 158.594 87.5C158.594 66.0519 155.99 45.8507 151.263 30.6182C148.513 21.7584 145.237 15.1522 141.552 10.9375H142.188C147.309 10.9375 152.838 18.9014 156.977 32.239C161.547 46.9629 164.062 66.5861 164.062 87.5C164.062 108.414 161.547 128.039 156.977 142.761Z" fill="#19419A"/>
</svg>
