<?xml version="1.0" encoding="UTF-8" standalone="no"?>
<!-- Generator: Adobe Illustrator 18.0.0, SVG Export Plug-In . SVG Version: 6.00 Build 0)  -->

<svg
   xmlns:dc="http://purl.org/dc/elements/1.1/"
   xmlns:cc="http://creativecommons.org/ns#"
   xmlns:rdf="http://www.w3.org/1999/02/22-rdf-syntax-ns#"
   xmlns:svg="http://www.w3.org/2000/svg"
   xmlns="http://www.w3.org/2000/svg"
   xmlns:sodipodi="http://sodipodi.sourceforge.net/DTD/sodipodi-0.dtd"
   xmlns:inkscape="http://www.inkscape.org/namespaces/inkscape"
   version="1.1"
   id="Capa_1"
   x="0px"
   y="0px"
   viewBox="0 0 49.999999 49.999999"
   xml:space="preserve"
   sodipodi:docname="buddhist-yoga-pose.svg"
   width="50"
   height="50"
   inkscape:version="0.92.2 5c3e80d, 2017-08-06"><metadata
     id="metadata41"><rdf:RDF><cc:Work
         rdf:about=""><dc:format>image/svg+xml</dc:format><dc:type
           rdf:resource="http://purl.org/dc/dcmitype/StillImage" /><dc:title></dc:title></cc:Work></rdf:RDF></metadata><defs
     id="defs39" /><sodipodi:namedview
     pagecolor="#ffffff"
     bordercolor="#666666"
     borderopacity="1"
     objecttolerance="10"
     gridtolerance="10"
     guidetolerance="10"
     inkscape:pageopacity="0"
     inkscape:pageshadow="2"
     inkscape:window-width="1445"
     inkscape:window-height="852"
     id="namedview37"
     showgrid="false"
     inkscape:showpageshadow="false"
     inkscape:zoom="6.39"
     inkscape:cx="32.259187"
     inkscape:cy="28.074769"
     inkscape:window-x="0"
     inkscape:window-y="0"
     inkscape:window-maximized="0"
     inkscape:current-layer="Capa_1" /><g
     id="g4"
     style="fill:#385fa0;fill-opacity:1"
     transform="matrix(0.160169,0,0,0.13513493,58.367415,-9.2708008e-4)" /><g
     id="g6"
     style="fill:#385fa0;fill-opacity:1"
     transform="matrix(0.160169,0,0,0.13513493,58.367415,-9.2708008e-4)" /><g
     id="g8"
     style="fill:#385fa0;fill-opacity:1"
     transform="matrix(0.160169,0,0,0.13513493,58.367415,-9.2708008e-4)" /><g
     id="g10"
     style="fill:#385fa0;fill-opacity:1"
     transform="matrix(0.160169,0,0,0.13513493,58.367415,-9.2708008e-4)" /><g
     id="g12"
     style="fill:#385fa0;fill-opacity:1"
     transform="matrix(0.160169,0,0,0.13513493,58.367415,-9.2708008e-4)" /><g
     id="g14"
     style="fill:#385fa0;fill-opacity:1"
     transform="matrix(0.160169,0,0,0.13513493,58.367415,-9.2708008e-4)" /><g
     id="g16"
     style="fill:#385fa0;fill-opacity:1"
     transform="matrix(0.160169,0,0,0.13513493,58.367415,-9.2708008e-4)" /><g
     id="g18"
     style="fill:#385fa0;fill-opacity:1"
     transform="matrix(0.160169,0,0,0.13513493,58.367415,-9.2708008e-4)" /><g
     id="g20"
     style="fill:#385fa0;fill-opacity:1"
     transform="matrix(0.160169,0,0,0.13513493,58.367415,-9.2708008e-4)" /><g
     id="g22"
     style="fill:#385fa0;fill-opacity:1"
     transform="matrix(0.160169,0,0,0.13513493,58.367415,-9.2708008e-4)" /><g
     id="g24"
     style="fill:#385fa0;fill-opacity:1"
     transform="matrix(0.160169,0,0,0.13513493,58.367415,-9.2708008e-4)" /><g
     id="g26"
     style="fill:#385fa0;fill-opacity:1"
     transform="matrix(0.160169,0,0,0.13513493,58.367415,-9.2708008e-4)" /><g
     id="g28"
     style="fill:#385fa0;fill-opacity:1"
     transform="matrix(0.160169,0,0,0.13513493,58.367415,-9.2708008e-4)" /><g
     id="g30"
     style="fill:#385fa0;fill-opacity:1"
     transform="matrix(0.160169,0,0,0.13513493,58.367415,-9.2708008e-4)" /><g
     id="g32"
     style="fill:#385fa0;fill-opacity:1"
     transform="matrix(0.160169,0,0,0.13513493,58.367415,-9.2708008e-4)" /><g
     id="g34"
     style="fill:#385fa0;fill-opacity:1"
     transform="matrix(0.160169,0,0,0.13513493,58.367415,-9.2708008e-4)" /><g
     transform="matrix(0.160169,0,0,0.13513493,-3.632585,-9.2708008e-4)"
     style="fill:#385fa0;fill-opacity:1"
     id="g850"><path
       inkscape:connector-curvature="0"
       style="fill:#385fa0;fill-opacity:1"
       id="path848"
       d="m 260.422,314.065 c -3.338,-0.517 -5.858,-0.875 -7.909,-1.164 -6.301,-0.895 -7.993,-1.135 -15.359,-3.428 -2.903,-0.904 -14.259,-12.358 -14.259,-34.775 0,-28.879 6.857,-54.382 9.803,-64.005 0.078,-0.251 0.27,-0.978 0.536,-1.962 0.487,-1.807 4.062,-12.719 4.062,-12.719 1.938,-5.551 3.944,-11.293 5.247,-17.191 l 0.07,-0.302 c 1.967,-8.54 8.424,-39.756 8.882,-82.935 0,-4.357 -3.622,-8.148 -5.785,-10.412 -0.396,-0.416 -0.747,-0.78 -1.009,-1.086 -2.083,-2.422 -4.825,-5.412 -8.001,-8.872 -2.092,-2.282 -4.396,-4.796 -6.879,-7.546 -3.972,-4.393 -8.401,-8.412 -12.686,-12.297 -5.269,-4.775 -10.714,-9.713 -15.189,-15.28 -6.688,-8.317 -12.871,-22.874 -11.752,-34.606 0.17,-1.77 -0.243,-3.299 -1.162,-4.309 -1.02,-1.123 -2.62,-1.473 -4.029,-0.916 -1.411,-0.557 -3.012,-0.207 -4.03,0.916 -0.918,1.01 -1.333,2.539 -1.161,4.309 1.117,11.732 -5.066,26.289 -11.752,34.606 -4.477,5.567 -9.922,10.505 -15.191,15.28 -4.283,3.885 -8.715,7.904 -12.685,12.297 -2.482,2.75 -4.789,5.264 -6.88,7.546 -3.177,3.46 -5.917,6.45 -8.002,8.872 -0.262,0.306 -0.61,0.67 -1.007,1.086 -2.163,2.264 -5.786,6.055 -5.786,10.434 0.459,43.157 6.916,74.373 8.883,82.913 l 0.069,0.302 c 1.303,5.898 3.31,11.641 5.246,17.191 0,0 3.574,10.912 4.061,12.719 0.267,0.984 0.46,1.711 0.538,1.962 2.945,9.623 9.801,35.126 9.801,64.005 0,22.418 -11.355,33.871 -14.257,34.775 -7.366,2.293 -9.059,2.533 -15.361,3.428 -2.051,0.289 -4.569,0.647 -7.907,1.164 -36.177,3.85 -40.083,21.809 -40.083,29.353 0,2.022 1.047,8.592 5.822,14.649 4.291,5.442 12.837,11.933 29.195,11.933 2.454,0 5.05,-0.146 7.718,-0.434 10.887,-1.17 21.859,-2.928 32.468,-4.627 3.854,-0.617 7.701,-1.233 11.555,-1.824 5.134,-0.787 14.387,-1.309 27.498,-1.549 0.614,-0.012 1.041,-0.021 1.248,-0.027 0.207,0.006 0.634,0.016 1.246,0.027 13.113,0.24 22.365,0.762 27.5,1.549 3.852,0.591 7.7,1.207 11.553,1.824 10.61,1.699 21.583,3.457 32.468,4.627 2.668,0.287 5.264,0.434 7.718,0.434 16.361,0 24.909,-6.488 29.197,-11.933 4.775,-6.056 5.82,-12.628 5.82,-14.649 -0.002,-7.544 -3.906,-25.503 -40.083,-29.353 z m -56.29,-147.029 c -0.539,0 -1.05,-0.117 -1.567,-0.362 -1.683,-0.671 -3.841,-3.886 -4.042,-5.134 8.382,-5.832 14.045,-16.91 14.045,-29.625 0,-18.777 -1.982,-34 -27.567,-34 -25.585,0 -27.567,15.223 -27.567,34 0,12.715 5.663,23.793 14.044,29.625 -0.197,1.245 -2.404,4.307 -4.041,5.134 -0.516,0.245 -1.026,0.362 -1.567,0.362 -5.387,0.002 -12.139,-11.797 -13.912,-16.492 -3.021,-7.977 -6.792,-21.688 -7.601,-41.697 l -0.033,-0.77 c -0.207,-4.215 6.142,-14.994 6.983,-16.838 1.156,-2.539 16.154,-25.4 20.608,-30.816 1.577,-1.915 9.566,-12.523 13.087,-17.205 3.52,4.682 11.508,15.29 13.084,17.205 4.457,5.416 19.451,28.277 20.609,30.816 0.842,1.844 7.191,12.623 6.985,16.838 l -0.033,0.77 c -0.81,20.01 -4.579,33.721 -7.603,41.697 -1.773,4.694 -8.523,16.492 -13.912,16.492 z" /></g><g
     transform="matrix(0.160169,0,0,0.13513493,2.367415,-9.2708008e-4)"
     style="fill:#385fa0;fill-opacity:1"
     id="g852" /><g
     transform="matrix(0.160169,0,0,0.13513493,2.367415,-9.2708008e-4)"
     style="fill:#385fa0;fill-opacity:1"
     id="g854" /><g
     transform="matrix(0.160169,0,0,0.13513493,2.367415,-9.2708008e-4)"
     style="fill:#385fa0;fill-opacity:1"
     id="g856" /><g
     transform="matrix(0.160169,0,0,0.13513493,2.367415,-9.2708008e-4)"
     style="fill:#385fa0;fill-opacity:1"
     id="g858" /><g
     transform="matrix(0.160169,0,0,0.13513493,2.367415,-9.2708008e-4)"
     style="fill:#385fa0;fill-opacity:1"
     id="g860" /><g
     transform="matrix(0.160169,0,0,0.13513493,2.367415,-9.2708008e-4)"
     style="fill:#385fa0;fill-opacity:1"
     id="g862" /><g
     transform="matrix(0.160169,0,0,0.13513493,2.367415,-9.2708008e-4)"
     style="fill:#385fa0;fill-opacity:1"
     id="g864" /><g
     transform="matrix(0.160169,0,0,0.13513493,2.367415,-9.2708008e-4)"
     style="fill:#385fa0;fill-opacity:1"
     id="g866" /><g
     transform="matrix(0.160169,0,0,0.13513493,2.367415,-9.2708008e-4)"
     style="fill:#385fa0;fill-opacity:1"
     id="g868" /><g
     transform="matrix(0.160169,0,0,0.13513493,2.367415,-9.2708008e-4)"
     style="fill:#385fa0;fill-opacity:1"
     id="g870" /><g
     transform="matrix(0.160169,0,0,0.13513493,2.367415,-9.2708008e-4)"
     style="fill:#385fa0;fill-opacity:1"
     id="g872" /><g
     transform="matrix(0.160169,0,0,0.13513493,2.367415,-9.2708008e-4)"
     style="fill:#385fa0;fill-opacity:1"
     id="g874" /><g
     transform="matrix(0.160169,0,0,0.13513493,2.367415,-9.2708008e-4)"
     style="fill:#385fa0;fill-opacity:1"
     id="g876" /><g
     transform="matrix(0.160169,0,0,0.13513493,2.367415,-9.2708008e-4)"
     style="fill:#385fa0;fill-opacity:1"
     id="g878" /><g
     transform="matrix(0.160169,0,0,0.13513493,2.367415,-9.2708008e-4)"
     style="fill:#385fa0;fill-opacity:1"
     id="g880" /></svg>
