<?xml version="1.0" encoding="UTF-8" standalone="no"?>
<!-- Generator: Adobe Illustrator 16.0.0, SVG Export Plug-In . SVG Version: 6.00 Build 0)  -->

<svg
   xmlns:dc="http://purl.org/dc/elements/1.1/"
   xmlns:cc="http://creativecommons.org/ns#"
   xmlns:rdf="http://www.w3.org/1999/02/22-rdf-syntax-ns#"
   xmlns:svg="http://www.w3.org/2000/svg"
   xmlns="http://www.w3.org/2000/svg"
   xmlns:sodipodi="http://sodipodi.sourceforge.net/DTD/sodipodi-0.dtd"
   xmlns:inkscape="http://www.inkscape.org/namespaces/inkscape"
   version="1.1"
   id="Capa_1"
   x="0px"
   y="0px"
   width="50"
   height="50"
   viewBox="0 0 50.000001 50.000001"
   xml:space="preserve"
   sodipodi:docname="calendar.svg"
   inkscape:version="0.92.2 5c3e80d, 2017-08-06"><metadata
     id="metadata41"><rdf:RDF><cc:Work
         rdf:about=""><dc:format>image/svg+xml</dc:format><dc:type
           rdf:resource="http://purl.org/dc/dcmitype/StillImage" /><dc:title></dc:title></cc:Work></rdf:RDF></metadata><defs
     id="defs39" /><sodipodi:namedview
     pagecolor="#ffffff"
     bordercolor="#666666"
     borderopacity="1"
     objecttolerance="10"
     gridtolerance="10"
     guidetolerance="10"
     inkscape:pageopacity="0"
     inkscape:pageshadow="2"
     inkscape:window-width="1445"
     inkscape:window-height="845"
     id="namedview37"
     showgrid="false"
     inkscape:showpageshadow="false"
     inkscape:zoom="5.1913771"
     inkscape:cx="22.73"
     inkscape:cy="22.73"
     inkscape:window-x="0"
     inkscape:window-y="0"
     inkscape:window-maximized="0"
     inkscape:current-layer="Capa_1" /><g
     id="g4"
     style="fill:#385fa0;fill-opacity:1"
     transform="matrix(1.099868,0,0,1.099868,0,0.23069602)"><path
       d="m 41.96,6.249 h -3.05 v 2.704 c 0,1.934 -1.567,3.5 -3.5,3.5 -1.934,0 -3.5,-1.566 -3.5,-3.5 V 6.249 h -5.68 v 2.704 c 0,1.934 -1.565,3.5 -3.5,3.5 -1.935,0 -3.5,-1.566 -3.5,-3.5 V 6.249 h -5.68 v 2.704 c 0,1.934 -1.566,3.5 -3.5,3.5 -1.933,0 -3.5,-1.566 -3.5,-3.5 V 6.249 H 3.5 C 2.572,6.249 1.682,6.617 1.025,7.273 0.369,7.93 0,8.82 0,9.749 V 39.65 c 0,1.934 1.567,3.5 3.5,3.5 h 38.46 c 1.935,0 3.5,-1.566 3.5,-3.5 V 9.749 c 0,-1.933 -1.565,-3.5 -3.5,-3.5 z m -3.5,11.061 v 5.075 H 31.856 V 17.31 Z m -23.291,6.64 h 6.778 v 4.812 h -6.778 z m -1.564,4.81 H 7.001 v -4.812 h 6.605 z m 8.343,1.565 V 36.15 H 15.17 v -5.825 z m 1.566,0 h 6.776 v 5.825 h -6.776 z m 0,-1.565 v -4.812 h 6.776 v 4.812 z m 8.341,-4.81 h 6.604 v 4.812 h -6.604 z m -1.563,-6.64 v 5.075 H 23.514 V 17.31 Z m -8.344,0 v 5.075 H 15.17 v -5.076 z m -8.343,-10e-4 v 5.076 H 7.001 V 17.309 Z M 7.001,30.325 h 6.605 V 36.15 H 7.001 Z m 24.854,5.825 v -5.825 h 6.604 V 36.15 Z M 8.05,8.953 V 4.31 c 0,-1.104 0.896,-2 2,-2 1.105,0 2,0.896 2,2 v 4.643 c 0,1.104 -0.895,2 -2,2 -1.103,0 -2,-0.896 -2,-2 z m 12.68,0 V 4.31 c 0,-1.104 0.896,-2 2,-2 1.104,0 2,0.896 2,2 v 4.643 c 0,1.104 -0.896,2 -2,2 -1.104,0 -2,-0.896 -2,-2 z m 12.681,0 V 4.31 c 0,-1.104 0.896,-2 2,-2 1.104,0 2,0.896 2,2 v 4.643 c 0,1.104 -0.896,2 -2,2 -1.106,0 -2,-0.896 -2,-2 z"
       id="path2"
       style="fill:#385fa0;fill-opacity:1"
       inkscape:connector-curvature="0" /></g><g
     id="g6"
     style="fill:#385fa0;fill-opacity:1"
     transform="matrix(1.099868,0,0,1.099868,0,0.23069602)" /><g
     id="g8"
     style="fill:#385fa0;fill-opacity:1"
     transform="matrix(1.099868,0,0,1.099868,0,0.23069602)" /><g
     id="g10"
     style="fill:#385fa0;fill-opacity:1"
     transform="matrix(1.099868,0,0,1.099868,0,0.23069602)" /><g
     id="g12"
     style="fill:#385fa0;fill-opacity:1"
     transform="matrix(1.099868,0,0,1.099868,0,0.23069602)" /><g
     id="g14"
     style="fill:#385fa0;fill-opacity:1"
     transform="matrix(1.099868,0,0,1.099868,0,0.23069602)" /><g
     id="g16"
     style="fill:#385fa0;fill-opacity:1"
     transform="matrix(1.099868,0,0,1.099868,0,0.23069602)" /><g
     id="g18"
     style="fill:#385fa0;fill-opacity:1"
     transform="matrix(1.099868,0,0,1.099868,0,0.23069602)" /><g
     id="g20"
     style="fill:#385fa0;fill-opacity:1"
     transform="matrix(1.099868,0,0,1.099868,0,0.23069602)" /><g
     id="g22"
     style="fill:#385fa0;fill-opacity:1"
     transform="matrix(1.099868,0,0,1.099868,0,0.23069602)" /><g
     id="g24"
     style="fill:#385fa0;fill-opacity:1"
     transform="matrix(1.099868,0,0,1.099868,0,0.23069602)" /><g
     id="g26"
     style="fill:#385fa0;fill-opacity:1"
     transform="matrix(1.099868,0,0,1.099868,0,0.23069602)" /><g
     id="g28"
     style="fill:#385fa0;fill-opacity:1"
     transform="matrix(1.099868,0,0,1.099868,0,0.23069602)" /><g
     id="g30"
     style="fill:#385fa0;fill-opacity:1"
     transform="matrix(1.099868,0,0,1.099868,0,0.23069602)" /><g
     id="g32"
     style="fill:#385fa0;fill-opacity:1"
     transform="matrix(1.099868,0,0,1.099868,0,0.23069602)" /><g
     id="g34"
     style="fill:#385fa0;fill-opacity:1"
     transform="matrix(1.099868,0,0,1.099868,0,0.23069602)" /></svg>
