<?xml version="1.0" encoding="UTF-8" standalone="no"?>
<svg
   xmlns:dc="http://purl.org/dc/elements/1.1/"
   xmlns:cc="http://creativecommons.org/ns#"
   xmlns:rdf="http://www.w3.org/1999/02/22-rdf-syntax-ns#"
   xmlns:svg="http://www.w3.org/2000/svg"
   xmlns="http://www.w3.org/2000/svg"
   xmlns:xlink="http://www.w3.org/1999/xlink"
   xmlns:sodipodi="http://sodipodi.sourceforge.net/DTD/sodipodi-0.dtd"
   xmlns:inkscape="http://www.inkscape.org/namespaces/inkscape"
   version="1.1"
   preserveAspectRatio="xMidYMid meet"
   viewBox="134.2079 134.40127 179.88378 136.74279"
   width="180"
   height="136.50574"
   id="svg366"
   sodipodi:docname="diabetes-importance.svg"
   inkscape:version="0.92.2 5c3e80d, 2017-08-06">
  <metadata
     id="metadata370">
    <rdf:RDF>
      <cc:Work
         rdf:about="">
        <dc:format>image/svg+xml</dc:format>
        <dc:type
           rdf:resource="http://purl.org/dc/dcmitype/StillImage" />
        <dc:title></dc:title>
      </cc:Work>
    </rdf:RDF>
  </metadata>
  <sodipodi:namedview
     pagecolor="#ffffff"
     bordercolor="#666666"
     borderopacity="1"
     objecttolerance="10"
     gridtolerance="10"
     guidetolerance="10"
     inkscape:pageopacity="0"
     inkscape:pageshadow="2"
     inkscape:window-width="1440"
     inkscape:window-height="845"
     id="namedview368"
     showgrid="false"
     inkscape:snap-bbox="true"
     inkscape:snap-to-guides="true"
     inkscape:snap-page="false"
     fit-margin-top="0"
     fit-margin-left="0"
     fit-margin-right="0"
     fit-margin-bottom="0"
     inkscape:zoom="2.6042861"
     inkscape:cx="58.419566"
     inkscape:cy="28.988572"
     inkscape:window-x="0"
     inkscape:window-y="0"
     inkscape:window-maximized="0"
     inkscape:current-layer="svg366"
     showborder="true"
     inkscape:showpageshadow="false" />
  <defs
     id="defs42">
    <path
       d="m 152.24,357.46 c 0,0 0,-26.96 0,-26.96 0,-0.25 0.25,-0.45 0.57,-0.45 0.11,0 1.02,0 1.14,0 0.31,0 0.56,0.2 0.56,0.45 0,0 0,75.62 0,75.63 0,3.14 3.11,5.69 6.96,5.69 3.84,0 6.95,-2.55 6.95,-5.69 0,-0.01 0,-44.5 0,-44.5 0,-0.32 0.19,-0.46 0.58,-0.46 0.11,0 1.01,0 1.12,0 0.39,0 0.58,0.14 0.58,0.46 0,0 0,44.49 0,44.5 0,3.14 3.11,5.69 6.95,5.69 3.85,0 6.96,-2.55 6.96,-5.69 0,-0.01 0,-75.63 0,-75.63 0,-0.25 0.25,-0.45 0.56,-0.45 0.12,0 1.03,0 1.14,0 0.31,0 0.57,0.2 0.57,0.45 0,0 0,26.96 0,26.96 0.01,2.43 2.42,4.41 5.4,4.41 2.98,0 5.39,-1.98 5.39,-4.42 0,-0.01 0,-30.3 0,-30.66 0,-6.04 -5.68,-10.69 -12.78,-10.69 -0.18,0 -9.72,0 -14.19,0 0,0 -0.9,0 -2.28,0 -4.47,0 -14.02,0 -14.2,0 -7.1,0 -12.78,4.64 -12.78,10.69 0,0.36 0,30.65 0,30.66 0.01,2.44 2.42,4.42 5.4,4.42 2.98,0 5.4,-1.98 5.4,-4.41 z"
       id="cAlVBNQQ3"
       inkscape:connector-curvature="0" />
    <path
       d="m 169.56,296.61 c -5.72,0 -10.35,3.79 -10.35,8.47 0,4.68 4.63,8.47 10.35,8.47 5.72,0 10.35,-3.79 10.35,-8.47 0,-4.68 -4.63,-8.47 -10.35,-8.47 z"
       id="a7dA4VuBLF"
       inkscape:connector-curvature="0" />
    <path
       d="m 217.42,357.46 c 0,0 0.01,-26.96 0.01,-26.96 0,-0.25 0.25,-0.45 0.56,-0.45 0.11,0 1.03,0 1.14,0 0.31,0 0.56,0.2 0.56,0.45 0,0 0,75.62 0,75.63 0,3.14 3.12,5.69 6.96,5.69 3.84,0 6.96,-2.55 6.96,-5.69 0,-0.01 0,-44.5 0,-44.5 0,-0.32 0.18,-0.46 0.57,-0.46 0.11,0 1.01,0 1.12,0 0.39,0 0.58,0.14 0.58,0.46 0,0 0,44.49 0,44.5 0,3.14 3.11,5.69 6.95,5.69 3.85,0 6.96,-2.55 6.96,-5.69 0,-0.01 0,-75.63 0,-75.63 0,-0.25 0.25,-0.45 0.56,-0.45 0.12,0 1.03,0 1.15,0 0.31,0 0.56,0.2 0.56,0.45 0,0 0,26.96 0,26.96 0.01,2.43 2.42,4.41 5.4,4.41 2.98,0 5.4,-1.98 5.4,-4.42 0,-0.01 0,-30.3 0,-30.66 0,-6.04 -5.68,-10.69 -12.78,-10.69 -0.18,0 -9.73,0 -14.2,0 0,0 -0.9,0 -2.27,0 -4.48,0 -14.02,0 -14.2,0 -7.1,0 -12.78,4.64 -12.78,10.69 0,0.36 0,30.65 0,30.66 0,2.44 2.41,4.42 5.39,4.42 2.98,0 5.4,-1.98 5.4,-4.41 z"
       id="adb8ZIS6c"
       inkscape:connector-curvature="0" />
    <path
       d="m 234.74,296.61 c -5.72,0 -10.35,3.79 -10.35,8.47 0,4.68 4.63,8.47 10.35,8.47 5.72,0 10.36,-3.79 10.36,-8.47 0,-4.68 -4.64,-8.47 -10.36,-8.47 z"
       id="f1pWjQAX7w"
       inkscape:connector-curvature="0" />
    <path
       d="m 280.84,359.15 c 0,0 0.01,-26.95 0.01,-26.95 0,-0.26 0.25,-0.46 0.56,-0.46 0.11,0 1.03,0 1.14,0 0.31,0 0.56,0.2 0.56,0.46 0,0 0,75.61 0,75.62 0,3.14 3.12,5.69 6.96,5.69 3.84,0 6.96,-2.55 6.96,-5.69 0,-0.01 0,-44.5 0,-44.5 0,-0.32 0.18,-0.46 0.57,-0.46 0.11,0 1.01,0 1.12,0 0.39,0 0.58,0.14 0.58,0.46 0,0 0,44.49 0,44.5 0,3.14 3.11,5.69 6.95,5.69 3.85,0 6.96,-2.55 6.96,-5.69 0,-0.01 0,-75.62 0,-75.62 0,-0.26 0.25,-0.46 0.56,-0.46 0.12,0 1.03,0 1.15,0 0.31,0 0.56,0.2 0.56,0.46 0,0 0,26.95 0,26.95 0.01,2.43 2.42,4.41 5.4,4.41 2.98,0 5.4,-1.98 5.4,-4.42 0,-0.01 0,-30.3 0,-30.66 0,-6.04 -5.68,-10.69 -12.78,-10.69 -0.18,0 -9.73,0 -14.2,0 0,0 -0.9,0 -2.27,0 -4.48,0 -14.02,0 -14.2,0 -7.1,0 -12.78,4.65 -12.78,10.69 0,0.36 0,30.65 0,30.66 0,2.44 2.41,4.42 5.39,4.42 2.98,0 5.4,-1.98 5.4,-4.41 z"
       id="b5sYk5lSAA"
       inkscape:connector-curvature="0" />
    <path
       d="m 298.16,298.3 c -5.72,0 -10.35,3.8 -10.35,8.47 0,4.68 4.63,8.47 10.35,8.47 5.72,0 10.36,-3.79 10.36,-8.47 0,-4.67 -4.64,-8.47 -10.36,-8.47 z"
       id="b67ljIVSfB"
       inkscape:connector-curvature="0" />
    <path
       d="m 342.5,360.84 c 0,0 0,-26.95 0,-26.95 0,-0.26 0.25,-0.46 0.57,-0.46 0.11,0 1.02,0 1.14,0 0.31,0 0.56,0.2 0.56,0.46 0,0 0,75.61 0,75.62 0,3.14 3.11,5.69 6.96,5.69 3.84,0 6.95,-2.55 6.95,-5.69 0,-0.01 0,-44.5 0,-44.5 0,-0.32 0.19,-0.46 0.58,-0.46 0.11,0 1.01,0 1.12,0 0.39,0 0.58,0.14 0.58,0.46 0,0 0,44.49 0,44.5 0,3.14 3.11,5.69 6.95,5.69 3.85,0 6.96,-2.55 6.96,-5.69 0,-0.01 0,-75.62 0,-75.62 0,-0.26 0.25,-0.46 0.56,-0.46 0.12,0 1.03,0 1.14,0 0.31,0 0.57,0.2 0.57,0.46 0,0 0,26.95 0,26.95 0.01,2.44 2.42,4.41 5.4,4.41 2.98,0 5.39,-1.98 5.39,-4.41 0,-0.02 0,-30.31 0,-30.67 0,-6.04 -5.68,-10.69 -12.78,-10.69 -0.18,0 -9.72,0 -14.19,0 0,0 -0.9,0 -2.28,0 -4.47,0 -14.02,0 -14.2,0 -7.1,0 -12.77,4.65 -12.77,10.69 0,0.36 0,30.65 0,30.67 0,2.43 2.41,4.41 5.39,4.41 2.98,0 5.4,-1.97 5.4,-4.41 z"
       id="e1DTYu215O"
       inkscape:connector-curvature="0" />
    <path
       d="m 359.82,299.99 c -5.72,0 -10.35,3.8 -10.35,8.47 0,4.68 4.63,8.47 10.35,8.47 5.72,0 10.35,-3.79 10.35,-8.47 0,-4.67 -4.63,-8.47 -10.35,-8.47 z"
       id="b2Qzy3MPr"
       inkscape:connector-curvature="0" />
    <path
       d="m 405.92,362.53 c 0,0 0,-26.95 0,-26.95 0,-0.26 0.25,-0.46 0.57,-0.46 0.11,0 1.02,0 1.14,0 0.31,0 0.56,0.2 0.56,0.46 0,0 0,75.61 0,75.62 0,3.14 3.11,5.69 6.96,5.69 3.84,0 6.95,-2.55 6.95,-5.69 0,-0.01 0,-44.49 0,-44.49 0,-0.33 0.19,-0.46 0.58,-0.46 0.11,0 1.01,0 1.12,0 0.39,0 0.58,0.13 0.58,0.46 0,0 0,44.48 0,44.49 0,3.14 3.11,5.69 6.95,5.69 3.85,0 6.96,-2.55 6.96,-5.69 0,-0.01 0,-75.62 0,-75.62 0,-0.26 0.25,-0.46 0.56,-0.46 0.12,0 1.03,0 1.14,0 0.31,0 0.57,0.2 0.57,0.46 0,0 0,26.95 0,26.95 0.01,2.44 2.42,4.41 5.4,4.41 2.98,0 5.39,-1.98 5.39,-4.41 0,-0.02 0,-30.31 0,-30.67 0,-6.04 -5.68,-10.69 -12.78,-10.69 -0.18,0 -9.72,0 -14.19,0 0,0 -0.9,0 -2.28,0 -4.47,0 -14.01,0 -14.2,0 -7.1,0 -12.77,4.65 -12.77,10.69 0,0.36 0,30.65 0,30.67 0,2.44 2.41,4.41 5.39,4.41 2.98,0 5.4,-1.97 5.4,-4.41 z"
       id="d2IhKKVg7L"
       inkscape:connector-curvature="0" />
    <path
       d="m 423.24,301.69 c -5.72,0 -10.35,3.79 -10.35,8.47 0,4.67 4.63,8.47 10.35,8.47 5.72,0 10.35,-3.8 10.35,-8.47 0,-4.68 -4.63,-8.47 -10.35,-8.47 z"
       id="ctVmghHn2"
       inkscape:connector-curvature="0" />
    <path
       d="m 410.56,230.62 c 0,-0.01 0.01,-26.96 0.01,-26.96 0,-0.25 0.25,-0.46 0.56,-0.46 0.12,0 1.03,0 1.14,0 0.31,0 0.57,0.21 0.57,0.46 0,0 0,75.62 0,75.62 0,3.15 3.11,5.7 6.95,5.7 3.84,0 6.96,-2.55 6.96,-5.7 0,0 0,-44.49 0,-44.49 0,-0.32 0.18,-0.46 0.57,-0.46 0.12,0 1.01,0 1.13,0 0.39,0 0.57,0.14 0.57,0.46 0,0 0,44.49 0,44.49 0,3.15 3.12,5.7 6.96,5.7 3.84,0 6.96,-2.55 6.96,-5.7 0,0 0,-75.62 0,-75.62 0,-0.25 0.25,-0.46 0.56,-0.46 0.11,0 1.03,0 1.14,0 0.31,0 0.56,0.21 0.56,0.46 0,0 0.01,26.95 0.01,26.96 0,2.43 2.42,4.41 5.39,4.41 2.98,0 5.4,-1.98 5.4,-4.42 0,-0.01 0,-30.3 0,-30.66 0,-6.05 -5.68,-10.69 -12.78,-10.69 -0.18,0 -9.72,0 -14.2,0 0,0 -0.9,0 -2.27,0 -4.48,0 -14.02,0 -14.2,0 -7.1,0 -12.78,4.64 -12.78,10.69 0,0.36 0,30.65 0,30.66 0,2.44 2.42,4.42 5.4,4.42 2.98,0 5.39,-1.98 5.39,-4.41 z"
       id="aBUuZtHqX"
       inkscape:connector-curvature="0" />
    <path
       d="m 427.89,169.77 c -5.72,0 -10.36,3.79 -10.36,8.47 0,4.68 4.64,8.47 10.36,8.47 5.71,0 10.35,-3.79 10.35,-8.47 0,-4.68 -4.64,-8.47 -10.35,-8.47 z"
       id="geCMXzSdl"
       inkscape:connector-curvature="0" />
    <path
       d="m 342.5,230.62 c 0,-0.01 0,-26.96 0,-26.96 0,-0.25 0.26,-0.46 0.57,-0.46 0.11,0 1.02,0 1.14,0 0.31,0 0.56,0.21 0.56,0.46 0,0 0,75.62 0,75.62 0,3.15 3.12,5.7 6.96,5.7 3.84,0 6.96,-2.55 6.96,-5.7 0,0 0,-44.49 0,-44.49 0,-0.32 0.18,-0.46 0.57,-0.46 0.11,0 1.01,0 1.12,0 0.39,0 0.58,0.14 0.58,0.46 0,0 0,44.49 0,44.49 0,3.15 3.11,5.7 6.95,5.7 3.85,0 6.96,-2.55 6.96,-5.7 0,0 0,-75.62 0,-75.62 0,-0.25 0.25,-0.46 0.56,-0.46 0.12,0 1.03,0 1.15,0 0.31,0 0.56,0.21 0.56,0.46 0,0 0,26.95 0,26.96 0.01,2.43 2.42,4.41 5.4,4.41 2.98,0 5.4,-1.98 5.4,-4.42 0,-0.01 0,-30.3 0,-30.66 0,-6.05 -5.69,-10.69 -12.78,-10.69 -0.18,0 -9.73,0 -14.2,0 0,0 -0.9,0 -2.28,0 -4.47,0 -14.01,0 -14.19,0 -7.1,0 -12.78,4.64 -12.78,10.69 0,0.36 0,30.65 0,30.66 0,2.44 2.41,4.42 5.39,4.42 2.98,0 5.4,-1.98 5.4,-4.41 z"
       id="cHg2W6L5o"
       inkscape:connector-curvature="0" />
    <path
       d="m 359.82,169.77 c -5.72,0 -10.35,3.79 -10.35,8.47 0,4.68 4.63,8.47 10.35,8.47 5.72,0 10.35,-3.79 10.35,-8.47 0,-4.68 -4.63,-8.47 -10.35,-8.47 z"
       id="a2sZjiGE56"
       inkscape:connector-curvature="0" />
    <path
       d="m 280.84,230.62 c 0,-0.01 0.01,-26.96 0.01,-26.96 0,-0.25 0.25,-0.46 0.56,-0.46 0.11,0 1.03,0 1.14,0 0.31,0 0.56,0.21 0.56,0.46 0,0 0,75.62 0,75.62 0,3.15 3.12,5.7 6.96,5.7 3.84,0 6.96,-2.55 6.96,-5.7 0,0 0,-44.49 0,-44.49 0,-0.32 0.18,-0.46 0.57,-0.46 0.11,0 1.01,0 1.12,0 0.39,0 0.58,0.14 0.58,0.46 0,0 0,44.49 0,44.49 0,3.15 3.11,5.7 6.95,5.7 3.85,0 6.96,-2.55 6.96,-5.7 0,0 0,-75.62 0,-75.62 0,-0.25 0.25,-0.46 0.56,-0.46 0.12,0 1.03,0 1.15,0 0.31,0 0.56,0.21 0.56,0.46 0,0 0,26.95 0,26.96 0.01,2.43 2.42,4.41 5.4,4.41 2.98,0 5.4,-1.98 5.4,-4.42 0,-0.01 0,-30.3 0,-30.66 0,-6.05 -5.68,-10.69 -12.78,-10.69 -0.18,0 -9.73,0 -14.2,0 0,0 -0.9,0 -2.27,0 -4.48,0 -14.02,0 -14.2,0 -7.1,0 -12.78,4.64 -12.78,10.69 0,0.36 0,30.65 0,30.66 0,2.44 2.41,4.42 5.39,4.42 2.98,0 5.4,-1.98 5.4,-4.41 z"
       id="dnkh4PTxE"
       inkscape:connector-curvature="0" />
    <path
       d="m 298.16,169.77 c -5.72,0 -10.35,3.79 -10.35,8.47 0,4.68 4.63,8.47 10.35,8.47 5.72,0 10.36,-3.79 10.36,-8.47 0,-4.68 -4.64,-8.47 -10.36,-8.47 z"
       id="b5vnHN3iCb"
       inkscape:connector-curvature="0" />
    <path
       d="m 217.42,230.62 c 0,-0.01 0.01,-26.96 0.01,-26.96 0,-0.25 0.25,-0.46 0.56,-0.46 0.11,0 1.03,0 1.14,0 0.31,0 0.56,0.21 0.56,0.46 0,0 0,75.62 0,75.62 0,3.15 3.12,5.7 6.96,5.7 3.84,0 6.96,-2.55 6.96,-5.7 0,0 0,-44.49 0,-44.49 0,-0.32 0.18,-0.46 0.57,-0.46 0.11,0 1.01,0 1.12,0 0.39,0 0.58,0.14 0.58,0.46 0,0 0,44.49 0,44.49 0,3.15 3.11,5.7 6.95,5.7 3.85,0 6.96,-2.55 6.96,-5.7 0,0 0,-75.62 0,-75.62 0,-0.25 0.25,-0.46 0.56,-0.46 0.12,0 1.03,0 1.15,0 0.31,0 0.56,0.21 0.56,0.46 0,0 0,26.95 0,26.96 0.01,2.43 2.42,4.41 5.4,4.41 2.98,0 5.4,-1.98 5.4,-4.42 0,-0.01 0,-30.3 0,-30.66 0,-6.05 -5.68,-10.69 -12.78,-10.69 -0.18,0 -9.73,0 -14.2,0 0,0 -0.9,0 -2.27,0 -4.48,0 -14.02,0 -14.2,0 -7.1,0 -12.78,4.64 -12.78,10.69 0,0.36 0,30.65 0,30.66 0,2.44 2.41,4.42 5.39,4.42 2.98,0 5.4,-1.98 5.4,-4.41 z"
       id="a5JTRU6ie"
       inkscape:connector-curvature="0" />
    <path
       d="m 234.74,169.77 c -5.72,0 -10.35,3.79 -10.35,8.47 0,4.68 4.63,8.47 10.35,8.47 5.72,0 10.36,-3.79 10.36,-8.47 0,-4.68 -4.64,-8.47 -10.36,-8.47 z"
       id="b5ucGf73kn"
       inkscape:connector-curvature="0" />
    <path
       d="m 152.24,230.62 c 0,-0.01 0,-26.96 0,-26.96 0,-0.25 0.26,-0.46 0.57,-0.46 0.11,0 1.02,0 1.14,0 0.31,0 0.56,0.21 0.56,0.46 0,0 0,75.62 0,75.62 0,3.15 3.12,5.7 6.96,5.7 3.84,0 6.95,-2.55 6.95,-5.7 0,0 0,-44.49 0,-44.49 0,-0.32 0.19,-0.46 0.58,-0.46 0.11,0 1.01,0 1.12,0 0.39,0 0.58,0.14 0.58,0.46 0,0 0,44.49 0,44.49 0,3.15 3.11,5.7 6.95,5.7 3.85,0 6.96,-2.55 6.96,-5.7 0,0 0,-75.62 0,-75.62 0,-0.25 0.25,-0.46 0.56,-0.46 0.12,0 1.03,0 1.15,0 0.31,0 0.56,0.21 0.56,0.46 0,0 0,26.95 0,26.96 0.01,2.43 2.42,4.41 5.4,4.41 2.98,0 5.39,-1.98 5.39,-4.42 0,-0.01 0,-30.3 0,-30.66 0,-6.05 -5.68,-10.69 -12.77,-10.69 -0.18,0 -9.73,0 -14.2,0 0,0 -0.9,0 -2.28,0 -4.47,0 -14.01,0 -14.19,0 -7.1,0 -12.78,4.64 -12.78,10.69 0,0.36 0,30.65 0,30.66 0,2.44 2.41,4.42 5.39,4.42 2.98,0 5.4,-1.98 5.4,-4.41 z"
       id="bKhkrQDwK"
       inkscape:connector-curvature="0" />
    <path
       d="m 169.56,169.77 c -5.72,0 -10.35,3.79 -10.35,8.47 0,4.68 4.63,8.47 10.35,8.47 5.72,0 10.35,-3.79 10.35,-8.47 0,-4.68 -4.63,-8.47 -10.35,-8.47 z"
       id="a1rbhrzlb4"
       inkscape:connector-curvature="0" />
    <path
       d="m 135.23,145.14 v -6.95 h 8.83 v 6.95 z"
       id="b16jAttWq"
       inkscape:connector-curvature="0" />
    <path
       d="m 144.02,165.95 -0.12,0.58 -0.19,0.54 -0.25,0.51 -0.32,0.47 -0.37,0.43 -0.43,0.37 -0.47,0.32 -0.51,0.25 -0.54,0.19 -0.58,0.12 -0.6,0.04 -0.6,-0.04 -0.57,-0.12 -0.55,-0.19 -0.51,-0.25 -0.47,-0.32 -0.42,-0.37 -0.37,-0.43 -0.32,-0.47 -0.26,-0.51 -0.19,-0.54 -0.11,-0.58 -0.04,-0.6 V 146.4 h 8.83 v 18.95 z"
       id="afVqeFg8S"
       inkscape:connector-curvature="0" />
    <path
       d="m 135.05,136.93 -0.84,-2.53 h 10.87 l -0.84,2.53 z"
       id="h66xbPUYM"
       inkscape:connector-curvature="0" />
    <path
       d="m 155.94,147.46 0.95,1.75 0.89,1.77 0.74,1.67 0.5,1.46 0.19,1.13 -0.14,1.16 -0.38,1.07 -0.59,0.93 -0.78,0.79 -0.94,0.59 -1.06,0.38 -1.16,0.14 -1.16,-0.14 -1.06,-0.38 -0.94,-0.59 -0.78,-0.79 -0.6,-0.93 -0.38,-1.07 -0.13,-1.16 0.19,-1.13 0.5,-1.46 0.74,-1.67 0.88,-1.77 0.96,-1.75 0.94,-1.63 0.84,-1.4 0.84,1.4 z"
       id="a4t7ZHjzyl"
       inkscape:connector-curvature="0" />
    <path
       d="m 200.41,145.14 v -6.95 h 8.83 v 6.95 z"
       id="a3vo0AyT75"
       inkscape:connector-curvature="0" />
    <path
       d="m 209.2,165.95 -0.12,0.58 -0.19,0.54 -0.25,0.51 -0.32,0.47 -0.37,0.43 -0.43,0.37 -0.47,0.32 -0.51,0.25 -0.54,0.19 -0.58,0.12 -0.6,0.04 -0.6,-0.04 -0.57,-0.12 -0.55,-0.19 -0.51,-0.25 -0.47,-0.32 -0.42,-0.37 -0.37,-0.43 -0.32,-0.47 -0.26,-0.51 -0.19,-0.54 -0.11,-0.58 -0.04,-0.6 V 146.4 h 8.83 v 18.95 z"
       id="aNfnqHi41"
       inkscape:connector-curvature="0" />
    <path
       d="m 200.23,136.93 -0.84,-2.53 h 10.87 l -0.84,2.53 z"
       id="j1WsLPSNs7"
       inkscape:connector-curvature="0" />
    <path
       d="m 221.12,147.46 0.96,1.75 0.88,1.77 0.74,1.67 0.5,1.46 0.19,1.13 -0.13,1.16 -0.38,1.07 -0.6,0.93 -0.78,0.79 -0.94,0.59 -1.06,0.38 -1.16,0.14 -1.16,-0.14 -1.06,-0.38 -0.94,-0.59 -0.78,-0.79 -0.6,-0.93 -0.38,-1.07 -0.13,-1.16 0.19,-1.13 0.5,-1.46 0.74,-1.67 0.88,-1.77 0.96,-1.75 0.94,-1.63 0.84,-1.4 0.84,1.4 z"
       id="b1FA5whSEU"
       inkscape:connector-curvature="0" />
    <path
       d="m 263.87,145.14 v -6.95 h 8.84 v 6.95 z"
       id="hlpSCNO9i"
       inkscape:connector-curvature="0" />
    <path
       d="m 272.67,165.95 -0.12,0.58 -0.19,0.54 -0.25,0.51 -0.32,0.47 -0.38,0.43 -0.42,0.37 -0.47,0.32 -0.51,0.25 -0.54,0.19 -0.58,0.12 -0.6,0.04 -0.6,-0.04 -0.57,-0.12 -0.55,-0.19 -0.51,-0.25 -0.47,-0.32 -0.42,-0.37 -0.38,-0.43 -0.31,-0.47 -0.26,-0.51 -0.19,-0.54 -0.12,-0.58 -0.04,-0.6 V 146.4 h 8.84 v 18.95 z"
       id="aAzK0tWuw"
       inkscape:connector-curvature="0" />
    <path
       d="m 263.7,136.93 -0.84,-2.53 h 10.87 l -0.84,2.53 z"
       id="hnrKfbI0"
       inkscape:connector-curvature="0" />
    <path
       d="m 284.59,147.46 0.95,1.75 0.89,1.77 0.74,1.67 0.5,1.46 0.19,1.13 -0.14,1.16 -0.38,1.07 -0.59,0.93 -0.79,0.79 -0.93,0.59 -1.07,0.38 -1.15,0.14 -1.16,-0.14 -1.06,-0.38 -0.94,-0.59 -0.78,-0.79 -0.6,-0.93 -0.38,-1.07 -0.13,-1.16 0.18,-1.13 0.51,-1.46 0.73,-1.67 0.89,-1.77 0.96,-1.75 0.94,-1.63 0.84,-1.4 0.84,1.4 z"
       id="a6wQ3ClLtG"
       inkscape:connector-curvature="0" />
    <path
       d="m 325.49,145.14 v -6.95 h 8.83 v 6.95 z"
       id="b6CXZa2Bm"
       inkscape:connector-curvature="0" />
    <path
       d="m 334.28,165.95 -0.12,0.58 -0.19,0.54 -0.25,0.51 -0.32,0.47 -0.37,0.43 -0.43,0.37 -0.47,0.32 -0.51,0.25 -0.54,0.19 -0.58,0.12 -0.6,0.04 -0.6,-0.04 -0.57,-0.12 -0.55,-0.19 -0.51,-0.25 -0.47,-0.32 -0.42,-0.37 -0.37,-0.43 -0.32,-0.47 -0.26,-0.51 -0.19,-0.54 -0.11,-0.58 -0.04,-0.6 V 146.4 h 8.83 v 18.95 z"
       id="aERqDLMKx"
       inkscape:connector-curvature="0" />
    <path
       d="m 325.31,136.93 -0.84,-2.53 h 10.87 l -0.84,2.53 z"
       id="d2oFigjsLP"
       inkscape:connector-curvature="0" />
    <path
       d="m 346.2,147.46 0.96,1.75 0.88,1.77 0.74,1.67 0.5,1.46 0.19,1.13 -0.14,1.16 -0.37,1.07 -0.6,0.93 -0.78,0.79 -0.94,0.59 -1.06,0.38 -1.16,0.14 -1.16,-0.14 -1.06,-0.38 -0.94,-0.59 -0.78,-0.79 -0.6,-0.93 -0.38,-1.07 -0.13,-1.16 0.19,-1.13 0.5,-1.46 0.74,-1.67 0.88,-1.77 0.96,-1.75 0.94,-1.63 0.84,-1.4 0.84,1.4 z"
       id="e1ZQd2guwY"
       inkscape:connector-curvature="0" />
    <path
       d="m 388.95,145.14 v -6.95 h 8.84 v 6.95 z"
       id="a4zwX0Hqmu"
       inkscape:connector-curvature="0" />
    <path
       d="m 397.75,165.95 -0.12,0.58 -0.19,0.54 -0.25,0.51 -0.32,0.47 -0.38,0.43 -0.42,0.37 -0.47,0.32 -0.51,0.25 -0.55,0.19 -0.57,0.12 -0.6,0.04 -0.6,-0.04 -0.57,-0.12 -0.55,-0.19 -0.51,-0.25 -0.47,-0.32 -0.42,-0.37 -0.38,-0.43 -0.31,-0.47 -0.26,-0.51 -0.19,-0.54 -0.12,-0.58 -0.04,-0.6 V 146.4 h 8.84 v 18.95 z"
       id="cL1orQG9N"
       inkscape:connector-curvature="0" />
    <path
       d="m 388.78,136.93 -0.84,-2.53 h 10.87 l -0.85,2.53 z"
       id="gF3Y6D9rF"
       inkscape:connector-curvature="0" />
    <path
       d="m 409.67,147.46 0.95,1.75 0.89,1.77 0.74,1.67 0.5,1.46 0.19,1.13 -0.14,1.16 -0.38,1.07 -0.59,0.93 -0.79,0.79 -0.93,0.59 -1.07,0.38 -1.15,0.14 -1.16,-0.14 -1.06,-0.38 -0.94,-0.59 -0.78,-0.79 -0.6,-0.93 -0.38,-1.07 -0.13,-1.16 0.18,-1.13 0.51,-1.46 0.73,-1.67 0.89,-1.77 0.96,-1.75 0.94,-1.63 0.84,-1.4 0.84,1.4 z"
       id="c7C7VDomb8"
       inkscape:connector-curvature="0" />
  </defs>
  <g
     id="g364"
     transform="matrix(0.46869922,0,0,0.46938535,71.414112,71.550572)">
    <g
       id="g50">
      <g
         id="g48">
        <use
           xlink:href="#cAlVBNQQ3"
           id="use46"
           style="opacity:1;fill-opacity:0;stroke:#000000;stroke-width:1;stroke-opacity:0"
           x="0"
           y="0"
           width="100%"
           height="100%" />
      </g>
    </g>
    <g
       id="g58">
      <g
         id="g56">
        <use
           xlink:href="#a7dA4VuBLF"
           id="use54"
           style="opacity:1;fill-opacity:0;stroke:#000000;stroke-width:1;stroke-opacity:0"
           x="0"
           y="0"
           width="100%"
           height="100%" />
      </g>
    </g>
    <g
       id="g66">
      <g
         id="g64">
        <use
           xlink:href="#adb8ZIS6c"
           id="use62"
           style="opacity:1;fill-opacity:0;stroke:#000000;stroke-width:1;stroke-opacity:0"
           x="0"
           y="0"
           width="100%"
           height="100%" />
      </g>
    </g>
    <g
       id="g74">
      <g
         id="g72">
        <use
           xlink:href="#f1pWjQAX7w"
           id="use70"
           style="opacity:1;fill-opacity:0;stroke:#000000;stroke-width:1;stroke-opacity:0"
           x="0"
           y="0"
           width="100%"
           height="100%" />
      </g>
    </g>
    <g
       id="g82">
      <g
         id="g80">
        <use
           xlink:href="#b5sYk5lSAA"
           id="use78"
           style="opacity:1;fill-opacity:0;stroke:#000000;stroke-width:1;stroke-opacity:0"
           x="0"
           y="0"
           width="100%"
           height="100%" />
      </g>
    </g>
    <g
       id="g90">
      <g
         id="g88">
        <use
           xlink:href="#b67ljIVSfB"
           id="use86"
           style="opacity:1;fill-opacity:0;stroke:#000000;stroke-width:1;stroke-opacity:0"
           x="0"
           y="0"
           width="100%"
           height="100%" />
      </g>
    </g>
    <g
       id="g98">
      <g
         id="g96">
        <use
           xlink:href="#e1DTYu215O"
           id="use94"
           style="opacity:1;fill-opacity:0;stroke:#000000;stroke-width:1;stroke-opacity:0"
           x="0"
           y="0"
           width="100%"
           height="100%" />
      </g>
    </g>
    <g
       id="g106">
      <g
         id="g104">
        <use
           xlink:href="#b2Qzy3MPr"
           id="use102"
           style="opacity:1;fill-opacity:0;stroke:#000000;stroke-width:1;stroke-opacity:0"
           x="0"
           y="0"
           width="100%"
           height="100%" />
      </g>
    </g>
    <g
       id="g114">
      <g
         id="g112">
        <use
           xlink:href="#d2IhKKVg7L"
           id="use110"
           style="opacity:1;fill-opacity:0;stroke:#000000;stroke-width:1;stroke-opacity:0"
           x="0"
           y="0"
           width="100%"
           height="100%" />
      </g>
    </g>
    <g
       id="g122">
      <g
         id="g120">
        <use
           xlink:href="#ctVmghHn2"
           id="use118"
           style="opacity:1;fill-opacity:0;stroke:#000000;stroke-width:1;stroke-opacity:0"
           x="0"
           y="0"
           width="100%"
           height="100%" />
      </g>
    </g>
    <g
       id="g130">
      <g
         id="g128">
        <use
           xlink:href="#aBUuZtHqX"
           id="use126"
           style="opacity:1;fill-opacity:0;stroke:#000000;stroke-width:1;stroke-opacity:0"
           x="0"
           y="0"
           width="100%"
           height="100%" />
      </g>
    </g>
    <g
       id="g138">
      <g
         id="g136">
        <use
           xlink:href="#geCMXzSdl"
           id="use134"
           style="opacity:1;fill-opacity:0;stroke:#000000;stroke-width:1;stroke-opacity:0"
           x="0"
           y="0"
           width="100%"
           height="100%" />
      </g>
    </g>
    <g
       id="g146">
      <g
         id="g144">
        <use
           xlink:href="#cHg2W6L5o"
           id="use142"
           style="opacity:1;fill-opacity:0;stroke:#000000;stroke-width:1;stroke-opacity:0"
           x="0"
           y="0"
           width="100%"
           height="100%" />
      </g>
    </g>
    <g
       id="g154">
      <g
         id="g152">
        <use
           xlink:href="#a2sZjiGE56"
           id="use150"
           style="opacity:1;fill-opacity:0;stroke:#000000;stroke-width:1;stroke-opacity:0"
           x="0"
           y="0"
           width="100%"
           height="100%" />
      </g>
    </g>
    <g
       id="g162">
      <g
         id="g160">
        <use
           xlink:href="#dnkh4PTxE"
           id="use158"
           style="opacity:1;fill-opacity:0;stroke:#000000;stroke-width:1;stroke-opacity:0"
           x="0"
           y="0"
           width="100%"
           height="100%" />
      </g>
    </g>
    <g
       id="g170">
      <g
         id="g168">
        <use
           xlink:href="#b5vnHN3iCb"
           id="use166"
           style="opacity:1;fill-opacity:0;stroke:#000000;stroke-width:1;stroke-opacity:0"
           x="0"
           y="0"
           width="100%"
           height="100%" />
      </g>
    </g>
    <g
       id="g178">
      <g
         id="g176">
        <use
           xlink:href="#a5JTRU6ie"
           id="use174"
           style="opacity:1;fill-opacity:0;stroke:#000000;stroke-width:1;stroke-opacity:0"
           x="0"
           y="0"
           width="100%"
           height="100%" />
      </g>
    </g>
    <g
       id="g186">
      <g
         id="g184">
        <use
           xlink:href="#b5ucGf73kn"
           id="use182"
           style="opacity:1;fill-opacity:0;stroke:#000000;stroke-width:1;stroke-opacity:0"
           x="0"
           y="0"
           width="100%"
           height="100%" />
      </g>
    </g>
    <g
       id="g194">
      <use
         xlink:href="#bKhkrQDwK"
         id="use188"
         style="opacity:1;fill:#385fa0;fill-opacity:1"
         x="0"
         y="0"
         width="100%"
         height="100%" />
      <g
         id="g192">
        <use
           xlink:href="#bKhkrQDwK"
           id="use190"
           style="opacity:1;fill-opacity:0;stroke:#000000;stroke-width:1;stroke-opacity:0"
           x="0"
           y="0"
           width="100%"
           height="100%" />
      </g>
      <use
         style="opacity:1;fill:#385fa0;fill-opacity:1"
         id="use4866"
         xlink:href="#bKhkrQDwK"
         x="0"
         y="0"
         width="100%"
         height="100%"
         transform="translate(80.1389)" />
      <use
         transform="translate(160.27781)"
         height="100%"
         width="100%"
         y="0"
         x="0"
         xlink:href="#bKhkrQDwK"
         id="use4878"
         style="opacity:1;fill:#385fa0;fill-opacity:1" />
      <use
         style="opacity:1;fill:#385fa0;fill-opacity:1"
         id="use4890"
         xlink:href="#bKhkrQDwK"
         x="0"
         y="0"
         width="100%"
         height="100%"
         transform="translate(240.41672)" />
      <use
         transform="translate(320.55564)"
         height="100%"
         width="100%"
         y="0"
         x="0"
         xlink:href="#bKhkrQDwK"
         id="use4902"
         style="opacity:1;fill:#385fa0;fill-opacity:1" />
      <use
         style="opacity:1;fill:#8c8c8c;fill-opacity:1"
         id="use4914"
         xlink:href="#bKhkrQDwK"
         transform="translate(0,140.24309)"
         x="0"
         y="0"
         width="100%"
         height="100%" />
      <use
         height="100%"
         width="100%"
         y="0"
         x="0"
         transform="translate(80.1389,140.24309)"
         xlink:href="#bKhkrQDwK"
         id="use4918"
         style="opacity:1;fill:#8c8c8c;fill-opacity:1" />
      <use
         style="opacity:1;fill:#8c8c8c;fill-opacity:1"
         id="use4922"
         xlink:href="#bKhkrQDwK"
         transform="translate(160.27782,140.24309)"
         x="0"
         y="0"
         width="100%"
         height="100%" />
      <use
         height="100%"
         width="100%"
         y="0"
         x="0"
         transform="translate(240.41674,140.24309)"
         xlink:href="#bKhkrQDwK"
         id="use4926"
         style="opacity:1;fill:#8c8c8c;fill-opacity:1" />
      <use
         style="opacity:1;fill:#8c8c8c;fill-opacity:1"
         id="use4930"
         xlink:href="#bKhkrQDwK"
         transform="translate(320.55566,140.24309)"
         x="0"
         y="0"
         width="100%"
         height="100%" />
    </g>
    <g
       id="g202">
      <use
         xlink:href="#a1rbhrzlb4"
         id="use196"
         style="opacity:1;fill:#385fa0;fill-opacity:1"
         x="0"
         y="0"
         width="100%"
         height="100%" />
      <g
         id="g200">
        <use
           xlink:href="#a1rbhrzlb4"
           id="use198"
           style="opacity:1;fill-opacity:0;stroke:#000000;stroke-width:1;stroke-opacity:0"
           x="0"
           y="0"
           width="100%"
           height="100%" />
      </g>
      <use
         style="opacity:1;fill:#385fa0;fill-opacity:1"
         id="use4868"
         xlink:href="#a1rbhrzlb4"
         x="0"
         y="0"
         width="100%"
         height="100%"
         transform="translate(80.1389)" />
      <use
         transform="translate(160.27781)"
         height="100%"
         width="100%"
         y="0"
         x="0"
         xlink:href="#a1rbhrzlb4"
         id="use4880"
         style="opacity:1;fill:#385fa0;fill-opacity:1" />
      <use
         style="opacity:1;fill:#385fa0;fill-opacity:1"
         id="use4892"
         xlink:href="#a1rbhrzlb4"
         x="0"
         y="0"
         width="100%"
         height="100%"
         transform="translate(240.41672)" />
      <use
         transform="translate(320.55564)"
         height="100%"
         width="100%"
         y="0"
         x="0"
         xlink:href="#a1rbhrzlb4"
         id="use4904"
         style="opacity:1;fill:#385fa0;fill-opacity:1" />
      <use
         style="opacity:1;fill:#8c8c8c;fill-opacity:1"
         id="use4916"
         xlink:href="#a1rbhrzlb4"
         transform="translate(0,140.24309)"
         x="0"
         y="0"
         width="100%"
         height="100%" />
      <use
         height="100%"
         width="100%"
         y="0"
         x="0"
         transform="translate(80.1389,140.24309)"
         xlink:href="#a1rbhrzlb4"
         id="use4920"
         style="opacity:1;fill:#8c8c8c;fill-opacity:1" />
      <use
         style="opacity:1;fill:#8c8c8c;fill-opacity:1"
         id="use4924"
         xlink:href="#a1rbhrzlb4"
         transform="translate(160.27782,140.24309)"
         x="0"
         y="0"
         width="100%"
         height="100%" />
      <use
         height="100%"
         width="100%"
         y="0"
         x="0"
         transform="translate(240.41674,140.24309)"
         xlink:href="#a1rbhrzlb4"
         id="use4928"
         style="opacity:1;fill:#8c8c8c;fill-opacity:1" />
      <use
         style="opacity:1;fill:#8c8c8c;fill-opacity:1"
         id="use4932"
         xlink:href="#a1rbhrzlb4"
         transform="translate(320.55566,140.24309)"
         x="0"
         y="0"
         width="100%"
         height="100%" />
    </g>
    <g
       id="g210">
      <use
         xlink:href="#b16jAttWq"
         id="use204"
         style="opacity:1;fill:#385fa0;fill-opacity:1"
         x="0"
         y="0"
         width="100%"
         height="100%" />
      <g
         id="g208">
        <use
           xlink:href="#b16jAttWq"
           id="use206"
           style="opacity:1;fill-opacity:0;stroke:#000000;stroke-width:1;stroke-opacity:0"
           x="0"
           y="0"
           width="100%"
           height="100%" />
      </g>
      <use
         style="opacity:1;fill:#385fa0;fill-opacity:1"
         id="use4870"
         xlink:href="#b16jAttWq"
         x="0"
         y="0"
         width="100%"
         height="100%"
         transform="translate(80.1389)" />
      <use
         transform="translate(160.27781)"
         height="100%"
         width="100%"
         y="0"
         x="0"
         xlink:href="#b16jAttWq"
         id="use4882"
         style="opacity:1;fill:#385fa0;fill-opacity:1" />
      <use
         style="opacity:1;fill:#385fa0;fill-opacity:1"
         id="use4894"
         xlink:href="#b16jAttWq"
         x="0"
         y="0"
         width="100%"
         height="100%"
         transform="translate(240.41672)" />
      <use
         transform="translate(320.55564)"
         height="100%"
         width="100%"
         y="0"
         x="0"
         xlink:href="#b16jAttWq"
         id="use4906"
         style="opacity:1;fill:#385fa0;fill-opacity:1" />
    </g>
    <g
       id="g218">
      <use
         xlink:href="#afVqeFg8S"
         id="use212"
         style="opacity:1;fill:#385fa0;fill-opacity:1"
         x="0"
         y="0"
         width="100%"
         height="100%" />
      <g
         id="g216">
        <use
           xlink:href="#afVqeFg8S"
           id="use214"
           style="opacity:1;fill-opacity:0;stroke:#000000;stroke-width:1;stroke-opacity:0"
           x="0"
           y="0"
           width="100%"
           height="100%" />
      </g>
      <use
         style="opacity:1;fill:#385fa0;fill-opacity:1"
         id="use4872"
         xlink:href="#afVqeFg8S"
         x="0"
         y="0"
         width="100%"
         height="100%"
         transform="translate(80.1389)" />
      <use
         transform="translate(160.27781)"
         height="100%"
         width="100%"
         y="0"
         x="0"
         xlink:href="#afVqeFg8S"
         id="use4884"
         style="opacity:1;fill:#385fa0;fill-opacity:1" />
      <use
         style="opacity:1;fill:#385fa0;fill-opacity:1"
         id="use4896"
         xlink:href="#afVqeFg8S"
         x="0"
         y="0"
         width="100%"
         height="100%"
         transform="translate(240.41672)" />
      <use
         transform="translate(320.55564)"
         height="100%"
         width="100%"
         y="0"
         x="0"
         xlink:href="#afVqeFg8S"
         id="use4908"
         style="opacity:1;fill:#385fa0;fill-opacity:1" />
    </g>
    <g
       id="g226">
      <use
         xlink:href="#h66xbPUYM"
         id="use220"
         style="opacity:1;fill:#385fa0;fill-opacity:1"
         x="0"
         y="0"
         width="100%"
         height="100%" />
      <g
         id="g224">
        <use
           xlink:href="#h66xbPUYM"
           id="use222"
           style="opacity:1;fill-opacity:0;stroke:#000000;stroke-width:1;stroke-opacity:0"
           x="0"
           y="0"
           width="100%"
           height="100%" />
      </g>
      <use
         style="opacity:1;fill:#385fa0;fill-opacity:1"
         id="use4874"
         xlink:href="#h66xbPUYM"
         x="0"
         y="0"
         width="100%"
         height="100%"
         transform="translate(80.1389)" />
      <use
         transform="translate(160.27781)"
         height="100%"
         width="100%"
         y="0"
         x="0"
         xlink:href="#h66xbPUYM"
         id="use4886"
         style="opacity:1;fill:#385fa0;fill-opacity:1" />
      <use
         style="opacity:1;fill:#385fa0;fill-opacity:1"
         id="use4898"
         xlink:href="#h66xbPUYM"
         x="0"
         y="0"
         width="100%"
         height="100%"
         transform="translate(240.41672)" />
      <use
         transform="translate(320.55564)"
         height="100%"
         width="100%"
         y="0"
         x="0"
         xlink:href="#h66xbPUYM"
         id="use4910"
         style="opacity:1;fill:#385fa0;fill-opacity:1" />
    </g>
    <g
       id="g234">
      <use
         xlink:href="#a4t7ZHjzyl"
         id="use228"
         style="opacity:1;fill:#385fa0;fill-opacity:1"
         x="0"
         y="0"
         width="100%"
         height="100%" />
      <g
         id="g232">
        <use
           xlink:href="#a4t7ZHjzyl"
           id="use230"
           style="opacity:1;fill-opacity:0;stroke:#000000;stroke-width:1;stroke-opacity:0"
           x="0"
           y="0"
           width="100%"
           height="100%" />
      </g>
      <use
         style="opacity:1;fill:#385fa0;fill-opacity:1"
         id="use4876"
         xlink:href="#a4t7ZHjzyl"
         x="0"
         y="0"
         width="100%"
         height="100%"
         transform="translate(80.1389)" />
      <use
         transform="translate(160.27781)"
         height="100%"
         width="100%"
         y="0"
         x="0"
         xlink:href="#a4t7ZHjzyl"
         id="use4888"
         style="opacity:1;fill:#385fa0;fill-opacity:1" />
      <use
         style="opacity:1;fill:#385fa0;fill-opacity:1"
         id="use4900"
         xlink:href="#a4t7ZHjzyl"
         x="0"
         y="0"
         width="100%"
         height="100%"
         transform="translate(240.41672)" />
      <use
         transform="translate(320.55564)"
         height="100%"
         width="100%"
         y="0"
         x="0"
         xlink:href="#a4t7ZHjzyl"
         id="use4912"
         style="opacity:1;fill:#385fa0;fill-opacity:1" />
    </g>
    <g
       id="g242">
      <g
         id="g240">
        <use
           xlink:href="#a3vo0AyT75"
           id="use238"
           style="opacity:1;fill-opacity:0;stroke:#000000;stroke-width:1;stroke-opacity:0"
           x="0"
           y="0"
           width="100%"
           height="100%" />
      </g>
    </g>
    <g
       id="g250">
      <g
         id="g248">
        <use
           xlink:href="#aNfnqHi41"
           id="use246"
           style="opacity:1;fill-opacity:0;stroke:#000000;stroke-width:1;stroke-opacity:0"
           x="0"
           y="0"
           width="100%"
           height="100%" />
      </g>
    </g>
    <g
       id="g258">
      <g
         id="g256">
        <use
           xlink:href="#j1WsLPSNs7"
           id="use254"
           style="opacity:1;fill-opacity:0;stroke:#000000;stroke-width:1;stroke-opacity:0"
           x="0"
           y="0"
           width="100%"
           height="100%" />
      </g>
    </g>
    <g
       id="g266">
      <g
         id="g264">
        <use
           xlink:href="#b1FA5whSEU"
           id="use262"
           style="opacity:1;fill-opacity:0;stroke:#000000;stroke-width:1;stroke-opacity:0"
           x="0"
           y="0"
           width="100%"
           height="100%" />
      </g>
    </g>
    <g
       id="g274">
      <g
         id="g272">
        <use
           xlink:href="#hlpSCNO9i"
           id="use270"
           style="opacity:1;fill-opacity:0;stroke:#000000;stroke-width:1;stroke-opacity:0"
           x="0"
           y="0"
           width="100%"
           height="100%" />
      </g>
    </g>
    <g
       id="g282">
      <g
         id="g280">
        <use
           xlink:href="#aAzK0tWuw"
           id="use278"
           style="opacity:1;fill-opacity:0;stroke:#000000;stroke-width:1;stroke-opacity:0"
           x="0"
           y="0"
           width="100%"
           height="100%" />
      </g>
    </g>
    <g
       id="g290">
      <g
         id="g288">
        <use
           xlink:href="#hnrKfbI0"
           id="use286"
           style="opacity:1;fill-opacity:0;stroke:#000000;stroke-width:1;stroke-opacity:0"
           x="0"
           y="0"
           width="100%"
           height="100%" />
      </g>
    </g>
    <g
       id="g298">
      <g
         id="g296">
        <use
           xlink:href="#a6wQ3ClLtG"
           id="use294"
           style="opacity:1;fill-opacity:0;stroke:#000000;stroke-width:1;stroke-opacity:0"
           x="0"
           y="0"
           width="100%"
           height="100%" />
      </g>
    </g>
    <g
       id="g306">
      <g
         id="g304">
        <use
           xlink:href="#b6CXZa2Bm"
           id="use302"
           style="opacity:1;fill-opacity:0;stroke:#000000;stroke-width:1;stroke-opacity:0"
           x="0"
           y="0"
           width="100%"
           height="100%" />
      </g>
    </g>
    <g
       id="g314">
      <g
         id="g312">
        <use
           xlink:href="#aERqDLMKx"
           id="use310"
           style="opacity:1;fill-opacity:0;stroke:#000000;stroke-width:1;stroke-opacity:0"
           x="0"
           y="0"
           width="100%"
           height="100%" />
      </g>
    </g>
    <g
       id="g322">
      <g
         id="g320">
        <use
           xlink:href="#d2oFigjsLP"
           id="use318"
           style="opacity:1;fill-opacity:0;stroke:#000000;stroke-width:1;stroke-opacity:0"
           x="0"
           y="0"
           width="100%"
           height="100%" />
      </g>
    </g>
    <g
       id="g330">
      <g
         id="g328">
        <use
           xlink:href="#e1ZQd2guwY"
           id="use326"
           style="opacity:1;fill-opacity:0;stroke:#000000;stroke-width:1;stroke-opacity:0"
           x="0"
           y="0"
           width="100%"
           height="100%" />
      </g>
    </g>
    <g
       id="g338">
      <g
         id="g336">
        <use
           xlink:href="#a4zwX0Hqmu"
           id="use334"
           style="opacity:1;fill-opacity:0;stroke:#000000;stroke-width:1;stroke-opacity:0"
           x="0"
           y="0"
           width="100%"
           height="100%" />
      </g>
    </g>
    <g
       id="g346">
      <g
         id="g344">
        <use
           xlink:href="#cL1orQG9N"
           id="use342"
           style="opacity:1;fill-opacity:0;stroke:#000000;stroke-width:1;stroke-opacity:0"
           x="0"
           y="0"
           width="100%"
           height="100%" />
      </g>
    </g>
    <g
       id="g354">
      <g
         id="g352">
        <use
           xlink:href="#gF3Y6D9rF"
           id="use350"
           style="opacity:1;fill-opacity:0;stroke:#000000;stroke-width:1;stroke-opacity:0"
           x="0"
           y="0"
           width="100%"
           height="100%" />
      </g>
    </g>
    <g
       id="g362">
      <g
         id="g360">
        <use
           xlink:href="#c7C7VDomb8"
           id="use358"
           style="opacity:1;fill-opacity:0;stroke:#000000;stroke-width:1;stroke-opacity:0"
           x="0"
           y="0"
           width="100%"
           height="100%" />
      </g>
    </g>
  </g>
</svg>
