<?xml version="1.0" encoding="UTF-8" standalone="no"?>
<!-- Generator: Adobe Illustrator 18.0.0, SVG Export Plug-In . SVG Version: 6.00 Build 0)  -->

<svg
   xmlns:dc="http://purl.org/dc/elements/1.1/"
   xmlns:cc="http://creativecommons.org/ns#"
   xmlns:rdf="http://www.w3.org/1999/02/22-rdf-syntax-ns#"
   xmlns:svg="http://www.w3.org/2000/svg"
   xmlns="http://www.w3.org/2000/svg"
   xmlns:sodipodi="http://sodipodi.sourceforge.net/DTD/sodipodi-0.dtd"
   xmlns:inkscape="http://www.inkscape.org/namespaces/inkscape"
   version="1.1"
   id="Capa_1"
   x="0px"
   y="0px"
   viewBox="0 0 50 50"
   xml:space="preserve"
   sodipodi:docname="dna.svg"
   width="50"
   height="50"
   inkscape:version="0.92.2 5c3e80d, 2017-08-06"><metadata
     id="metadata41"><rdf:RDF><cc:Work
         rdf:about=""><dc:format>image/svg+xml</dc:format><dc:type
           rdf:resource="http://purl.org/dc/dcmitype/StillImage" /><dc:title></dc:title></cc:Work></rdf:RDF></metadata><defs
     id="defs39" /><sodipodi:namedview
     pagecolor="#ffffff"
     bordercolor="#666666"
     borderopacity="1"
     objecttolerance="10"
     gridtolerance="10"
     guidetolerance="10"
     inkscape:pageopacity="0"
     inkscape:pageshadow="2"
     inkscape:window-width="1447"
     inkscape:window-height="854"
     id="namedview37"
     showgrid="false"
     inkscape:showpageshadow="false"
     fit-margin-top="0"
     fit-margin-left="0"
     fit-margin-right="0"
     fit-margin-bottom="0"
     inkscape:zoom="6.4099998"
     inkscape:cx="32.794263"
     inkscape:cy="20.6847"
     inkscape:window-x="0"
     inkscape:window-y="0"
     inkscape:window-maximized="0"
     inkscape:current-layer="Capa_1" /><g
     id="g4"
     style="fill:#efefef;fill-opacity:1"
     transform="matrix(0.18546636,0,0,0.15742677,-4.5468868,0)"><path
       d="m 238.401,317.608 c -11.703,0 -21.252,-9.398 -21.495,-21.045 H 100.703 c -0.243,11.646 -9.792,21.045 -21.495,21.045 -11.855,0 -21.5,-9.645 -21.5,-21.5 0,-32.243 4.688,-60.492 13.933,-83.963 7.816,-19.841 18.88,-36.373 32.882,-49.137 1.59,-1.449 3.222,-2.853 4.888,-4.204 -1.665,-1.352 -3.297,-2.755 -4.888,-4.204 C 90.521,141.836 79.459,125.304 71.641,105.462 62.395,81.992 57.708,53.743 57.708,21.5 57.708,9.645 67.353,0 79.208,0 90.911,0 100.46,9.398 100.703,21.045 H 216.906 C 217.149,9.398 226.698,0 238.401,0 c 11.855,0 21.5,9.645 21.5,21.5 0,32.243 -4.688,60.492 -13.933,83.963 -7.817,19.842 -18.88,36.374 -32.882,49.138 -1.591,1.45 -3.223,2.854 -4.888,4.204 1.666,1.352 3.297,2.755 4.888,4.204 v 0 c 14.002,12.764 25.065,29.296 32.882,49.137 9.245,23.471 13.933,51.72 13.933,83.963 0,11.855 -9.645,21.499 -21.5,21.499 z M 85.98,281.563 h 145.645 l 0.18,7.316 c 0.065,2.695 0.097,4.992 0.097,7.229 0,3.584 2.916,6.5 6.5,6.5 3.584,0 6.5,-2.916 6.5,-6.5 0,-30.354 -4.337,-56.753 -12.89,-78.465 -6.969,-17.69 -16.735,-32.342 -29.03,-43.549 v 0 c -3.65,-3.328 -7.544,-6.368 -11.573,-9.037 l -9.44,-6.254 9.441,-6.252 c 4.024,-2.665 7.918,-5.706 11.572,-9.037 12.294,-11.206 22.062,-25.858 29.03,-43.55 8.553,-21.712 12.89,-48.111 12.89,-78.465 0,-3.584 -2.916,-6.5 -6.5,-6.5 -3.584,0 -6.5,2.916 -6.5,6.5 0,2.217 -0.03,4.513 -0.096,7.226 l -0.177,7.319 H 85.98 l -0.177,-7.319 c -0.065,-2.713 -0.096,-5.009 -0.096,-7.226 0,-3.584 -2.916,-6.5 -6.5,-6.5 -3.584,0 -6.5,2.916 -6.5,6.5 0,30.354 4.337,56.753 12.89,78.465 6.969,17.691 16.736,32.344 29.03,43.55 3.651,3.329 7.546,6.369 11.573,9.037 l 9.438,6.252 -9.438,6.253 c -4.032,2.672 -7.927,5.713 -11.574,9.038 -12.295,11.207 -22.062,25.858 -29.03,43.549 -8.553,21.712 -12.89,48.111 -12.89,78.465 0,3.584 2.916,6.5 6.5,6.5 3.584,0 6.5,-2.916 6.5,-6.5 0,-2.217 0.03,-4.513 0.096,-7.226 z m 145.401,-5 H 86.224 l 0.863,-8.278 c 0.686,-6.571 1.65,-12.993 2.867,-19.086 l 1.204,-6.032 h 135.267 l 1.208,6.025 c 1.224,6.101 2.192,12.523 2.88,19.09 z m -128.339,-15 h 111.514 c -0.167,-1.141 -0.344,-2.273 -0.529,-3.396 H 103.568 c -0.185,1.123 -0.36,2.255 -0.526,3.396 z M 225.437,238.167 H 92.143 l 3.406,-9.933 c 2.412,-7.034 5.296,-13.64 8.571,-19.635 l 2.134,-3.904 h 105.027 l 2.135,3.896 c 3.285,5.998 6.179,12.604 8.599,19.634 z m -111.798,-15 h 90.274 c -0.528,-1.179 -1.071,-2.337 -1.63,-3.472 h -87.021 c -0.554,1.135 -1.096,2.293 -1.623,3.472 z m 96.405,-23.472 H 107.48 l 12.468,-12.745 c 15.47,-15.813 31.37,-20.205 37.488,-21.359 l 1.396,-0.263 1.395,0.265 c 6.072,1.153 21.865,5.544 37.342,21.356 z m -62.127,-15 h 21.732 c -4.646,-2.346 -8.499,-3.511 -10.829,-4.066 -2.346,0.556 -6.231,1.721 -10.903,4.066 z m 10.887,-32.418 -1.395,-0.264 c -6.114,-1.157 -22.004,-5.554 -37.463,-21.355 l -12.468,-12.745 h 102.65 l -12.468,12.745 c -15.459,15.802 -31.349,20.198 -37.463,21.355 z m -10.889,-19.364 c 4.667,2.344 8.546,3.509 10.89,4.063 2.344,-0.555 6.223,-1.72 10.89,-4.063 z m 63.441,-20 H 106.252 l -2.133,-3.905 c -3.277,-6 -6.161,-12.605 -8.571,-19.634 l -3.406,-9.933 h 133.324 l -3.406,9.933 c -2.41,7.028 -5.294,13.634 -8.571,19.634 z m -96.093,-15 h 87.082 c 0.557,-1.136 1.099,-2.293 1.625,-3.472 h -90.332 c 0.527,1.179 1.069,2.336 1.625,3.472 z M 226.45,74.441 H 91.159 L 89.955,68.409 C 88.739,62.319 87.774,55.898 87.088,49.324 l -0.865,-8.279 h 145.162 l -0.863,8.278 c -0.686,6.571 -1.65,12.993 -2.867,19.086 z m -122.882,-15 h 110.473 c 0.185,-1.123 0.36,-2.255 0.526,-3.396 H 103.041 c 0.167,1.141 0.342,2.273 0.527,3.396 z"
       id="path2"
       style="fill:#ffffff;fill-opacity:1"
       inkscape:connector-curvature="0" /></g><g
     id="g6"
     style="fill:#efefef;fill-opacity:1"
     transform="matrix(0.18546636,0,0,0.15742677,-4.5468868,0)" /><g
     id="g8"
     style="fill:#efefef;fill-opacity:1"
     transform="matrix(0.18546636,0,0,0.15742677,-4.5468868,0)" /><g
     id="g10"
     style="fill:#efefef;fill-opacity:1"
     transform="matrix(0.18546636,0,0,0.15742677,-4.5468868,0)" /><g
     id="g12"
     style="fill:#efefef;fill-opacity:1"
     transform="matrix(0.18546636,0,0,0.15742677,-4.5468868,0)" /><g
     id="g14"
     style="fill:#efefef;fill-opacity:1"
     transform="matrix(0.18546636,0,0,0.15742677,-4.5468868,0)" /><g
     id="g16"
     style="fill:#efefef;fill-opacity:1"
     transform="matrix(0.18546636,0,0,0.15742677,-4.5468868,0)" /><g
     id="g18"
     style="fill:#efefef;fill-opacity:1"
     transform="matrix(0.18546636,0,0,0.15742677,-4.5468868,0)" /><g
     id="g20"
     style="fill:#efefef;fill-opacity:1"
     transform="matrix(0.18546636,0,0,0.15742677,-4.5468868,0)" /><g
     id="g22"
     style="fill:#efefef;fill-opacity:1"
     transform="matrix(0.18546636,0,0,0.15742677,-4.5468868,0)" /><g
     id="g24"
     style="fill:#efefef;fill-opacity:1"
     transform="matrix(0.18546636,0,0,0.15742677,-4.5468868,0)" /><g
     id="g26"
     style="fill:#efefef;fill-opacity:1"
     transform="matrix(0.18546636,0,0,0.15742677,-4.5468868,0)" /><g
     id="g28"
     style="fill:#efefef;fill-opacity:1"
     transform="matrix(0.18546636,0,0,0.15742677,-4.5468868,0)" /><g
     id="g30"
     style="fill:#efefef;fill-opacity:1"
     transform="matrix(0.18546636,0,0,0.15742677,-4.5468868,0)" /><g
     id="g32"
     style="fill:#efefef;fill-opacity:1"
     transform="matrix(0.18546636,0,0,0.15742677,-4.5468868,0)" /><g
     id="g34"
     style="fill:#efefef;fill-opacity:1"
     transform="matrix(0.18546636,0,0,0.15742677,-4.5468868,0)" /><path
     style="fill:#efefef;fill-opacity:1;stroke-width:0.11497972"
     d=""
     id="path43"
     inkscape:connector-curvature="0" /><path
     style="fill:#385fa0;fill-opacity:1;stroke-width:0.11497972"
     d="m 9.7133802,47.56865 c -0.137279,-0.0499 -0.361919,-0.19737 -0.4992,-0.32772 -0.229675,-0.21807 -0.247806,-0.37143 -0.227129,-1.92128 0.07862,-5.89302 1.7238588,-11.09202 4.7312648,-14.95091 1.196658,-1.53547 3.520837,-3.48744 5.386264,-4.52368 0.7722,-0.42895 1.402255,-0.80755 1.400125,-0.84132 -0.0022,-0.0338 -0.604253,-0.3951 -1.338046,-0.80294 C 17.292232,23.159 14.876125,21.11738 13.666881,19.55345 10.685221,15.69725 9.0650812,10.54191 8.9870512,4.66208 l -0.02246,-1.69315 0.343199,-0.29267 c 0.478303,-0.4079 1.2048788,-0.40861 1.6848008,-0.002 0.333916,0.28314 0.344312,0.32821 0.384318,1.66603 l 0.04112,1.37501 H 24.869541 38.32106 l 0.07936,-0.49148 c 0.04365,-0.27032 0.07937,-0.88306 0.07937,-1.36165 0,-0.77317 0.0336,-0.90094 0.301363,-1.14619 0.383801,-0.35152 0.8495,-0.45037 1.328431,-0.28198 0.661346,0.23252 0.741539,0.43853 0.740119,1.90127 -0.0056,5.88418 -1.773394,11.557 -4.770734,15.31011 -1.554672,1.94668 -3.17014,3.26975 -5.867668,4.80563 l -0.967688,0.55097 1.279686,0.72765 c 4.334982,2.46493 7.047123,5.71923 8.745845,10.49414 1.00396,2.82202 1.577513,6.2546 1.580559,9.45927 0.0013,1.29239 -0.01272,1.36734 -0.299966,1.61116 -0.393495,0.334 -0.861004,0.4261 -1.32854,0.26172 -0.612563,-0.21537 -0.741251,-0.47136 -0.742782,-1.47754 -7.41e-4,-0.49684 -0.03618,-1.0821 -0.07873,-1.30058 l -0.07735,-0.39725 H 24.870428 11.418538 l -0.04137,1.32204 c -0.039,1.24599 -0.05933,1.33726 -0.353378,1.58642 -0.346722,0.2938 -0.929048,0.41792 -1.3103998,0.27931 z M 38.291532,42.92431 c -0.157062,-1.17517 -0.566753,-3.47503 -0.721794,-4.0519 l -0.156588,-0.58263 -12.499684,-0.027 c -11.823866,-0.0255 -12.503443,-0.0169 -12.569179,0.1589 -0.152377,0.4076 -0.68575,3.31374 -0.768053,4.18483 l -0.08758,0.9269 h 13.442145 13.44214 z M 37.163008,37.25694 C 36.809923,36.2737 35.833985,34.2043 35.305969,33.31923 l -0.636905,-1.06758 -9.750416,-0.0271 -9.750416,-0.0271 -0.564261,0.92755 c -0.619283,1.01799 -0.869646,1.52757 -1.587741,3.23158 l -0.479892,1.13877 H 24.892467 37.248599 Z M 32.799579,30.0726 c -0.89133,-0.76151 -2.060904,-1.66826 -2.599053,-2.015 -1.114761,-0.71827 -2.832257,-1.45565 -4.194657,-1.80091 -0.84133,-0.21322 -1.000647,-0.22326 -1.67249,-0.10548 -1.518674,0.26626 -3.522177,1.08665 -4.962954,2.03222 -0.743561,0.488 -3.853845,3.06473 -3.853845,3.19274 0,0.0445 4.25331,0.081 9.451799,0.081 h 9.451799 z m -6.525442,-6.41405 c 2.375822,-0.63615 4.094304,-1.60707 6.436755,-3.6367 l 1.656713,-1.43546 -9.383118,-0.0272 c -5.160715,-0.0149 -9.413459,-0.001 -9.450541,0.0301 -0.120086,0.10193 2.883937,2.58801 3.976234,3.29066 1.225071,0.78806 2.925763,1.53359 4.180799,1.83273 1.157416,0.27586 1.36709,0.27147 2.583158,-0.0541 z m 9.106984,-7.11884 c 0.584711,-0.99075 1.35095,-2.62868 1.780518,-3.80607 l 0.08695,-0.23835 H 24.947386 c -10.813891,0 -12.301208,0.0191 -12.301208,0.15782 0,0.29501 1.275635,3.06872 1.888632,4.1066 l 0.610406,1.03348 9.76408,-0.0271 9.76408,-0.0271 z m 2.030231,-4.88141 c 0.157437,-0.21622 0.943627,-4.46472 0.943627,-5.09927 0,-0.0646 -4.917042,-0.10188 -13.433162,-0.10188 H 11.488656 l 0.08758,0.92691 c 0.08225,0.87053 0.615641,3.77713 0.767864,4.18432 0.0654,0.17493 0.772438,0.18538 12.533527,0.18538 7.263216,0 12.493225,-0.0398 12.533728,-0.0955 z"
     id="path852"
     inkscape:connector-curvature="0" /><path
     style="fill:#385fa0;fill-opacity:1;stroke-width:0.14016725"
     d="m 16.799235,15.26461 c -0.06638,-0.10823 -0.155742,-0.32076 -0.198563,-0.47228 -0.07366,-0.26062 0.373667,-0.2755 8.279826,-0.2755 4.596723,0 8.357681,0.0308 8.357681,0.0685 0,0.0377 -0.05477,0.25019 -0.121711,0.47228 l -0.121711,0.40382 h -8.037408 c -6.282347,0 -8.063765,-0.043 -8.158114,-0.19678 z"
     id="path854"
     inkscape:connector-curvature="0" /><path
     style="fill:#385fa0;fill-opacity:1;stroke-width:0.15354554"
     d="m 14.608709,8.95044 c -0.03485,-0.20179 -0.03205,-0.41432 0.0063,-0.47228 0.0383,-0.058 4.693468,-0.1054 10.344829,-0.1054 h 10.275198 v 0.47228 0.47228 h -10.2815 c -10.074304,0 -10.282722,-0.007 -10.344827,-0.36688 z"
     id="path860"
     inkscape:connector-curvature="0" /><path
     style="fill:#385fa0;fill-opacity:1;stroke-width:0.13331272"
     d="m 24.003336,21.24943 c -0.445963,-0.19582 -0.864354,-0.4171 -0.92976,-0.49173 -0.07536,-0.086 0.575972,-0.13569 1.778045,-0.13569 1.043328,0 1.896959,0.0522 1.896959,0.11607 0,0.0916 -1.080386,0.58477 -1.8096,0.8261 -0.06864,0.0227 -0.489679,-0.11892 -0.935644,-0.31475 z"
     id="path864"
     inkscape:connector-curvature="0" /><path
     style="fill:#385fa0;fill-opacity:1;stroke-width:0.05053664"
     d="m 23.256757,28.85677 c 0.398109,-0.2456 1.041134,-0.55746 1.403102,-0.6805 0.254813,-0.0866 0.276953,-0.0848 0.637788,0.0524 0.401426,0.1526 0.852771,0.37914 1.312493,0.65876 l 0.286801,0.17445 -1.985555,-4.7e-4 -1.985555,-4.7e-4 0.330926,-0.20415 z"
     id="path866"
     inkscape:connector-curvature="0" /><path
     style="fill:#385fa0;fill-opacity:1;stroke-width:0.05271136"
     d="m 16.54999,35.10381 c 0,-0.017 0.06223,-0.22954 0.138279,-0.47228 l 0.138276,-0.44135 h 8.067944 8.067941 l 0.113194,0.31878 c 0.06225,0.17534 0.131592,0.38786 0.154085,0.47228 l 0.04089,0.1535 h -8.360305 c -4.598168,0 -8.360303,-0.0139 -8.360303,-0.0309 z"
     id="path868"
     inkscape:connector-curvature="0" /><path
     style="fill:#385fa0;fill-opacity:1;stroke-width:0.10912278"
     d="m 14.596259,40.71678 0.03607,-0.47229 h 10.271114 c 8.157415,0 10.271357,0.0347 10.272315,0.16868 7.42e-4,0.0928 0.02515,0.30529 0.05442,0.47228 l 0.0532,0.30361 H 24.921785 14.560202 Z"
     id="path870"
     inkscape:connector-curvature="0" /></svg>
