<svg width="143" height="143" viewBox="0 0 143 143" fill="none" xmlns="http://www.w3.org/2000/svg">
<g clip-path="url(#clip0)">
<path d="M102.483 50.051C102.483 53.9999 99.2819 57.201 95.333 57.201C91.3842 57.201 88.1831 53.9999 88.1831 50.051H83.4165C83.4242 56.629 88.7551 61.9598 95.333 61.9676C101.911 61.9598 107.242 56.629 107.25 50.051H102.483Z" fill="#33B6FF"/>
<path d="M142.157 12.2088C120.325 -6.2258 87.6833 -3.47218 69.2487 18.3589C62.2662 26.6278 58.0528 36.8784 57.2014 47.6677V57.6919L52.4347 57.8563V52.4343C52.4347 51.1181 51.3676 50.051 50.0514 50.051H11.9185C10.6023 50.051 9.53519 51.1181 9.53519 52.4343V59.3459L2.30423 59.5842C1.01963 59.628 0.00105997 60.6823 0.00195371 61.9675V100.1C0.00105997 101.386 1.01963 102.44 2.30423 102.484L4.76857 102.567V140.617C4.76857 141.933 5.8357 143 7.15188 143H38.1349C39.4511 143.001 40.5191 141.935 40.5203 140.619C40.5203 140.444 40.5015 140.27 40.4634 140.1L39.3265 134.937C37.0532 124.657 35.8693 114.166 35.7945 103.637L57.2133 104.376V112.017C57.2133 113.333 58.2804 114.4 59.5966 114.4H90.5677V140.617C90.5677 141.933 91.6348 143 92.951 143H135.851C137.167 143 138.234 141.933 138.234 140.617V94.0135C139.59 93.0721 140.906 92.0615 142.157 91.001C142.692 90.5484 143 89.8832 143 89.1825V14.0273C143 13.3266 142.692 12.6616 142.157 12.2088ZM52.4347 66.7341V62.6277L69.1179 62.0509V96.7304L46.1809 73.7935C49.7449 73.3496 52.4237 70.3258 52.4347 66.7341ZM42.9015 54.8176H47.6681V66.7341C47.6681 68.0503 46.601 69.1174 45.2848 69.1174C43.9686 69.1174 42.9015 68.0503 42.9015 66.7341V54.8176ZM33.3683 54.8176H38.1349V66.7341C38.1349 68.0503 37.0678 69.1174 35.7516 69.1174C34.4354 69.1174 33.3683 68.0503 33.3683 66.7341V54.8176ZM23.835 54.8176H28.6017V66.7341C28.6017 68.0503 27.5345 69.1174 26.2183 69.1174C24.9022 69.1174 23.835 68.0503 23.835 66.7341V54.8176ZM14.3018 54.8176H19.0684V66.7341C19.0684 68.0503 18.0013 69.1174 16.6851 69.1174C15.3689 69.1174 14.3018 68.0503 14.3018 66.7341V54.8176ZM9.53519 138.233V102.722L31.0112 103.463C31.0752 114.397 32.2982 125.293 34.66 135.969L35.1629 138.233H9.53519ZM45.2848 99.1948L35.7516 98.8659V92.9505C35.7516 90.3179 37.8855 88.1839 40.5182 88.1839C43.1509 88.1839 45.2848 90.3179 45.2848 92.9505V99.1948ZM50.0514 99.3592V92.9505C50.0514 87.6855 45.7832 83.4173 40.5182 83.4173C35.2532 83.4173 30.985 87.6855 30.985 92.9505V98.7014L8.0909 97.9126C7.79448 97.7845 7.47482 97.718 7.15188 97.7171C6.91742 97.7288 6.68624 97.7755 6.46549 97.8554L4.76857 97.7982V64.2698L9.53519 64.1125V66.7341C9.51791 70.6657 12.691 73.8671 16.6226 73.8846C18.4085 73.8927 20.1323 73.2289 21.4517 72.0251C24.1461 74.5037 28.2906 74.5037 30.985 72.0251C33.1308 74.013 36.2887 74.4516 38.8952 73.1238L38.8332 73.1857L65.5429 99.8931L50.0514 99.3592ZM138.234 88.06C137.042 89.0133 135.81 89.9213 134.54 90.7603C133.87 91.2012 133.467 91.9489 133.467 92.7503V138.233H95.3343V112.017C95.3343 110.701 94.2672 109.634 92.951 109.634H61.968V104.541L71.4202 104.867H71.5012C72.8174 104.867 73.8845 103.8 73.8845 102.484V59.5842C73.8839 58.9377 73.6206 58.3193 73.1552 57.8706C72.6875 57.4279 72.0643 57.1872 71.4202 57.2009L61.968 57.5274V47.8583C64.1174 22.0027 86.8199 2.7849 112.676 4.93405C122.024 5.711 130.925 9.26899 138.234 15.1498V88.06Z" fill="#19419A"/>
</g>
<defs>
<clipPath id="clip0">
<rect width="143" height="143" fill="white"/>
</clipPath>
</defs>
</svg>
