<?xml version="1.0" encoding="UTF-8" standalone="no"?>
<svg
   xmlns:dc="http://purl.org/dc/elements/1.1/"
   xmlns:cc="http://creativecommons.org/ns#"
   xmlns:rdf="http://www.w3.org/1999/02/22-rdf-syntax-ns#"
   xmlns:svg="http://www.w3.org/2000/svg"
   xmlns="http://www.w3.org/2000/svg"
   xmlns:sodipodi="http://sodipodi.sourceforge.net/DTD/sodipodi-0.dtd"
   xmlns:inkscape="http://www.inkscape.org/namespaces/inkscape"
   version="1.1"
   id="svg20"
   sodipodi:docname="milk-products.svg"
   width="50"
   height="50"
   inkscape:version="0.92.2 5c3e80d, 2017-08-06">
  <metadata
     id="metadata26">
    <rdf:RDF>
      <cc:Work
         rdf:about="">
        <dc:format>image/svg+xml</dc:format>
        <dc:type
           rdf:resource="http://purl.org/dc/dcmitype/StillImage" />
        <dc:title></dc:title>
      </cc:Work>
    </rdf:RDF>
  </metadata>
  <defs
     id="defs24" />
  <sodipodi:namedview
     pagecolor="#ffffff"
     bordercolor="#666666"
     borderopacity="1"
     objecttolerance="10"
     gridtolerance="10"
     guidetolerance="10"
     inkscape:pageopacity="0"
     inkscape:pageshadow="2"
     inkscape:window-width="1444"
     inkscape:window-height="846"
     id="namedview22"
     showgrid="false"
     inkscape:showpageshadow="false"
     fit-margin-top="0"
     fit-margin-left="0"
     fit-margin-right="0"
     fit-margin-bottom="0"
     inkscape:zoom="12.66"
     inkscape:cx="25"
     inkscape:cy="25"
     inkscape:window-x="0"
     inkscape:window-y="0"
     inkscape:window-maximized="0"
     inkscape:current-layer="svg20" />
  <g
     id="g18"
     style="fill:#8c8c8c"
     transform="matrix(0.11181156,0,0,0.11577403,0,-0.01031033)">
    <path
       d="M 337.23047,47.964844 342.03125,24.488281 223.19922,23.964844 C 207.22656,23.363281 191.66797,18.683594 178.01562,10.367188 165.98828,1.949219 151.17187,-1.492188 136.66406,0.765625 l -11.96093,2.402344 30.80859,44.796875 z m 0,0"
       id="path2"
       inkscape:connector-curvature="0" />
    <path
       d="M 175.32031,217.35937 50.847656,295.96484 H 222.84766 c -2.5586,-32.23047 -20.17188,-61.36718 -47.52735,-78.60547 z m 0,0"
       id="path4"
       inkscape:connector-curvature="0" />
    <path
       d="M 223.19922,311.96484 H 31.199219 v 17.3711 c 9.597656,3.38672 16.015625,12.45312 16.015625,22.6289 0,10.17579 -6.417969,19.2461 -16.015625,22.63282 v 9.36718 H 223.19922 Z m -120,32 H 87.199219 v -16 h 16.000001 z m 72,24 h -16 v -16 h 16 z m 0,0"
       id="path6"
       inkscape:connector-curvature="0" />
    <path
       d="m 146.11328,171.90234 14.39844,-4.80078 c 30.26953,-10.14453 62.9414,-10.64453 93.5039,-1.42187 22.00782,6.57422 45.29688,7.61718 67.80079,3.03125 l 24.52734,-5.02344 -11.35156,-66.359375 c -0.0859,-0.503906 -0.12891,-1.011719 -0.1211,-1.519531 l 0.72266,-31.84375 H 158.79297 l 0.40625,31.890625 c 0.008,0.496093 -0.0312,0.992187 -0.1211,1.480469 z m 0,0"
       id="path8"
       inkscape:connector-curvature="0" />
    <path
       d="M 23.199219,399.96484 H 0 c 3.824219,18.61328 20.199219,31.98047 39.199219,32 H 215.19922 c 19.0039,-0.0195 35.375,-13.38672 39.19922,-32 z m 0,0"
       id="path10"
       inkscape:connector-curvature="0" />
    <path
       d="m 349.07812,179.45312 -24,4.92188 c -25.09375,5.11328 -51.05859,3.95312 -75.59765,-3.375 -27.40625,-8.28125 -56.70703,-7.83984 -83.84766,1.26172 l -22.60937,7.53515 -5.67969,32.625 33.60156,-21.22265 c 2.51172,-1.58594 5.69922,-1.64844 8.26953,-0.16016 37.00782,21.06641 59.89844,60.34375 59.98438,102.92578 v 80 h 24 c 4.41797,0 8,3.58203 8,8 -0.0117,8.3125 -1.88281,16.51172 -5.48047,24 h 76.29687 c 11.8125,0.0469 23.03907,-5.1289 30.67579,-14.14453 7.63281,-9.01172 10.89453,-20.9375 8.91015,-32.58203 z m 0,0"
       id="path12"
       inkscape:connector-curvature="0" />
    <path
       d="m 411.625,260.93359 c 1.57031,-1.70703 2.23047,-4.05859 1.78125,-6.33593 L 392,142.59766 c -0.94531,-4 -4.58594,-6.77735 -8.69531,-6.63282 h -25.4336 l 21.91407,128 h 24.92578 c 2.64062,0.0703 5.17578,-1.04297 6.91406,-3.03125 z m 0,0"
       id="path14"
       inkscape:connector-curvature="0" />
    <path
       d="m 446.51953,248.87891 -21.41406,-112 c -4.25781,-19.5625 -21.78516,-33.36328 -41.80078,-32.91407 h -30.91407 l 2.7461,16 h 28.16797 c 11.78906,-0.14453 22.02343,8.08985 24.40625,19.63282 l 21.41797,112 c 1.36328,7.125 -0.66407,14.47656 -5.48047,19.89843 -4.76953,5.45313 -11.69141,8.55078 -18.9375,8.46875 h -22.19141 l 2.74609,16 h 19.44532 c 12.49609,0.10157 24.42968,-5.1914 32.74609,-14.51953 7.91016,-8.85937 11.26172,-20.89062 9.0625,-32.5664 z m 0,0"
       id="path16"
       inkscape:connector-curvature="0" />
  </g>
</svg>
