<svg width="161" height="161" viewBox="0 0 161 161" fill="none" xmlns="http://www.w3.org/2000/svg">
<path d="M133.328 36.4766C133.328 30.3988 128.574 24.7185 119.97 20.4093C118.081 14.7265 112.911 10.5304 106.71 10.1002C101.458 5.1998 94.6554 2.51562 87.4381 2.51562H68.5307C56.8657 2.51562 46.8334 9.61472 42.5141 19.7175C32.9597 24.1173 27.6719 30.0089 27.6719 36.4766C27.6719 42.5015 32.3912 47.9302 40.25 52.091V52.8935C37.2136 55.1928 35.2188 58.8002 35.2188 62.8906C35.2188 69.235 39.9582 74.4424 46.0712 75.2952C47.7088 82.9452 51.8445 89.6695 57.5701 94.5976L40.1016 99.9709C32.6654 102.26 27.6719 109.027 27.6719 116.805V155.969C27.6719 157.36 28.7964 158.484 30.1875 158.484H130.812C132.204 158.484 133.328 157.36 133.328 155.969V116.805C133.328 109.027 128.335 102.263 120.898 99.9735L103.43 94.6001C109.158 89.6694 113.294 82.9477 114.929 75.2977C121.042 74.4424 125.781 69.235 125.781 62.8906C125.781 58.7977 123.786 55.1903 120.75 52.8935V52.091C128.609 47.9302 133.328 42.5015 133.328 36.4766ZM128.297 36.4766C128.297 39.8827 125.608 43.382 120.75 46.4233V26.5952C125.623 29.624 128.297 33.0553 128.297 36.4766ZM68.5307 7.54688H87.4381C93.6492 7.54688 99.4854 9.96439 103.878 14.3567C104.348 14.8296 104.987 15.0938 105.656 15.0938C111.206 15.0938 115.719 19.6068 115.719 25.1562V49.0471C114.768 49.4698 113.762 49.8723 112.713 50.2647C108.783 50.0056 105.656 46.7604 105.656 42.7656V37.9105C105.656 32.2654 101.063 27.6719 95.4177 27.6719C93.3876 27.6719 91.4254 28.2656 89.7374 29.3926L88.3236 30.3359C83.6747 33.4352 77.3278 33.4352 72.6789 30.3359L71.2651 29.3926C69.5746 28.2656 67.6125 27.6719 65.5823 27.6719C59.9373 27.6719 55.3438 32.2654 55.3438 37.9105V42.7656C55.3438 46.7604 52.2168 50.0056 48.2874 50.2622C47.2409 49.8723 46.2347 49.4673 45.2812 49.0446V30.7938C45.2812 17.9767 55.711 7.54688 68.5307 7.54688ZM105.322 52.5237C98.2905 54.2696 89.9185 55.3438 80.5 55.3438C71.0815 55.3438 62.7095 54.2696 55.6783 52.5237C58.531 50.2169 60.375 46.7126 60.375 42.7656V37.9105C60.375 35.0376 62.712 32.7031 65.5823 32.7031C66.6138 32.7031 67.615 33.005 68.4703 33.5786L69.8841 34.5219C76.1882 38.728 84.8067 38.728 91.1109 34.5219L92.5247 33.5786C93.385 33.005 94.3863 32.7031 95.4177 32.7031C98.2905 32.7031 100.625 35.0401 100.625 37.9105V42.7656C100.625 46.7126 102.469 50.2169 105.322 52.5237ZM32.7031 36.4766C32.7031 32.9648 35.5357 29.4127 40.6374 26.3361C40.4035 27.7926 40.25 29.2743 40.25 30.7963V46.4233C35.3923 43.382 32.7031 39.8827 32.7031 36.4766ZM40.25 62.8906C40.25 59.6153 42.3606 56.8481 45.2812 55.8066V67.9219C45.2812 68.6263 45.3467 69.313 45.3869 70.0073C42.4109 68.996 40.25 66.2037 40.25 62.8906ZM65.4062 99.6942C69.9897 101.88 75.0939 103.141 80.5 103.141C85.9061 103.141 91.0103 101.88 95.5938 99.6942V103.141C95.5938 111.465 88.8242 118.234 80.5 118.234C72.1758 118.234 65.4062 111.465 65.4062 103.141V99.6942ZM32.7031 140.875H45.2812V153.453H32.7031V140.875ZM115.719 153.453V140.875H128.297V153.453H115.719ZM128.297 116.805V135.844H115.719V125.781H110.688V153.453H50.3125V125.781H45.2812V135.844H32.7031V116.805C32.7031 111.248 36.2728 106.416 41.5808 104.783L60.375 98.9999V103.141C60.375 114.237 69.4036 123.266 80.5 123.266C91.5964 123.266 100.625 114.237 100.625 103.141V98.9999L119.419 104.781C124.727 106.416 128.297 111.248 128.297 116.805ZM80.5 98.1094C63.8541 98.1094 50.3125 84.5678 50.3125 67.9219V56.194C58.8203 58.8354 69.1847 60.375 80.5 60.375C91.8153 60.375 102.18 58.8354 110.688 56.194V67.9219C110.688 84.5678 97.1459 98.1094 80.5 98.1094ZM115.613 70.0073C115.653 69.313 115.719 68.6263 115.719 67.9219V55.8066C118.639 56.8481 120.75 59.6153 120.75 62.8906C120.75 66.2037 118.589 68.996 115.613 70.0073Z" fill="#19419A"/>
<path d="M158.484 7.54688H153.453V2.51562H148.422V7.54688H143.391V12.5781H148.422V17.6094H153.453V12.5781H158.484V7.54688Z" fill="#33B6FF"/>
<path d="M148.422 27.6719H143.391V32.7031H138.359V37.7344H143.391V42.7656H148.422V37.7344H153.453V32.7031H148.422V27.6719Z" fill="#33B6FF"/>
<path d="M138.359 12.5781V7.54688H133.328V2.51562H128.297V7.54688H123.266V12.5781H128.297V17.6094H133.328V12.5781H138.359Z" fill="#33B6FF"/>
<path d="M7.54688 17.6094H12.5781V12.5781H17.6094V7.54688H12.5781V2.51562H7.54688V7.54688H2.51562V12.5781H7.54688V17.6094Z" fill="#33B6FF"/>
<path d="M17.6094 27.6719H12.5781V32.7031H7.54688V37.7344H12.5781V42.7656H17.6094V37.7344H22.6406V32.7031H17.6094V27.6719Z" fill="#33B6FF"/>
<path d="M27.6719 17.6094H32.7031V12.5781H37.7344V7.54688H32.7031V2.51562H27.6719V7.54688H22.6406V12.5781H27.6719V17.6094Z" fill="#33B6FF"/>
</svg>
