<svg width="108" height="108" viewBox="0 0 108 108" fill="none" xmlns="http://www.w3.org/2000/svg">
<path d="M64.1126 48.7952L53.7029 59.2048H43.8875L54.2972 48.7952H64.1126Z" fill="#33B6FF"/>
<path d="M54 1.95178C25.2543 1.95178 1.95184 25.2542 1.95184 54C1.95184 82.7458 25.2543 106.048 54 106.048C82.7458 106.048 106.048 82.7458 106.048 54C106.048 25.2542 82.7458 1.95178 54 1.95178ZM8.8916 54C8.8916 29.0862 29.0863 8.89154 54 8.89154C64.7672 8.87561 75.1821 12.7266 83.3487 19.7436L43.8875 59.2048L19.7437 83.3486C12.7267 75.182 8.87567 64.7671 8.8916 54V54ZM54 99.1084C43.2329 99.1243 32.818 95.2733 24.6514 88.2564L53.7029 59.2048L88.2564 24.6513C95.2734 32.818 99.1244 43.2328 99.1085 54C99.1085 78.9137 78.9138 99.1084 54 99.1084V99.1084Z" fill="#33B6FF"/>
<path d="M69.6145 48.7952H86.9639V59.2048H69.6145V48.7952Z" fill="#33B6FF"/>
<path d="M85.0824 19.6772C85.0732 19.4384 85.0148 19.2041 84.9108 18.9889C84.8069 18.7737 84.6596 18.5824 84.4782 18.4268C75.5177 10.7462 63.9882 6.73096 52.1952 7.18382C40.4021 7.63668 29.2145 12.5243 20.8694 20.8694C12.5243 29.2145 7.63666 40.402 7.18377 52.1951C6.73087 63.9881 10.7461 75.5176 18.4266 84.4781C18.5822 84.6595 18.7736 84.8068 18.9889 84.9108C19.2041 85.0148 19.4385 85.0732 19.6773 85.0823C19.6994 85.0832 19.7215 85.0836 19.7437 85.0836C19.9715 85.0836 20.1971 85.0387 20.4076 84.9516C20.6181 84.8644 20.8094 84.7366 20.9705 84.5755L84.5755 20.9711C84.7446 20.802 84.8769 20.5998 84.9641 20.3771C85.0514 20.1545 85.0916 19.9162 85.0824 19.6772V19.6772ZM43.1688 57.4699H26.241V50.5301H50.1086L43.1688 57.4699ZM53.5785 47.0602H24.5061C24.0459 47.0602 23.6046 47.243 23.2793 47.5684C22.9539 47.8937 22.7711 48.335 22.7711 48.7952V59.2048C22.7711 59.6649 22.9539 60.1062 23.2793 60.4316C23.6046 60.757 24.0459 60.9397 24.5061 60.9397H39.6989L19.8703 80.7686C13.8811 73.1311 10.6263 63.7057 10.6266 54C10.6266 30.0838 30.0839 10.6265 54 10.6265C63.7058 10.6262 73.1312 13.881 80.7687 19.8703L53.5785 47.0602Z" fill="#19419A"/>
<path d="M92.0302 15.9704C87.0457 10.9326 81.1147 6.92952 74.578 4.19135C68.0414 1.45318 61.028 0.0338738 53.9411 0.0150218C46.8541 -0.00383007 39.8333 1.37814 33.2822 4.0815C26.7311 6.78486 20.7789 10.7563 15.7676 15.7675C10.7564 20.7788 6.78492 26.731 4.08156 33.2822C1.3782 39.8333 -0.00376903 46.8541 0.0150829 53.941C0.0339348 61.028 1.45324 68.0413 4.19141 74.578C6.92958 81.1146 10.9326 87.0457 15.9705 92.0302C20.955 97.068 26.886 101.071 33.4227 103.809C39.9593 106.547 46.9727 107.967 54.0596 107.986C61.1466 108.004 68.1674 106.622 74.7185 103.919C81.2696 101.216 87.2219 97.2443 92.2331 92.233C97.2444 87.2218 101.216 81.2696 103.919 74.7184C106.623 68.1673 108.004 61.1465 107.986 54.0596C107.967 46.9726 106.547 39.9592 103.809 33.4226C101.071 26.886 97.0681 20.9549 92.0302 15.9704V15.9704ZM89.5775 89.5774C80.1418 99.013 67.3444 104.314 54.0004 104.314C40.6563 104.314 27.8589 99.013 18.4232 89.5774C8.98761 80.1418 3.68672 67.3443 3.68672 54.0003C3.68672 40.6563 8.98761 27.8588 18.4232 18.4232C27.8589 8.98755 40.6563 3.68666 54.0004 3.68666C67.3444 3.68666 80.1418 8.98755 89.5775 18.4232C99.0131 27.8588 104.314 40.6563 104.314 54.0003C104.314 67.3443 99.0131 80.1418 89.5775 89.5774V89.5774Z" fill="#19419A"/>
<path d="M89.5728 23.5214C89.417 23.3404 89.2255 23.1934 89.0103 23.0896C88.7951 22.9859 88.5609 22.9276 88.3222 22.9185C88.0834 22.9093 87.8454 22.9494 87.6229 23.0364C87.4004 23.1234 87.1982 23.2553 87.029 23.4239L23.4239 87.0289C23.2553 87.1981 23.1234 87.4003 23.0365 87.6228C22.9495 87.8453 22.9094 88.0834 22.9185 88.3221C22.9277 88.5608 22.9859 88.7951 23.0897 89.0102C23.1934 89.2254 23.3404 89.4169 23.5215 89.5728C32.4821 97.253 44.0114 101.268 55.8043 100.815C67.5972 100.362 78.7845 95.4744 87.1295 87.1294C95.4745 78.7844 100.362 67.5971 100.815 55.8042C101.268 44.0113 97.2531 32.482 89.5728 23.5214V23.5214ZM64.8304 50.5301H67.8796V57.4699H57.8907L64.8304 50.5301ZM54.0001 97.3735C44.2948 97.3732 34.8698 94.1188 27.2321 88.1306L54.4208 60.9398H86.9639C87.424 60.9398 87.8653 60.757 88.1907 60.4316C88.5161 60.1062 88.6989 59.6649 88.6989 59.2048V48.7952C88.6989 48.335 88.5161 47.8937 88.1907 47.5684C87.8653 47.243 87.424 47.0602 86.9639 47.0602H68.3003L88.1307 27.232C94.1189 34.8697 97.3733 44.2947 97.3735 54C97.3735 77.9161 77.9162 97.3735 54.0001 97.3735ZM71.3495 57.4699V50.5301H85.229V57.4699H71.3495Z" fill="#19419A"/>
<path d="M30.0734 29.7772C30.3006 28.8672 30.6663 27.9975 31.1578 27.1986C31.4124 26.8154 31.5044 26.3466 31.4134 25.8956C31.3224 25.4445 31.056 25.0481 30.6728 24.7935C30.2895 24.5388 29.8208 24.4469 29.3697 24.5378C28.9187 24.6288 28.5222 24.8952 28.2676 25.2785C26.7944 27.4881 24.9441 32.6023 28.4845 36.1435C29.4231 37.0821 29.7119 38.0073 29.3936 39.0548C29.2032 39.6372 28.8936 40.1735 28.4845 40.6297C28.1591 40.955 27.9763 41.3963 27.9763 41.8565C27.9763 42.3166 28.1591 42.7579 28.4845 43.0833C28.8098 43.4087 29.2511 43.5915 29.7113 43.5915C30.1714 43.5915 30.6127 43.4087 30.9381 43.0833C32.8248 41.1953 34.3839 37.1357 30.9381 33.6899C29.9615 32.7129 29.679 31.4332 30.0734 29.7772Z" fill="#19419A"/>
<path d="M37.0133 29.7772C37.2404 28.8672 37.6062 27.9975 38.0976 27.1986C38.3522 26.8154 38.4442 26.3466 38.3532 25.8956C38.2623 25.4445 37.9958 25.0481 37.6126 24.7935C37.2293 24.5388 36.7606 24.4469 36.3095 24.5378C35.8585 24.6288 35.462 24.8952 35.2074 25.2785C33.7342 27.4881 31.8839 32.6023 35.4243 36.1435C36.3629 37.0821 36.6517 38.0073 36.3334 39.0548C36.143 39.6372 35.8334 40.1735 35.4243 40.6297C35.0989 40.955 34.9161 41.3963 34.9161 41.8565C34.9161 42.3166 35.0989 42.7579 35.4243 43.0833C35.7496 43.4087 36.1909 43.5915 36.6511 43.5915C37.1112 43.5915 37.5525 43.4087 37.8779 43.0833C39.7647 41.1953 41.3237 37.1357 37.8779 33.6899C36.9014 32.7129 36.6188 31.4332 37.0133 29.7772Z" fill="#19419A"/>
</svg>
