<svg width="185" height="208" viewBox="0 0 185 208" fill="none" xmlns="http://www.w3.org/2000/svg">
<g clip-path="url(#clip0)">
<path d="M6.90137 73.3188H63.1431V182.678H6.90137V73.3188Z" fill="white"/>
<path d="M63.1431 73.3188H81.8903V182.678H63.1431V73.3188Z" fill="white"/>
<path d="M63.1431 73.3186L72.5167 51.4468L81.8903 73.3186H63.1431Z" fill="white"/>
<path d="M72.5167 51.4468H16.275L6.90137 73.3186H63.1431L72.5167 51.4468Z" fill="white"/>
<path d="M16.2749 35.8242H72.5166V51.4469H16.2749V35.8242Z" fill="white"/>
<path d="M35.0221 113.938C40.199 113.938 44.3957 109.741 44.3957 104.564C44.3957 99.3871 40.199 95.1904 35.0221 95.1904C29.8451 95.1904 25.6484 99.3871 25.6484 104.564C25.6484 109.741 29.8451 113.938 35.0221 113.938Z" fill="white"/>
<path d="M26.7386 168.051L5.96359 182.896C3.54052 184.62 2.52621 187.723 3.46396 190.545C4.3857 193.311 6.97516 195.177 9.89114 195.175H36.2716L26.7386 168.051Z" fill="white"/>
<path d="M50.2763 156.354L29.7699 162.212C26.3744 163.183 24.2922 166.597 24.9832 170.061L30.023 195.176H60.9372L50.2763 156.354Z" fill="white"/>
<path d="M106.887 195.176H51.5481L46.6676 159.112C46.1654 155.407 48.7622 151.996 52.4679 151.493C52.7698 151.452 53.0745 151.432 53.3791 151.432H106.887V195.176Z" fill="white"/>
<path d="M138.079 185.802H122.509C105.231 185.784 91.2296 171.782 91.2104 154.504V120.187C91.2104 118.462 92.6095 117.062 94.335 117.062H166.252C167.978 117.062 169.377 118.462 169.377 120.187V154.504C169.358 171.782 155.356 185.784 138.079 185.802Z" fill="white"/>
<path d="M163.128 195.176H100.637L94.3882 182.678H169.377L163.128 195.176Z" fill="white"/>
<path d="M181.876 117.062H94.3353C92.6098 117.062 91.2108 118.461 91.2108 120.187V148.308H85.0148V73.3187C85.0156 72.8965 84.9293 72.4786 84.7617 72.0908L75.6412 50.822V35.8242C75.6412 34.0987 74.2422 32.6997 72.5167 32.6997H16.275C14.5495 32.6997 13.1504 34.0987 13.1504 35.8242V50.822L4.02992 72.1001C3.86354 72.4848 3.77723 72.8996 3.77684 73.3187V180.656C-0.513156 184.025 -1.25953 190.234 2.1095 194.524C3.98501 196.912 6.8549 198.305 9.89156 198.3H163.128C164.318 198.307 165.408 197.637 165.94 196.572L171.308 185.802H185V179.553H156.764C163.866 174.274 168.396 166.232 169.23 157.422C178.31 155.961 184.989 148.13 185 138.934V120.187C185 118.461 183.601 117.062 181.876 117.062ZM66.2676 148.308V76.4432H78.7657V148.308H66.2676ZM45.9269 151.691C45.127 152.626 44.5099 153.703 44.1084 154.866L28.9044 159.209C25.035 160.345 22.237 163.709 21.8242 167.72L10.0259 176.147V76.4432H60.0185V148.308H53.3789C50.523 148.307 47.8059 149.541 45.9269 151.691ZM18.3341 54.5715H67.7799L61.084 70.1942H11.6382L18.3341 54.5715ZM77.1535 70.1942H67.8799L72.5167 59.3801L77.1535 70.1942ZM19.3995 38.9488H69.3921V48.3224H19.3995V38.9488ZM6.43269 189.552C5.92027 188.033 6.46355 186.358 7.76999 185.43L22.7334 174.741L26.1954 192.051H9.89156C8.31952 192.053 6.92442 191.045 6.43269 189.552ZM28.0451 169.436C27.6835 167.575 28.7997 165.745 30.6197 165.214L43.8303 161.44L47.9734 192.051H32.5663L28.0451 169.436ZM49.7638 158.684C49.4982 156.688 50.9007 154.854 52.8969 154.589C53.0567 154.568 53.2176 154.557 53.3789 154.557H91.2139C91.2405 164.411 95.9144 173.676 103.825 179.553H78.7657V185.802H92.4575L95.582 192.051H54.2819L49.7638 158.684ZM164.322 185.802L161.197 192.051H102.568L99.4439 185.802H164.322ZM163.128 154.504C163.113 168.332 151.907 179.537 138.079 179.553H122.509C108.682 179.536 97.477 168.331 97.4599 154.504V123.311H163.128V154.504ZM178.751 138.934C178.729 144.616 174.878 149.568 169.377 150.988V123.311H178.751V138.934Z" fill="#19419A"/>
<path d="M125.581 173.304H128.705V167.055H125.581C116.957 167.045 109.968 160.056 109.958 151.432V148.308H103.709V151.432C103.725 163.505 113.508 173.288 125.581 173.304Z" fill="#19419A"/>
<path d="M103.709 135.81H109.958V142.059H103.709V135.81Z" fill="#19419A"/>
<path d="M110.011 110.813C110.011 105.636 114.208 101.439 119.385 101.439H164.691C170.73 101.439 175.627 96.5432 175.627 90.5035C175.627 84.4638 170.73 79.5676 164.691 79.5676H127.196C124.608 79.5676 122.509 77.4691 122.509 74.8808C122.509 72.2925 124.608 70.194 127.196 70.194H141.257C149.88 70.1838 156.869 63.195 156.879 54.5713H150.63C150.63 59.7483 146.434 63.9449 141.257 63.9449H127.196C121.157 63.9449 116.26 68.8411 116.26 74.8808C116.26 80.9205 121.157 85.8167 127.196 85.8167H164.691C167.279 85.8167 169.378 87.9152 169.378 90.5035C169.378 93.0918 167.279 95.1903 164.691 95.1903H119.385C110.761 95.2004 103.772 102.189 103.762 110.813H110.011Z" fill="#19419A"/>
<path d="M35.0221 92.0659C28.1196 92.0659 22.5239 97.6616 22.5239 104.564C22.5239 111.467 28.1196 117.062 35.0221 117.062C41.9246 117.062 47.5202 111.467 47.5202 104.564C47.5202 97.6616 41.9246 92.0659 35.0221 92.0659ZM35.0221 110.813C31.5706 110.813 28.773 108.016 28.773 104.564C28.773 101.113 31.5706 98.315 35.0221 98.315C38.4735 98.315 41.2712 101.113 41.2712 104.564C41.2712 108.016 38.4735 110.813 35.0221 110.813Z" fill="#19419A"/>
<path d="M22.5239 123.312H47.5202V129.561H22.5239V123.312Z" fill="#19419A"/>
<path d="M22.5239 135.81H47.5202V142.059H22.5239V135.81Z" fill="#19419A"/>
</g>
<path d="M113 0C95.8649 0 82 13.8661 82 31C82 48.1351 95.8661 62 113 62C130.135 62 144 48.1339 144 31C144 13.8649 130.134 0 113 0ZM113 57.1562C98.5423 57.1562 86.8438 45.4568 86.8438 31C86.8438 16.5423 98.5432 4.84375 113 4.84375C127.458 4.84375 139.156 16.5432 139.156 31C139.156 45.4577 127.457 57.1562 113 57.1562Z" fill="#33B6FF"/>
<path d="M113 15.6064C111.662 15.6064 110.578 16.6907 110.578 18.0283V33.6243C110.578 34.9619 111.662 36.0462 113 36.0462C114.338 36.0462 115.422 34.9619 115.422 33.6243V18.0283C115.422 16.6907 114.338 15.6064 113 15.6064Z" fill="#33B6FF"/>
<path d="M113 45.5508C114.806 45.5508 116.27 44.087 116.27 42.2812C116.27 40.4755 114.806 39.0117 113 39.0117C111.194 39.0117 109.73 40.4755 109.73 42.2812C109.73 44.087 111.194 45.5508 113 45.5508Z" fill="#33B6FF"/>
<defs>
<clipPath id="clip0">
<rect width="185" height="185" fill="white" transform="translate(0 23)"/>
</clipPath>
</defs>
</svg>
