<?xml version="1.0" encoding="UTF-8" standalone="no"?>
<!-- Generator: Adobe Illustrator 18.0.0, SVG Export Plug-In . SVG Version: 6.00 Build 0)  -->

<svg
   xmlns:dc="http://purl.org/dc/elements/1.1/"
   xmlns:cc="http://creativecommons.org/ns#"
   xmlns:rdf="http://www.w3.org/1999/02/22-rdf-syntax-ns#"
   xmlns:svg="http://www.w3.org/2000/svg"
   xmlns="http://www.w3.org/2000/svg"
   xmlns:sodipodi="http://sodipodi.sourceforge.net/DTD/sodipodi-0.dtd"
   xmlns:inkscape="http://www.inkscape.org/namespaces/inkscape"
   version="1.1"
   id="Capa_1"
   x="0px"
   y="0px"
   viewBox="0 0 49.999999 49.999999"
   xml:space="preserve"
   sodipodi:docname="olive-oil.svg"
   width="50"
   height="50"
   inkscape:version="0.92.2 5c3e80d, 2017-08-06"><metadata
     id="metadata46"><rdf:RDF><cc:Work
         rdf:about=""><dc:format>image/svg+xml</dc:format><dc:type
           rdf:resource="http://purl.org/dc/dcmitype/StillImage" /><dc:title></dc:title></cc:Work></rdf:RDF></metadata><defs
     id="defs44" /><sodipodi:namedview
     pagecolor="#ffffff"
     bordercolor="#666666"
     borderopacity="1"
     objecttolerance="10"
     gridtolerance="10"
     guidetolerance="10"
     inkscape:pageopacity="0"
     inkscape:pageshadow="2"
     inkscape:window-width="1443"
     inkscape:window-height="850"
     id="namedview42"
     showgrid="false"
     inkscape:showpageshadow="false"
     inkscape:zoom="6.3700001"
     inkscape:cx="40.978662"
     inkscape:cy="27.471769"
     inkscape:window-x="0"
     inkscape:window-y="0"
     inkscape:window-maximized="0"
     inkscape:current-layer="Capa_1" /><g
     id="XMLID_28_"
     style="fill:#385fa0;fill-opacity:1"
     transform="matrix(0.11149848,0,0,0.10067695,-2.585887,-0.00100757)"><path
       id="XMLID_40_"
       d="m 128.253,250.194 c -7.661,25.718 0.355,44.177 12.078,49.665 12.03,5.745 22.121,-2.986 27.447,-27.672 5.223,-24.301 -5.061,-52.923 -4.868,-53.269 0.234,0.201 -26.666,5.833 -34.657,31.276 z"
       style="fill:#385fa0;fill-opacity:1"
       inkscape:connector-curvature="0" /><path
       id="XMLID_39_"
       d="m 108.249,178.161 c -11.7,21.501 -8.336,39.381 0.877,46.669 9.423,7.573 20.165,2.093 29.797,-18.917 9.463,-20.688 5.698,-48.899 5.938,-49.157 0.129,0.193 -24.671,0.168 -36.612,21.405 z"
       style="fill:#385fa0;fill-opacity:1"
       inkscape:connector-curvature="0" /><path
       id="XMLID_38_"
       d="m 95.471,152.065 c 6.533,8.08 16.495,5.52 28.139,-10.838 11.475,-16.15 12.883,-41.626 13.1,-41.81 0.073,0.17 -20.663,-3.629 -34.094,12.698 -13.277,16.511 -13.542,32.097 -7.145,39.95 z"
       style="fill:#385fa0;fill-opacity:1"
       inkscape:connector-curvature="0" /><path
       id="XMLID_37_"
       d="m 74.687,317.874 c 26.023,16.022 38.351,9.367 39.557,-4.047 1.32,-13.878 -7.958,-29.948 -31.213,-47.192 -23.061,-17.688 -48.087,-9.753 -48.175,-9.423 -0.556,-0.121 13.188,44.464 39.831,60.662 z"
       style="fill:#385fa0;fill-opacity:1"
       inkscape:connector-curvature="0" /><path
       id="XMLID_36_"
       d="M 83.12,231.839 C 87.111,219.914 82.154,203.756 64.918,183.954 47.931,163.812 24.25,166.163 24.137,166.403 c -0.45,-0.168 3.147,41.569 23.271,61.01 19.675,19.233 31.881,15.99 35.712,4.426 z"
       style="fill:#385fa0;fill-opacity:1"
       inkscape:connector-curvature="0" /><path
       id="XMLID_35_"
       d="m 72.289,153.352 c 5.423,-9.276 4.079,-23.866 -7.105,-43.387 C 54.192,90.235 33.946,88.642 33.801,88.81 c -0.29,-0.16 -3.887,35.1 9.487,54.661 13.068,19.32 23.746,18.918 29.001,9.881 z"
       style="fill:#385fa0;fill-opacity:1"
       inkscape:connector-curvature="0" /><path
       id="XMLID_32_"
       d="m 416.581,213.212 c -14.09,-13.124 -24.8,-29.604 -30.996,-47.847 l -0.031,-0.087 c -12.827,-37.754 -14.872,-78.342 -5.906,-117.207 1.262,-5.465 -0.042,-11.201 -3.533,-15.586 -0.218,-0.274 -0.506,-0.475 -0.732,-0.74 6.116,-2.406 10.476,-8.297 10.476,-15.265 C 385.858,7.377 378.48,0 369.378,0 h -38.414 c -9.102,0 -16.479,7.377 -16.479,16.479 0,6.967 4.352,12.859 10.468,15.265 -0.232,0.266 -0.522,0.466 -0.74,0.74 -3.492,4.394 -4.788,10.13 -3.525,15.594 8.973,38.866 6.928,79.436 -5.898,117.183 l -0.031,0.097 c -6.236,18.361 -16.817,34.632 -31.004,47.845 -33.667,31.366 -55.964,85.851 -55.964,147.865 0,44.989 11.725,86.035 31.027,117.151 7.106,11.458 19.642,18.419 33.129,18.419 h 116.435 c 13.462,0 26.031,-6.976 33.128,-18.419 19.305,-31.117 31.028,-72.163 31.028,-117.151 0,-62.014 -22.289,-116.49 -55.957,-147.856 z m -66.409,218.965 c -29.732,0 -53.84,-38.39 -53.84,-85.753 0,-47.363 24.108,-85.752 53.84,-85.752 29.724,0 53.832,38.389 53.832,85.752 -0.001,47.363 -24.108,85.753 -53.832,85.753 z"
       style="fill:#385fa0;fill-opacity:1"
       inkscape:connector-curvature="0" /><path
       id="XMLID_29_"
       d="m 199.843,413.92 c -1.809,-9.496 -3.065,-19.209 -3.893,-29.032 C 118.817,308.276 78.6,196.412 91.032,84.678 c 6.497,-2.82 12.221,-13.17 16.654,-32.777 5.504,-24.043 -0.934,-49.076 -0.877,-49.31 0.129,-0.249 -22.385,15.505 -28.654,42.455 -4.768,21.18 -1.947,33.513 3.481,38.22 -11.976,86.66 7.253,176.264 51.687,249.327 -17.63,2.47 -28.46,20.117 -31.881,26.659 -14.782,-3.171 -32.814,9.359 -42.092,30.304 -10.147,22.9 -5.915,46.992 9.455,53.799 11.33,5.021 25.516,-0.813 36.267,-13.365 0.023,0.386 -0.017,0.748 0.016,1.133 1.995,24.977 17.204,44.145 33.964,42.793 16.762,-1.343 28.718,-22.676 26.716,-47.66 -1.851,-23.126 -15.055,-41.054 -30.297,-42.542 -1.737,-9.552 -3.612,-28.639 5.489,-38.625 16.591,25.048 36.417,48.103 58.883,68.831 z m -73.047,-29.299 c -2.237,0.756 -4.385,1.786 -6.356,3.243 -0.322,-10.847 -4.177,-19.98 -11.048,-25.049 2.768,-5.19 10.71,-17.655 22.788,-20.881 -8.924,12.803 -7.21,32.283 -5.384,42.687 z"
       style="fill:#385fa0;fill-opacity:1"
       inkscape:connector-curvature="0" /></g><g
     id="g11"
     style="fill:#385fa0;fill-opacity:1"
     transform="matrix(0.11149848,0,0,0.10067695,-2.585887,-0.00100757)" /><g
     id="g13"
     style="fill:#385fa0;fill-opacity:1"
     transform="matrix(0.11149848,0,0,0.10067695,-2.585887,-0.00100757)" /><g
     id="g15"
     style="fill:#385fa0;fill-opacity:1"
     transform="matrix(0.11149848,0,0,0.10067695,-2.585887,-0.00100757)" /><g
     id="g17"
     style="fill:#385fa0;fill-opacity:1"
     transform="matrix(0.11149848,0,0,0.10067695,-2.585887,-0.00100757)" /><g
     id="g19"
     style="fill:#385fa0;fill-opacity:1"
     transform="matrix(0.11149848,0,0,0.10067695,-2.585887,-0.00100757)" /><g
     id="g21"
     style="fill:#385fa0;fill-opacity:1"
     transform="matrix(0.11149848,0,0,0.10067695,-2.585887,-0.00100757)" /><g
     id="g23"
     style="fill:#385fa0;fill-opacity:1"
     transform="matrix(0.11149848,0,0,0.10067695,-2.585887,-0.00100757)" /><g
     id="g25"
     style="fill:#385fa0;fill-opacity:1"
     transform="matrix(0.11149848,0,0,0.10067695,-2.585887,-0.00100757)" /><g
     id="g27"
     style="fill:#385fa0;fill-opacity:1"
     transform="matrix(0.11149848,0,0,0.10067695,-2.585887,-0.00100757)" /><g
     id="g29"
     style="fill:#385fa0;fill-opacity:1"
     transform="matrix(0.11149848,0,0,0.10067695,-2.585887,-0.00100757)" /><g
     id="g31"
     style="fill:#385fa0;fill-opacity:1"
     transform="matrix(0.11149848,0,0,0.10067695,-2.585887,-0.00100757)" /><g
     id="g33"
     style="fill:#385fa0;fill-opacity:1"
     transform="matrix(0.11149848,0,0,0.10067695,-2.585887,-0.00100757)" /><g
     id="g35"
     style="fill:#385fa0;fill-opacity:1"
     transform="matrix(0.11149848,0,0,0.10067695,-2.585887,-0.00100757)" /><g
     id="g37"
     style="fill:#385fa0;fill-opacity:1"
     transform="matrix(0.11149848,0,0,0.10067695,-2.585887,-0.00100757)" /><g
     id="g39"
     style="fill:#385fa0;fill-opacity:1"
     transform="matrix(0.11149848,0,0,0.10067695,-2.585887,-0.00100757)" /></svg>
