<?xml version="1.0" encoding="UTF-8" standalone="no"?>
<svg
   xmlns:dc="http://purl.org/dc/elements/1.1/"
   xmlns:cc="http://creativecommons.org/ns#"
   xmlns:rdf="http://www.w3.org/1999/02/22-rdf-syntax-ns#"
   xmlns:svg="http://www.w3.org/2000/svg"
   xmlns="http://www.w3.org/2000/svg"
   xmlns:sodipodi="http://sodipodi.sourceforge.net/DTD/sodipodi-0.dtd"
   xmlns:inkscape="http://www.inkscape.org/namespaces/inkscape"
   version="1.1"
   id="Capa_1"
   x="0px"
   y="0px"
   viewBox="0 0 49.999999 49.999999"
   xml:space="preserve"
   sodipodi:docname="overweight.svg"
   inkscape:version="0.92.2 5c3e80d, 2017-08-06"
   width="50"
   height="50"><metadata
     id="metadata43"><rdf:RDF><cc:Work
         rdf:about=""><dc:format>image/svg+xml</dc:format><dc:type
           rdf:resource="http://purl.org/dc/dcmitype/StillImage" /><dc:title></dc:title></cc:Work></rdf:RDF></metadata><defs
     id="defs41" /><sodipodi:namedview
     pagecolor="#ffffff"
     bordercolor="#666666"
     borderopacity="1"
     objecttolerance="10"
     gridtolerance="10"
     guidetolerance="10"
     inkscape:pageopacity="0"
     inkscape:pageshadow="2"
     inkscape:window-width="1440"
     inkscape:window-height="823"
     id="namedview39"
     showgrid="false"
     inkscape:zoom="7.2095353"
     inkscape:cx="34.597899"
     inkscape:cy="16.068598"
     inkscape:window-x="0"
     inkscape:window-y="0"
     inkscape:window-maximized="0"
     inkscape:current-layer="Capa_1"
     showborder="true"
     fit-margin-top="0"
     fit-margin-left="0"
     fit-margin-right="0"
     fit-margin-bottom="0"
     inkscape:showpageshadow="false" /><g
     id="g6"
     style="fill:#385fa0;fill-opacity:1"
     transform="scale(1.9230769)"><path
       style="fill:#385fa0;fill-opacity:1"
       d="M 21.125,0 H 4.875 C 2.182,0 0,2.182 0,4.875 v 16.25 C 0,23.818 2.182,26 4.875,26 h 16.25 C 23.818,26 26,23.818 26,21.125 V 4.875 C 26,2.182 23.818,0 21.125,0 Z M 18,12 H 8 L 4,7 c 0,0 3,-4 9,-4 6,0 9,4 9,4 z"
       id="path2"
       inkscape:connector-curvature="0" /><polygon
       style="fill:#385fa0;fill-opacity:1"
       points="15.613,11 16.982,5.01 13.02,11 "
       id="polygon4" /></g><g
     id="g8"
     style="fill:#385fa0;fill-opacity:1"
     transform="scale(1.9230769)" /><g
     id="g10"
     style="fill:#385fa0;fill-opacity:1"
     transform="scale(1.9230769)" /><g
     id="g12"
     style="fill:#385fa0;fill-opacity:1"
     transform="scale(1.9230769)" /><g
     id="g14"
     style="fill:#385fa0;fill-opacity:1"
     transform="scale(1.9230769)" /><g
     id="g16"
     style="fill:#385fa0;fill-opacity:1"
     transform="scale(1.9230769)" /><g
     id="g18"
     style="fill:#385fa0;fill-opacity:1"
     transform="scale(1.9230769)" /><g
     id="g20"
     style="fill:#385fa0;fill-opacity:1"
     transform="scale(1.9230769)" /><g
     id="g22"
     style="fill:#385fa0;fill-opacity:1"
     transform="scale(1.9230769)" /><g
     id="g24"
     style="fill:#385fa0;fill-opacity:1"
     transform="scale(1.9230769)" /><g
     id="g26"
     style="fill:#385fa0;fill-opacity:1"
     transform="scale(1.9230769)" /><g
     id="g28"
     style="fill:#385fa0;fill-opacity:1"
     transform="scale(1.9230769)" /><g
     id="g30"
     style="fill:#385fa0;fill-opacity:1"
     transform="scale(1.9230769)" /><g
     id="g32"
     style="fill:#385fa0;fill-opacity:1"
     transform="scale(1.9230769)" /><g
     id="g34"
     style="fill:#385fa0;fill-opacity:1"
     transform="scale(1.9230769)" /><g
     id="g36"
     style="fill:#385fa0;fill-opacity:1"
     transform="scale(1.9230769)" /><g
     transform="scale(1.9230769)"
     style="fill:#385fa0;fill-opacity:1"
     id="g29"><path
       inkscape:connector-curvature="0"
       id="path24"
       d="M 21.125,0 H 4.875 C 2.182,0 0,2.182 0,4.875 v 16.25 C 0,23.818 2.182,26 4.875,26 h 16.25 C 23.818,26 26,23.818 26,21.125 V 4.875 C 26,2.182 23.818,0 21.125,0 Z M 18,12 H 8 L 4,7 c 0,0 3,-4 9,-4 6,0 9,4 9,4 z"
       style="fill:#385fa0;fill-opacity:1" /><polygon
       id="polygon26"
       points="15.613,11 16.982,5.01 13.02,11 "
       style="fill:#385fa0;fill-opacity:1" /></g><g
     transform="scale(1.9230769)"
     style="fill:#385fa0;fill-opacity:1"
     id="g31" /><g
     transform="scale(1.9230769)"
     style="fill:#385fa0;fill-opacity:1"
     id="g33" /><g
     transform="scale(1.9230769)"
     style="fill:#385fa0;fill-opacity:1"
     id="g35" /><g
     transform="scale(1.9230769)"
     style="fill:#385fa0;fill-opacity:1"
     id="g37" /><g
     transform="scale(1.9230769)"
     style="fill:#385fa0;fill-opacity:1"
     id="g39" /><g
     transform="scale(1.9230769)"
     style="fill:#385fa0;fill-opacity:1"
     id="g41" /><g
     transform="scale(1.9230769)"
     style="fill:#385fa0;fill-opacity:1"
     id="g43" /><g
     transform="scale(1.9230769)"
     style="fill:#385fa0;fill-opacity:1"
     id="g45" /><g
     transform="scale(1.9230769)"
     style="fill:#385fa0;fill-opacity:1"
     id="g47" /><g
     transform="scale(1.9230769)"
     style="fill:#385fa0;fill-opacity:1"
     id="g49" /><g
     transform="scale(1.9230769)"
     style="fill:#385fa0;fill-opacity:1"
     id="g51" /><g
     transform="scale(1.9230769)"
     style="fill:#385fa0;fill-opacity:1"
     id="g53" /><g
     transform="scale(1.9230769)"
     style="fill:#385fa0;fill-opacity:1"
     id="g55" /><g
     transform="scale(1.9230769)"
     style="fill:#385fa0;fill-opacity:1"
     id="g57" /><g
     transform="scale(1.9230769)"
     style="fill:#385fa0;fill-opacity:1"
     id="g59" /></svg>
