<svg width="100" height="100" viewBox="0 0 100 100" fill="none" xmlns="http://www.w3.org/2000/svg">
<path d="M90.625 4.6875C86.3172 4.6875 82.8125 8.19219 82.8125 12.5V14.0625H76.5625V9.375C76.5625 8.5125 75.8641 7.8125 75 7.8125H73.4375V3.125C73.4375 2.2625 72.7391 1.5625 71.875 1.5625H62.5C61.6359 1.5625 60.9375 2.2625 60.9375 3.125V7.8125H59.375C58.5109 7.8125 57.8125 8.5125 57.8125 9.375V14.0625H50C47.4156 14.0625 45.3125 16.1656 45.3125 18.75V57.8125H42.1875C40.4641 57.8125 39.0625 56.4109 39.0625 54.6875V45.3125H40.625C41.4891 45.3125 42.1875 44.6125 42.1875 43.75V25C42.1875 24.1375 41.4891 23.4375 40.625 23.4375H39.0625V14.0625C39.0625 13.7078 38.9422 13.3641 38.7203 13.0859L32.4703 5.27344L30.0297 7.225L35.9375 14.6109V23.4375H34.375C33.5109 23.4375 32.8125 24.1375 32.8125 25V43.75C32.8125 44.6125 33.5109 45.3125 34.375 45.3125H35.9375V54.6875C35.9375 58.1344 38.7406 60.9375 42.1875 60.9375H45.3125V71.875C45.3125 74.4594 47.4156 76.5625 50 76.5625H84.375C86.9594 76.5625 89.0625 74.4594 89.0625 71.875V60.9375H92.1875C95.6344 60.9375 98.4375 58.1344 98.4375 54.6875V12.5C98.4375 8.19219 94.9328 4.6875 90.625 4.6875ZM35.9375 26.5625H39.0625V42.1875H35.9375V26.5625ZM64.0625 4.6875H70.3125V7.8125H64.0625V4.6875ZM60.9375 10.9375H73.4375V14.0625H60.9375V10.9375ZM50 17.1875H84.375C85.2375 17.1875 85.9375 17.8891 85.9375 18.75V23.4375H48.4375V18.75C48.4375 17.8891 49.1375 17.1875 50 17.1875ZM85.9375 26.5625V64.0625H48.4375V26.5625H85.9375ZM84.375 73.4375H50C49.1375 73.4375 48.4375 72.7359 48.4375 71.875V67.1875H85.9375V71.875C85.9375 72.7359 85.2375 73.4375 84.375 73.4375ZM95.3125 54.6875C95.3125 56.4109 93.9109 57.8125 92.1875 57.8125H89.0625V18.75C89.0625 16.7156 87.7515 14.9969 85.9375 14.35V12.5C85.9375 9.91562 88.0406 7.8125 90.625 7.8125C93.2094 7.8125 95.3125 9.91562 95.3125 12.5V54.6875Z" fill="#385FA0"/>
<path d="M67.1875 60.9375C75.8031 60.9375 82.8125 53.9281 82.8125 45.3125C82.8125 36.6969 75.8031 29.6875 67.1875 29.6875C58.5719 29.6875 51.5625 36.6969 51.5625 45.3125C51.5625 53.9281 58.5719 60.9375 67.1875 60.9375ZM67.1875 57.8125C64.3031 57.8125 61.6516 56.8219 59.5344 55.1734L64.9391 49.7687C66.5516 50.9281 68.475 51.5625 70.5016 51.5625H71.875C72.7391 51.5625 73.4375 50.8625 73.4375 50V48.6266C73.4375 46.6016 72.8031 44.6781 71.6438 43.0656L77.05 37.6609C78.6969 39.7781 79.6875 42.4281 79.6875 45.3125C79.6875 52.2047 74.0797 57.8125 67.1875 57.8125ZM64.0656 42.1906C65.1797 42.2219 66.2344 42.5578 67.1703 43.1203L64.9984 45.2906C64.4406 44.3531 64.1 43.2875 64.0656 42.1906ZM70.3094 48.4344C69.1953 48.4031 68.1406 48.0672 67.2047 47.5047L69.3766 45.3344C69.9344 46.2719 70.275 47.3375 70.3094 48.4344ZM67.1875 32.8125C70.0719 32.8125 72.7234 33.8031 74.8406 35.4516L69.4359 40.8563C67.8234 39.6969 65.9 39.0625 63.8734 39.0625H62.5C61.6359 39.0625 60.9375 39.7625 60.9375 40.625V41.9984C60.9375 44.0234 61.5719 45.9469 62.7312 47.5594L57.325 52.9641C55.6781 50.8469 54.6875 48.1969 54.6875 45.3125C54.6875 38.4203 60.2953 32.8125 67.1875 32.8125Z" fill="#385FA0"/>
<path d="M46.875 79.6875H45.5016C42.9453 79.6875 40.5437 80.6828 38.7391 82.4891C38.2687 82.9594 37.8563 83.4719 37.5 84.0141C37.1437 83.4719 36.7313 82.9594 36.2609 82.4891C34.4563 80.6828 32.0547 79.6875 29.4984 79.6875H28.125C27.2609 79.6875 26.5625 80.3875 26.5625 81.25V82.6234C26.5625 85.1766 27.5578 87.5781 29.3641 89.3859C31.125 91.1484 33.4531 92.1297 35.9375 92.1781V98.4375H39.0625V92.1781C41.5469 92.1297 43.8766 91.1469 45.6359 89.3859C47.4422 87.5781 48.4375 85.1766 48.4375 82.6234V81.25C48.4375 80.3875 47.7391 79.6875 46.875 79.6875ZM31.5734 87.1766C30.4203 86.0219 29.7406 84.4422 29.6906 82.8156C31.3391 82.8625 32.8812 83.5281 34.0516 84.6984C35.2047 85.8531 35.8844 87.4328 35.9344 89.0594C34.2859 89.0125 32.7438 88.3469 31.5734 87.1766ZM43.4266 87.1766C42.2562 88.3484 40.7141 89.0125 39.0656 89.0594C39.1156 87.4328 39.7953 85.8531 40.9484 84.6984C42.1188 83.5266 43.6609 82.8625 45.3094 82.8156C45.2594 84.4422 44.5797 86.0219 43.4266 87.1766Z" fill="#385FA0"/>
<path d="M71.875 79.6875H70.5016C67.9453 79.6875 65.5437 80.6828 63.7391 82.4891C63.2687 82.9594 62.8563 83.4719 62.5 84.0141C62.1437 83.4719 61.7313 82.9594 61.2609 82.4891C59.4563 80.6828 57.0547 79.6875 54.4984 79.6875H53.125C52.2609 79.6875 51.5625 80.3875 51.5625 81.25V82.6234C51.5625 85.1766 52.5578 87.5781 54.3641 89.3859C56.125 91.1484 58.4531 92.1297 60.9375 92.1781V98.4375H64.0625V92.1781C66.5469 92.1297 68.8766 91.1469 70.6359 89.3859C72.4422 87.5781 73.4375 85.1766 73.4375 82.6234V81.25C73.4375 80.3875 72.7391 79.6875 71.875 79.6875ZM56.5734 87.1766C55.4203 86.0219 54.7406 84.4422 54.6906 82.8156C56.3391 82.8625 57.8812 83.5281 59.0516 84.6984C60.2047 85.8531 60.8844 87.4328 60.9344 89.0594C59.2859 89.0125 57.7438 88.3469 56.5734 87.1766ZM68.4266 87.1766C67.2562 88.3484 65.7141 89.0125 64.0656 89.0594C64.1156 87.4328 64.7953 85.8531 65.9484 84.6984C67.1188 83.5266 68.6609 82.8625 70.3094 82.8156C70.2594 84.4422 69.5797 86.0219 68.4266 87.1766Z" fill="#385FA0"/>
<path d="M96.875 79.6875H95.5016C92.9453 79.6875 90.5437 80.6828 88.7391 82.4891C88.2687 82.9594 87.8563 83.4719 87.5 84.0141C87.1437 83.4719 86.7313 82.9594 86.2609 82.4891C84.4563 80.6828 82.0547 79.6875 79.4984 79.6875H78.125C77.2609 79.6875 76.5625 80.3875 76.5625 81.25V82.6234C76.5625 85.1766 77.5578 87.5781 79.3641 89.3859C81.125 91.1484 83.4531 92.1297 85.9375 92.1781V98.4375H89.0625V92.1781C91.5469 92.1297 93.8766 91.1469 95.6359 89.3859C97.4422 87.5781 98.4375 85.1766 98.4375 82.6234V81.25C98.4375 80.3875 97.7391 79.6875 96.875 79.6875ZM81.5734 87.1766C80.4203 86.0219 79.7406 84.4422 79.6906 82.8156C81.3391 82.8625 82.8812 83.5281 84.0516 84.6984C85.2047 85.8531 85.8844 87.4328 85.9344 89.0594C84.2859 89.0125 82.7438 88.3469 81.5734 87.1766ZM93.4266 87.1766C92.2562 88.3484 90.7141 89.0125 89.0656 89.0594C89.1156 87.4328 89.7953 85.8531 90.9484 84.6984C92.1188 83.5266 93.6609 82.8625 95.3094 82.8156C95.2594 84.4422 94.5797 86.0219 93.4266 87.1766Z" fill="#385FA0"/>
<path d="M21.875 62.5H20.5016C17.9453 62.5 15.5438 63.4953 13.7391 65.3016C13.2688 65.7719 12.8563 66.2844 12.5 66.8266C12.1437 66.2844 11.7312 65.7719 11.2609 65.3016C9.45625 63.4953 7.05469 62.5 4.49844 62.5H3.125C2.26094 62.5 1.5625 63.2 1.5625 64.0625V65.4359C1.5625 67.9891 2.55781 70.3906 4.36406 72.1984C6.12344 73.9609 8.45312 74.9422 10.9375 74.9906V82.1953C9.17344 80.5812 6.90781 79.6875 4.49844 79.6875H3.125C2.26094 79.6875 1.5625 80.3875 1.5625 81.25V82.6234C1.5625 85.1766 2.55781 87.5781 4.36406 89.3859C6.12344 91.1484 8.45312 92.1297 10.9375 92.1781V98.4375H14.0625V92.1781C16.5469 92.1297 18.8766 91.1469 20.6359 89.3859C22.4422 87.5781 23.4375 85.1766 23.4375 82.6234V81.25C23.4375 80.3875 22.7391 79.6875 21.875 79.6875H20.5016C18.0922 79.6875 15.8266 80.5812 14.0625 82.1953V74.9906C16.5469 74.9422 18.8766 73.9594 20.6359 72.1984C22.4422 70.3906 23.4375 67.9891 23.4375 65.4359V64.0625C23.4375 63.2 22.7391 62.5 21.875 62.5ZM6.57344 69.9891C5.42031 68.8344 4.74063 67.2547 4.69063 65.6281C6.33906 65.675 7.88125 66.3406 9.05156 67.5109C10.2047 68.6656 10.8844 70.2453 10.9344 71.8719C9.28594 71.825 7.74375 71.1594 6.57344 69.9891ZM6.57344 87.1766C5.42031 86.0219 4.74063 84.4422 4.69063 82.8156C6.33906 82.8625 7.88125 83.5281 9.05156 84.6984C10.2047 85.8531 10.8844 87.4328 10.9344 89.0594C9.28594 89.0125 7.74375 88.3469 6.57344 87.1766ZM15.9484 84.6984C17.1187 83.5266 18.6609 82.8625 20.3094 82.8156C20.2594 84.4422 19.5797 86.0219 18.4266 87.1766C17.2563 88.3484 15.7141 89.0125 14.0656 89.0594C14.1156 87.4328 14.7953 85.8531 15.9484 84.6984ZM18.4266 69.9891C17.2563 71.1609 15.7141 71.825 14.0656 71.8719C14.1156 70.2453 14.7953 68.6656 15.9484 67.5109C17.1187 66.3391 18.6609 65.675 20.3094 65.6281C20.2594 67.2547 19.5797 68.8344 18.4266 69.9891Z" fill="#385FA0"/>
<path d="M8.91719 22.9797L12.5 19.3969L16.0828 22.9797L18.2922 20.7703L14.7094 17.1875L18.2922 13.6047L16.0828 11.3953L12.5 14.9781L8.91719 11.3953L6.70781 13.6047L10.2906 17.1875L6.70781 20.7703L8.91719 22.9797Z" fill="#385FA0"/>
<path d="M8.91719 38.6047L12.5 35.0219L16.0828 38.6047L18.2922 36.3953L14.7094 32.8125L18.2922 29.2297L16.0828 27.0203L12.5 30.6031L8.91719 27.0203L6.70781 29.2297L10.2906 32.8125L6.70781 36.3953L8.91719 38.6047Z" fill="#385FA0"/>
<path d="M8.91719 54.2297L12.5 50.6469L16.0828 54.2297L18.2922 52.0203L14.7094 48.4375L18.2922 44.8547L16.0828 42.6453L12.5 46.2281L8.91719 42.6453L6.70781 44.8547L10.2906 48.4375L6.70781 52.0203L8.91719 54.2297Z" fill="#385FA0"/>
</svg>
