<?xml version="1.0" encoding="UTF-8" standalone="no"?>
<!-- Generator: Adobe Illustrator 18.0.0, SVG Export Plug-In . SVG Version: 6.00 Build 0)  -->

<svg
   xmlns:dc="http://purl.org/dc/elements/1.1/"
   xmlns:cc="http://creativecommons.org/ns#"
   xmlns:rdf="http://www.w3.org/1999/02/22-rdf-syntax-ns#"
   xmlns:svg="http://www.w3.org/2000/svg"
   xmlns="http://www.w3.org/2000/svg"
   xmlns:sodipodi="http://sodipodi.sourceforge.net/DTD/sodipodi-0.dtd"
   xmlns:inkscape="http://www.inkscape.org/namespaces/inkscape"
   version="1.1"
   id="Capa_1"
   x="0px"
   y="0px"
   viewBox="0 0 49.999999 49.999999"
   xml:space="preserve"
   sodipodi:docname="potatoes.svg"
   width="50"
   height="50"
   inkscape:version="0.92.2 5c3e80d, 2017-08-06"><metadata
     id="metadata1084"><rdf:RDF><cc:Work
         rdf:about=""><dc:format>image/svg+xml</dc:format><dc:type
           rdf:resource="http://purl.org/dc/dcmitype/StillImage" /><dc:title></dc:title></cc:Work></rdf:RDF></metadata><defs
     id="defs1082" /><sodipodi:namedview
     pagecolor="#ffffff"
     bordercolor="#666666"
     borderopacity="1"
     objecttolerance="10"
     gridtolerance="10"
     guidetolerance="10"
     inkscape:pageopacity="0"
     inkscape:pageshadow="2"
     inkscape:window-width="1444"
     inkscape:window-height="852"
     id="namedview1080"
     showgrid="false"
     inkscape:showpageshadow="false"
     inkscape:zoom="4.303585"
     inkscape:cx="27.419001"
     inkscape:cy="27.419001"
     inkscape:window-x="0"
     inkscape:window-y="0"
     inkscape:window-maximized="0"
     inkscape:current-layer="Capa_1" /><g
     id="g1047"
     style="fill:#8c8c8c;fill-opacity:1"
     transform="matrix(0.91179547,0,0,0.96967278,6.8690518e-5,-1.3220388)"><path
       d="m 13.132,21.31 0.943,-1.348 c 1.117,-1.598 2.707,-2.896 4.857,-3.969 1.553,-0.774 3.323,-1.301 5.159,-1.698 C 23.958,14.152 23.83,14.017 23.696,13.872 21.068,11.045 18.089,7.841 14.957,6.222 13.175,5.301 11.551,4.852 9.991,4.852 7.28,4.852 4.934,6.18 2.611,9.03 -1.485,14.054 -0.658,22.004 4.373,28.745 5.744,24.507 8.683,22.02 13.132,21.31 Z M 8.203,11.615 11.629,9.321 c 0.458,-0.308 1.08,-0.184 1.387,0.275 0.307,0.458 0.184,1.08 -0.275,1.387 L 9.315,13.277 C 9.145,13.391 8.951,13.446 8.76,13.446 8.437,13.446 8.121,13.29 7.928,13.002 7.621,12.543 7.744,11.922 8.203,11.615 Z M 4.225,18.291 C 3.758,17.996 3.618,17.379 3.913,16.912 4.207,16.445 4.827,16.306 5.292,16.6 l 3.487,2.2 c 0.467,0.295 0.607,0.912 0.312,1.379 -0.19,0.301 -0.515,0.466 -0.847,0.466 -0.183,0 -0.367,-0.05 -0.533,-0.154 z"
       id="path1041"
       style="fill:#8c8c8c;fill-opacity:1"
       inkscape:connector-curvature="0" /><path
       d="m 54.474,19.031 c -1.218,-4.653 -3.431,-6.638 -7.401,-6.638 -2.582,0 -5.921,0.822 -10.356,1.982 -1.453,0.38 -3.448,0.617 -5.561,0.867 -3.833,0.454 -8.178,0.969 -11.332,2.542 -1.839,0.917 -3.198,2.019 -4.112,3.325 3.582,0.012 7.609,1.157 11.134,2.188 1.975,0.577 3.838,1.122 5.187,1.321 5.907,0.872 9.688,1.521 12.391,3.187 2.225,1.372 3.492,3.377 3.87,6.042 5.116,-4.129 7.514,-9.72 6.18,-14.816 z m -18.245,4.321 c -0.082,0.021 -0.163,0.03 -0.244,0.03 -0.448,0 -0.855,-0.303 -0.969,-0.757 l -1,-4 c -0.134,-0.536 0.192,-1.079 0.728,-1.213 0.537,-0.133 1.079,0.192 1.213,0.728 l 1,4 c 0.134,0.535 -0.192,1.078 -0.728,1.212 z m 13.483,-0.23 -3.053,2.771 c -0.191,0.174 -0.432,0.259 -0.671,0.259 -0.272,0 -0.543,-0.11 -0.741,-0.328 -0.371,-0.409 -0.34,-1.042 0.069,-1.413 l 3.053,-2.771 c 0.409,-0.371 1.041,-0.34 1.413,0.069 0.37,0.409 0.339,1.042 -0.07,1.413 z"
       id="path1043"
       style="fill:#8c8c8c;fill-opacity:1"
       inkscape:connector-curvature="0" /><path
       d="M 43.376,29.508 C 41.001,28.044 37.397,27.431 31.743,26.597 30.256,26.378 28.328,25.814 26.286,25.217 22.598,24.138 18.364,22.904 14.865,23.118 9.442,23.445 6.528,26.22 5.697,31.852 5.103,35.879 6.7,39.96 10.196,43.344 c 3.407,3.298 8.234,5.549 13.592,6.34 1.363,0.201 2.74,0.303 4.092,0.303 9.61,0 17.339,-5.11 18.377,-12.15 0.613,-4.154 -0.275,-6.722 -2.881,-8.329 z m -29.147,8.247 c -0.082,0.021 -0.163,0.03 -0.244,0.03 -0.448,0 -0.855,-0.303 -0.969,-0.757 l -1,-4 c -0.134,-0.536 0.192,-1.079 0.728,-1.213 0.536,-0.135 1.079,0.192 1.213,0.728 l 1,4 c 0.134,0.536 -0.192,1.079 -0.728,1.212 z m 11.092,-4.633 c 0.146,-0.532 0.696,-0.848 1.229,-0.7 l 3.976,1.092 c 0.533,0.146 0.846,0.697 0.7,1.229 -0.122,0.444 -0.525,0.736 -0.964,0.736 -0.087,0 -0.177,-0.012 -0.265,-0.036 l -3.976,-1.092 c -0.533,-0.147 -0.846,-0.697 -0.7,-1.229 z m 6.222,10.2 -3.426,2.294 c -0.17,0.114 -0.364,0.169 -0.555,0.169 -0.323,0 -0.639,-0.156 -0.832,-0.444 -0.307,-0.458 -0.184,-1.08 0.275,-1.387 l 3.426,-2.294 c 0.458,-0.307 1.08,-0.184 1.387,0.275 0.307,0.459 0.184,1.08 -0.275,1.387 z"
       id="path1045"
       style="fill:#8c8c8c;fill-opacity:1"
       inkscape:connector-curvature="0" /></g><g
     id="g1049"
     style="fill:#8c8c8c;fill-opacity:1"
     transform="matrix(0.91179547,0,0,0.96967278,6.8690518e-5,-1.3220388)" /><g
     id="g1051"
     style="fill:#8c8c8c;fill-opacity:1"
     transform="matrix(0.91179547,0,0,0.96967278,6.8690518e-5,-1.3220388)" /><g
     id="g1053"
     style="fill:#8c8c8c;fill-opacity:1"
     transform="matrix(0.91179547,0,0,0.96967278,6.8690518e-5,-1.3220388)" /><g
     id="g1055"
     style="fill:#8c8c8c;fill-opacity:1"
     transform="matrix(0.91179547,0,0,0.96967278,6.8690518e-5,-1.3220388)" /><g
     id="g1057"
     style="fill:#8c8c8c;fill-opacity:1"
     transform="matrix(0.91179547,0,0,0.96967278,6.8690518e-5,-1.3220388)" /><g
     id="g1059"
     style="fill:#8c8c8c;fill-opacity:1"
     transform="matrix(0.91179547,0,0,0.96967278,6.8690518e-5,-1.3220388)" /><g
     id="g1061"
     style="fill:#8c8c8c;fill-opacity:1"
     transform="matrix(0.91179547,0,0,0.96967278,6.8690518e-5,-1.3220388)" /><g
     id="g1063"
     style="fill:#8c8c8c;fill-opacity:1"
     transform="matrix(0.91179547,0,0,0.96967278,6.8690518e-5,-1.3220388)" /><g
     id="g1065"
     style="fill:#8c8c8c;fill-opacity:1"
     transform="matrix(0.91179547,0,0,0.96967278,6.8690518e-5,-1.3220388)" /><g
     id="g1067"
     style="fill:#8c8c8c;fill-opacity:1"
     transform="matrix(0.91179547,0,0,0.96967278,6.8690518e-5,-1.3220388)" /><g
     id="g1069"
     style="fill:#8c8c8c;fill-opacity:1"
     transform="matrix(0.91179547,0,0,0.96967278,6.8690518e-5,-1.3220388)" /><g
     id="g1071"
     style="fill:#8c8c8c;fill-opacity:1"
     transform="matrix(0.91179547,0,0,0.96967278,6.8690518e-5,-1.3220388)" /><g
     id="g1073"
     style="fill:#8c8c8c;fill-opacity:1"
     transform="matrix(0.91179547,0,0,0.96967278,6.8690518e-5,-1.3220388)" /><g
     id="g1075"
     style="fill:#8c8c8c;fill-opacity:1"
     transform="matrix(0.91179547,0,0,0.96967278,6.8690518e-5,-1.3220388)" /><g
     id="g1077"
     style="fill:#8c8c8c;fill-opacity:1"
     transform="matrix(0.91179547,0,0,0.96967278,6.8690518e-5,-1.3220388)" /></svg>
