<?xml version="1.0" encoding="UTF-8" standalone="no"?>
<!-- Generator: Adobe Illustrator 16.0.0, SVG Export Plug-In . SVG Version: 6.00 Build 0)  -->

<svg
   xmlns:dc="http://purl.org/dc/elements/1.1/"
   xmlns:cc="http://creativecommons.org/ns#"
   xmlns:rdf="http://www.w3.org/1999/02/22-rdf-syntax-ns#"
   xmlns:svg="http://www.w3.org/2000/svg"
   xmlns="http://www.w3.org/2000/svg"
   xmlns:sodipodi="http://sodipodi.sourceforge.net/DTD/sodipodi-0.dtd"
   xmlns:inkscape="http://www.inkscape.org/namespaces/inkscape"
   version="1.1"
   id="Capa_1"
   x="0px"
   y="0px"
   width="50"
   height="50"
   viewBox="0 0 49.999998 49.999998"
   xml:space="preserve"
   sodipodi:docname="pregnant-woman.svg"
   inkscape:version="0.92.2 5c3e80d, 2017-08-06"><metadata
     id="metadata41"><rdf:RDF><cc:Work
         rdf:about=""><dc:format>image/svg+xml</dc:format><dc:type
           rdf:resource="http://purl.org/dc/dcmitype/StillImage" /><dc:title></dc:title></cc:Work></rdf:RDF></metadata><defs
     id="defs39" /><sodipodi:namedview
     pagecolor="#ffffff"
     bordercolor="#666666"
     borderopacity="1"
     objecttolerance="10"
     gridtolerance="10"
     guidetolerance="10"
     inkscape:pageopacity="0"
     inkscape:pageshadow="2"
     inkscape:window-width="1443"
     inkscape:window-height="855"
     id="namedview37"
     showgrid="false"
     inkscape:showpageshadow="false"
     inkscape:zoom="5.9344194"
     inkscape:cx="66.85864"
     inkscape:cy="22.885336"
     inkscape:window-x="0"
     inkscape:window-y="0"
     inkscape:window-maximized="0"
     inkscape:current-layer="Capa_1" /><g
     id="g4"
     style="fill:#385fa0;fill-opacity:1"
     transform="matrix(0.84145843,0,0,0.62863824,-8.144227,9.9688721e-4)"><path
       style="fill:#385fa0;fill-opacity:1"
       d="M 28.962,12.2 C 30.976,11.439 30.51,6.628 30.51,6.628 30.51,2.97 33.485,0 37.154,0 c 3.658,0 6.639,2.97 6.639,6.628 0,3.674 -2.98,6.648 -6.639,6.648 -1.23,0 -2.322,-0.435 -3.304,-1.002 -2.747,0.198 -6.134,0.394 -4.888,-0.074 z m 20.032,32.394 c 0.047,4.868 -0.187,8.389 -0.187,8.389 h -8.43 l -1.362,24.959 c 0,0.87 -0.699,1.595 -1.595,1.595 -0.87,0 -1.587,-0.725 -1.587,-1.595 L 34.466,52.983 H 30.981 L 33.236,24.98 28.522,44.709 c -0.228,0.979 -1.103,1.646 -2.074,1.646 -0.152,0 -0.318,-0.021 -0.481,-0.052 -1.139,-0.27 -1.856,-1.413 -1.592,-2.553 0,0 3.485,-19.91 5.145,-23.304 v -0.01 c 0,-0.005 0.005,-0.005 0.005,-0.005 1.654,-3.399 1.882,-5.445 7.99,-5.445 4.512,0 7.259,3.992 8.953,9.362 4.971,0.935 8.751,5.281 8.751,10.532 0.003,4.31 -2.554,8.005 -6.225,9.714 z M 52.359,33.51 c 0,-1.341 -1.092,-2.428 -2.438,-2.428 -1.108,0 -1.885,0.812 -2.186,1.841 -0.3,-1.023 -1.077,-1.841 -2.185,-1.841 -1.35,0 -2.437,1.087 -2.437,2.428 0,2.827 4.621,5.341 4.621,5.341 0,0 4.625,-2.508 4.625,-5.341 z"
       id="path2"
       inkscape:connector-curvature="0" /></g><g
     id="g6"
     style="fill:#385fa0;fill-opacity:1"
     transform="matrix(0.84145843,0,0,0.62863824,-8.144227,9.9688721e-4)" /><g
     id="g8"
     style="fill:#385fa0;fill-opacity:1"
     transform="matrix(0.84145843,0,0,0.62863824,-8.144227,9.9688721e-4)" /><g
     id="g10"
     style="fill:#385fa0;fill-opacity:1"
     transform="matrix(0.84145843,0,0,0.62863824,-8.144227,9.9688721e-4)" /><g
     id="g12"
     style="fill:#385fa0;fill-opacity:1"
     transform="matrix(0.84145843,0,0,0.62863824,-8.144227,9.9688721e-4)" /><g
     id="g14"
     style="fill:#385fa0;fill-opacity:1"
     transform="matrix(0.84145843,0,0,0.62863824,-8.144227,9.9688721e-4)" /><g
     id="g16"
     style="fill:#385fa0;fill-opacity:1"
     transform="matrix(0.84145843,0,0,0.62863824,-8.144227,9.9688721e-4)" /><g
     id="g18"
     style="fill:#385fa0;fill-opacity:1"
     transform="matrix(0.84145843,0,0,0.62863824,-8.144227,9.9688721e-4)" /><g
     id="g20"
     style="fill:#385fa0;fill-opacity:1"
     transform="matrix(0.84145843,0,0,0.62863824,-8.144227,9.9688721e-4)" /><g
     id="g22"
     style="fill:#385fa0;fill-opacity:1"
     transform="matrix(0.84145843,0,0,0.62863824,-8.144227,9.9688721e-4)" /><g
     id="g24"
     style="fill:#385fa0;fill-opacity:1"
     transform="matrix(0.84145843,0,0,0.62863824,-8.144227,9.9688721e-4)" /><g
     id="g26"
     style="fill:#385fa0;fill-opacity:1"
     transform="matrix(0.84145843,0,0,0.62863824,-8.144227,9.9688721e-4)" /><g
     id="g28"
     style="fill:#385fa0;fill-opacity:1"
     transform="matrix(0.84145843,0,0,0.62863824,-8.144227,9.9688721e-4)" /><g
     id="g30"
     style="fill:#385fa0;fill-opacity:1"
     transform="matrix(0.84145843,0,0,0.62863824,-8.144227,9.9688721e-4)" /><g
     id="g32"
     style="fill:#385fa0;fill-opacity:1"
     transform="matrix(0.84145843,0,0,0.62863824,-8.144227,9.9688721e-4)" /><g
     id="g34"
     style="fill:#385fa0;fill-opacity:1"
     transform="matrix(0.84145843,0,0,0.62863824,-8.144227,9.9688721e-4)" /></svg>
