<svg width="100" height="100" viewBox="0 0 100 100" fill="none" xmlns="http://www.w3.org/2000/svg">
<g clip-path="url(#clip0)">
<path d="M34.2301 26.6838C34.7617 26.0738 34.6981 25.1486 34.0883 24.617C33.4783 24.0853 32.5531 24.1488 32.0215 24.7588C31.642 25.1941 30.9742 25.1943 30.5945 24.7588C30.0631 24.1488 29.1377 24.0853 28.5278 24.6168C27.9178 25.1482 27.8543 26.0736 28.3858 26.6836C29.9321 28.458 32.6856 28.4559 34.2301 26.6838Z" fill="#385FA0"/>
<path d="M21.4601 24.0353C22.0699 24.5668 22.9951 24.5035 23.5269 23.8936C23.9066 23.4582 24.5744 23.458 24.9541 23.8936C25.2437 24.226 25.6502 24.3959 26.059 24.3959C27.2984 24.3959 27.9957 22.9244 27.1627 21.9686C25.6164 20.1945 22.8632 20.1963 21.3185 21.9686C20.7867 22.5787 20.8504 23.5039 21.4601 24.0353Z" fill="#385FA0"/>
<path d="M35.5955 24.0354C36.2052 24.5668 37.1304 24.5035 37.6621 23.8936C38.0416 23.4582 38.7095 23.458 39.089 23.8936C39.6207 24.5037 40.5461 24.5668 41.1558 24.0355C41.7658 23.5041 41.8293 22.5787 41.2978 21.9688C39.7517 20.1943 36.9982 20.1965 35.4537 21.9688C34.922 22.5787 34.9855 23.5039 35.5955 24.0354V24.0354Z" fill="#385FA0"/>
<path d="M71.4723 24.617C70.8623 24.0853 69.9371 24.1488 69.4055 24.7588C69.0258 25.1941 68.358 25.1943 67.9783 24.7588C67.4469 24.1488 66.5215 24.0855 65.9115 24.617C65.3016 25.1484 65.2381 26.0738 65.7697 26.6838C67.316 28.4578 70.0691 28.4561 71.6139 26.6838C72.1457 26.0738 72.082 25.1484 71.4723 24.617V24.617Z" fill="#385FA0"/>
<path d="M75.0459 23.8936C75.4256 23.4582 76.0934 23.458 76.4731 23.8936C77.0047 24.5035 77.9301 24.5668 78.5399 24.0354C79.1498 23.5039 79.2133 22.5785 78.6817 21.9686C77.1354 20.1945 74.3822 20.1963 72.8375 21.9686C72.3059 22.5785 72.3696 23.5037 72.9793 24.0354C73.5891 24.567 74.5143 24.5035 75.0459 23.8936V23.8936Z" fill="#385FA0"/>
<path d="M58.7023 21.9687C58.1707 22.5787 58.2344 23.5039 58.8441 24.0355C59.4539 24.567 60.3791 24.5037 60.9107 23.8937C61.2902 23.4584 61.9582 23.4582 62.3377 23.8937C62.8691 24.5037 63.7945 24.5672 64.4045 24.0357C65.0144 23.5043 65.0779 22.5789 64.5465 21.9689C63.0004 20.1945 60.2469 20.1965 58.7023 21.9687V21.9687Z" fill="#385FA0"/>
<path d="M99.565 23.5072V18.4549C99.565 13.1291 95.232 8.7961 89.9062 8.7961H88.1377C84.033 3.45215 77.5814 0.000195925 70.3375 0.000195925C63.3773 0.000195925 56.9234 3.16152 52.6305 8.67383C52.5994 8.71387 52.5717 8.75528 52.542 8.7961H47.458C42.0068 1.32637 31.4094 -2.15703 21.8502 1.4041C21.0922 1.68652 20.7064 2.53008 20.9889 3.28809C21.2713 4.04629 22.115 4.43203 22.8728 4.14942C30.6551 1.25039 39.6687 3.5541 45.0582 10.474C45.7518 11.3645 45.4426 12.6227 44.5254 13.1541C43.9404 13.4922 45.1482 13.3973 26.5143 13.3973C20.2559 13.3973 15.1641 18.4889 15.1641 24.7475C15.1641 24.767 15.1834 31.1791 15.1379 31.2945C15.0922 31.4092 14.9943 31.49 14.8822 31.5174C14.7625 31.5457 14.1623 31.5244 13.576 31.3649C11.5795 30.8223 10.1564 28.9914 10.1564 26.8895C10.1627 22.5846 10.1228 21.9426 10.2394 20.6606C10.7508 15.1516 13.6191 10.033 18.1312 6.71426C18.783 6.23477 18.9227 5.31797 18.4434 4.66621C17.9641 4.01445 17.0471 3.87481 16.3955 4.3541C14.6682 5.62461 13.1519 7.12617 11.8738 8.79629H10.0937C4.76796 8.79629 0.43515 13.1293 0.43515 18.4551V23.5074C0.43515 27.8356 3.29667 31.5078 7.22714 32.7318V45.2586C3.29667 46.4826 0.43515 50.1549 0.43515 54.483V59.5354C0.43515 62.1701 1.49667 64.5606 3.21308 66.3051V84.2514C3.21288 92.9352 10.2775 100 18.9615 100H81.0385C89.7223 100 96.7871 92.9352 96.7871 84.2514V66.3051C98.5035 64.5608 99.565 62.1701 99.565 59.5354V54.483C99.565 50.1549 96.7035 46.4826 92.773 45.2586V32.7318C96.7035 31.5076 99.565 27.8354 99.565 23.5072V23.5072ZM54.9418 10.474C58.6758 5.67969 64.2873 2.92988 70.3375 2.92988C81.0502 2.92988 86.4082 11.2857 86.2113 11.1133C88.8211 14.7617 90.0598 19.1875 89.8371 23.5496C89.7127 25.9975 87.682 27.9506 85.2039 27.9506C85.0881 27.9506 84.982 27.8926 84.9141 27.8068C84.7992 27.6619 84.8451 27.7723 84.8357 24.7475C84.8357 18.4891 79.7441 13.3973 73.4855 13.3973H57.309C56.4494 13.3846 55.818 13.5137 55.1803 12.9412C54.4797 12.3133 54.3414 11.2449 54.9418 10.474V10.474ZM81.0871 34.9977C81.7412 34.4377 82.3545 33.8262 82.9182 33.166H89.8432V44.8242H84.8355C84.7777 44.5067 85.3824 39.3658 81.0871 34.9977ZM52.0414 42.6094C52.6367 42.3229 53.2973 42.2213 53.9328 42.2959C58.9371 42.8818 64.0559 41.3807 67.8891 38.2662C67.909 38.2567 70.0658 36.2578 72.3826 38.0598C72.5611 38.1988 72.7779 38.4055 72.925 38.5834C74.1373 40.0498 73.9305 42.2289 72.4643 43.4412C67.2453 47.7549 60.2461 49.9805 53.14 49.151C52.783 49.1063 52.4365 49.0252 52.0394 48.8352C52.2008 48.5465 52.3459 48.232 52.4603 47.9188C53.115 46.1381 52.9203 44.1826 52.0414 42.6094V42.6094ZM66.6439 35.5297C58.4211 33.2106 54.3424 23.9725 58.1812 16.3272H73.4855C78.1285 16.3272 81.9061 20.1045 81.9061 24.7477C81.9061 27.7004 81.8117 28.1422 82.2416 29.0266C80.4174 32.3072 77.3441 34.6309 73.9314 35.5608C71.793 34.0592 68.8609 33.9955 66.6439 35.5297V35.5297ZM75.9971 37.9772C76.8615 37.6611 77.8268 37.2147 78.667 36.7229C82.401 40.1963 81.8578 44.5695 81.9059 44.824H75.2025C76.7961 42.8822 77.0711 40.1594 75.9971 37.9772V37.9772ZM44.9514 16.1367C47.0385 15.5309 48.3035 13.6266 48.3685 11.7258H51.6314C51.7 13.7387 53.0644 15.56 55.0486 16.1367C53.2297 20.5535 53.3498 25.7734 55.7529 30.2361H44.2471C46.5982 25.8695 46.8111 20.6393 44.9514 16.1367V16.1367ZM57.7601 33.166C59.3725 35.0516 61.4092 36.5672 63.6709 37.5666C58.8519 40.184 54.6961 39.3565 53.5887 39.3438C52.2795 39.3287 51.0334 39.7156 50 40.4072C49.1324 39.8268 48.0482 39.4324 46.9059 39.3574C45.6217 39.2715 41.4549 40.3121 36.3289 37.5666C38.6357 36.5463 40.6658 35.0104 42.2396 33.166H57.7601ZM47.506 49.0135C46.5498 49.3129 40.3158 50.0877 33.6164 47.1705C31.3891 46.1975 29.3293 44.9244 27.5357 43.4412C26.0672 42.2272 25.8652 40.0469 27.075 38.5834C28.1318 37.3047 29.9684 36.9693 31.4082 37.7654C31.6609 37.9053 31.873 38.0678 32.1109 38.2662C38.884 43.6846 45.8527 42.2065 46.7769 42.2865C50.2639 42.5918 51.1644 47.8762 47.506 49.0135V49.0135ZM18.0939 24.7475C18.0939 20.1045 21.8713 16.327 26.5144 16.327H41.8185C45.659 23.9432 41.559 33.216 33.3561 35.5295C31.0961 33.9752 28.1764 34.0793 26.0693 35.56C22.6725 34.6281 19.8482 32.4244 18.0939 29.5977V24.7475ZM24.7955 44.8242H18.0937C18.142 44.5695 17.5973 40.1981 21.3324 36.7233C22.0685 37.1539 23.0732 37.6397 24.001 37.977C22.9037 40.209 23.2307 42.9176 24.7955 44.8242V44.8242ZM10.1566 33.166H10.5672C12.5523 34.5104 15.6465 35.1664 17.2555 33.3627C17.8107 33.9928 18.3482 34.5104 18.9148 34.9953C14.635 39.3459 15.2154 44.544 15.1641 44.8242H10.1566V33.166ZM3.36464 23.5072V18.4549C3.36464 14.7926 6.30566 11.8041 9.9498 11.7273C8.26796 14.8059 7.34179 18.2213 7.2373 21.7623C7.21913 22.359 7.23027 22.3414 7.22695 26.8893C7.22695 27.9225 7.4332 28.9225 7.82206 29.8418C5.22597 28.908 3.36464 26.4211 3.36464 23.5072V23.5072ZM96.6353 54.483V59.5354C96.6353 62.61 94.5562 65.2416 91.6725 66.0276C90.4273 66.3672 90.5791 66.2512 73.5062 66.2645C72.6973 66.2645 72.0414 66.9203 72.0414 67.7293C72.0414 68.5383 72.6973 69.1942 73.5062 69.1942C91.1414 69.1893 91.3973 69.452 93.8576 68.3485V84.2514C93.8576 91.3197 88.107 97.0703 81.0387 97.0703H18.9615C11.8932 97.0703 6.14257 91.3197 6.14257 84.2514V68.3485C6.70546 68.6008 7.35507 68.8197 7.9996 68.9629C9.61894 69.3219 6.39179 69.1893 67.6469 69.1942C68.4559 69.1942 69.1117 68.5383 69.1117 67.7293C69.1117 66.9203 68.4559 66.2645 67.6469 66.2645C6.17597 66.2611 9.77402 66.3236 8.83066 66.1438C5.68945 65.5445 3.36484 62.7854 3.36484 59.5354V54.483C3.36484 51.1627 5.78261 48.3983 8.9496 47.8533C9.78066 47.7108 9.65312 47.7539 28.4963 47.7539C33.4643 50.9334 39.5185 52.5781 45.6762 52.1957C47.4408 52.0858 48.6391 51.9453 50.0019 51.0371C50.8406 51.5723 51.7301 51.9359 52.7889 52.0598C59.0822 52.7973 65.7494 51.4156 71.5037 47.7539C90.9137 47.7539 90.2041 47.7084 91.05 47.8531C94.2174 48.3981 96.6353 51.1625 96.6353 54.483V54.483ZM91.0518 30.1367C90.1889 30.285 89.4853 30.2342 88.2586 30.2363C90.7435 29.1361 92.5615 26.7068 92.7539 23.8219C93.0166 19.91 92.0943 15.4695 90.0502 11.7273C93.6945 11.8041 96.6353 14.7926 96.6353 18.4549V23.5072C96.6353 26.8272 94.2182 29.5912 91.0518 30.1367Z" fill="#385FA0"/>
</g>
<defs>
<clipPath id="clip0">
<rect width="100" height="100" fill="white"/>
</clipPath>
</defs>
</svg>
