<svg width="147" height="147" viewBox="0 0 147 147" fill="none" xmlns="http://www.w3.org/2000/svg">
<g clip-path="url(#clip0)">
<path d="M99.3398 95.3203H107.953V103.934H99.3398V95.3203Z" fill="#33B6FF"/>
<path d="M82.1133 147C96.3614 147 107.953 135.408 107.953 121.16V120.727C117.77 118.726 125.18 110.026 125.18 99.627C125.18 87.7535 115.52 78.0938 103.646 78.0938C91.7731 78.0938 82.1133 87.7535 82.1133 99.627C82.1133 110.026 89.523 118.726 99.3398 120.727V121.16C99.3398 130.659 91.612 138.387 82.1133 138.387C72.6146 138.387 64.8867 130.659 64.8867 121.16V77.8531C84.2396 75.7038 99.3398 59.2505 99.3398 39.334V12.9199C99.3398 5.79588 93.544 0 86.4199 0H73.5V8.61328H86.4199C88.7946 8.61328 90.7266 10.5452 90.7266 12.9199V39.334C90.7266 55.9568 77.2029 69.4805 60.5801 69.4805C43.9573 69.4805 30.4336 55.9568 30.4336 39.334V12.9199C30.4336 10.5452 32.3656 8.61328 34.7402 8.61328H47.6602V0H34.7402C27.6162 0 21.8203 5.79588 21.8203 12.9199V39.334C21.8203 59.2505 36.9205 75.7038 56.2734 77.8531V121.16C56.2734 135.408 67.8652 147 82.1133 147ZM90.7266 99.627C90.7266 92.5029 96.5224 86.707 103.646 86.707C110.771 86.707 116.566 92.5029 116.566 99.627C116.566 106.751 110.771 112.547 103.646 112.547C96.5224 112.547 90.7266 106.751 90.7266 99.627Z" fill="#19419A"/>
</g>
<defs>
<clipPath id="clip0">
<rect width="147" height="147" fill="white"/>
</clipPath>
</defs>
</svg>
