<?xml version="1.0" encoding="UTF-8" standalone="no"?>
<svg
   xmlns:dc="http://purl.org/dc/elements/1.1/"
   xmlns:cc="http://creativecommons.org/ns#"
   xmlns:rdf="http://www.w3.org/1999/02/22-rdf-syntax-ns#"
   xmlns:svg="http://www.w3.org/2000/svg"
   xmlns="http://www.w3.org/2000/svg"
   xmlns:sodipodi="http://sodipodi.sourceforge.net/DTD/sodipodi-0.dtd"
   xmlns:inkscape="http://www.inkscape.org/namespaces/inkscape"
   version="1.1"
   height="60"
   width="60"
   viewBox="510 20 52.5 494.99999"
   id="svg14"
   sodipodi:docname="sun.svg"
   inkscape:version="0.92.2 5c3e80d, 2017-08-06">
  <metadata
     id="metadata20">
    <rdf:RDF>
      <cc:Work
         rdf:about="">
        <dc:format>image/svg+xml</dc:format>
        <dc:type
           rdf:resource="http://purl.org/dc/dcmitype/StillImage" />
        <dc:title></dc:title>
      </cc:Work>
    </rdf:RDF>
  </metadata>
  <defs
     id="defs18" />
  <sodipodi:namedview
     pagecolor="#ffffff"
     bordercolor="#666666"
     borderopacity="1"
     objecttolerance="10"
     gridtolerance="10"
     guidetolerance="10"
     inkscape:pageopacity="0"
     inkscape:pageshadow="2"
     inkscape:window-width="1442"
     inkscape:window-height="854"
     id="namedview16"
     showgrid="false"
     fit-margin-top="0"
     fit-margin-left="0"
     fit-margin-right="0"
     fit-margin-bottom="0"
     inkscape:showpageshadow="false"
     inkscape:zoom="0.84711173"
     inkscape:cx="147.22625"
     inkscape:cy="-27.863456"
     inkscape:window-x="0"
     inkscape:window-y="0"
     inkscape:window-maximized="0"
     inkscape:current-layer="svg14" />
  <g
     id="g12"
     transform="matrix(0.22427399,0,0,0.22427399,-365.13443,-1229.8387)">
    <path
       style="fill:#385fa0;fill-rule:nonzero"
       d="m 4932.85,6676.38 -593.09,-86.11 470.63,-371.04 -556.62,222.49 222.48,-556.62 -371.02,470.63 -86.11,-593.08 -86.11,593.08 -371.04,-470.62 222.49,556.61 -556.62,-222.48 470.63,371.03 -593.08,86.11 593.08,86.11 -470.62,371.03 556.61,-222.49 -222.48,556.63 371.03,-470.64 86.11,593.09 86.11,-593.09 371.03,470.63 -222.49,-556.62 556.63,222.48 -470.64,-371.02 593.09,-86.11"
       id="path4"
       inkscape:connector-curvature="0" />
    <path
       style="fill:none;stroke:#385fa0;stroke-width:54.55110168;stroke-linecap:butt;stroke-linejoin:miter;stroke-miterlimit:10"
       d="m 4932.85,6676.38 -593.09,-86.11 470.63,-371.04 -556.62,222.49 222.48,-556.62 -371.02,470.63 -86.11,-593.08 -86.11,593.08 -371.04,-470.62 222.49,556.61 -556.62,-222.48 470.63,371.03 -593.08,86.11 593.08,86.11 -470.62,371.03 556.61,-222.49 -222.48,556.63 371.03,-470.64 86.11,593.09 86.11,-593.09 371.03,470.63 -222.49,-556.62 556.63,222.48 -470.64,-371.02 z"
       id="path6"
       inkscape:connector-curvature="0" />
    <path
       style="fill:#385fa0;fill-rule:nonzero"
       d="m 4641.91,6676.38 c 0,-343.96 -278.83,-622.79 -622.79,-622.79 -343.96,0 -622.79,278.83 -622.79,622.79 0,343.96 278.83,622.79 622.79,622.79 343.96,0 622.79,-278.83 622.79,-622.79"
       id="path8"
       inkscape:connector-curvature="0" />
    <path
       style="fill:none;stroke:#ffffff;stroke-width:100.01000214;stroke-linecap:butt;stroke-linejoin:miter;stroke-miterlimit:10;stroke-dasharray:none"
       d="m 4641.91,6676.38 c 0,-343.96 -278.83,-622.79 -622.79,-622.79 -343.96,0 -622.79,278.83 -622.79,622.79 0,343.96 278.83,622.79 622.79,622.79 343.96,0 622.79,-278.83 622.79,-622.79 z"
       id="path10"
       inkscape:connector-curvature="0" />
  </g>
</svg>
