<?xml version="1.0" encoding="UTF-8" standalone="no"?>
<!-- Generator: Adobe Illustrator 19.0.0, SVG Export Plug-In . SVG Version: 6.00 Build 0)  -->

<svg
   xmlns:dc="http://purl.org/dc/elements/1.1/"
   xmlns:cc="http://creativecommons.org/ns#"
   xmlns:rdf="http://www.w3.org/1999/02/22-rdf-syntax-ns#"
   xmlns:svg="http://www.w3.org/2000/svg"
   xmlns="http://www.w3.org/2000/svg"
   xmlns:sodipodi="http://sodipodi.sourceforge.net/DTD/sodipodi-0.dtd"
   xmlns:inkscape="http://www.inkscape.org/namespaces/inkscape"
   version="1.1"
   id="Capa_1"
   x="0px"
   y="0px"
   viewBox="0 0 50 50"
   xml:space="preserve"
   sodipodi:docname="sweet-potato.svg"
   inkscape:version="0.92.2 5c3e80d, 2017-08-06"
   width="50"
   height="50"><metadata
     id="metadata67"><rdf:RDF><cc:Work
         rdf:about=""><dc:format>image/svg+xml</dc:format><dc:type
           rdf:resource="http://purl.org/dc/dcmitype/StillImage" /><dc:title></dc:title></cc:Work></rdf:RDF></metadata><defs
     id="defs65" /><sodipodi:namedview
     pagecolor="#ffffff"
     bordercolor="#666666"
     borderopacity="1"
     objecttolerance="10"
     gridtolerance="10"
     guidetolerance="10"
     inkscape:pageopacity="0"
     inkscape:pageshadow="2"
     inkscape:window-width="1445"
     inkscape:window-height="857"
     id="namedview63"
     showgrid="false"
     inkscape:showpageshadow="false"
     inkscape:zoom="9.1075274"
     inkscape:cx="32.235309"
     inkscape:cy="18.724145"
     inkscape:window-x="0"
     inkscape:window-y="0"
     inkscape:window-maximized="0"
     inkscape:current-layer="Capa_1" /><path
     style="fill:#808080;stroke-width:0.10517824"
     d="m 45.004954,45.50503 c -0.222369,0.49287 -0.469318,0.93564 -0.739491,1.32314 -0.03025,0.0441 -0.06174,0.0873 -0.09436,0.13047 -0.763845,1.03799 -1.81542,1.83105 -3.012561,2.34707 -2.183354,0.94062 -4.850069,0.95771 -7.130164,-0.14453 L 23.358224,43.52641 c -0.0011,0 -0.0024,-9.7e-4 -0.0024,-9.7e-4 l -4.01044,-2.11817 c -0.0093,-0.005 -0.01857,-0.009 -0.02797,-0.0141 -0.0011,0 -0.0011,-9.7e-4 -0.0011,-9.7e-4 C 15.712199,39.64542 12.285148,36.90685 9.6673669,33.70753 9.1293956,33.05001 8.6251875,32.37443 8.1616451,31.68273 6.0714042,28.57375 4.7800154,25.16457 4.7800154,21.87287 L 4.7264354,16.57541 4.7078619,14.68313 4.617015,5.12024 9.0676621,5.05294 9.7220781,5.04284 39.458226,4.59508 c 0.03727,0.0713 0.08734,0.15362 0.123476,0.22588 2.646895,5.16992 4.612523,11.5456 5.782816,17.81777 0.101272,0.54209 0.196766,1.0832 0.286484,1.62324 1.431402,8.65634 1.317217,16.89911 -0.646033,21.24296 z"
     id="path2"
     inkscape:connector-curvature="0" /><path
     style="fill:#808080;stroke-width:0.10517824"
     d="m 45.004954,45.50503 c -0.222369,0.49287 -0.469318,0.93564 -0.739491,1.32314 -0.03025,0.0441 -0.06174,0.0873 -0.09436,0.13047 -1.859714,0.43564 -3.910302,0.26504 -5.717565,-0.6083 L 27.783384,40.71558 c -0.0011,0 -0.0024,-9.8e-4 -0.0024,-9.8e-4 l -4.010441,-2.11816 c -0.0093,-0.005 -0.01857,-0.009 -0.02797,-0.0141 -0.0011,0 -0.0011,-9.7e-4 -0.0011,-9.7e-4 C 20.137362,36.83459 16.710311,34.09602 14.092528,30.8967 13.554563,30.23918 13.050356,29.5636 12.586815,28.8719 10.496571,25.76292 9.2051817,22.35374 9.2051817,19.06204 L 9.1516017,13.76458 9.1330283,11.8723 9.0677761,5.05297 9.7221921,5.04287 39.458342,4.59511 c 0.03727,0.0713 0.08734,0.15362 0.123475,0.22588 2.646894,5.16992 4.612522,11.5456 5.782816,17.81777 0.101271,0.54209 0.196764,1.0832 0.286485,1.62324 1.431287,8.65634 1.317102,16.89911 -0.646148,21.24296 z"
     id="path4"
     inkscape:connector-curvature="0" /><g
     id="g26"
     transform="matrix(0.11327971,0,0,0.0976562,-3.3824729,2.6e-4)"><path
       style="fill:#333333"
       d="m 102.835,178.908 c -1.367,2.662 -4.071,4.184 -6.867,4.184 -1.182,0 -2.395,-0.278 -3.526,-0.853 -8.347,-4.297 -15.378,-8.717 -20.858,-12.51 L 71.42,150.352 c 4.513,3.67 14.422,11.133 28.084,18.175 3.794,1.952 5.274,6.598 3.331,10.381 z"
       id="path6"
       inkscape:connector-curvature="0" /><path
       style="fill:#333333"
       d="m 122.33,194.342 c 13.562,4.043 27.226,6.152 40.613,6.27 0.023,0 0.045,0 0.069,0 4.226,0 7.671,-3.408 7.708,-7.643 0.038,-4.258 -3.384,-7.74 -7.642,-7.777 -11.94,-0.105 -24.167,-1.997 -36.343,-5.628 -4.079,-1.215 -8.374,1.106 -9.591,5.186 -1.216,4.081 1.106,8.375 5.186,9.592 z"
       id="path8"
       inkscape:connector-curvature="0" /><path
       style="fill:#333333"
       d="m 280.203,285.243 c 1.764,0.025 3.516,0.038 5.252,0.038 21.944,0 43.378,-2.004 63.709,-5.954 4.179,-0.812 6.91,-4.859 6.098,-9.038 -0.812,-4.179 -4.847,-6.91 -9.039,-6.098 -19.364,3.762 -39.809,5.67 -60.767,5.67 -1.664,0 -3.342,-0.011 -5.033,-0.036 -4.238,-0.087 -7.758,3.342 -7.818,7.599 -0.062,4.258 3.341,7.759 7.598,7.819 z"
       id="path10"
       inkscape:connector-curvature="0" /><path
       style="fill:#333333"
       d="m 432.855,248.44 c -11.462,6.877 -29.143,15.831 -52.982,23.201 -0.761,0.236 -1.521,0.35 -2.282,0.35 -3.29,0 -6.332,-2.128 -7.36,-5.438 -1.264,-4.06 1.018,-8.378 5.088,-9.642 26.82,-8.296 45.22,-18.678 55.007,-25.093 0.895,5.551 1.737,11.091 2.529,16.622 z"
       id="path12"
       inkscape:connector-curvature="0" /><path
       style="fill:#333333"
       d="m 257.113,440.639 c -0.473,3.917 -3.803,6.785 -7.638,6.785 -0.319,0 -0.627,-0.021 -0.946,-0.062 -4.246,-0.514 -8.419,-1.069 -12.469,-1.655 -0.01,0 -0.021,-0.01 -0.021,-0.01 l -35.403,-21.69 c -0.082,-0.051 -0.164,-0.092 -0.247,-0.144 13.086,2.652 30.839,5.849 50,8.193 4.237,0.514 7.238,4.358 6.724,8.583 z"
       id="path14"
       inkscape:connector-curvature="0" /><path
       style="fill:#333333"
       d="m 350.523,427.973 c -12.437,4.886 -29.755,7.363 -51.475,7.363 -5.815,0 -12.015,-0.181 -18.424,-0.538 -4.228,-0.227 -7.89,3.018 -8.126,7.269 -0.236,4.251 3.018,7.89 7.269,8.126 6.694,0.373 13.181,0.562 19.282,0.562 23.658,0 42.874,-2.837 57.113,-8.431 3.963,-1.557 5.914,-6.032 4.357,-9.995 -1.559,-3.962 -6.031,-5.914 -9.996,-4.356 z"
       id="path16"
       inkscape:connector-curvature="0" /><path
       style="fill:#333333"
       d="m 294.19,151.1 c 0.614,0 15.224,-0.04 33.17,-3.479 4.182,-0.801 6.922,-4.841 6.122,-9.022 -0.802,-4.181 -4.839,-6.929 -9.023,-6.121 -16.435,3.149 -30.136,3.203 -30.273,3.203 -4.256,0.002 -7.705,3.453 -7.705,7.71 -10e-4,4.257 3.451,7.709 7.709,7.709 z"
       id="path18"
       inkscape:connector-curvature="0" /><path
       style="fill:#333333"
       d="m 355.377,138.801 c 1.065,0 2.147,-0.222 3.181,-0.691 4.505,-2.044 8.67,-4.334 12.379,-6.807 3.542,-2.362 4.499,-7.15 2.137,-10.691 -2.361,-3.542 -7.146,-4.499 -10.692,-2.137 -3.017,2.012 -6.446,3.894 -10.194,5.593 -3.876,1.759 -5.594,6.328 -3.835,10.207 1.288,2.844 4.09,4.526 7.024,4.526 z"
       id="path20"
       inkscape:connector-curvature="0" /><path
       style="fill:#333333"
       d="m 182.57,358.573 c 4.062,0 7.462,-3.175 7.69,-7.281 0.236,-4.252 -3.017,-7.89 -7.269,-8.127 -9.163,-0.511 -19.407,-1.92 -30.447,-4.189 -4.176,-0.856 -8.247,1.829 -9.104,6 -0.857,4.171 1.83,8.246 6,9.104 11.778,2.42 22.778,3.927 32.694,4.48 0.146,0.009 0.291,0.013 0.436,0.013 z"
       id="path22"
       inkscape:connector-curvature="0" /><path
       style="fill:#333333"
       d="m 128.473,341.122 c -1.007,3.341 -4.071,5.489 -7.381,5.489 -0.74,0 -1.48,-0.103 -2.22,-0.329 -1.254,-0.38 -2.477,-0.75 -3.67,-1.12 -4.749,-6.733 -9.2,-13.651 -13.292,-20.734 5.222,1.891 12.665,4.472 21.392,7.093 4.081,1.223 6.394,5.52 5.171,9.601 z"
       id="path24"
       inkscape:connector-curvature="0" /></g><path
     style="fill:#cccccc;stroke-width:0.10517824"
     d="m 39.549289,5.11901 c 0,2.48662 -6.043698,4.55762 -14.059936,5.02139 -1.101647,0.0652 -2.240445,0.0983 -3.406094,0.0983 -9.64656,0 -17.466033,-2.2919 -17.466033,-5.11973 0,-2.82685 7.819473,-5.11875 17.466033,-5.11875 1.165649,0 2.304562,0.0331 3.406094,0.0983 8.016352,0.46387 14.059936,2.53487 14.059936,5.02041 z"
     id="path28"
     inkscape:connector-curvature="0" /><path
     style="fill:#cccccc;stroke-width:0.10517824"
     d="m 39.549289,5.11901 c 0,2.48662 -6.043698,4.55762 -14.059936,5.02139 -0.329531,0.019 -0.661442,0.0361 -0.996749,0.0502 C 15.983713,9.84724 9.4300286,7.70799 9.4300286,5.11902 c 0,-0.71279 0.4971848,-1.3914 1.3950394,-2.00771 2.361542,-1.62227 7.498096,-2.81387 13.662891,-3.06279 0.336555,0.0141 0.67073,0.0301 1.001506,0.0502 5.717567,0.33125 10.431362,1.47969 12.664786,3.0126 0.897854,0.6164 1.395038,1.29502 1.395038,2.00771 z"
     id="path30"
     inkscape:connector-curvature="0" /><g
     id="g32"
     transform="matrix(0.11327971,0,0,0.0976562,-3.3824729,2.6e-4)" /><g
     id="g34"
     transform="matrix(0.11327971,0,0,0.0976562,-3.3824729,2.6e-4)" /><g
     id="g36"
     transform="matrix(0.11327971,0,0,0.0976562,-3.3824729,2.6e-4)" /><g
     id="g38"
     transform="matrix(0.11327971,0,0,0.0976562,-3.3824729,2.6e-4)" /><g
     id="g40"
     transform="matrix(0.11327971,0,0,0.0976562,-3.3824729,2.6e-4)" /><g
     id="g42"
     transform="matrix(0.11327971,0,0,0.0976562,-3.3824729,2.6e-4)" /><g
     id="g44"
     transform="matrix(0.11327971,0,0,0.0976562,-3.3824729,2.6e-4)" /><g
     id="g46"
     transform="matrix(0.11327971,0,0,0.0976562,-3.3824729,2.6e-4)" /><g
     id="g48"
     transform="matrix(0.11327971,0,0,0.0976562,-3.3824729,2.6e-4)" /><g
     id="g50"
     transform="matrix(0.11327971,0,0,0.0976562,-3.3824729,2.6e-4)" /><g
     id="g52"
     transform="matrix(0.11327971,0,0,0.0976562,-3.3824729,2.6e-4)" /><g
     id="g54"
     transform="matrix(0.11327971,0,0,0.0976562,-3.3824729,2.6e-4)" /><g
     id="g56"
     transform="matrix(0.11327971,0,0,0.0976562,-3.3824729,2.6e-4)" /><g
     id="g58"
     transform="matrix(0.11327971,0,0,0.0976562,-3.3824729,2.6e-4)" /><g
     id="g60"
     transform="matrix(0.11327971,0,0,0.0976562,-3.3824729,2.6e-4)" /></svg>
