<?xml version="1.0" encoding="UTF-8" standalone="no"?>
<!-- Generator: Adobe Illustrator 19.0.0, SVG Export Plug-In . SVG Version: 6.00 Build 0)  -->

<svg
   xmlns:dc="http://purl.org/dc/elements/1.1/"
   xmlns:cc="http://creativecommons.org/ns#"
   xmlns:rdf="http://www.w3.org/1999/02/22-rdf-syntax-ns#"
   xmlns:svg="http://www.w3.org/2000/svg"
   xmlns="http://www.w3.org/2000/svg"
   xmlns:sodipodi="http://sodipodi.sourceforge.net/DTD/sodipodi-0.dtd"
   xmlns:inkscape="http://www.inkscape.org/namespaces/inkscape"
   version="1.1"
   id="Layer_1"
   x="0px"
   y="0px"
   viewBox="0 0 50 50"
   xml:space="preserve"
   sodipodi:docname="toilet.svg"
   width="50"
   height="50"
   inkscape:version="0.92.2 5c3e80d, 2017-08-06"><metadata
     id="metadata1010"><rdf:RDF><cc:Work
         rdf:about=""><dc:format>image/svg+xml</dc:format><dc:type
           rdf:resource="http://purl.org/dc/dcmitype/StillImage" /><dc:title></dc:title></cc:Work></rdf:RDF></metadata><defs
     id="defs1008" /><sodipodi:namedview
     pagecolor="#ffffff"
     bordercolor="#666666"
     borderopacity="1"
     objecttolerance="10"
     gridtolerance="10"
     guidetolerance="10"
     inkscape:pageopacity="0"
     inkscape:pageshadow="2"
     inkscape:window-width="1444"
     inkscape:window-height="857"
     id="namedview1006"
     showgrid="false"
     inkscape:showpageshadow="false"
     fit-margin-top="0"
     fit-margin-left="0"
     fit-margin-right="0"
     fit-margin-bottom="0"
     inkscape:zoom="4.9139844"
     inkscape:cx="23.644934"
     inkscape:cy="34.590011"
     inkscape:window-x="0"
     inkscape:window-y="0"
     inkscape:window-maximized="0"
     inkscape:current-layer="Layer_1" /><g
     id="g949"
     style="fill:#385fa0;fill-opacity:1"
     transform="matrix(0.09765628,0,0,0.10538118,2.3466972e-5,-1.9775849)"><g
       id="g947"
       style="fill:#385fa0;fill-opacity:1"><path
         d="m 146.645,109.31 c -54.918,0 -55.673,0 -101.357,0 -24.466,0 -44.468,19.904 -44.591,44.367 L 0,292.109 c -0.052,10.407 8.342,18.885 18.747,18.938 0.032,0 0.065,0 0.098,0 10.363,0 18.787,-8.375 18.841,-18.747 l 0.696,-138.432 c 0,-0.016 0,-0.031 0,-0.047 0.024,-2.055 1.704,-3.706 3.759,-3.694 2.055,0.012 3.715,1.683 3.715,3.738 l 0.008,316.757 c 0,12.488 10.124,22.612 22.612,22.612 12.488,0 22.612,-10.124 22.612,-22.612 V 289.888 h 9.763 v 180.734 c 0,12.488 10.123,22.611 22.611,22.611 12.488,0 22.611,-10.123 22.611,-22.611 0,-298.894 -0.4,-127.966 -0.41,-316.481 0,-2.121 1.674,-3.863 3.794,-3.946 2.12,-0.083 3.928,1.521 4.092,3.635 0,10e-4 0,0.002 0,0.002 l -0.128,138.354 c -0.01,10.406 8.419,18.851 18.825,18.861 0.007,0 0.011,0 0.018,0 10.397,0 18.833,-8.426 18.842,-18.825 l 0.128,-138.431 c 0.002,-0.039 0.002,-0.075 0.001,-0.114 -0.123,-24.463 -20.126,-44.367 -44.59,-44.367 z"
         id="path945"
         style="fill:#385fa0;fill-opacity:1"
         inkscape:connector-curvature="0" /></g></g><g
     id="g955"
     style="fill:#385fa0;fill-opacity:1"
     transform="matrix(0.09765628,0,0,0.10538118,2.3466972e-5,-1.9775849)"><g
       id="g953"
       style="fill:#385fa0;fill-opacity:1"><circle
         cx="95.966003"
         cy="57.813"
         r="39.047001"
         id="circle951"
         style="fill:#385fa0;fill-opacity:1" /></g></g><g
     id="g961"
     style="fill:#385fa0;fill-opacity:1"
     transform="matrix(0.09765628,0,0,0.10538118,2.3466972e-5,-1.9775849)"><g
       id="g959"
       style="fill:#385fa0;fill-opacity:1"><path
         d="m 510.941,262.849 c -0.346,-0.986 -34.611,-98.717 -40.002,-114.406 -8.679,-25.253 -23.23,-38.057 -43.249,-38.057 -28.025,0 -37.18,0 -65.153,0 -20.02,0 -34.571,12.805 -43.249,38.057 -5.391,15.688 -39.656,113.421 -40.002,114.406 -3.418,9.748 1.714,20.423 11.464,23.841 9.758,3.42 20.425,-1.725 23.84,-11.462 1.106,-3.154 21.721,-60.433 33.222,-93.389 -1.204,9.838 2.264,-10.578 -26.737,139.154 -1.246,6.431 3.711,12.379 10.201,12.379 4.029,0 8.862,0 14.273,0 V 469.05 c 0,12.396 10.049,22.446 22.446,22.446 12.397,0 22.446,-10.049 22.446,-22.446 V 333.37 c 3.227,0 6.465,0 9.692,0 v 135.68 c 0,12.396 10.049,22.446 22.446,22.446 12.397,0 22.446,-10.049 22.446,-22.446 V 333.37 c 5.411,0 10.245,0 14.273,0 6.522,0 11.446,-5.952 10.201,-12.379 -28.737,-148.369 -25.57,-131.138 -26.55,-139.154 11.593,33.211 31.602,90.284 32.691,93.389 3.421,9.756 14.101,14.878 23.84,11.462 9.747,-3.418 14.879,-14.091 11.461,-23.839 z"
         id="path957"
         style="fill:#385fa0;fill-opacity:1"
         inkscape:connector-curvature="0" /></g></g><g
     id="g967"
     style="fill:#385fa0;fill-opacity:1"
     transform="matrix(0.09765628,0,0,0.10538118,2.3466972e-5,-1.9775849)"><g
       id="g965"
       style="fill:#385fa0;fill-opacity:1"><circle
         cx="395.28299"
         cy="59.264999"
         r="38.766998"
         id="circle963"
         style="fill:#385fa0;fill-opacity:1" /></g></g><g
     id="g973"
     style="fill:#385fa0;fill-opacity:1"
     transform="matrix(0.09765628,0,0,0.10538118,2.3466972e-5,-1.9775849)"><g
       id="g971"
       style="fill:#385fa0;fill-opacity:1"><path
         d="m 239.761,43.925 c -7.969,0 -14.43,6.46 -14.43,14.43 v 395.282 c 0,7.969 6.46,14.429 14.43,14.429 7.97,0 14.43,-6.459 14.43,-14.429 V 58.355 c 0,-7.97 -6.461,-14.43 -14.43,-14.43 z"
         id="path969"
         style="fill:#385fa0;fill-opacity:1"
         inkscape:connector-curvature="0" /></g></g><g
     id="g975"
     style="fill:#385fa0;fill-opacity:1"
     transform="matrix(0.09765628,0,0,0.10538118,2.3466972e-5,-1.9775849)" /><g
     id="g977"
     style="fill:#385fa0;fill-opacity:1"
     transform="matrix(0.09765628,0,0,0.10538118,2.3466972e-5,-1.9775849)" /><g
     id="g979"
     style="fill:#385fa0;fill-opacity:1"
     transform="matrix(0.09765628,0,0,0.10538118,2.3466972e-5,-1.9775849)" /><g
     id="g981"
     style="fill:#385fa0;fill-opacity:1"
     transform="matrix(0.09765628,0,0,0.10538118,2.3466972e-5,-1.9775849)" /><g
     id="g983"
     style="fill:#385fa0;fill-opacity:1"
     transform="matrix(0.09765628,0,0,0.10538118,2.3466972e-5,-1.9775849)" /><g
     id="g985"
     style="fill:#385fa0;fill-opacity:1"
     transform="matrix(0.09765628,0,0,0.10538118,2.3466972e-5,-1.9775849)" /><g
     id="g987"
     style="fill:#385fa0;fill-opacity:1"
     transform="matrix(0.09765628,0,0,0.10538118,2.3466972e-5,-1.9775849)" /><g
     id="g989"
     style="fill:#385fa0;fill-opacity:1"
     transform="matrix(0.09765628,0,0,0.10538118,2.3466972e-5,-1.9775849)" /><g
     id="g991"
     style="fill:#385fa0;fill-opacity:1"
     transform="matrix(0.09765628,0,0,0.10538118,2.3466972e-5,-1.9775849)" /><g
     id="g993"
     style="fill:#385fa0;fill-opacity:1"
     transform="matrix(0.09765628,0,0,0.10538118,2.3466972e-5,-1.9775849)" /><g
     id="g995"
     style="fill:#385fa0;fill-opacity:1"
     transform="matrix(0.09765628,0,0,0.10538118,2.3466972e-5,-1.9775849)" /><g
     id="g997"
     style="fill:#385fa0;fill-opacity:1"
     transform="matrix(0.09765628,0,0,0.10538118,2.3466972e-5,-1.9775849)" /><g
     id="g999"
     style="fill:#385fa0;fill-opacity:1"
     transform="matrix(0.09765628,0,0,0.10538118,2.3466972e-5,-1.9775849)" /><g
     id="g1001"
     style="fill:#385fa0;fill-opacity:1"
     transform="matrix(0.09765628,0,0,0.10538118,2.3466972e-5,-1.9775849)" /><g
     id="g1003"
     style="fill:#385fa0;fill-opacity:1"
     transform="matrix(0.09765628,0,0,0.10538118,2.3466972e-5,-1.9775849)" /></svg>
