<?xml version="1.0" encoding="UTF-8" standalone="no"?>
<!-- Generator: Adobe Illustrator 16.0.0, SVG Export Plug-In . SVG Version: 6.00 Build 0)  -->

<svg
   xmlns:dc="http://purl.org/dc/elements/1.1/"
   xmlns:cc="http://creativecommons.org/ns#"
   xmlns:rdf="http://www.w3.org/1999/02/22-rdf-syntax-ns#"
   xmlns:svg="http://www.w3.org/2000/svg"
   xmlns="http://www.w3.org/2000/svg"
   xmlns:sodipodi="http://sodipodi.sourceforge.net/DTD/sodipodi-0.dtd"
   xmlns:inkscape="http://www.inkscape.org/namespaces/inkscape"
   version="1.1"
   id="Capa_1"
   x="0px"
   y="0px"
   width="50"
   height="50"
   viewBox="0 0 50 50"
   xml:space="preserve"
   sodipodi:docname="two-eggs.svg"
   inkscape:version="0.92.2 5c3e80d, 2017-08-06"><metadata
     id="metadata43"><rdf:RDF><cc:Work
         rdf:about=""><dc:format>image/svg+xml</dc:format><dc:type
           rdf:resource="http://purl.org/dc/dcmitype/StillImage" /><dc:title></dc:title></cc:Work></rdf:RDF></metadata><defs
     id="defs41" /><sodipodi:namedview
     pagecolor="#ffffff"
     bordercolor="#666666"
     borderopacity="1"
     objecttolerance="10"
     gridtolerance="10"
     guidetolerance="10"
     inkscape:pageopacity="0"
     inkscape:pageshadow="2"
     inkscape:window-width="1444"
     inkscape:window-height="858"
     id="namedview39"
     showgrid="false"
     inkscape:showpageshadow="false"
     fit-margin-top="0"
     fit-margin-left="0"
     fit-margin-right="0"
     fit-margin-bottom="0"
     inkscape:zoom="6.45"
     inkscape:cx="18.031498"
     inkscape:cy="31.790669"
     inkscape:window-x="0"
     inkscape:window-y="0"
     inkscape:window-maximized="0"
     inkscape:current-layer="Capa_1" /><g
     id="g6"
     style="fill:#8c8c8c;fill-opacity:1"
     transform="matrix(0.13943425,0,0,0.15695729,0,-3.1416571)"><g
       id="g4"
       style="fill:#8c8c8c;fill-opacity:1"><path
         d="m 103.685,20.016 c 35.726,0 70.859,31.801 90.209,81.245 -17.63,9.371 -33.948,21.239 -47.272,34.624 -49.149,49.462 -61.096,118.859 -29.453,164.447 -4.495,0.757 -9.001,1.268 -13.484,1.268 C 46.517,301.599 0,242.745 0,170.411 0,100.873 45.294,20.016 103.685,20.016 Z m 27.259,285.479 c -33.876,-42.25 -22.083,-110.668 26.151,-159.184 13.526,-13.613 30.264,-25.695 48.426,-34.918 l 1.621,-0.829 -0.384,-0.769 c 23.988,-11.919 49.827,-18.51 72.97,-18.51 23.959,0 43.865,7.194 57.562,20.815 19.084,18.97 25.653,49.44 18.459,85.794 -6.888,34.882 -25.448,69.613 -50.938,95.248 -28.703,28.877 -65.734,45.432 -101.595,45.432 -26.217,0 -48.937,-8.809 -65.711,-25.49 -1.723,-1.693 -3.39,-3.65 -5.074,-5.668 z"
         id="path2"
         style="fill:#8c8c8c;fill-opacity:1"
         inkscape:connector-curvature="0" /></g></g><g
     id="g8"
     style="fill:#8c8c8c;fill-opacity:1"
     transform="matrix(0.13943425,0,0,0.15695729,0,-3.1416571)" /><g
     id="g10"
     style="fill:#8c8c8c;fill-opacity:1"
     transform="matrix(0.13943425,0,0,0.15695729,0,-3.1416571)" /><g
     id="g12"
     style="fill:#8c8c8c;fill-opacity:1"
     transform="matrix(0.13943425,0,0,0.15695729,0,-3.1416571)" /><g
     id="g14"
     style="fill:#8c8c8c;fill-opacity:1"
     transform="matrix(0.13943425,0,0,0.15695729,0,-3.1416571)" /><g
     id="g16"
     style="fill:#8c8c8c;fill-opacity:1"
     transform="matrix(0.13943425,0,0,0.15695729,0,-3.1416571)" /><g
     id="g18"
     style="fill:#8c8c8c;fill-opacity:1"
     transform="matrix(0.13943425,0,0,0.15695729,0,-3.1416571)" /><g
     id="g20"
     style="fill:#8c8c8c;fill-opacity:1"
     transform="matrix(0.13943425,0,0,0.15695729,0,-3.1416571)" /><g
     id="g22"
     style="fill:#8c8c8c;fill-opacity:1"
     transform="matrix(0.13943425,0,0,0.15695729,0,-3.1416571)" /><g
     id="g24"
     style="fill:#8c8c8c;fill-opacity:1"
     transform="matrix(0.13943425,0,0,0.15695729,0,-3.1416571)" /><g
     id="g26"
     style="fill:#8c8c8c;fill-opacity:1"
     transform="matrix(0.13943425,0,0,0.15695729,0,-3.1416571)" /><g
     id="g28"
     style="fill:#8c8c8c;fill-opacity:1"
     transform="matrix(0.13943425,0,0,0.15695729,0,-3.1416571)" /><g
     id="g30"
     style="fill:#8c8c8c;fill-opacity:1"
     transform="matrix(0.13943425,0,0,0.15695729,0,-3.1416571)" /><g
     id="g32"
     style="fill:#8c8c8c;fill-opacity:1"
     transform="matrix(0.13943425,0,0,0.15695729,0,-3.1416571)" /><g
     id="g34"
     style="fill:#8c8c8c;fill-opacity:1"
     transform="matrix(0.13943425,0,0,0.15695729,0,-3.1416571)" /><g
     id="g36"
     style="fill:#8c8c8c;fill-opacity:1"
     transform="matrix(0.13943425,0,0,0.15695729,0,-3.1416571)" /></svg>
