<?xml version="1.0" encoding="UTF-8" standalone="no"?>
<svg
   xmlns:dc="http://purl.org/dc/elements/1.1/"
   xmlns:cc="http://creativecommons.org/ns#"
   xmlns:rdf="http://www.w3.org/1999/02/22-rdf-syntax-ns#"
   xmlns:svg="http://www.w3.org/2000/svg"
   xmlns="http://www.w3.org/2000/svg"
   xmlns:xlink="http://www.w3.org/1999/xlink"
   xmlns:sodipodi="http://sodipodi.sourceforge.net/DTD/sodipodi-0.dtd"
   xmlns:inkscape="http://www.inkscape.org/namespaces/inkscape"
   version="1.1"
   preserveAspectRatio="xMidYMid meet"
   viewBox="134.2079 134.40127 139.90932 175.30389"
   width="139.99971"
   height="175"
   id="svg366"
   sodipodi:docname="vitamin-d-common-problem-grey.svg"
   inkscape:version="0.92.2 5c3e80d, 2017-08-06">
  <metadata
     id="metadata370">
    <rdf:RDF>
      <cc:Work
         rdf:about="">
        <dc:format>image/svg+xml</dc:format>
        <dc:type
           rdf:resource="http://purl.org/dc/dcmitype/StillImage" />
        <dc:title />
      </cc:Work>
    </rdf:RDF>
  </metadata>
  <sodipodi:namedview
     pagecolor="#ffffff"
     bordercolor="#666666"
     borderopacity="1"
     objecttolerance="10"
     gridtolerance="10"
     guidetolerance="10"
     inkscape:pageopacity="0"
     inkscape:pageshadow="2"
     inkscape:window-width="1440"
     inkscape:window-height="845"
     id="namedview368"
     showgrid="false"
     inkscape:snap-bbox="true"
     inkscape:snap-to-guides="true"
     inkscape:snap-page="false"
     fit-margin-top="0"
     fit-margin-left="0"
     fit-margin-right="0"
     fit-margin-bottom="0"
     inkscape:zoom="2.4424438"
     inkscape:cx="71.121846"
     inkscape:cy="92.93755"
     inkscape:window-x="0"
     inkscape:window-y="0"
     inkscape:window-maximized="0"
     inkscape:current-layer="svg366"
     showborder="true"
     inkscape:showpageshadow="false" />
  <defs
     id="defs42">
    <path
       d="m 152.24,357.46 c 0,0 0,-26.96 0,-26.96 0,-0.25 0.25,-0.45 0.57,-0.45 0.11,0 1.02,0 1.14,0 0.31,0 0.56,0.2 0.56,0.45 0,0 0,75.62 0,75.63 0,3.14 3.11,5.69 6.96,5.69 3.84,0 6.95,-2.55 6.95,-5.69 0,-0.01 0,-44.5 0,-44.5 0,-0.32 0.19,-0.46 0.58,-0.46 0.11,0 1.01,0 1.12,0 0.39,0 0.58,0.14 0.58,0.46 0,0 0,44.49 0,44.5 0,3.14 3.11,5.69 6.95,5.69 3.85,0 6.96,-2.55 6.96,-5.69 0,-0.01 0,-75.63 0,-75.63 0,-0.25 0.25,-0.45 0.56,-0.45 0.12,0 1.03,0 1.14,0 0.31,0 0.57,0.2 0.57,0.45 0,0 0,26.96 0,26.96 0.01,2.43 2.42,4.41 5.4,4.41 2.98,0 5.39,-1.98 5.39,-4.42 0,-0.01 0,-30.3 0,-30.66 0,-6.04 -5.68,-10.69 -12.78,-10.69 -0.18,0 -9.72,0 -14.19,0 0,0 -0.9,0 -2.28,0 -4.47,0 -14.02,0 -14.2,0 -7.1,0 -12.78,4.64 -12.78,10.69 0,0.36 0,30.65 0,30.66 0.01,2.44 2.42,4.42 5.4,4.42 2.98,0 5.4,-1.98 5.4,-4.41 z"
       id="cAlVBNQQ3"
       inkscape:connector-curvature="0" />
    <path
       d="m 169.56,296.61 c -5.72,0 -10.35,3.79 -10.35,8.47 0,4.68 4.63,8.47 10.35,8.47 5.72,0 10.35,-3.79 10.35,-8.47 0,-4.68 -4.63,-8.47 -10.35,-8.47 z"
       id="a7dA4VuBLF"
       inkscape:connector-curvature="0" />
    <path
       d="m 217.42,357.46 c 0,0 0.01,-26.96 0.01,-26.96 0,-0.25 0.25,-0.45 0.56,-0.45 0.11,0 1.03,0 1.14,0 0.31,0 0.56,0.2 0.56,0.45 0,0 0,75.62 0,75.63 0,3.14 3.12,5.69 6.96,5.69 3.84,0 6.96,-2.55 6.96,-5.69 0,-0.01 0,-44.5 0,-44.5 0,-0.32 0.18,-0.46 0.57,-0.46 0.11,0 1.01,0 1.12,0 0.39,0 0.58,0.14 0.58,0.46 0,0 0,44.49 0,44.5 0,3.14 3.11,5.69 6.95,5.69 3.85,0 6.96,-2.55 6.96,-5.69 0,-0.01 0,-75.63 0,-75.63 0,-0.25 0.25,-0.45 0.56,-0.45 0.12,0 1.03,0 1.15,0 0.31,0 0.56,0.2 0.56,0.45 0,0 0,26.96 0,26.96 0.01,2.43 2.42,4.41 5.4,4.41 2.98,0 5.4,-1.98 5.4,-4.42 0,-0.01 0,-30.3 0,-30.66 0,-6.04 -5.68,-10.69 -12.78,-10.69 -0.18,0 -9.73,0 -14.2,0 0,0 -0.9,0 -2.27,0 -4.48,0 -14.02,0 -14.2,0 -7.1,0 -12.78,4.64 -12.78,10.69 0,0.36 0,30.65 0,30.66 0,2.44 2.41,4.42 5.39,4.42 2.98,0 5.4,-1.98 5.4,-4.41 z"
       id="adb8ZIS6c"
       inkscape:connector-curvature="0" />
    <path
       d="m 234.74,296.61 c -5.72,0 -10.35,3.79 -10.35,8.47 0,4.68 4.63,8.47 10.35,8.47 5.72,0 10.36,-3.79 10.36,-8.47 0,-4.68 -4.64,-8.47 -10.36,-8.47 z"
       id="f1pWjQAX7w"
       inkscape:connector-curvature="0" />
    <path
       d="m 280.84,359.15 c 0,0 0.01,-26.95 0.01,-26.95 0,-0.26 0.25,-0.46 0.56,-0.46 0.11,0 1.03,0 1.14,0 0.31,0 0.56,0.2 0.56,0.46 0,0 0,75.61 0,75.62 0,3.14 3.12,5.69 6.96,5.69 3.84,0 6.96,-2.55 6.96,-5.69 0,-0.01 0,-44.5 0,-44.5 0,-0.32 0.18,-0.46 0.57,-0.46 0.11,0 1.01,0 1.12,0 0.39,0 0.58,0.14 0.58,0.46 0,0 0,44.49 0,44.5 0,3.14 3.11,5.69 6.95,5.69 3.85,0 6.96,-2.55 6.96,-5.69 0,-0.01 0,-75.62 0,-75.62 0,-0.26 0.25,-0.46 0.56,-0.46 0.12,0 1.03,0 1.15,0 0.31,0 0.56,0.2 0.56,0.46 0,0 0,26.95 0,26.95 0.01,2.43 2.42,4.41 5.4,4.41 2.98,0 5.4,-1.98 5.4,-4.42 0,-0.01 0,-30.3 0,-30.66 0,-6.04 -5.68,-10.69 -12.78,-10.69 -0.18,0 -9.73,0 -14.2,0 0,0 -0.9,0 -2.27,0 -4.48,0 -14.02,0 -14.2,0 -7.1,0 -12.78,4.65 -12.78,10.69 0,0.36 0,30.65 0,30.66 0,2.44 2.41,4.42 5.39,4.42 2.98,0 5.4,-1.98 5.4,-4.41 z"
       id="b5sYk5lSAA"
       inkscape:connector-curvature="0" />
    <path
       d="m 298.16,298.3 c -5.72,0 -10.35,3.8 -10.35,8.47 0,4.68 4.63,8.47 10.35,8.47 5.72,0 10.36,-3.79 10.36,-8.47 0,-4.67 -4.64,-8.47 -10.36,-8.47 z"
       id="b67ljIVSfB"
       inkscape:connector-curvature="0" />
    <path
       d="m 342.5,360.84 c 0,0 0,-26.95 0,-26.95 0,-0.26 0.25,-0.46 0.57,-0.46 0.11,0 1.02,0 1.14,0 0.31,0 0.56,0.2 0.56,0.46 0,0 0,75.61 0,75.62 0,3.14 3.11,5.69 6.96,5.69 3.84,0 6.95,-2.55 6.95,-5.69 0,-0.01 0,-44.5 0,-44.5 0,-0.32 0.19,-0.46 0.58,-0.46 0.11,0 1.01,0 1.12,0 0.39,0 0.58,0.14 0.58,0.46 0,0 0,44.49 0,44.5 0,3.14 3.11,5.69 6.95,5.69 3.85,0 6.96,-2.55 6.96,-5.69 0,-0.01 0,-75.62 0,-75.62 0,-0.26 0.25,-0.46 0.56,-0.46 0.12,0 1.03,0 1.14,0 0.31,0 0.57,0.2 0.57,0.46 0,0 0,26.95 0,26.95 0.01,2.44 2.42,4.41 5.4,4.41 2.98,0 5.39,-1.98 5.39,-4.41 0,-0.02 0,-30.31 0,-30.67 0,-6.04 -5.68,-10.69 -12.78,-10.69 -0.18,0 -9.72,0 -14.19,0 0,0 -0.9,0 -2.28,0 -4.47,0 -14.02,0 -14.2,0 -7.1,0 -12.77,4.65 -12.77,10.69 0,0.36 0,30.65 0,30.67 0,2.43 2.41,4.41 5.39,4.41 2.98,0 5.4,-1.97 5.4,-4.41 z"
       id="e1DTYu215O"
       inkscape:connector-curvature="0" />
    <path
       d="m 359.82,299.99 c -5.72,0 -10.35,3.8 -10.35,8.47 0,4.68 4.63,8.47 10.35,8.47 5.72,0 10.35,-3.79 10.35,-8.47 0,-4.67 -4.63,-8.47 -10.35,-8.47 z"
       id="b2Qzy3MPr"
       inkscape:connector-curvature="0" />
    <path
       d="m 405.92,362.53 c 0,0 0,-26.95 0,-26.95 0,-0.26 0.25,-0.46 0.57,-0.46 0.11,0 1.02,0 1.14,0 0.31,0 0.56,0.2 0.56,0.46 0,0 0,75.61 0,75.62 0,3.14 3.11,5.69 6.96,5.69 3.84,0 6.95,-2.55 6.95,-5.69 0,-0.01 0,-44.49 0,-44.49 0,-0.33 0.19,-0.46 0.58,-0.46 0.11,0 1.01,0 1.12,0 0.39,0 0.58,0.13 0.58,0.46 0,0 0,44.48 0,44.49 0,3.14 3.11,5.69 6.95,5.69 3.85,0 6.96,-2.55 6.96,-5.69 0,-0.01 0,-75.62 0,-75.62 0,-0.26 0.25,-0.46 0.56,-0.46 0.12,0 1.03,0 1.14,0 0.31,0 0.57,0.2 0.57,0.46 0,0 0,26.95 0,26.95 0.01,2.44 2.42,4.41 5.4,4.41 2.98,0 5.39,-1.98 5.39,-4.41 0,-0.02 0,-30.31 0,-30.67 0,-6.04 -5.68,-10.69 -12.78,-10.69 -0.18,0 -9.72,0 -14.19,0 0,0 -0.9,0 -2.28,0 -4.47,0 -14.01,0 -14.2,0 -7.1,0 -12.77,4.65 -12.77,10.69 0,0.36 0,30.65 0,30.67 0,2.44 2.41,4.41 5.39,4.41 2.98,0 5.4,-1.97 5.4,-4.41 z"
       id="d2IhKKVg7L"
       inkscape:connector-curvature="0" />
    <path
       d="m 423.24,301.69 c -5.72,0 -10.35,3.79 -10.35,8.47 0,4.67 4.63,8.47 10.35,8.47 5.72,0 10.35,-3.8 10.35,-8.47 0,-4.68 -4.63,-8.47 -10.35,-8.47 z"
       id="ctVmghHn2"
       inkscape:connector-curvature="0" />
    <path
       d="m 410.56,230.62 c 0,-0.01 0.01,-26.96 0.01,-26.96 0,-0.25 0.25,-0.46 0.56,-0.46 0.12,0 1.03,0 1.14,0 0.31,0 0.57,0.21 0.57,0.46 0,0 0,75.62 0,75.62 0,3.15 3.11,5.7 6.95,5.7 3.84,0 6.96,-2.55 6.96,-5.7 0,0 0,-44.49 0,-44.49 0,-0.32 0.18,-0.46 0.57,-0.46 0.12,0 1.01,0 1.13,0 0.39,0 0.57,0.14 0.57,0.46 0,0 0,44.49 0,44.49 0,3.15 3.12,5.7 6.96,5.7 3.84,0 6.96,-2.55 6.96,-5.7 0,0 0,-75.62 0,-75.62 0,-0.25 0.25,-0.46 0.56,-0.46 0.11,0 1.03,0 1.14,0 0.31,0 0.56,0.21 0.56,0.46 0,0 0.01,26.95 0.01,26.96 0,2.43 2.42,4.41 5.39,4.41 2.98,0 5.4,-1.98 5.4,-4.42 0,-0.01 0,-30.3 0,-30.66 0,-6.05 -5.68,-10.69 -12.78,-10.69 -0.18,0 -9.72,0 -14.2,0 0,0 -0.9,0 -2.27,0 -4.48,0 -14.02,0 -14.2,0 -7.1,0 -12.78,4.64 -12.78,10.69 0,0.36 0,30.65 0,30.66 0,2.44 2.42,4.42 5.4,4.42 2.98,0 5.39,-1.98 5.39,-4.41 z"
       id="aBUuZtHqX"
       inkscape:connector-curvature="0" />
    <path
       d="m 427.89,169.77 c -5.72,0 -10.36,3.79 -10.36,8.47 0,4.68 4.64,8.47 10.36,8.47 5.71,0 10.35,-3.79 10.35,-8.47 0,-4.68 -4.64,-8.47 -10.35,-8.47 z"
       id="geCMXzSdl"
       inkscape:connector-curvature="0" />
    <path
       d="m 342.5,230.62 c 0,-0.01 0,-26.96 0,-26.96 0,-0.25 0.26,-0.46 0.57,-0.46 0.11,0 1.02,0 1.14,0 0.31,0 0.56,0.21 0.56,0.46 0,0 0,75.62 0,75.62 0,3.15 3.12,5.7 6.96,5.7 3.84,0 6.96,-2.55 6.96,-5.7 0,0 0,-44.49 0,-44.49 0,-0.32 0.18,-0.46 0.57,-0.46 0.11,0 1.01,0 1.12,0 0.39,0 0.58,0.14 0.58,0.46 0,0 0,44.49 0,44.49 0,3.15 3.11,5.7 6.95,5.7 3.85,0 6.96,-2.55 6.96,-5.7 0,0 0,-75.62 0,-75.62 0,-0.25 0.25,-0.46 0.56,-0.46 0.12,0 1.03,0 1.15,0 0.31,0 0.56,0.21 0.56,0.46 0,0 0,26.95 0,26.96 0.01,2.43 2.42,4.41 5.4,4.41 2.98,0 5.4,-1.98 5.4,-4.42 0,-0.01 0,-30.3 0,-30.66 0,-6.05 -5.69,-10.69 -12.78,-10.69 -0.18,0 -9.73,0 -14.2,0 0,0 -0.9,0 -2.28,0 -4.47,0 -14.01,0 -14.19,0 -7.1,0 -12.78,4.64 -12.78,10.69 0,0.36 0,30.65 0,30.66 0,2.44 2.41,4.42 5.39,4.42 2.98,0 5.4,-1.98 5.4,-4.41 z"
       id="cHg2W6L5o"
       inkscape:connector-curvature="0" />
    <path
       d="m 359.82,169.77 c -5.72,0 -10.35,3.79 -10.35,8.47 0,4.68 4.63,8.47 10.35,8.47 5.72,0 10.35,-3.79 10.35,-8.47 0,-4.68 -4.63,-8.47 -10.35,-8.47 z"
       id="a2sZjiGE56"
       inkscape:connector-curvature="0" />
    <path
       d="m 280.84,230.62 c 0,-0.01 0.01,-26.96 0.01,-26.96 0,-0.25 0.25,-0.46 0.56,-0.46 0.11,0 1.03,0 1.14,0 0.31,0 0.56,0.21 0.56,0.46 0,0 0,75.62 0,75.62 0,3.15 3.12,5.7 6.96,5.7 3.84,0 6.96,-2.55 6.96,-5.7 0,0 0,-44.49 0,-44.49 0,-0.32 0.18,-0.46 0.57,-0.46 0.11,0 1.01,0 1.12,0 0.39,0 0.58,0.14 0.58,0.46 0,0 0,44.49 0,44.49 0,3.15 3.11,5.7 6.95,5.7 3.85,0 6.96,-2.55 6.96,-5.7 0,0 0,-75.62 0,-75.62 0,-0.25 0.25,-0.46 0.56,-0.46 0.12,0 1.03,0 1.15,0 0.31,0 0.56,0.21 0.56,0.46 0,0 0,26.95 0,26.96 0.01,2.43 2.42,4.41 5.4,4.41 2.98,0 5.4,-1.98 5.4,-4.42 0,-0.01 0,-30.3 0,-30.66 0,-6.05 -5.68,-10.69 -12.78,-10.69 -0.18,0 -9.73,0 -14.2,0 0,0 -0.9,0 -2.27,0 -4.48,0 -14.02,0 -14.2,0 -7.1,0 -12.78,4.64 -12.78,10.69 0,0.36 0,30.65 0,30.66 0,2.44 2.41,4.42 5.39,4.42 2.98,0 5.4,-1.98 5.4,-4.41 z"
       id="dnkh4PTxE"
       inkscape:connector-curvature="0" />
    <path
       d="m 298.16,169.77 c -5.72,0 -10.35,3.79 -10.35,8.47 0,4.68 4.63,8.47 10.35,8.47 5.72,0 10.36,-3.79 10.36,-8.47 0,-4.68 -4.64,-8.47 -10.36,-8.47 z"
       id="b5vnHN3iCb"
       inkscape:connector-curvature="0" />
    <path
       d="m 217.42,230.62 c 0,-0.01 0.01,-26.96 0.01,-26.96 0,-0.25 0.25,-0.46 0.56,-0.46 0.11,0 1.03,0 1.14,0 0.31,0 0.56,0.21 0.56,0.46 0,0 0,75.62 0,75.62 0,3.15 3.12,5.7 6.96,5.7 3.84,0 6.96,-2.55 6.96,-5.7 0,0 0,-44.49 0,-44.49 0,-0.32 0.18,-0.46 0.57,-0.46 0.11,0 1.01,0 1.12,0 0.39,0 0.58,0.14 0.58,0.46 0,0 0,44.49 0,44.49 0,3.15 3.11,5.7 6.95,5.7 3.85,0 6.96,-2.55 6.96,-5.7 0,0 0,-75.62 0,-75.62 0,-0.25 0.25,-0.46 0.56,-0.46 0.12,0 1.03,0 1.15,0 0.31,0 0.56,0.21 0.56,0.46 0,0 0,26.95 0,26.96 0.01,2.43 2.42,4.41 5.4,4.41 2.98,0 5.4,-1.98 5.4,-4.42 0,-0.01 0,-30.3 0,-30.66 0,-6.05 -5.68,-10.69 -12.78,-10.69 -0.18,0 -9.73,0 -14.2,0 0,0 -0.9,0 -2.27,0 -4.48,0 -14.02,0 -14.2,0 -7.1,0 -12.78,4.64 -12.78,10.69 0,0.36 0,30.65 0,30.66 0,2.44 2.41,4.42 5.39,4.42 2.98,0 5.4,-1.98 5.4,-4.41 z"
       id="a5JTRU6ie"
       inkscape:connector-curvature="0" />
    <path
       d="m 234.74,169.77 c -5.72,0 -10.35,3.79 -10.35,8.47 0,4.68 4.63,8.47 10.35,8.47 5.72,0 10.36,-3.79 10.36,-8.47 0,-4.68 -4.64,-8.47 -10.36,-8.47 z"
       id="b5ucGf73kn"
       inkscape:connector-curvature="0" />
    <path
       d="m 152.24,230.62 c 0,-0.01 0,-26.96 0,-26.96 0,-0.25 0.26,-0.46 0.57,-0.46 0.11,0 1.02,0 1.14,0 0.31,0 0.56,0.21 0.56,0.46 0,0 0,75.62 0,75.62 0,3.15 3.12,5.7 6.96,5.7 3.84,0 6.95,-2.55 6.95,-5.7 0,0 0,-44.49 0,-44.49 0,-0.32 0.19,-0.46 0.58,-0.46 0.11,0 1.01,0 1.12,0 0.39,0 0.58,0.14 0.58,0.46 0,0 0,44.49 0,44.49 0,3.15 3.11,5.7 6.95,5.7 3.85,0 6.96,-2.55 6.96,-5.7 0,0 0,-75.62 0,-75.62 0,-0.25 0.25,-0.46 0.56,-0.46 0.12,0 1.03,0 1.15,0 0.31,0 0.56,0.21 0.56,0.46 0,0 0,26.95 0,26.96 0.01,2.43 2.42,4.41 5.4,4.41 2.98,0 5.39,-1.98 5.39,-4.42 0,-0.01 0,-30.3 0,-30.66 0,-6.05 -5.68,-10.69 -12.77,-10.69 -0.18,0 -9.73,0 -14.2,0 0,0 -0.9,0 -2.28,0 -4.47,0 -14.01,0 -14.19,0 -7.1,0 -12.78,4.64 -12.78,10.69 0,0.36 0,30.65 0,30.66 0,2.44 2.41,4.42 5.39,4.42 2.98,0 5.4,-1.98 5.4,-4.41 z"
       id="bKhkrQDwK"
       inkscape:connector-curvature="0" />
    <path
       d="m 169.56,169.77 c -5.72,0 -10.35,3.79 -10.35,8.47 0,4.68 4.63,8.47 10.35,8.47 5.72,0 10.35,-3.79 10.35,-8.47 0,-4.68 -4.63,-8.47 -10.35,-8.47 z"
       id="a1rbhrzlb4"
       inkscape:connector-curvature="0" />
    <path
       d="m 135.23,145.14 v -6.95 h 8.83 v 6.95 z"
       id="b16jAttWq"
       inkscape:connector-curvature="0" />
    <path
       d="m 144.02,165.95 -0.12,0.58 -0.19,0.54 -0.25,0.51 -0.32,0.47 -0.37,0.43 -0.43,0.37 -0.47,0.32 -0.51,0.25 -0.54,0.19 -0.58,0.12 -0.6,0.04 -0.6,-0.04 -0.57,-0.12 -0.55,-0.19 -0.51,-0.25 -0.47,-0.32 -0.42,-0.37 -0.37,-0.43 -0.32,-0.47 -0.26,-0.51 -0.19,-0.54 -0.11,-0.58 -0.04,-0.6 V 146.4 h 8.83 v 18.95 z"
       id="afVqeFg8S"
       inkscape:connector-curvature="0" />
    <path
       d="m 135.05,136.93 -0.84,-2.53 h 10.87 l -0.84,2.53 z"
       id="h66xbPUYM"
       inkscape:connector-curvature="0" />
    <path
       d="m 155.94,147.46 0.95,1.75 0.89,1.77 0.74,1.67 0.5,1.46 0.19,1.13 -0.14,1.16 -0.38,1.07 -0.59,0.93 -0.78,0.79 -0.94,0.59 -1.06,0.38 -1.16,0.14 -1.16,-0.14 -1.06,-0.38 -0.94,-0.59 -0.78,-0.79 -0.6,-0.93 -0.38,-1.07 -0.13,-1.16 0.19,-1.13 0.5,-1.46 0.74,-1.67 0.88,-1.77 0.96,-1.75 0.94,-1.63 0.84,-1.4 0.84,1.4 z"
       id="a4t7ZHjzyl"
       inkscape:connector-curvature="0" />
    <path
       d="m 200.41,145.14 v -6.95 h 8.83 v 6.95 z"
       id="a3vo0AyT75"
       inkscape:connector-curvature="0" />
    <path
       d="m 209.2,165.95 -0.12,0.58 -0.19,0.54 -0.25,0.51 -0.32,0.47 -0.37,0.43 -0.43,0.37 -0.47,0.32 -0.51,0.25 -0.54,0.19 -0.58,0.12 -0.6,0.04 -0.6,-0.04 -0.57,-0.12 -0.55,-0.19 -0.51,-0.25 -0.47,-0.32 -0.42,-0.37 -0.37,-0.43 -0.32,-0.47 -0.26,-0.51 -0.19,-0.54 -0.11,-0.58 -0.04,-0.6 V 146.4 h 8.83 v 18.95 z"
       id="aNfnqHi41"
       inkscape:connector-curvature="0" />
    <path
       d="m 200.23,136.93 -0.84,-2.53 h 10.87 l -0.84,2.53 z"
       id="j1WsLPSNs7"
       inkscape:connector-curvature="0" />
    <path
       d="m 221.12,147.46 0.96,1.75 0.88,1.77 0.74,1.67 0.5,1.46 0.19,1.13 -0.13,1.16 -0.38,1.07 -0.6,0.93 -0.78,0.79 -0.94,0.59 -1.06,0.38 -1.16,0.14 -1.16,-0.14 -1.06,-0.38 -0.94,-0.59 -0.78,-0.79 -0.6,-0.93 -0.38,-1.07 -0.13,-1.16 0.19,-1.13 0.5,-1.46 0.74,-1.67 0.88,-1.77 0.96,-1.75 0.94,-1.63 0.84,-1.4 0.84,1.4 z"
       id="b1FA5whSEU"
       inkscape:connector-curvature="0" />
    <path
       d="m 263.87,145.14 v -6.95 h 8.84 v 6.95 z"
       id="hlpSCNO9i"
       inkscape:connector-curvature="0" />
    <path
       d="m 272.67,165.95 -0.12,0.58 -0.19,0.54 -0.25,0.51 -0.32,0.47 -0.38,0.43 -0.42,0.37 -0.47,0.32 -0.51,0.25 -0.54,0.19 -0.58,0.12 -0.6,0.04 -0.6,-0.04 -0.57,-0.12 -0.55,-0.19 -0.51,-0.25 -0.47,-0.32 -0.42,-0.37 -0.38,-0.43 -0.31,-0.47 -0.26,-0.51 -0.19,-0.54 -0.12,-0.58 -0.04,-0.6 V 146.4 h 8.84 v 18.95 z"
       id="aAzK0tWuw"
       inkscape:connector-curvature="0" />
    <path
       d="m 263.7,136.93 -0.84,-2.53 h 10.87 l -0.84,2.53 z"
       id="hnrKfbI0"
       inkscape:connector-curvature="0" />
    <path
       d="m 284.59,147.46 0.95,1.75 0.89,1.77 0.74,1.67 0.5,1.46 0.19,1.13 -0.14,1.16 -0.38,1.07 -0.59,0.93 -0.79,0.79 -0.93,0.59 -1.07,0.38 -1.15,0.14 -1.16,-0.14 -1.06,-0.38 -0.94,-0.59 -0.78,-0.79 -0.6,-0.93 -0.38,-1.07 -0.13,-1.16 0.18,-1.13 0.51,-1.46 0.73,-1.67 0.89,-1.77 0.96,-1.75 0.94,-1.63 0.84,-1.4 0.84,1.4 z"
       id="a6wQ3ClLtG"
       inkscape:connector-curvature="0" />
    <path
       d="m 325.49,145.14 v -6.95 h 8.83 v 6.95 z"
       id="b6CXZa2Bm"
       inkscape:connector-curvature="0" />
    <path
       d="m 334.28,165.95 -0.12,0.58 -0.19,0.54 -0.25,0.51 -0.32,0.47 -0.37,0.43 -0.43,0.37 -0.47,0.32 -0.51,0.25 -0.54,0.19 -0.58,0.12 -0.6,0.04 -0.6,-0.04 -0.57,-0.12 -0.55,-0.19 -0.51,-0.25 -0.47,-0.32 -0.42,-0.37 -0.37,-0.43 -0.32,-0.47 -0.26,-0.51 -0.19,-0.54 -0.11,-0.58 -0.04,-0.6 V 146.4 h 8.83 v 18.95 z"
       id="aERqDLMKx"
       inkscape:connector-curvature="0" />
    <path
       d="m 325.31,136.93 -0.84,-2.53 h 10.87 l -0.84,2.53 z"
       id="d2oFigjsLP"
       inkscape:connector-curvature="0" />
    <path
       d="m 346.2,147.46 0.96,1.75 0.88,1.77 0.74,1.67 0.5,1.46 0.19,1.13 -0.14,1.16 -0.37,1.07 -0.6,0.93 -0.78,0.79 -0.94,0.59 -1.06,0.38 -1.16,0.14 -1.16,-0.14 -1.06,-0.38 -0.94,-0.59 -0.78,-0.79 -0.6,-0.93 -0.38,-1.07 -0.13,-1.16 0.19,-1.13 0.5,-1.46 0.74,-1.67 0.88,-1.77 0.96,-1.75 0.94,-1.63 0.84,-1.4 0.84,1.4 z"
       id="e1ZQd2guwY"
       inkscape:connector-curvature="0" />
    <path
       d="m 388.95,145.14 v -6.95 h 8.84 v 6.95 z"
       id="a4zwX0Hqmu"
       inkscape:connector-curvature="0" />
    <path
       d="m 397.75,165.95 -0.12,0.58 -0.19,0.54 -0.25,0.51 -0.32,0.47 -0.38,0.43 -0.42,0.37 -0.47,0.32 -0.51,0.25 -0.55,0.19 -0.57,0.12 -0.6,0.04 -0.6,-0.04 -0.57,-0.12 -0.55,-0.19 -0.51,-0.25 -0.47,-0.32 -0.42,-0.37 -0.38,-0.43 -0.31,-0.47 -0.26,-0.51 -0.19,-0.54 -0.12,-0.58 -0.04,-0.6 V 146.4 h 8.84 v 18.95 z"
       id="cL1orQG9N"
       inkscape:connector-curvature="0" />
    <path
       d="m 388.78,136.93 -0.84,-2.53 h 10.87 l -0.85,2.53 z"
       id="gF3Y6D9rF"
       inkscape:connector-curvature="0" />
    <path
       d="m 409.67,147.46 0.95,1.75 0.89,1.77 0.74,1.67 0.5,1.46 0.19,1.13 -0.14,1.16 -0.38,1.07 -0.59,0.93 -0.79,0.79 -0.93,0.59 -1.07,0.38 -1.15,0.14 -1.16,-0.14 -1.06,-0.38 -0.94,-0.59 -0.78,-0.79 -0.6,-0.93 -0.38,-1.07 -0.13,-1.16 0.18,-1.13 0.51,-1.46 0.73,-1.67 0.89,-1.77 0.96,-1.75 0.94,-1.63 0.84,-1.4 0.84,1.4 z"
       id="c7C7VDomb8"
       inkscape:connector-curvature="0" />
  </defs>
  <g
     id="g364"
     transform="matrix(0.45576468,0,0,0.45723314,88.938659,57.005416)">
    <g
       id="g194">
      <use
         xlink:href="#bKhkrQDwK"
         id="use188"
         style="opacity:1;fill:#111111;fill-opacity:1"
         x="0"
         y="0"
         width="100%"
         height="100%" />
      <g
         id="g192">
        <use
           xlink:href="#bKhkrQDwK"
           id="use190"
           style="opacity:1;fill-opacity:0;stroke:#000000;stroke-width:1;stroke-opacity:0"
           x="0"
           y="0"
           width="100%"
           height="100%" />
      </g>
      <use
         style="opacity:1;fill:#111111;fill-opacity:1"
         id="use4866"
         xlink:href="#bKhkrQDwK"
         x="0"
         y="0"
         width="100%"
         height="100%"
         transform="translate(80.1389)" />
      <use
         transform="translate(160.27781)"
         height="100%"
         width="100%"
         y="0"
         x="0"
         xlink:href="#bKhkrQDwK"
         id="use4878"
         style="opacity:1;fill:#111111;fill-opacity:1" />
      <use
         style="opacity:1;fill:#999999;fill-opacity:1"
         id="use4914"
         xlink:href="#bKhkrQDwK"
         transform="translate(0,132.57507)"
         x="0"
         y="0"
         width="100%"
         height="100%" />
      <use
         height="100%"
         width="100%"
         y="0"
         x="0"
         transform="translate(80.1389,132.57507)"
         xlink:href="#bKhkrQDwK"
         id="use4918"
         style="opacity:1;fill:#999999;fill-opacity:1" />
      <use
         style="opacity:1;fill:#999999;fill-opacity:1"
         id="use4922"
         xlink:href="#bKhkrQDwK"
         transform="translate(160.27782,132.57507)"
         x="0"
         y="0"
         width="100%"
         height="100%" />
      <use
         height="100%"
         width="100%"
         y="0"
         x="0"
         transform="translate(-42.542231,267.69155)"
         xlink:href="#bKhkrQDwK"
         id="use4926"
         style="opacity:1;fill:#999999;fill-opacity:1" />
      <use
         style="opacity:1;fill:#999999;fill-opacity:1"
         id="use4930"
         xlink:href="#bKhkrQDwK"
         transform="translate(37.596689,267.69155)"
         x="0"
         y="0"
         width="100%"
         height="100%" />
      <use
         style="opacity:1;fill:#999999;fill-opacity:1"
         id="use964"
         xlink:href="#bKhkrQDwK"
         transform="translate(125.95186,267.69155)"
         x="0"
         y="0"
         width="100%"
         height="100%" />
      <use
         height="100%"
         width="100%"
         y="0"
         x="0"
         transform="translate(208.94661,267.69155)"
         xlink:href="#bKhkrQDwK"
         id="use966"
         style="opacity:1;fill:#999999;fill-opacity:1" />
    </g>
    <g
       id="g202">
      <use
         xlink:href="#a1rbhrzlb4"
         id="use196"
         style="opacity:1;fill:#111111;fill-opacity:1"
         x="0"
         y="0"
         width="100%"
         height="100%" />
      <g
         id="g200">
        <use
           xlink:href="#a1rbhrzlb4"
           id="use198"
           style="opacity:1;fill-opacity:0;stroke:#000000;stroke-width:1;stroke-opacity:0"
           x="0"
           y="0"
           width="100%"
           height="100%" />
      </g>
      <use
         style="opacity:1;fill:#111111;fill-opacity:1"
         id="use4868"
         xlink:href="#a1rbhrzlb4"
         x="0"
         y="0"
         width="100%"
         height="100%"
         transform="translate(80.1389)" />
      <use
         transform="translate(160.27781)"
         height="100%"
         width="100%"
         y="0"
         x="0"
         xlink:href="#a1rbhrzlb4"
         id="use4880"
         style="opacity:1;fill:#111111;fill-opacity:1" />
      <use
         style="opacity:1;fill:#999999;fill-opacity:1"
         id="use4916"
         xlink:href="#a1rbhrzlb4"
         transform="translate(0,132.57507)"
         x="0"
         y="0"
         width="100%"
         height="100%" />
      <use
         height="100%"
         width="100%"
         y="0"
         x="0"
         transform="translate(80.1389,132.57507)"
         xlink:href="#a1rbhrzlb4"
         id="use4920"
         style="opacity:1;fill:#999999;fill-opacity:1" />
      <use
         style="opacity:1;fill:#999999;fill-opacity:1"
         id="use4924"
         xlink:href="#a1rbhrzlb4"
         transform="translate(160.27782,132.57507)"
         x="0"
         y="0"
         width="100%"
         height="100%" />
      <use
         height="100%"
         width="100%"
         y="0"
         x="0"
         transform="translate(-42.542231,267.69155)"
         xlink:href="#a1rbhrzlb4"
         id="use4928"
         style="opacity:1;fill:#999999;fill-opacity:1" />
      <use
         style="opacity:1;fill:#999999;fill-opacity:1"
         id="use4932"
         xlink:href="#a1rbhrzlb4"
         transform="translate(37.596689,267.69155)"
         x="0"
         y="0"
         width="100%"
         height="100%" />
      <use
         style="opacity:1;fill:#999999;fill-opacity:1"
         id="use968"
         xlink:href="#a1rbhrzlb4"
         transform="translate(125.95186,267.69155)"
         x="0"
         y="0"
         width="100%"
         height="100%" />
      <use
         height="100%"
         width="100%"
         y="0"
         x="0"
         transform="translate(208.94661,267.69155)"
         xlink:href="#a1rbhrzlb4"
         id="use970"
         style="opacity:1;fill:#999999;fill-opacity:1" />
    </g>
  </g>
</svg>
