<?xml version="1.0" encoding="UTF-8" standalone="no"?>
<!-- Generator: Adobe Illustrator 19.0.0, SVG Export Plug-In . SVG Version: 6.00 Build 0)  -->

<svg
   xmlns:dc="http://purl.org/dc/elements/1.1/"
   xmlns:cc="http://creativecommons.org/ns#"
   xmlns:rdf="http://www.w3.org/1999/02/22-rdf-syntax-ns#"
   xmlns:svg="http://www.w3.org/2000/svg"
   xmlns="http://www.w3.org/2000/svg"
   xmlns:sodipodi="http://sodipodi.sourceforge.net/DTD/sodipodi-0.dtd"
   xmlns:inkscape="http://www.inkscape.org/namespaces/inkscape"
   version="1.1"
   id="Capa_1"
   x="0px"
   y="0px"
   viewBox="0 0 100 100"
   xml:space="preserve"
   sodipodi:docname="vitamin.svg"
   width="100"
   height="100"
   inkscape:version="0.92.2 5c3e80d, 2017-08-06"><metadata
     id="metadata43"><rdf:RDF><cc:Work
         rdf:about=""><dc:format>image/svg+xml</dc:format><dc:type
           rdf:resource="http://purl.org/dc/dcmitype/StillImage" /><dc:title></dc:title></cc:Work></rdf:RDF></metadata><defs
     id="defs41" /><sodipodi:namedview
     pagecolor="#ffffff"
     bordercolor="#666666"
     borderopacity="1"
     objecttolerance="10"
     gridtolerance="10"
     guidetolerance="10"
     inkscape:pageopacity="0"
     inkscape:pageshadow="2"
     inkscape:window-width="1444"
     inkscape:window-height="855"
     id="namedview39"
     showgrid="false"
     inkscape:showpageshadow="false"
     inkscape:zoom="3.21"
     inkscape:cx="90.918496"
     inkscape:cy="55.32981"
     inkscape:window-x="0"
     inkscape:window-y="0"
     inkscape:window-maximized="0"
     inkscape:current-layer="Capa_1" /><g
     id="g6"
     style="opacity:0.12999998;fill:#000000"
     transform="matrix(0.41666667,0,0,0.33670034,-13.875,0)"><path
       d="M 214.5,65.75 C 214.5,29.437 185.063,0 148.75,0 h -0.5 C 111.937,0 82.5,29.437 82.5,65.75 v 165.5 c 0,36.313 29.437,65.75 65.75,65.75 h 0.5 c 36.313,0 65.75,-29.437 65.75,-65.75 z m -100,0 C 114.5,47.141 129.974,32 148.583,32 h 0.25 c 4.418,0 8,3.582 8,8 0,4.418 -3.582,8 -8,8 h -0.25 C 138.796,48 130.5,55.963 130.5,65.75 V 108 c 0,4.418 -3.582,8 -8,8 -4.418,0 -8,-3.582 -8,-8 z M 149.083,281 h -0.5 C 121.15,281 98.5,258.683 98.5,231.25 V 157 h 100 v 74.25 c 0,27.433 -21.984,49.75 -49.417,49.75 z"
       id="path2"
       style="fill:#000000"
       inkscape:connector-curvature="0" /><polygon
       points="156.338,249 175.857,188 161.219,188 149.268,232.007 148.854,234 148.605,234 148.191,231.843 136.406,188 121.809,188 141.244,249 "
       id="polygon4"
       style="fill:#000000" /></g><g
     id="g8"
     style="opacity:0.12999998;fill:#000000"
     transform="matrix(0.41666667,0,0,0.33670034,-13.875,0)" /><g
     id="g10"
     style="opacity:0.12999998;fill:#000000"
     transform="matrix(0.41666667,0,0,0.33670034,-13.875,0)" /><g
     id="g12"
     style="opacity:0.12999998;fill:#000000"
     transform="matrix(0.41666667,0,0,0.33670034,-13.875,0)" /><g
     id="g14"
     style="opacity:0.12999998;fill:#000000"
     transform="matrix(0.41666667,0,0,0.33670034,-13.875,0)" /><g
     id="g16"
     style="opacity:0.12999998;fill:#000000"
     transform="matrix(0.41666667,0,0,0.33670034,-13.875,0)" /><g
     id="g18"
     style="opacity:0.12999998;fill:#000000"
     transform="matrix(0.41666667,0,0,0.33670034,-13.875,0)" /><g
     id="g20"
     style="opacity:0.12999998;fill:#000000"
     transform="matrix(0.41666667,0,0,0.33670034,-13.875,0)" /><g
     id="g22"
     style="opacity:0.12999998;fill:#000000"
     transform="matrix(0.41666667,0,0,0.33670034,-13.875,0)" /><g
     id="g24"
     style="opacity:0.12999998;fill:#000000"
     transform="matrix(0.41666667,0,0,0.33670034,-13.875,0)" /><g
     id="g26"
     style="opacity:0.12999998;fill:#000000"
     transform="matrix(0.41666667,0,0,0.33670034,-13.875,0)" /><g
     id="g28"
     style="opacity:0.12999998;fill:#000000"
     transform="matrix(0.41666667,0,0,0.33670034,-13.875,0)" /><g
     id="g30"
     style="opacity:0.12999998;fill:#000000"
     transform="matrix(0.41666667,0,0,0.33670034,-13.875,0)" /><g
     id="g32"
     style="opacity:0.12999998;fill:#000000"
     transform="matrix(0.41666667,0,0,0.33670034,-13.875,0)" /><g
     id="g34"
     style="opacity:0.12999998;fill:#000000"
     transform="matrix(0.41666667,0,0,0.33670034,-13.875,0)" /><g
     id="g36"
     style="opacity:0.12999998;fill:#000000"
     transform="matrix(0.41666667,0,0,0.33670034,-13.875,0)" /></svg>
