<?xml version="1.0" encoding="UTF-8" standalone="no"?>
<!-- Generator: Adobe Illustrator 21.0.0, SVG Export Plug-In . SVG Version: 6.00 Build 0)  -->

<svg
   xmlns:dc="http://purl.org/dc/elements/1.1/"
   xmlns:cc="http://creativecommons.org/ns#"
   xmlns:rdf="http://www.w3.org/1999/02/22-rdf-syntax-ns#"
   xmlns:svg="http://www.w3.org/2000/svg"
   xmlns="http://www.w3.org/2000/svg"
   xmlns:sodipodi="http://sodipodi.sourceforge.net/DTD/sodipodi-0.dtd"
   xmlns:inkscape="http://www.inkscape.org/namespaces/inkscape"
   version="1.1"
   id="Capa_1"
   x="0px"
   y="0px"
   viewBox="0 0 49.999999 50"
   xml:space="preserve"
   width="50"
   height="50"
   sodipodi:docname="water.svg"
   inkscape:version="0.92.2 5c3e80d, 2017-08-06"><metadata
     id="metadata17"><rdf:RDF><cc:Work
         rdf:about=""><dc:format>image/svg+xml</dc:format><dc:type
           rdf:resource="http://purl.org/dc/dcmitype/StillImage" /><dc:title></dc:title></cc:Work></rdf:RDF></metadata><defs
     id="defs15" /><sodipodi:namedview
     pagecolor="#ffffff"
     bordercolor="#666666"
     borderopacity="1"
     objecttolerance="10"
     gridtolerance="10"
     guidetolerance="10"
     inkscape:pageopacity="0"
     inkscape:pageshadow="2"
     inkscape:window-width="1443"
     inkscape:window-height="857"
     id="namedview13"
     showgrid="false"
     inkscape:showpageshadow="false"
     fit-margin-top="0"
     fit-margin-left="0"
     fit-margin-right="0"
     fit-margin-bottom="0"
     inkscape:zoom="4.5537677"
     inkscape:cx="26.730929"
     inkscape:cy="22.361818"
     inkscape:window-x="0"
     inkscape:window-y="0"
     inkscape:window-maximized="0"
     inkscape:current-layer="Capa_1" /><g
     id="g10"
     style="fill:#385fa0;fill-opacity:1"
     transform="matrix(0.09765644,0,0,0.09765644,0.43281126,0)"><path
       d="m 360.5,0 h -195 c -8.284,0 -15,6.716 -15,15 0,8.284 6.716,15 15,15 h 5 v 56 h -65 c -19.299,0 -35,15.701 -35,35 v 37 h 290 v -37 c 0,-19.299 -15.701,-35 -35,-35 h -65 V 30 h 100 c 28.121,0 51,22.878 51,51 v 26 c 0,28.122 -22.879,51 -51,51 v 30 c 44.663,0 81,-36.336 81,-81 V 81 c 0,-44.664 -36.337,-81 -81,-81 z"
       id="path2"
       style="fill:#385fa0;fill-opacity:1"
       inkscape:connector-curvature="0" /><g
       id="g8"
       style="fill:#385fa0;fill-opacity:1"><path
         d="m 345.426,353.073 c 8.469,0 15.074,-6.802 15.074,-15 v -70.729 c -9.572,1.833 -37.412,39.861 -78.069,6.211 -9.825,-8.13 -17.268,-9.882 -29.209,0 -21.715,17.972 -45.216,18.409 -67.459,0 -9.803,-8.112 -17.241,-9.9 -29.204,0 -21.716,17.973 -45.214,18.409 -67.457,0 C 77.93,264.31 77.02,268.246 70.5,266.443 v 71.629 c 0,8.155 6.562,15 15.074,15 8.236,0 14.926,6.662 14.926,14.927 v 5.073 c 0,8.231 -6.696,14.927 -15,14.927 -8.284,0 -15,6.716 -15,15 v 94 c 0,8.284 6.716,15 15,15 h 260 c 8.284,0 15,-6.716 15,-15 v -94 c 0,-8.284 -6.789,-15 -15.073,-15 -8.23,0 -14.927,-6.696 -14.927,-14.927 V 368 c 0,-8.236 6.661,-14.927 14.926,-14.927 z"
         id="path4"
         style="fill:#385fa0;fill-opacity:1"
         inkscape:connector-curvature="0" /><path
         d="m 108.229,250.444 c 9.803,8.112 17.24,9.9 29.203,0 21.716,-17.973 45.214,-18.409 67.458,0 9.831,8.136 17.266,9.881 29.205,0 21.714,-17.971 45.218,-18.41 67.461,0 24.584,20.342 26.5,-10.943 58.944,-13.286 V 188 h -290 v 49.556 c 6.173,-1.706 20.803,-1.12 37.729,12.888 z"
         id="path6"
         style="fill:#385fa0;fill-opacity:1"
         inkscape:connector-curvature="0" /></g></g></svg>
