<?xml version="1.0" encoding="UTF-8" standalone="no"?>
<svg
   xmlns:dc="http://purl.org/dc/elements/1.1/"
   xmlns:cc="http://creativecommons.org/ns#"
   xmlns:rdf="http://www.w3.org/1999/02/22-rdf-syntax-ns#"
   xmlns:svg="http://www.w3.org/2000/svg"
   xmlns="http://www.w3.org/2000/svg"
   xmlns:sodipodi="http://sodipodi.sourceforge.net/DTD/sodipodi-0.dtd"
   xmlns:inkscape="http://www.inkscape.org/namespaces/inkscape"
   height="37.5pt"
   viewBox="0 -119 37.579358 37.499998"
   width="37.5pt"
   version="1.1"
   id="svg6"
   sodipodi:docname="white-bread.svg"
   inkscape:version="0.92.2 5c3e80d, 2017-08-06">
  <metadata
     id="metadata12">
    <rdf:RDF>
      <cc:Work
         rdf:about="">
        <dc:format>image/svg+xml</dc:format>
        <dc:type
           rdf:resource="http://purl.org/dc/dcmitype/StillImage" />
        <dc:title></dc:title>
      </cc:Work>
    </rdf:RDF>
  </metadata>
  <defs
     id="defs10" />
  <sodipodi:namedview
     pagecolor="#ffffff"
     bordercolor="#666666"
     borderopacity="1"
     objecttolerance="10"
     gridtolerance="10"
     guidetolerance="10"
     inkscape:pageopacity="0"
     inkscape:pageshadow="2"
     inkscape:window-width="1440"
     inkscape:window-height="853"
     id="namedview8"
     showgrid="false"
     inkscape:showpageshadow="false"
     fit-margin-top="0"
     fit-margin-left="0"
     fit-margin-right="0"
     fit-margin-bottom="0"
     inkscape:zoom="5.4857143"
     inkscape:cx="26.387075"
     inkscape:cy="25.511077"
     inkscape:window-x="0"
     inkscape:window-y="0"
     inkscape:window-maximized="0"
     inkscape:current-layer="svg6" />
  <path
     d="m 20.124952,-107.75178 c -0.131737,-1.822 -1.366199,-3.20312 -2.82219,-3.15785 H 2.8234694 c -1.4546795,-0.0432 -2.68717603,1.33749 -2.81858611,3.15785 -0.07995971,1.67671 0.83007522,3.17351 2.13892771,3.51848 0.312302,0.0799 0.5367794,0.42525 0.5367794,0.82621 v 12.731502 c 0,0.931181 0.6010103,1.68617 1.3422773,1.68617 H 16.103363 c 0.741267,0 1.342276,-0.754989 1.342276,-1.68617 v -12.730682 c 0,-0.40054 0.22448,-0.74634 0.536781,-0.8262 1.310164,-0.34293 2.222165,-1.84097 2.142532,-3.51931 z m 0,0"
     id="path2"
     inkscape:connector-curvature="0"
     style="fill:#8c8c8c;fill-opacity:1;stroke-width:0.09402685" />
  <path
     d="M 34.752367,-110.90963 H 20.412021 c 0.622966,0.83321 0.99491,1.9134 1.052258,3.05453 0.104539,2.25344 -0.985078,4.3245 -2.676361,5.08691 v 12.092602 c -0.0026,0.59362 -0.131738,1.17571 -0.373254,1.68617 h 15.138305 c 0.741268,0 1.342278,-0.754989 1.342278,-1.68617 V -102.47879 H 22.143611 v -1.68617 h 13.150454 c 0.0439,-0.0296 0.09045,-0.0523 0.138618,-0.0683 1.309835,-0.34332 2.221181,-1.84054 2.141876,-3.51848 -0.131738,-1.82199 -1.366199,-3.20313 -2.822192,-3.15784 z m -3.212814,10.960104 h 1.342278 v 1.686174 h -1.342278 z m -3.355692,5.058531 h 1.342275 v 1.68618 h -1.342275 z m -4.026834,-5.058531 h 1.342278 v 1.686174 h -1.342278 z m -1.342277,6.744711 v 1.686134 h -1.342277 v -1.686134 z m 3.355694,-14.332485 h -1.342278 v -1.68617 h 1.342278 z m 6.711387,1.68617 h -1.342278 v -1.68617 h 1.342278 z m 0,0"
     id="path4"
     inkscape:connector-curvature="0"
     style="fill:#8c8c8c;fill-opacity:1;stroke-width:0.09402685" />
</svg>
