<svg width="164" height="164" viewBox="0 0 164 164" fill="none" xmlns="http://www.w3.org/2000/svg">
<path d="M135.389 65.1973L124.207 54.0164L124.575 52.4693L136.803 48.852C137.731 48.5776 138.37 47.7237 138.37 46.755C138.37 45.7863 137.731 44.9324 136.803 44.658L124.575 41.0407L121.91 29.8488C121.675 28.8631 120.796 28.1683 119.783 28.1683C118.771 28.1683 117.891 28.8631 117.656 29.8488L114.993 41.0407L112.091 41.8995L94.6256 24.4368C91.397 21.2071 87.1024 19.4282 82.5372 19.4282C77.9698 19.4282 73.6774 21.2071 70.4487 24.4368L29.686 65.1973C23.0194 71.8629 23.0194 82.7109 29.686 89.3764L31.7273 91.4177L29.3268 99.9369C28.0668 106.571 20.3604 117.977 20.2833 118.091C19.694 118.959 19.8028 120.124 20.5457 120.866L44.7915 145.112C45.2141 145.534 45.7739 145.753 46.3375 145.753C46.7475 145.753 47.1618 145.637 47.5248 145.401L60.553 136.968C63.8986 134.802 67.1015 132.411 70.1683 129.858L70.4482 130.137C73.6768 133.367 77.9692 135.144 82.5366 135.144C87.1024 135.144 91.3965 133.367 94.6251 130.137L135.388 89.3764C142.053 82.7098 142.053 71.8639 135.389 65.1973ZM117.447 44.8756C118.198 44.6536 118.773 44.0468 118.954 43.2848L119.783 39.8008L120.614 43.2848C120.796 44.0474 121.37 44.6536 122.122 44.8756L128.475 46.755L122.122 48.6344C121.37 48.8564 120.796 49.4632 120.614 50.2252L119.783 53.7091L118.954 50.2252C118.773 49.4626 118.198 48.8564 117.447 48.6344L111.094 46.755L117.447 44.8756ZM58.1761 133.298L46.6343 140.77L24.8977 119.033C27.1484 115.537 32.4702 106.815 33.5805 100.938L42.9039 67.8459C43.269 65.9282 44.9708 64.6108 46.9525 64.8054C47.9627 64.9016 48.8724 65.3881 49.5131 66.1764C50.1302 66.9347 50.4227 67.8804 50.3418 68.8502L45.9942 87.691C45.7766 88.6422 46.2117 89.6224 47.0662 90.0953C47.9141 90.5682 48.9795 90.42 49.6716 89.729L81.0645 58.3372C82.2879 57.1149 84.4084 57.1187 85.628 58.3372C86.2365 58.9468 86.5738 59.7575 86.5738 60.619C86.5738 61.4817 86.2365 62.2924 85.628 62.9019C85.628 62.9019 85.628 62.9024 85.6275 62.9024L62.5314 85.9996C61.6775 86.8535 61.6775 88.2377 62.5314 89.0916C63.3853 89.9455 64.7694 89.9455 65.6233 89.0916L95.1007 59.6131C96.3607 58.3553 98.4064 58.3553 99.6664 59.6131C100.275 60.2227 100.611 61.0334 100.611 61.896C100.611 62.7576 100.275 63.5683 99.6664 64.1778L91.9617 71.882C91.9606 71.8831 91.959 71.8842 91.9573 71.8853L70.1869 93.6557C69.333 94.5096 69.333 95.8938 70.1869 96.7477C70.6138 97.1746 71.1736 97.3884 71.7329 97.3884C72.2921 97.3884 72.8519 97.1746 73.2788 96.7477L95.052 74.9756C96.3378 73.692 98.4288 73.6925 99.7178 74.9772C101.004 76.2641 101.004 78.3589 99.7178 79.6452L93.4399 85.9231L76.7731 102.589C75.9192 103.443 75.9192 104.827 76.7731 105.681C77.627 106.535 79.0112 106.535 79.8651 105.681L81.0366 104.509C81.0377 104.508 81.0388 104.508 81.0393 104.507L96.5319 89.0145C97.7214 87.8239 99.7993 87.8206 100.993 89.0156C101.589 89.6104 101.917 90.4025 101.917 91.2449C101.917 92.0873 101.588 92.8794 100.993 93.4753L73.8299 120.639C69.0799 125.388 63.8139 129.647 58.1761 133.298ZM132.296 86.2845L91.5337 127.045C89.1294 129.448 85.9347 130.771 82.5372 130.771C79.1375 130.771 75.9433 129.448 73.5407 127.044L73.4866 126.99C74.6548 125.928 75.8061 124.847 76.9213 123.732L104.084 96.5684C105.506 95.1459 106.29 93.2561 106.29 91.246C106.29 89.2343 105.506 87.3444 104.084 85.9248C103.295 85.1343 102.336 84.5865 101.312 84.235L102.809 82.7377C105.801 79.7458 105.801 74.8772 102.809 71.8842C101.97 71.0467 100.977 70.4688 99.9267 70.1009L102.758 67.2698C104.193 65.8348 104.983 63.9258 104.983 61.896C104.983 59.8652 104.193 57.9562 102.758 56.5201C99.7873 53.555 94.97 53.5604 92.0082 56.5212L90.4748 58.0546C90.1085 57.0301 89.5389 56.0636 88.72 55.2453C85.8522 52.3742 80.8447 52.3698 77.9725 55.2453L51.972 81.2458L54.637 69.6964C54.6561 69.6133 54.6692 69.5297 54.6796 69.4466C54.9207 67.2632 54.2931 65.1225 52.9073 63.4174C51.5215 61.7134 49.5546 60.6595 47.3679 60.4512C43.1482 60.0538 39.3964 62.8789 38.6513 66.8445L33.0879 86.5928L32.779 86.2839C27.8186 81.3224 27.8186 73.2503 32.779 68.2887L73.5418 27.5282C75.9444 25.125 79.1386 23.801 82.5383 23.801C85.9358 23.801 89.1305 25.125 91.5348 27.5282L107.319 43.3104L102.765 44.6574C101.836 44.9319 101.198 45.7858 101.198 46.7544C101.198 47.7231 101.836 48.577 102.765 48.8515L114.994 52.4688L117.657 63.6607C117.892 64.6463 118.772 65.3411 119.784 65.3411C120.797 65.3411 121.676 64.6463 121.911 63.6607L123.018 59.0107L132.298 68.2893C137.255 73.2508 137.255 81.3229 132.296 86.2845Z" fill="#19419A"/>
<path d="M32.2438 26.9937C33.4525 26.9937 34.4305 26.0147 34.4305 24.8071V20.4337C34.4305 19.2261 33.4525 18.2471 32.2438 18.2471C31.0351 18.2471 30.0571 19.2261 30.0571 20.4337V24.8071C30.0571 26.0147 31.0351 26.9937 32.2438 26.9937Z" fill="#33B6FF"/>
<path d="M32.2438 31.3672C31.0351 31.3672 30.0571 32.3463 30.0571 33.5539V37.9272C30.0571 39.1348 31.0351 40.1138 32.2438 40.1138C33.4525 40.1138 34.4305 39.1348 34.4305 37.9272V33.5539C34.4305 32.3463 33.4525 31.3672 32.2438 31.3672Z" fill="#33B6FF"/>
<path d="M23.4972 31.367H27.8705C29.0792 31.367 30.0572 30.3879 30.0572 29.1803C30.0572 27.9727 29.0792 26.9937 27.8705 26.9937H23.4972C22.2885 26.9937 21.3105 27.9727 21.3105 29.1803C21.3105 30.3879 22.2885 31.367 23.4972 31.367Z" fill="#33B6FF"/>
<path d="M36.6173 31.367H40.9907C42.1994 31.367 43.1773 30.3879 43.1773 29.1803C43.1773 27.9727 42.1994 26.9937 40.9907 26.9937H36.6173C35.4087 26.9937 34.4307 27.9727 34.4307 29.1803C34.4307 30.3879 35.4087 31.367 36.6173 31.367Z" fill="#33B6FF"/>
<path d="M125.177 125.394C120.958 125.394 117.524 128.827 117.524 133.047C117.524 137.267 120.958 140.7 125.177 140.7C129.397 140.7 132.831 137.267 132.831 133.047C132.831 128.827 129.397 125.394 125.177 125.394ZM125.177 136.327C123.368 136.327 121.897 134.856 121.897 133.047C121.897 131.238 123.368 129.767 125.177 129.767C126.986 129.767 128.457 131.238 128.457 133.047C128.457 134.856 126.986 136.327 125.177 136.327Z" fill="#33B6FF"/>
<path d="M141.756 111.243C140.465 111.243 139.419 112.29 139.419 113.581C139.419 114.872 140.465 115.919 141.756 115.919C143.048 115.919 144.094 114.872 144.094 113.581C144.095 112.289 143.048 111.243 141.756 111.243Z" fill="#33B6FF"/>
</svg>
