<svg width="164" height="164" viewBox="0 0 164 164" fill="none" xmlns="http://www.w3.org/2000/svg">
<path d="M44.2352 151.219H7.6875C6.27812 151.219 5.125 150.066 5.125 148.657C5.125 147.248 6.27812 146.094 7.6875 146.094H30.0133C32.2555 148.337 35.1703 149.81 38.2773 150.291L44.2352 151.219Z" fill="#33B6FF"/>
<path d="M158.875 148.657C158.875 150.066 157.722 151.219 156.313 151.219H119.765L125.691 150.291C128.83 149.81 131.713 148.337 133.955 146.094H156.313C157.722 146.094 158.875 147.248 158.875 148.657Z" fill="#33B6FF"/>
<path d="M82 84.5625C75.9141 84.5625 70.6609 80.2703 69.4438 74.3125H64.0625V86.5805C65.2477 89.2711 66.2727 92.0258 67.1375 94.8125H96.8625C97.7273 91.9937 98.7523 89.2711 99.9375 86.5805V74.3125H94.5563C93.3391 80.2703 88.0859 84.5625 82 84.5625Z" fill="#19419A"/>
<path d="M89.2392 74.3125C88.3423 76.8109 86.1962 78.7328 83.5376 79.2773C79.7259 80.0781 75.9782 77.9 74.729 74.3125H89.2392Z" fill="#33B6FF"/>
<path d="M71.75 61.5C71.75 65.7281 75.2094 69.1875 79.4375 69.1875H84.5625C88.7906 69.1875 92.25 65.7281 92.25 61.5V60.6671L82 56.5671L71.75 60.6671V61.5Z" fill="#33B6FF"/>
<path d="M66.753 123H97.2468L98.5921 122.872C97.0226 118.772 94.8124 112.045 94.8124 106.344C94.8444 104.198 95.1007 102.052 95.5491 99.9375H68.4507C68.8991 102.052 69.1554 104.198 69.1874 106.344C69.1874 112.045 66.9772 118.772 65.4077 122.872L66.753 123Z" fill="#33B6FF"/>
<path d="M82.9612 51.4422L92.2503 55.1578V53.8125C92.2503 49.5844 89.5597 46.125 86.2604 46.125H77.7081C74.4089 46.125 71.7183 49.5844 71.7183 53.8125V55.1578L81.0073 51.4422C81.648 51.1859 82.3526 51.1859 82.9612 51.4422Z" fill="#33B6FF"/>
<path d="M84.6266 143.628L79.4375 145.358V151.188H102.852L100.898 148.273L84.6266 143.628Z" fill="#33B6FF"/>
<path d="M133.25 135.428C133.25 130.015 128.894 125.627 123.48 125.562L97.599 128.125C97.5029 128.125 97.4389 128.125 97.3428 128.125H66.5928C66.4967 128.125 66.4326 128.125 66.3365 128.125L40.4553 125.562C35.01 125.627 30.6217 130.111 30.6858 135.556C30.7498 140.361 34.2733 144.429 39.0139 145.198L74.2483 150.771V145.198L52.7233 135.62C51.442 135.044 50.8334 133.538 51.41 132.225C51.9865 130.912 53.492 130.335 54.8053 130.912L76.9709 140.745L83.7295 138.503C84.21 138.343 84.7545 138.343 85.235 138.471L89.399 139.656L109.098 130.912C110.38 130.335 111.917 130.912 112.494 132.225C113.07 133.538 112.494 135.044 111.18 135.62L97.0865 141.898L103.172 143.628C103.749 143.788 104.262 144.173 104.614 144.685L106.888 148.08L124.922 145.23C129.726 144.461 133.282 140.297 133.25 135.428Z" fill="#19419A"/>
<path d="M76.875 41V41.032C77.1633 41 77.4516 41 77.7398 41H86.2922C86.5805 41 86.8688 41.032 87.157 41.032V41C87.157 38.1812 84.8508 35.875 82.032 35.875C79.1813 35.875 76.875 38.1812 76.875 41Z" fill="#33B6FF"/>
<path d="M79.4372 26.9703V12.8125H78.6044L74.12 24.0234C73.9599 24.4078 73.7036 24.7602 73.3833 25.0484L44.9716 47.5984C44.1388 48.2711 43.7864 49.3922 44.1388 50.4172L53.8122 79.0531C54.613 81.4875 56.5029 83.3773 58.9372 84.1781V74.3125L51.7943 52.8836C51.4739 51.8906 51.7622 50.8016 52.563 50.1289L79.4372 26.9703Z" fill="#19419A"/>
<path d="M84.5625 26.9703V12.8125H85.3953L89.8797 24.0234C90.0398 24.4078 90.2961 24.7602 90.6164 25.0484L119.028 47.5984C119.861 48.2711 120.213 49.3922 119.861 50.4172L110.188 79.0211C109.387 81.4555 107.497 83.3453 105.063 84.1461V74.3125L112.205 52.8836C112.526 51.8906 112.238 50.8016 111.437 50.1289L84.5625 26.9703Z" fill="#19419A"/>
</svg>
